<svg xmlns="http://www.w3.org/2000/svg" width="250" height="235.305" viewBox="0 0 250 235.305">
  <g id="Beach" transform="translate(-125.235 -143.426)">
    <g id="freepik--Floor--inject-236">
      <g id="freepik--Palm--inject-236">
        <path id="Tracé_846" data-name="Tracé 846" d="M342.185,263.264h4.825a165.9,165.9,0,0,1-1.55-27.2c.243-13.307,3.513-25.017,11.763-33.7l-1.121-.16c-1.323.945-5.094,4.024-9.185,12.181-2.547,5.067-6.55,16.71-4.985,45.121Q342.061,261.555,342.185,263.264Z" fill="#ebebeb"/>
        <path id="Tracé_847" data-name="Tracé 847" d="M356.592,201.949c.842-.625.46-.61,1.633-1.3,1.771-1.033,4.726-1.116,7.2-.408,4.35,1.255,8.317,3.967,9.815,8.368a8.664,8.664,0,0,0-6.111-2.36c-.516-.977-1.033-1.948-1.606-2.9-.073.924-.124,1.844-.15,2.769a8.618,8.618,0,0,1-3.048-.744,35.279,35.279,0,0,0-1.808-3.5c.181,1,.351,1.988.517,2.985A25.554,25.554,0,0,1,356.592,201.949Z" fill="#ebebeb"/>
        <g id="Groupe_16" data-name="Groupe 16" opacity="0.15">
          <path id="Tracé_848" data-name="Tracé 848" d="M356.592,201.949c.842-.625.46-.61,1.633-1.3,1.771-1.033,4.726-1.116,7.2-.408,4.35,1.255,8.317,3.967,9.815,8.368a8.664,8.664,0,0,0-6.111-2.36c-.516-.977-1.033-1.948-1.606-2.9-.073.924-.124,1.844-.15,2.769a8.618,8.618,0,0,1-3.048-.744,35.279,35.279,0,0,0-1.808-3.5c.181,1,.351,1.988.517,2.985A25.554,25.554,0,0,1,356.592,201.949Z" fill="#ebebeb"/>
        </g>
        <path id="Tracé_849" data-name="Tracé 849" d="M357.207,202.357s.553-1.333-1.147-3.828a14.539,14.539,0,0,0-9.267-5.9c-2.293-.341-5.729-.119-7.578,1.188a10.978,10.978,0,0,1,5.378,1.725,12.761,12.761,0,0,1,4.571-.713,16.767,16.767,0,0,0-3.151,1.612,7.807,7.807,0,0,0,3.642,2.325s2.035-1.679,3.967-1.354a4.871,4.871,0,0,0-2.887,1.953A35.019,35.019,0,0,0,357.207,202.357Z" fill="#ebebeb"/>
        <path id="Tracé_850" data-name="Tracé 850" d="M357.207,202.357s.553-1.333-1.147-3.828a14.539,14.539,0,0,0-9.267-5.9c-2.293-.341-5.729-.119-7.578,1.188a10.978,10.978,0,0,1,5.378,1.725,12.761,12.761,0,0,1,4.571-.713,16.767,16.767,0,0,0-3.151,1.612,7.807,7.807,0,0,0,3.642,2.325s2.035-1.679,3.967-1.354a4.871,4.871,0,0,0-2.887,1.953A35.019,35.019,0,0,0,357.207,202.357Z" fill="#ebebeb" opacity="0.2" style="mix-blend-mode: normal;isolation: isolate"/>
        <path id="Tracé_851" data-name="Tracé 851" d="M357.207,202.357a13.358,13.358,0,0,0-7.748-2.614c-6.127-.093-9.97,2.319-11.6,4.716a8.133,8.133,0,0,1,6.715-.165l2.536-2.2-.625,2.738a7.9,7.9,0,0,0,3.311.134l2.625-3.032-1.106,2.831S355.006,204.413,357.207,202.357Z" fill="#ebebeb"/>
        <path id="Tracé_852" data-name="Tracé 852" d="M357.207,202.357a13.358,13.358,0,0,0-7.748-2.614c-6.127-.093-9.97,2.319-11.6,4.716a8.133,8.133,0,0,1,6.715-.165l2.536-2.2-.625,2.738a7.9,7.9,0,0,0,3.311.134l2.625-3.032-1.106,2.831S355.006,204.413,357.207,202.357Z" fill="#ebebeb" opacity="0.05" style="mix-blend-mode: normal;isolation: isolate"/>
        <path id="Tracé_853" data-name="Tracé 853" d="M357.207,202.357s1.121-.2,3.151,1.033c3.446,2.066,5.765,6.633,6.2,8.874s.361,5.636-.847,7.511a10.812,10.812,0,0,0-1.927-5.227,12.483,12.483,0,0,0,.516-4.525,15.488,15.488,0,0,1-1.456,3.166A7.634,7.634,0,0,1,360.4,209.7s1.549-2.066,1.162-3.962a4.775,4.775,0,0,1-1.8,2.924S358.462,205.678,357.207,202.357Z" fill="#ebebeb"/>
        <path id="Tracé_854" data-name="Tracé 854" d="M357.207,202.357s1.121-.2,3.151,1.033c3.446,2.066,5.765,6.633,6.2,8.874s.361,5.636-.847,7.511a10.812,10.812,0,0,0-1.927-5.227,12.483,12.483,0,0,0,.516-4.525,15.488,15.488,0,0,1-1.456,3.166A7.634,7.634,0,0,1,360.4,209.7s1.549-2.066,1.162-3.962a4.775,4.775,0,0,1-1.8,2.924S358.462,205.678,357.207,202.357Z" fill="#ebebeb" opacity="0.05" style="mix-blend-mode: normal;isolation: isolate"/>
        <path id="Tracé_855" data-name="Tracé 855" d="M350.275,218.53a9.216,9.216,0,0,0,1.88-3.672c.119-.558.212-1.152.289-1.772,2.222-1.085,2.583-2.495,2.583-2.495a3.707,3.707,0,0,1-2.474,1.224,16.131,16.131,0,0,1,.646-3.833,4.56,4.56,0,0,0,2.4-1.322,4.4,4.4,0,0,1-2.206.341c.847-2.418,2.583-4.236,3.786-4.649,0,0,1.224,1.11.791,5.832C357.558,213.065,354.345,217.4,350.275,218.53Z" fill="#ebebeb"/>
      </g>
      <g id="freepik--palm--inject-236-2" data-name="freepik--palm--inject-236">
        <path id="Tracé_856" data-name="Tracé 856" d="M160.356,283.767h-4.83a165.8,165.8,0,0,0,1.55-27.2c-.238-13.3-3.513-25.012-11.762-33.7l1.126-.16c1.322.946,5.088,4.024,9.179,12.181,2.547,5.067,6.55,16.711,4.985,45.127Q160.475,282.057,160.356,283.767Z" fill="#ebebeb"/>
        <path id="Tracé_857" data-name="Tracé 857" d="M145.949,222.456c-.847-.63-.465-.615-1.632-1.3-1.777-1.033-4.732-1.115-7.2-.4-4.35,1.25-8.317,3.967-9.815,8.363a8.668,8.668,0,0,1,6.116-2.361c.517-.976,1.033-1.942,1.607-2.9.067.925.119,1.844.15,2.769a8.565,8.565,0,0,0,3.042-.744,34.589,34.589,0,0,1,1.813-3.5c-.18,1-.356,1.989-.516,2.986A25.689,25.689,0,0,0,145.949,222.456Z" fill="#ebebeb"/>
        <g id="Groupe_17" data-name="Groupe 17" opacity="0.15">
          <path id="Tracé_858" data-name="Tracé 858" d="M145.949,222.456c-.847-.63-.465-.615-1.632-1.3-1.777-1.033-4.732-1.115-7.2-.4-4.35,1.25-8.317,3.967-9.815,8.363a8.668,8.668,0,0,1,6.116-2.361c.517-.976,1.033-1.942,1.607-2.9.067.925.119,1.844.15,2.769a8.565,8.565,0,0,0,3.042-.744,34.589,34.589,0,0,1,1.813-3.5c-.18,1-.356,1.989-.516,2.986A25.689,25.689,0,0,0,145.949,222.456Z" fill="#ebebeb"/>
        </g>
        <path id="Tracé_859" data-name="Tracé 859" d="M145.334,222.864s-.557-1.338,1.142-3.833a14.542,14.542,0,0,1,9.267-5.9c2.294-.341,5.729-.119,7.578,1.188a10.975,10.975,0,0,0-5.377,1.725,12.76,12.76,0,0,0-4.567-.712,16.8,16.8,0,0,1,3.146,1.611,7.74,7.74,0,0,1-3.616,2.325s-2.035-1.679-3.972-1.354a4.871,4.871,0,0,1,2.887,1.953A35.278,35.278,0,0,1,145.334,222.864Z" fill="#ebebeb"/>
        <path id="Tracé_860" data-name="Tracé 860" d="M145.334,222.864s-.557-1.338,1.142-3.833a14.542,14.542,0,0,1,9.267-5.9c2.294-.341,5.729-.119,7.578,1.188a10.975,10.975,0,0,0-5.377,1.725,12.76,12.76,0,0,0-4.567-.712,16.8,16.8,0,0,1,3.146,1.611,7.74,7.74,0,0,1-3.616,2.325s-2.035-1.679-3.972-1.354a4.871,4.871,0,0,1,2.887,1.953A35.278,35.278,0,0,1,145.334,222.864Z" fill="#ebebeb" opacity="0.2" style="mix-blend-mode: normal;isolation: isolate"/>
        <path id="Tracé_861" data-name="Tracé 861" d="M145.334,222.864a13.324,13.324,0,0,1,7.749-2.619c6.126-.093,9.969,2.32,11.6,4.717a8.131,8.131,0,0,0-6.716-.166l-2.536-2.2.63,2.737a8.01,8.01,0,0,1-3.316.14l-2.624-3.032,1.1,2.83S147.53,224.915,145.334,222.864Z" fill="#ebebeb"/>
        <path id="Tracé_862" data-name="Tracé 862" d="M145.334,222.864a13.324,13.324,0,0,1,7.749-2.619c6.126-.093,9.969,2.32,11.6,4.717a8.131,8.131,0,0,0-6.716-.166l-2.536-2.2.63,2.737a8.01,8.01,0,0,1-3.316.14l-2.624-3.032,1.1,2.83S147.53,224.915,145.334,222.864Z" fill="#ebebeb" opacity="0.05" style="mix-blend-mode: normal;isolation: isolate"/>
        <path id="Tracé_863" data-name="Tracé 863" d="M145.334,222.864s-1.126-.2-3.151,1.033c-3.45,2.067-5.77,6.628-6.2,8.87s-.362,5.635.847,7.511a10.89,10.89,0,0,1,1.927-5.223,12.418,12.418,0,0,1-.517-4.525,15.372,15.372,0,0,0,1.452,3.167,7.645,7.645,0,0,0,2.458-3.5s-1.549-2.066-1.162-3.967a4.8,4.8,0,0,0,1.8,2.924S144.079,226.186,145.334,222.864Z" fill="#ebebeb"/>
        <path id="Tracé_864" data-name="Tracé 864" d="M145.334,222.864s-1.126-.2-3.151,1.033c-3.45,2.067-5.77,6.628-6.2,8.87s-.362,5.635.847,7.511a10.89,10.89,0,0,1,1.927-5.223,12.418,12.418,0,0,1-.517-4.525,15.372,15.372,0,0,0,1.452,3.167,7.645,7.645,0,0,0,2.458-3.5s-1.549-2.066-1.162-3.967a4.8,4.8,0,0,0,1.8,2.924S144.079,226.186,145.334,222.864Z" fill="#ebebeb" opacity="0.05" style="mix-blend-mode: normal;isolation: isolate"/>
        <path id="Tracé_865" data-name="Tracé 865" d="M152.261,239.033a9.318,9.318,0,0,1-1.88-3.673c-.119-.558-.206-1.152-.289-1.772a4.53,4.53,0,0,1-2.583-2.495,3.709,3.709,0,0,0,2.474,1.224,16.11,16.11,0,0,0-.671-3.822,4.557,4.557,0,0,1-2.4-1.323,4.4,4.4,0,0,0,2.211.341c-.853-2.417-2.609-4.23-3.787-4.649,0,0-1.224,1.106-.795,5.827C144.983,233.567,148.191,237.907,152.261,239.033Z" fill="#ebebeb"/>
      </g>
      <ellipse id="freepik--floor--inject-236-2" data-name="freepik--floor--inject-236" cx="124.879" cy="72.096" rx="124.879" ry="72.096" transform="translate(125.235 234.539)" fill="#fe703a" opacity="0.2"/>
    </g>
    <g id="freepik--Sun--inject-236">
      <circle id="freepik--sun--inject-236-2" data-name="freepik--sun--inject-236" cx="9.634" cy="9.634" r="9.634" transform="translate(333.734 143.426)" fill="#ffbda7"/>
    </g>
    <g id="freepik--Clouds--inject-236">
      <path id="freepik--Cloud--inject-236" d="M236.771,148.164c0-2.164-2.376-3.667-5.062-3.92-3.162-.3-5.409,1.11-5.486,3.616-2.067-.848-4.252-.305-4.086,1.973-.517-.62-2.552-.6-3.275-.429a2.821,2.821,0,0,0-1.8,1.55,2.114,2.114,0,0,0-.186,1.162c-1.209-.393-3.952-.635-4.649.47-1.219,1.973,3.657,2.035,4.649,1.436.207,1.55,5.455,1.787,6.715.372a5.782,5.782,0,0,0,3.957,1.312c2.583.155,4.184-.723,6.2-1.756,2.2,1.865,6.007,1.9,7.991-.238a3.9,3.9,0,0,0,3.017.362c.733-.176.9-.491.9-.491a6.486,6.486,0,0,0,1.343.408c1.441.3,4.132,0,2.991-1.317a3.4,3.4,0,0,0-2.377-.584c-.625-1.234-3.145-2.4-4.587-1.358-.056-1.5-1.425-2.666-3.347-2.96A4.069,4.069,0,0,0,236.771,148.164Z" fill="#f5f5f5"/>
      <path id="freepik--cloud--inject-236-2" data-name="freepik--cloud--inject-236" d="M284.945,162.6a3.318,3.318,0,0,0-1.084-.2c-.352,0-.46-.1-.517-.176a2.583,2.583,0,0,0-3.1-.914,1.989,1.989,0,0,0-2.346-1.328c.042-1.09-1.353-2.267-2.608-2.531a2.81,2.81,0,0,0-2.934.641c-.739-1.431-3.616-1.839-5.166-1.08a3.817,3.817,0,0,0-2.03,1.705,3.47,3.47,0,0,0-.336,1.632,2.856,2.856,0,0,0-2.629-.367c-.878.341-.945,1-.987,1.669a3.066,3.066,0,0,0-1.591-.031c-.547.165-.867.594-.79.945-.439-.026-1.477.331-1.353.79s1.317.46,1.761.445a7.991,7.991,0,0,0,1.24-.191,1.869,1.869,0,0,0,.64.118c.755,0,1.075-.325,1.2-.609a4.3,4.3,0,0,0,2.583,1.606c1.746.445,4.215.176,5.289-1.131a1.883,1.883,0,0,0,.517.635,2.99,2.99,0,0,0,1.622.651c.718.067,2.639.16,3.182-.981.382.759,2.1,1.1,3.4.919a5.257,5.257,0,0,0,1.456-.439,9.085,9.085,0,0,0,.837-.516.7.7,0,0,1,.718-.052,4.261,4.261,0,0,0,2.841,0C285.477,163.522,285.627,162.892,284.945,162.6Z" fill="#f5f5f5"/>
    </g>
    <g id="freepik--Birds--inject-236">
      <g id="freepik--birds--inject-236-2" data-name="freepik--birds--inject-236">
        <path id="Tracé_866" data-name="Tracé 866" d="M169.9,146.005c-3.378-.558-6.313,2.717-7.862,6.69-2.531-2.108-8.1-4.035-10.259-1.033,3.352-1.881,7.413-.424,10.073,2,.181.155.666.279.785-.109C164,149.192,166.947,146.475,169.9,146.005Z" fill="#455a64"/>
        <path id="Tracé_867" data-name="Tracé 867" d="M153,159.518c-2.583-.64-4.995,2.511-5.682,5.042-1.829-1.792-4.773-3.74-7.2-2.123,2.986-.728,5.088.816,6.994,2.862.129.124.517.268.615-.036C148.434,162.334,150.681,159.7,153,159.518Z" fill="#455a64"/>
      </g>
    </g>
    <g id="freepik--Shadows--inject-236">
      <ellipse id="freepik--Shadow--inject-236" cx="31.453" cy="18.157" rx="31.453" ry="18.157" transform="translate(286.454 302.823)" fill="#e0e0e0"/>
      <ellipse id="freepik--shadow--inject-236-2" data-name="freepik--shadow--inject-236" cx="29.64" cy="17.114" rx="29.64" ry="17.114" transform="translate(222.033 309.466)" fill="#e0e0e0"/>
      <ellipse id="Ellipse_15" data-name="Ellipse 15" cx="31.453" cy="18.157" rx="31.453" ry="18.157" transform="translate(152.205 304.641)" fill="#e0e0e0"/>
    </g>
    <g id="freepik--Hearts--inject-236">
      <g id="freepik--hearts--inject-236-2" data-name="freepik--hearts--inject-236">
        <g id="freepik--Heart--inject-236">
          <path id="freepik--heart--inject-236-2" data-name="freepik--heart--inject-236" d="M270.218,196.194l1.736-.387c1.322-.3,4.5-1.255,5.4-3.7a2.764,2.764,0,0,0-4.587-2.867,2.759,2.759,0,0,0-5.347-.775c-.9,2.444.91,5.228,1.726,6.308Z" fill="#14a08c"/>
          <path id="Tracé_868" data-name="Tracé 868" d="M270.218,196.194l1.736-.387c1.322-.3,4.5-1.255,5.4-3.7a2.764,2.764,0,0,0-4.587-2.867,2.759,2.759,0,0,0-5.347-.775c-.9,2.444.91,5.228,1.726,6.308Z" fill="#fff" opacity="0.5" style="mix-blend-mode: normal;isolation: isolate"/>
        </g>
        <g id="Groupe_18" data-name="Groupe 18">
          <path id="Tracé_869" data-name="Tracé 869" d="M273.157,203.927l1-.227c.759-.171,2.582-.718,3.1-2.123a15.9,15.9,0,0,1-4.31-3.139,1.587,1.587,0,0,0-1.4,1.042c-.517,1.4.516,3.006.992,3.615Z" fill="#14a08c"/>
          <path id="Tracé_870" data-name="Tracé 870" d="M273.157,203.927l1-.227c.759-.171,2.582-.718,3.1-2.123a15.9,15.9,0,0,1-4.31-3.139,1.587,1.587,0,0,0-1.4,1.042c-.517,1.4.516,3.006.992,3.615Z" fill="#fff" opacity="0.5" style="mix-blend-mode: normal;isolation: isolate"/>
        </g>
      </g>
    </g>
    <g id="freepik--character-3--inject-236">
      <g id="freepik--Character--inject-236">
        <g id="freepik--Bottom--inject-236">
          <g id="freepik--Leg--inject-236">
            <path id="Tracé_871" data-name="Tracé 871" d="M331.023,237.142c-14.464-.362-26.521-1.55-31.33-5.791,0,0-2.583,5.311-2.33,15.332.14,5.527.321,11.364.806,21.287.4,8.265.873,10.44,1.4,15.451.434,4.132,1.2,17.687,1.891,24.278.263,2.459-.734,4.169-2.092,5.848-1.24,1.549-3.89,5.284-6.023,6.606-1.126.7-3.869,2.2-2.965,3.616s1.58.992,4.189,1.622c1.844.439,5.217.517,6.963-.32,1.369-.646,2.8-2.505,3.952-3.983,1.4-1.808,1.617-2.123,4.587-3.616a5.1,5.1,0,0,0,1.984-5.083c-.445-1.41-1.25-2.846-1.266-4.452-.036-3.239,1.715-12.77,2.356-16.737a33.854,33.854,0,0,0,.4-6.746,29.63,29.63,0,0,0-.94-6.974l5.3-22.212C320.5,254.462,330.144,247.38,331.023,237.142Z" fill="#b16668"/>
            <path id="Tracé_872" data-name="Tracé 872" d="M311.951,253.29c-3.559-1.55-6.715-3.379-8.709-7.816,3.771,3.353,8.394,5.884,10.724,5.682l3.941,4.076-5.3,22.212S314.167,254.251,311.951,253.29Z" fill="#9a4a4d"/>
          </g>
          <path id="Tracé_873" data-name="Tracé 873" d="M329.525,322.907a21.794,21.794,0,0,0-.047-8.023c-1.291-7.314-4.169-16.468-6.049-23.6-3.952-14.98-4.385-16.711-5.791-23.245-1.642-7.645-3.677-16.856-3.677-16.856a14.016,14.016,0,0,1-8.978-5.754c-1.24-1.751-4.587-5.238-5.29-14.076,0,0,4.623,4.483,16.711,3.791,10.713-.625,12.227-4.07,12.227-4.07s.868,1.177,3.435,5.4a13.184,13.184,0,0,1,1.674,3.481c1.281,3.616,1.09,6.891,1.286,10.9.176,3.5.16,6.664.052,13.472-.114,7.1-.088,14.624-.088,14.624,2.128,3.972,3.228,6.333,2.877,15.414-.2,5.124-.584,13.7.026,16.173a4.653,4.653,0,0,0,1.343,1.948,4.4,4.4,0,0,1,1.9,3.383c0,2.614-2.407,3.554-2.258,7.366.155,3.906.176,5.342-1.632,7.17a10.35,10.35,0,0,1-8.849,2.531c-2.851-.449-.826-3.316-.826-3.316A34.615,34.615,0,0,0,329.525,322.907Z" fill="#b16668"/>
          <path id="Tracé_874" data-name="Tracé 874" d="M299.7,231.351a21.44,21.44,0,0,0-1.921,6.9c2.583,5.889,10.992,14.17,16.189,12.914,0,0,2.366-10.744,11.69-13.477,7.061-2.066,8.084,2.273,8.084,2.273s-.62-4.179-5.114-8.879c0,0-5.135,3.512-14.893,3.306S299.7,231.351,299.7,231.351Z" fill="#14a08c"/>
          <path id="Tracé_875" data-name="Tracé 875" d="M299.7,231.351a21.44,21.44,0,0,0-1.921,6.9c2.583,5.889,10.992,14.17,16.189,12.914,0,0,2.366-10.744,11.69-13.477,7.061-2.066,8.084,2.273,8.084,2.273s-.62-4.179-5.114-8.879c0,0-5.135,3.512-14.893,3.306S299.7,231.351,299.7,231.351Z" opacity="0.35" style="mix-blend-mode: normal;isolation: isolate"/>
        </g>
        <g id="freepik--Top--inject-236">
          <path id="Tracé_876" data-name="Tracé 876" d="M286.748,184.587c3.668-2.583,6.2-2.8,11.364-4.649,4.221-1.519,5.357-2.035,6.638-2.9a24.987,24.987,0,0,0,2.557-2.066,12.539,12.539,0,0,1,3.709-2.583,12.877,12.877,0,0,1,4.184-1.131.944.944,0,0,1,1.033.547,2.953,2.953,0,0,1,1.488,0,4.764,4.764,0,0,1,1.033.625,2.025,2.025,0,0,0,1.669.1,2.032,2.032,0,0,1,.873-.083c.459.119.459.517.33.847a2.711,2.711,0,0,1-1.033,1.271,18.259,18.259,0,0,1-2.422,1.173c-1.22.609-3.208,1.585-3.952,2.758-.155.243-.393.785.113.672a11.6,11.6,0,0,1,2.005-.388,2.436,2.436,0,0,1,1.88.615.828.828,0,0,1,.269.516c0,.29-.171.362-.393.429a5.314,5.314,0,0,0-.661.3l-1.364.64c-2.66,1.225-3.616,1.839-6.581,1.581a10.447,10.447,0,0,0-3.507.651c-1.323.516-10.1,5.806-10.1,5.806a83.889,83.889,0,0,0,7.877,9.546,21.231,21.231,0,0,0,3.823,2.665,9.069,9.069,0,0,0,3.053,1.369l-9.3,13.762c-.2-2.134-.848-4.686-3.942-8.782-3.616-4.783-8.265-10.435-10.848-15.461C283.468,186.6,284.444,186.183,286.748,184.587Z" fill="#b16668"/>
          <g id="freepik--Chest--inject-236">
            <path id="Tracé_877" data-name="Tracé 877" d="M299.7,231.351c-.883-1.642-.1-5.083.352-6.2l2.2-4.107c-3.507-3.941-1.033-7.717.445-10.269,2.1-3.239,7.128-7.537,7.128-7.537a98.8,98.8,0,0,1,13.048.109s2.9.6,4.21.971c2.113.6,3.27,2.676,3.782,6.9a28.149,28.149,0,0,1-1.178,8.043l-2.066,7.035a8.251,8.251,0,0,1,1.007,4.815C328.631,231.078,313.573,240.8,299.7,231.351Z" fill="#b16668"/>
            <g id="freepik--Bikini--inject-236">
              <path id="Tracé_878" data-name="Tracé 878" d="M322.69,203.261c-2.035,2.118-3.884,4.132-8.838,3.373-3.347-.517-3.4-2.583-2.185-3.735l-1.033.036s-2.459,1.374-5.021,3.1c-3.032,2.066-5.651,3.734-7.139,7.175a8.668,8.668,0,0,0,1.5,9.169,6.544,6.544,0,0,0,.264,3.295c1.549,3.25,17.341,5.719,27.377.6,0,0,2.273-3.735,2.067-7.036,0,0-4.288.047-5.274-5.083a23.847,23.847,0,0,1,.666-10.331Z" fill="#14a08c"/>
              <path id="Tracé_879" data-name="Tracé 879" d="M322.69,203.261c-2.035,2.118-3.884,4.132-8.838,3.373-3.347-.517-3.4-2.583-2.185-3.735l-1.033.036s-2.459,1.374-5.021,3.1c-3.032,2.066-5.651,3.734-7.139,7.175a8.668,8.668,0,0,0,1.5,9.169,6.544,6.544,0,0,0,.264,3.295c1.549,3.25,17.341,5.719,27.377.6,0,0,2.273-3.735,2.067-7.036,0,0-4.288.047-5.274-5.083a23.847,23.847,0,0,1,.666-10.331Z" opacity="0.35" style="mix-blend-mode: normal;isolation: isolate"/>
              <path id="Tracé_880" data-name="Tracé 880" d="M308.934,220.963c1.819,2.743,5.125,3.477,8.42,2.924,2.583-.439,5.259-2.164,6.049-4.246-.258,2.19-1.307,4.349-5.646,5.264C312.881,225.912,309.683,223.329,308.934,220.963Z" opacity="0.2" style="mix-blend-mode: normal;isolation: isolate"/>
            </g>
          </g>
          <g id="freepik--Head--inject-236">
            <path id="Tracé_881" data-name="Tracé 881" d="M303.4,192.852c-.284-1.033-1.441-1.162-1.648-2.547a2.625,2.625,0,0,1,1.7-2.877c1.177-.584,1.4-1.694,1.234-4.013a3.58,3.58,0,0,1,3.415-3.88c.94-.114,2.03,0,2.7-.656a4.7,4.7,0,0,0,.661-1.033c.946-1.648,2.65-2.335,4.9-2.263a7.629,7.629,0,0,1,2.934.641,7.753,7.753,0,0,1,2.8,1.968,6.687,6.687,0,0,1,4.784,1.307,4.992,4.992,0,0,1,1.973,3.383c.181,1.369.031,2.144.6,2.9,1.162,1.55,2.655,1.55,3.306,2.872.92,1.834-1.5,3.327-.346,5.559a3.294,3.294,0,0,1-1.942,4.767c-1.069.378-1.958-.191-3.482.331s-1.622,1.679-3.564,2.4c-1.586.594-2.9-.594-4.174-.775-1.735-.248-1.193.341-2.882-.806-.579-.392-.915-1.079-1.5-1.467-1.86-1.177-2.485-.578-4.794.181a3.6,3.6,0,0,1-3.895-.821,5.164,5.164,0,0,1-1.079-3.518c-.419,1.25-3.306,1.152-3.544-.852a1.033,1.033,0,0,0,1.844-.8Z" fill="#263238"/>
            <path id="Tracé_882" data-name="Tracé 882" d="M321.833,200.513c.062-1.152.341-4.066.341-4.066.4,1.085,2.35,1.178,3.337-.124a4.41,4.41,0,0,0,.516-4.9c-.878-1.374-3.037-1.461-4.06.605-1.431.227-1.916-1.974-.687-3.957.145-4.8-6.421-3.353-7.624-7.7a7.5,7.5,0,0,0-5.409,3.807c-.516,1.033-.635,1.71-.568,3.869.026.847-.578,1.808-.78,2.914-.9,5.083.548,7.159,2.2,8.2a8.76,8.76,0,0,0,4.132,1.1s-.062.955-.124,1.591-.129.909-.9,1c-.263.031-.552.046-.552.046s-3.616,3.162,1.007,4.133c6.9,1.446,9.778-2.707,10.114-3.771C321.74,203.008,321.74,202.429,321.833,200.513Z" fill="#b16668"/>
            <path id="Tracé_883" data-name="Tracé 883" d="M324.411,195.781a.708.708,0,1,1-.636-.775A.708.708,0,0,1,324.411,195.781Z" fill="#ebebeb"/>
            <path id="Tracé_884" data-name="Tracé 884" d="M315.464,194.738l-2.583.614a1.3,1.3,0,0,0,1.52,1.039l.03-.006A1.39,1.39,0,0,0,315.464,194.738Z" fill="#9a4a4d"/>
            <path id="Tracé_885" data-name="Tracé 885" d="M315.262,195.306a1.461,1.461,0,0,0-1.549,1.033,1.308,1.308,0,0,0,.733.046,1.362,1.362,0,0,0,1-1.033A1.115,1.115,0,0,0,315.262,195.306Z" fill="#f28f8f"/>
            <path id="Tracé_886" data-name="Tracé 886" d="M309,186.844l1.9-.733a.976.976,0,0,0-1.232-.622c-.017.006-.033.011-.049.018A1.073,1.073,0,0,0,309,186.844Z" fill="#263238"/>
            <path id="Tracé_887" data-name="Tracé 887" d="M318.124,187.686l-1.8-1.033a1,1,0,0,1,1.34-.439l.04.021A1.09,1.09,0,0,1,318.124,187.686Z" fill="#263238"/>
            <path id="Tracé_888" data-name="Tracé 888" d="M317.354,189.851a1.032,1.032,0,0,1-1.25.516c-.542-.139-.93-.557-.8-1.033.067-.242.149.315,1.007.517S317.447,189.613,317.354,189.851Z" fill="#263238"/>
            <path id="Tracé_889" data-name="Tracé 889" d="M311.14,189.024a1.032,1.032,0,0,1-1.147.718c-.558-.041-1.033-.392-.966-.878,0-.248.2.289,1.08.326S311.187,188.771,311.14,189.024Z" fill="#263238"/>
            <path id="Tracé_890" data-name="Tracé 890" d="M313.243,200.27c3.244-.093,6.921-1.142,8.12-2.867a4.615,4.615,0,0,1-1.855,2.5,12.871,12.871,0,0,1-6.343,1.416Z" fill="#9a4a4d"/>
            <path id="Tracé_891" data-name="Tracé 891" d="M309.73,192.645l2.738,1.245.868-5.507Z" fill="#9a4a4d"/>
          </g>
          <g id="freepik--Arm--inject-236">
            <path id="Tracé_892" data-name="Tracé 892" d="M332.128,244.389c1.338.832,3.73-.449,4.422-.935s.465-2.174.516-3.528.987-3.4-.764-3.254S330.062,240.107,332.128,244.389Z" fill="#9a4a4d"/>
            <path id="Tracé_893" data-name="Tracé 893" d="M339.1,226.5l-9.438-7.253a9.461,9.461,0,0,1-4.458-4.706c-1.312-2.789-.9-7.686-.145-10.728,3.813-.114,5.807.3,9.629,4.132,4.293,4.308,10.724,10.553,13.431,14.236s2.954,5.6-1.188,9.071c-2.96,2.335-12.532,8.074-13.834,8.926-1.152.755-1.493,3.756,1.6,4.179,0,0-2.835,1.359-4.013.78-1.033-.516-2.438-1.921-3.053-5.62-.393-2.33.888-3.709,3.027-5.568C333.228,231.739,339.1,226.5,339.1,226.5Z" fill="#b16668"/>
            <path id="Tracé_894" data-name="Tracé 894" d="M334.711,244.369a10.919,10.919,0,0,1-2.025.847,5.5,5.5,0,0,1-1.1.206,2.437,2.437,0,0,1-.579,0,1.819,1.819,0,0,1-.558-.2,4.588,4.588,0,0,1-1.617-1.549,8.817,8.817,0,0,1-.924-2.036,13.93,13.93,0,0,1-.486-2.164,4.913,4.913,0,0,1,0-1.137,4.278,4.278,0,0,1,.3-1.1,9.246,9.246,0,0,1,2.97-3.229c-.517.517-1.033,1.034-1.514,1.55a5.926,5.926,0,0,0-1.141,1.787,4.415,4.415,0,0,0-.233,1.034,4.7,4.7,0,0,0,.047,1.033,14.622,14.622,0,0,0,.516,2.092,8.726,8.726,0,0,0,.858,1.942,4.435,4.435,0,0,0,1.431,1.5,1.663,1.663,0,0,0,.961.238,5.338,5.338,0,0,0,1.059-.14A13.524,13.524,0,0,0,334.711,244.369Z" fill="#9a4a4d"/>
            <path id="Tracé_895" data-name="Tracé 895" d="M329.664,219.248l-3.1-2.551,1.549,2.241A5.667,5.667,0,0,0,329.664,219.248Z" fill="#9a4a4d"/>
          </g>
        </g>
      </g>
    </g>
    <g id="freepik--character-2--inject-236">
      <g id="freepik--character--inject-236-2" data-name="freepik--character--inject-236">
        <g id="freepik--top--inject-236-2" data-name="freepik--top--inject-236">
          <path id="Tracé_896" data-name="Tracé 896" d="M272.935,232.488c3.41.3,10.75.243,13.384.243a35.269,35.269,0,0,1,6.282.95,12.767,12.767,0,0,0,3.471,0,11.682,11.682,0,0,0,2.965-.661,3.568,3.568,0,0,0,1.322-.656c.269-.3.378-.723.693-1.033s.857-.476,1.172-.837a4.306,4.306,0,0,0,.517-1,1.9,1.9,0,0,1,1.281-.889,1.737,1.737,0,0,0,.733-.356c.31-.315.135-.615-.139-.837a2.585,2.585,0,0,0-1.452-.517,17.114,17.114,0,0,0-2.505.238c-1.271.1-3.332.289-4.494-.289-.238-.119-.7-.434-.232-.589a11.649,11.649,0,0,0,1.787-.661,2.294,2.294,0,0,0,1.2-1.4.783.783,0,0,0-.046-.563c-.134-.233-.31-.2-.517-.15a5.834,5.834,0,0,1-.671.088l-1.4.144a28.124,28.124,0,0,0-7.118,1.808,12.907,12.907,0,0,1-6.2.042c-4.959-.667-8.513-1.338-8.513-1.338-2.252-3.792-4.014-7.057-7.428-12.8-2.035-3.419-3.575-3.951-7.092-4.649,0,0-4.288-.64-4.582-1.834,1.281,11.1,4.5,15.084,4.5,15.084.832.92,2.872,3.383,6.845,8.513C268.586,230.954,269.531,232.188,272.935,232.488Z" fill="#aa4b0b"/>
          <path id="Tracé_897" data-name="Tracé 897" d="M294.362,227.389a6.219,6.219,0,0,1-4.132,2.165,3.469,3.469,0,0,0,2.422-.135A3.254,3.254,0,0,0,294.362,227.389Z" fill="#263238" opacity="0.2"/>
          <g id="freepik--chest--inject-236-2" data-name="freepik--chest--inject-236">
            <path id="Tracé_898" data-name="Tracé 898" d="M245.465,205.317c-2.067.625-6.266,1.472-6.266,1.472s0,.124-.961,4.649a26.454,26.454,0,0,0,.635,11.705l.4,1.137s2.149,5.868,2.108,8.265-2.986,9.1-2.986,9.1a75.165,75.165,0,0,1,8.394,2.025c2.789.992,10.259,3.281,13.5,2.253a8.649,8.649,0,0,0,4.871-4.133c0-.16-1.152-5.739-2.066-8.781a43.6,43.6,0,0,1,.32-6.39c2.635-1.927,3.466-5.682-1.105-12.553a25.9,25.9,0,0,0-7.206-9.091l-9.164.108Z" fill="#aa4b0b"/>
            <path id="Tracé_899" data-name="Tracé 899" d="M265.011,218.205a25.733,25.733,0,0,0-2.686-4.158,27.871,27.871,0,0,1-3.306,11.648,5.739,5.739,0,0,0,4.226,1.829,4.652,4.652,0,0,0,2.34-2.676A8.036,8.036,0,0,0,265.011,218.205Z" fill="#455a64"/>
            <path id="Tracé_900" data-name="Tracé 900" d="M256.343,225.664c-1.214,1.446-3.042,2.857-6.756,2.7a7.45,7.45,0,0,1-5.961-3.043c.351-3.549,1.183-6.369,4.545-10.558A15.755,15.755,0,0,1,256.343,225.664Z" fill="#455a64"/>
            <path id="Tracé_901" data-name="Tracé 901" d="M248.657,215.979c-1.6-3.5-2.779-8.663-2.676-10.915l-.475.253a33.846,33.846,0,0,0,2.841,11.364Z" fill="#455a64"/>
            <path id="Tracé_902" data-name="Tracé 902" d="M255.026,204.764a4.736,4.736,0,0,0,.129.708c2.32,1.5,6.473,7.273,7.387,10.026l.517-.48C261.478,211.505,257.495,205.957,255.026,204.764Z" fill="#455a64"/>
            <path id="Tracé_903" data-name="Tracé 903" d="M255.76,225.354l.237.594a2.35,2.35,0,0,1,3.324-.008l.034.034.212-.517A2.829,2.829,0,0,0,255.76,225.354Z" fill="#455a64"/>
            <path id="Tracé_904" data-name="Tracé 904" d="M244.871,226.222a22.239,22.239,0,0,1-5.6-1.963l-.4-1.136a22.038,22.038,0,0,0,6.034,2.195Z" fill="#455a64"/>
            <path id="Tracé_905" data-name="Tracé 905" d="M259.339,240.861a.64.64,0,0,0-.041-.093l-.036-.051-.062-.088a1.4,1.4,0,0,0-.2-.2l-.176-.14-.1-.062-.047-.026h0a1.333,1.333,0,0,1,.222-.258c.078-.078.166-.145.243-.222s.109-.119.171-.171.082-.237-.036-.222a1.093,1.093,0,0,0-.6.233,1.816,1.816,0,0,0-.4.449,1.909,1.909,0,0,0-.227.517,2.077,2.077,0,0,0-.041.3,1.32,1.32,0,0,0,.077.4.166.166,0,0,0,.166.16.14.14,0,0,0,.13-.148v-.012a2.082,2.082,0,0,1,.026-.315,1.134,1.134,0,0,1,.031-.2.659.659,0,0,1,.056-.186c.062.051.145.087.212.134l.176.129.036.031h.026l.072.067a.5.5,0,0,0,.14.119.1.1,0,0,0,.136-.026l0-.005a.185.185,0,0,0,0-.217C259.339,240.856,259.35,240.892,259.339,240.861Z" fill="#263238" opacity="0.2"/>
          </g>
          <path id="Tracé_906" data-name="Tracé 906" d="M227.385,232.488c-3.4.3-10.745.243-13.379.243a35.254,35.254,0,0,0-6.281.95,12.775,12.775,0,0,1-3.472,0,11.692,11.692,0,0,1-2.965-.661,3.575,3.575,0,0,1-1.322-.656c-.269-.3-.377-.723-.692-1.033s-.858-.476-1.173-.837a4.3,4.3,0,0,1-.516-1,1.9,1.9,0,0,0-1.282-.889,1.742,1.742,0,0,1-.733-.356c-.315-.315-.134-.615.139-.837a2.587,2.587,0,0,1,1.452-.517,17.1,17.1,0,0,1,2.505.238c1.271.1,3.332.289,4.494-.289.238-.119.7-.434.233-.589a11.623,11.623,0,0,1-1.788-.661,2.3,2.3,0,0,1-1.2-1.4.81.81,0,0,1,.041-.563c.135-.233.315-.2.517-.15a6.123,6.123,0,0,0,.676.088l1.4.144a28.142,28.142,0,0,1,7.119,1.808c1.725.625,4.06.419,6.2.042,4.959-.667,8.508-1.338,8.508-1.338,2.257-3.792,4.019-7.057,7.433-12.8,2.036-3.419,3.673-4.132,5.967-4.649,0,0,3.528-.764,6.266-1.472-1.282,11.106-5.548,14.247-5.548,14.247-.832.919-2.769,4.081-6.623,9.21C231.481,231.2,230.768,232.188,227.385,232.488Z" fill="#aa4b0b"/>
          <path id="Tracé_907" data-name="Tracé 907" d="M205.937,227.389a6.208,6.208,0,0,0,4.133,2.165,3.471,3.471,0,0,1-2.423-.135A3.257,3.257,0,0,1,205.937,227.389Z" fill="#263238" opacity="0.2"/>
          <path id="Tracé_908" data-name="Tracé 908" d="M255.863,194.262a2.819,2.819,0,0,1,.408-.883,3.976,3.976,0,0,1,.935-.754,5.722,5.722,0,0,1,1.787-.77l2.154-.516a2.387,2.387,0,0,0,.6-.192,1.493,1.493,0,0,0,.733-1.208,2.419,2.419,0,0,0-.392-1.4,6.6,6.6,0,0,0-.951-1.131,1.843,1.843,0,0,0,.92-.259c.945-.6.289-1.761-.248-2.4-.026-1.224,1-1.926,1.255-2.83a1.8,1.8,0,0,0-.61-2.067,5.739,5.739,0,0,0-2.262-.335,33.6,33.6,0,0,1-5.682-.946,20.066,20.066,0,0,0-6.917.171A5.851,5.851,0,0,0,243.3,182c-2.608.15-4.132,2.867-4.442,3.967a11.259,11.259,0,0,0,1.121,8.038,14.822,14.822,0,0,0,1.033,1.663,36.143,36.143,0,0,0,4.132,4.567,6.226,6.226,0,0,0,2.02,1.519,4.416,4.416,0,0,0,2.583.056,12.976,12.976,0,0,0,1.3-.392.865.865,0,0,0,.408-.227c.13-.15.279-.279.424-.419a13.673,13.673,0,0,0,2.2-2.794A28.857,28.857,0,0,0,255.863,194.262Z" fill="#455a64"/>
          <path id="Tracé_909" data-name="Tracé 909" d="M246.09,198.106a4.281,4.281,0,0,1-2.759,4.969c.661,1.9-.258,3.569-1.358,5.067,1.327,1.472.769,3.291.1,4.908a2.857,2.857,0,0,1,1.55,1.937c.33,1.064-.961,3.569-.026,4.509-2.686-.764-3.776-3.1-3.487-5.816-1.25-1.467-1.916-3.027-1.033-4.964a3.672,3.672,0,0,1,.346-5.646c-.92-1.648-.439-3.239,1.178-4.582-2.067-2.583.351-5.615,2.1-6.716.708,1.235,2.35,4.283,3.027,5.538Z" fill="#455a64"/>
          <path id="Tracé_910" data-name="Tracé 910" d="M257.345,182.862c1.364.589,2.945,2.438,3.663,9.3.594,5.682-.935,8.146-2.464,8.911a9.778,9.778,0,0,1-3.766.764l.269,2.919a10.5,10.5,0,0,0,1.725,4.179,15.931,15.931,0,0,1-8.58-.047c-2.108-.888-2.221-3.828-2.221-3.828a.914.914,0,0,0,.336-.9c-.062-1.034-.445-5.429-.445-5.429s-1.079.95-3.006-.347a3.45,3.45,0,0,1-1.033-4.649,2.583,2.583,0,0,1,4.132.264,6.994,6.994,0,0,0,1.715-2.779,15.282,15.282,0,0,0,5.166-2.485C256.183,186.137,257.154,184.04,257.345,182.862Z" fill="#aa4b0b"/>
          <path id="Tracé_911" data-name="Tracé 911" d="M252.9,195.993l3.156.682a1.581,1.581,0,0,1-1.815,1.3l-.07-.013A1.69,1.69,0,0,1,252.9,195.993Z" fill="#b16668"/>
          <path id="Tracé_912" data-name="Tracé 912" d="M254.881,197.951a1.5,1.5,0,0,0-1.663-1.3,1.347,1.347,0,0,0-.294.067,1.663,1.663,0,0,0,1.25,1.245A1.549,1.549,0,0,0,254.881,197.951Z" fill="#f28f8f"/>
          <path id="Tracé_913" data-name="Tracé 913" d="M257.671,190.528a.815.815,0,0,0,.764.831.769.769,0,0,0,.821-.715v-.023a.816.816,0,0,0-.77-.832.765.765,0,0,0-.815.711Z" fill="#263238"/>
          <path id="Tracé_914" data-name="Tracé 914" d="M251.663,191.246a.816.816,0,0,0,.77.831.764.764,0,0,0,.815-.71v-.023a.821.821,0,0,0-.764-.837.769.769,0,0,0-.82.716Z" fill="#263238"/>
          <path id="Tracé_915" data-name="Tracé 915" d="M259.345,188.632l-1.731-.4a.847.847,0,0,1,.981-.688l.052.011A.931.931,0,0,1,259.345,188.632Z" fill="#263238"/>
          <path id="Tracé_916" data-name="Tracé 916" d="M250.491,189.6l1.157-1.343a.852.852,0,0,0-1.205.029l-.03.033A.936.936,0,0,0,250.491,189.6Z" fill="#263238"/>
          <path id="Tracé_917" data-name="Tracé 917" d="M254.747,189.412l.857,5.321,2.784-1.2Z" fill="#263238" opacity="0.2"/>
          <path id="Tracé_918" data-name="Tracé 918" d="M254.763,201.845a10.838,10.838,0,0,1-4.448-.8,8.61,8.61,0,0,1-2.516-2.128,4.728,4.728,0,0,0,1.881,2.655c1.89,1.384,5.165,1.183,5.165,1.183Z" fill="#263238" opacity="0.2"/>
          <path id="Tracé_919" data-name="Tracé 919" d="M245.769,192.568l.377,2.986h0a2.066,2.066,0,0,0,1.777-2.289l-.346-2.763Z" fill="#455a64"/>
        </g>
        <g id="freepik--bottom--inject-236-2" data-name="freepik--bottom--inject-236">
          <path id="Tracé_920" data-name="Tracé 920" d="M259.66,312.178a10.2,10.2,0,0,1-.579,5.434c-.7,2.066-.449,4.22,1.55,5.413,2.583,1.55,2.846,3.668,4.1,4.918a7.481,7.481,0,0,0,3.689,2.319,12.958,12.958,0,0,0,4.959.517c2.846-.191,3.476-.914,3.615-2.04s-.867-1.648-2.112-2.433c-2.356-1.483-5.14-5.548-6.23-7.449a13.746,13.746,0,0,1-1.581-7.087c0-2.955-.253-27.094-.077-32.626.325-10.43.227-25.828-1.731-36.315l-.155-1.431c-4.22,5.486-14.412,4.081-26.205-1.033-.175.408-.516,1.266-.516,1.266a26.626,26.626,0,0,0-2.2,9.143c-.62,15.74-2.066,30.281-2.066,30.281-.15,1.5-1.415,4.132-2.159,11.948-.248,2.629-.14,5.326-.171,7.96-.051,4.169-.1,8.337-.232,12.506a7.648,7.648,0,0,1-.6,3.048,20.348,20.348,0,0,0-1.55,3.383c-.413,1.653.046,3.384.212,5.078a14.812,14.812,0,0,1-.15,3.967,7.659,7.659,0,0,0-.222,3.461,5.136,5.136,0,0,0,2.769,2.867,14.157,14.157,0,0,0,5.589.832c.6-.2,1.549.217,1.963-.687.175-.383.366-.765-.16-1.906-2.17-4.742-1.591-12.326-.4-18.622.676-3.58,1.549-7.413,2.474-10.936,2.066-7.95,3.616-12.914,5.847-20.817,1.876-6.685,4.309-14.526,4.309-14.526l3.171,11.54a61.832,61.832,0,0,0-.17,9.536C254.98,294.537,259.334,309.393,259.66,312.178Z" fill="#aa4b0b"/>
          <path id="Tracé_921" data-name="Tracé 921" d="M255.114,254.39l-3.451,14.221,3.146,11.54-1.947-11.726,3.9-13.431s4.814-1.906,5.424-5.682Z" fill="#263238" opacity="0.2"/>
          <path id="Tracé_922" data-name="Tracé 922" d="M255.114,254.39c-1.4-4.3-7.144-11-16.706-12.759l.517-1.266s3.735.873,12.547,3.425c6.09,1.767,10.982-.139,13.658-2.392l.155,1.431S263.234,252.257,255.114,254.39Z" fill="#455a64"/>
          <path id="Tracé_923" data-name="Tracé 923" d="M264.675,242.654a3.244,3.244,0,0,1,2.144-3.74,2.98,2.98,0,0,1,2.635.046,8.022,8.022,0,0,1-1.307,2.655C266.313,243.413,264.675,242.654,264.675,242.654Z" fill="#14a08c" opacity="0.5" style="mix-blend-mode: normal;isolation: isolate"/>
          <path id="Tracé_924" data-name="Tracé 924" d="M264.061,242.442a4.336,4.336,0,0,1,4.3.243,2.989,2.989,0,0,1,1.141,2.376,3.516,3.516,0,0,1-3.285,0A4.687,4.687,0,0,1,264.061,242.442Z" fill="#14a08c" opacity="0.5" style="mix-blend-mode: normal;isolation: isolate"/>
          <path id="Tracé_925" data-name="Tracé 925" d="M240.087,237.436c6.907,5.073,17.971,6.86,25.064,3.962-2.263,29.047-16.995,40.334-31.619,42.322l.625-2.665s1.436-20.828,1.446-27.378C235.619,244.818,239.008,239.993,240.087,237.436Z" fill="#14a08c" opacity="0.5" style="mix-blend-mode: normal;isolation: isolate"/>
        </g>
      </g>
    </g>
    <g id="freepik--character-1--inject-236">
      <g id="Groupe_21" data-name="Groupe 21">
        <g id="Groupe_19" data-name="Groupe 19">
          <path id="Tracé_926" data-name="Tracé 926" d="M206.263,318.1c-2.356-1.482-5.682-6.095-6.778-8s-1.033-4.479-.774-6.54c1.255-11.116,2.582-21.566,3.182-27.723a164.311,164.311,0,0,0,.754-19.965c-.331-10.373-1.813-21.071-2.356-22.946-1.064,5.393-9.851,5.129-21.38-.61a16.066,16.066,0,0,0-6.24-1.327c-.284.516-.558,1.033-.816,1.549a20.589,20.589,0,0,0-2.175,7.94,92.266,92.266,0,0,0-.579,14.247c.7,13.472.517,18.994.517,18.994s-.129,4.2-.661,8.006c-.336,2.377-1.984,7.749-2.067,12.672a129.585,129.585,0,0,1-.439,14.463,18.471,18.471,0,0,1-.945,4.231c-.77,2.066-2.014,7.955-2.629,9.262a7.09,7.09,0,0,0-.517,5.537c.62,2.113,3.936,3.926,3.936,3.926.4.868,3.616,2.867,4.469.212a17.286,17.286,0,0,0,.723-5.527c.072-1.235.119-4.288.418-6.261a67.432,67.432,0,0,1,2.511-11.023c2.3-7.568,4.52-14.464,6.379-20.544a251.618,251.618,0,0,0,6.044-25.766l2.691,15.125A27.481,27.481,0,0,0,188.5,287.5c.367,4.448,1.6,10.357,2.066,16.081a12.962,12.962,0,0,1-.795,6.25c-.635,1.979-.517,4.262,1.3,5.006,2.8,1.131,3.74,3.662,5,4.912a7.523,7.523,0,0,0,3.683,2.325,13.085,13.085,0,0,0,4.964.516c2.846-.191,3.477-.914,3.616-2.04S207.508,318.893,206.263,318.1Z" fill="#f28f8f"/>
          <path id="Tracé_927" data-name="Tracé 927" d="M186.856,262.893l2.014-15.223s7.056-2.914,8.642-6.075c0,0-.134,3.507-6.57,7.428l-2.707,13.9,1.317,15.093Z" fill="#b16668"/>
          <path id="Tracé_928" data-name="Tracé 928" d="M200.291,232.906a13.68,13.68,0,0,1,.424,2.376c-.584,4.7-5.166,10.8-11.845,12.4-.062-5.331-4.716-12.356-10.4-14.092a6.716,6.716,0,0,0-8.157,3.1,19.644,19.644,0,0,1,1.436-4.132c.336-.7.7-1.374,1.085-2.015,0,0,4.039-.113,10.1,2.945a23.426,23.426,0,0,0,13.11,2.066C199.522,234.859,200.291,232.906,200.291,232.906Z" fill="#f0f0f0"/>
        </g>
        <g id="Groupe_20" data-name="Groupe 20">
          <path id="Tracé_929" data-name="Tracé 929" d="M214.052,214.031s-9.3-7.159-12.738-10.083c-2.448-2.066-4.045-3.146-6.044-3.5-1.3-.228-3.151-.367-3.151-.367l6.364,13.947s9.335,6.2,10.76,6.958c2.123,1.111,5.822,2.614,7.155-.134,1.487-3.069,2.7-8.348,3.388-12.036a53.232,53.232,0,0,1,1.55-7.232c.517-1.322,1.637-1.55,2.4-1.927a12.646,12.646,0,0,0,2.944-1.833,11.6,11.6,0,0,0,2.154-2.144,3.537,3.537,0,0,0,.775-1.255,9.9,9.9,0,0,1,.047-1.23,13.317,13.317,0,0,0,.547-1.333,4.346,4.346,0,0,0-.088-1.126,1.9,1.9,0,0,1,.61-1.436,1.785,1.785,0,0,0,.434-.692c.093-.434-.217-.589-.568-.63a2.581,2.581,0,0,0-1.5.341,16.788,16.788,0,0,0-1.994,1.55c-1.033.769-2.666,2.024-3.962,2.154-.264,0-.817,0-.517-.378a10.75,10.75,0,0,0,1.162-1.508,2.307,2.307,0,0,0,.274-1.834.826.826,0,0,0-.336-.449c-.242-.129-.372,0-.516.145a4.192,4.192,0,0,1-.517.433c-.372.29-.744.579-1.105.873-2.139,1.71-4.241,3.653-5.274,6.256-.15.377-.956,3.291-1.509,4.949-.428,1.5-3.946,11.033-3.946,11.033" fill="#f28f8f"/>
          <path id="Tracé_930" data-name="Tracé 930" d="M210.855,211.531a37.953,37.953,0,0,0-1.813,5.362s-.7-2.4.811-6.142Z" fill="#b16668"/>
          <path id="Tracé_931" data-name="Tracé 931" d="M221.863,193.4a8.42,8.42,0,0,1-2.345,4.034,3.471,3.471,0,0,0,1.978-1.4A3.268,3.268,0,0,0,221.863,193.4Z" fill="#b16668"/>
          <ellipse id="freepik--Hat--inject-236" cx="22.977" cy="16.189" rx="22.977" ry="16.189" transform="translate(155.316 182.313) rotate(-28.42)" fill="#fe703a"/>
          <path id="freepik--Hair--inject-236" d="M192.62,200.487a156.087,156.087,0,0,0,.388-15.735l1.462,1.772c5.217-1.792,3.218-9.344-1.111-9.814-2.242-1.617-4.618-3.766-7.283-3.947-7.093-.517-9.18,3.435-9.4,4.649-1.55.842-3.244,2.991-3.3,7.309s-.1,14.872.083,17.646a51.927,51.927,0,0,1-.253,8.921,40.124,40.124,0,0,1-1.033,5.961c-.517,2.066-1.736,3.864-2.247,5.93a5.6,5.6,0,0,0,.2,3.663c1.937,4.251,7.992,1.42,10.781-.295C188.478,221.96,191.68,213.416,192.62,200.487Z" fill="#263238"/>
          <path id="Tracé_932" data-name="Tracé 932" d="M173.327,210.932c-1.3-4.329-.517-11.365.744-11.556.976-.134,1.808-.243,2.515-.356,7.232,5.444,16.876,5.62,14.464.924l1.08.15s2.531,2.139,4.995,4.727c3.037,3.171,4.442,4.788,4.706,7.325a7.162,7.162,0,0,1-3.033,6.875c0,.46,0,.961-.031,1.462,0,0-1.1,2.066-8.941,2.825a27.924,27.924,0,0,1-13.493-1.88,38.489,38.489,0,0,0-1.322-4.365C174.365,215,173.9,212.848,173.327,210.932Z" fill="#f0f0f0"/>
          <path id="Tracé_933" data-name="Tracé 933" d="M181.07,217.378a6.4,6.4,0,0,0,6.328,2.888,6.755,6.755,0,0,0,5.434-4.04s.207,4.711-5.346,5.166S181.07,217.378,181.07,217.378Z" fill="#e0e0e0"/>
          <path id="Tracé_934" data-name="Tracé 934" d="M198.458,224.569c.082-.7.227-2.433.289-4.091,0,0-1.1,2.066-8.942,2.82a27.969,27.969,0,0,1-13.5-1.88h0a5.978,5.978,0,0,1,.073.666,6.743,6.743,0,0,1-.94,4.231c-.848,1.55-2.18,3.3-3.25,5.295,0,0,4.185-.259,10.332,2.582a23.433,23.433,0,0,0,13.172,1.586c3.946-.935,4.561-2.861,4.561-2.861C200.88,230.422,198.458,226.945,198.458,224.569Z" fill="#f28f8f"/>
          <path id="Tracé_935" data-name="Tracé 935" d="M195.09,232.038a.762.762,0,0,0,.325-.031.2.2,0,0,0,.1-.266.354.354,0,0,0-.019-.033.8.8,0,0,0-.4-.233,2.138,2.138,0,0,0-.357-.036,1.246,1.246,0,0,0-.63.207,1.584,1.584,0,0,0-.516.563,2.165,2.165,0,0,0-.171.392c-.026.093-.046.192-.067.285a.578.578,0,0,0,0,.268c0,.057.088.041.119,0h0c.1-.052.139-.17.2-.279a2.8,2.8,0,0,1,.165-.3,1.368,1.368,0,0,1,.269-.284c.041.061.093.118.139.18s.114.16.161.238a1.87,1.87,0,0,1,.1.186l.046.1a.521.521,0,0,0,.057.119.1.1,0,0,0,.191,0l.052-.124v-.227l-.01-.14a2.736,2.736,0,0,0-.1-.289,1.61,1.61,0,0,0-.134-.253h0l.207-.026A1.257,1.257,0,0,1,195.09,232.038Z" fill="#b16668"/>
          <path id="Tracé_936" data-name="Tracé 936" d="M194.8,181.333c.15.692.3,1.379.388,2.066a33.038,33.038,0,0,1,.217,4.231c0,6.2-1.5,7.815-3.182,8.569a6.874,6.874,0,0,1-4.086.321v2.293c0,.61,2.9,1.1,2.9,1.1,3.678,5.683-9.169,4.355-14.464-.924,0,0,2.691-.465,2.691-2.232s-.026-4.334-.026-4.334-1.033,1.168-3.037-.325c-1.663-1.224-2.371-3.471-1.266-4.8a2.806,2.806,0,0,1,4.469.48,1.962,1.962,0,0,0,2.063-1.856c0-.037,0-.075,0-.112,0-.475.093-2.717.093-2.717a4.293,4.293,0,0,1,2.795-4.055c1.606-.594,2.8-.516,4.711,1.033C189.991,178.388,193.132,176.121,194.8,181.333Z" fill="#f28f8f"/>
          <path id="Tracé_937" data-name="Tracé 937" d="M187.165,190.9l2.867.755a1.461,1.461,0,0,1-1.74,1.115l-.042-.01A1.55,1.55,0,0,1,187.165,190.9Z" fill="#b16668"/>
          <path id="Tracé_938" data-name="Tracé 938" d="M187.61,191.623a1.341,1.341,0,0,0-.408.067,1.514,1.514,0,0,0,1.064,1.069,1.389,1.389,0,0,0,.666,0A1.337,1.337,0,0,0,187.61,191.623Z" fill="#ffa8a7"/>
          <path id="Tracé_939" data-name="Tracé 939" d="M193.855,183.513l-1.694-.894a.918.918,0,0,1,1.221-.445c.015.006.03.014.044.021A1.034,1.034,0,0,1,193.855,183.513Z" fill="#263238"/>
          <path id="Tracé_940" data-name="Tracé 940" d="M187,183.513l-1.777.713a.92.92,0,0,1,.46-1.217l.057-.023A1,1,0,0,1,187,183.513Z" fill="#263238"/>
          <path id="Tracé_941" data-name="Tracé 941" d="M189.356,184.4l.573,5.693,2.769-.8Z" fill="#b16668"/>
          <path id="Tracé_942" data-name="Tracé 942" d="M185.342,186.586c.124.455.325-.3.847-.48s1.178.294,1.033-.16a.919.919,0,0,0-1.2-.49l-.01,0a.894.894,0,0,0-.682,1.064C185.331,186.545,185.336,186.566,185.342,186.586Z" fill="#263238"/>
          <path id="Tracé_943" data-name="Tracé 943" d="M193.808,185.8c-.072.47-.356-.263-.893-.382s-1.142.429-1.033-.036a.92.92,0,0,1,1.138-.63l.014,0a.9.9,0,0,1,.78,1Z" fill="#263238"/>
          <path id="Tracé_944" data-name="Tracé 944" d="M188.126,196.54c-5.1-.883-6.24-2.247-7.009-3.807a4.488,4.488,0,0,0,2,3.348,18.269,18.269,0,0,0,5.01,1.668Z" fill="#b16668"/>
          <path id="Tracé_945" data-name="Tracé 945" d="M193.359,176.735c-5.166-2.4-19.428,3.27-20.017,12.527L171.5,179.23s1.157-4.354,7.666-7.087,9.877-1.627,9.877-1.627C192.951,174.442,193.359,176.735,193.359,176.735Z" fill="#fe703a"/>
          <g id="freepik--arm--inject-236-2" data-name="freepik--arm--inject-236">
            <path id="Tracé_946" data-name="Tracé 946" d="M175.057,199.536a1.414,1.414,0,0,0-.15-.2l-.056-.083h-.088c-2.976.171-3.559-.134-6.54-1.033s-9.737-2.644-9.737-2.644-4.876,5.382-3.957,6.2,5.646,2.8,10.848,4.716a13.311,13.311,0,0,1,8.317,7.749h0c.418.925.878,1.839,1.291,2.753,1.1-.418,2.583-2.784,3.1-6.715A16.239,16.239,0,0,0,175.057,199.536Z" fill="#f28f8f"/>
            <path id="Tracé_947" data-name="Tracé 947" d="M174.179,209.625a6.846,6.846,0,0,0-.749-1.478,6.409,6.409,0,0,0-2.583-2.164c-.056,0-.1.124-.051.155a6.716,6.716,0,0,1,2.252,2.294,6.484,6.484,0,0,1,.635,1.322c.181.517.284,1.085.517,1.612.036.093.15.118.186,0A2.582,2.582,0,0,0,174.179,209.625Z" fill="#b16668"/>
            <path id="Tracé_948" data-name="Tracé 948" d="M165.217,197.413c-1.493,2.382-2.9,4.107-6.313,4.184v-5.873C160.067,196.029,162.551,196.675,165.217,197.413Z" fill="#b16668"/>
            <path id="Tracé_949" data-name="Tracé 949" d="M163.972,180.9a2.338,2.338,0,0,0,.062.981,3.149,3.149,0,0,0,.516.863c.124.191.564.739.517.976a18.976,18.976,0,0,0,.455-4.024.453.453,0,0,0-.042-.217.392.392,0,0,0-.387-.165,1.124,1.124,0,0,0-.729.563A2.489,2.489,0,0,0,163.972,180.9Z" fill="#b16668"/>
            <path id="Tracé_950" data-name="Tracé 950" d="M171.426,180.914a5.332,5.332,0,0,1-.031,2.139,18.017,18.017,0,0,1-1.643,3.389c-1.033,2.231-3.941,8-5.749,11.292a9.541,9.541,0,0,1-7.5,4.7c-3.172.227-3.384-3.3-1.839-6.839,1.761-4.045,8.859-7.712,10.233-11.457a6.08,6.08,0,0,0,.16-2.356,10.479,10.479,0,0,0-.346-2.376,1.55,1.55,0,0,1,.294-1.359c.357-.439.94-.661,1.24-1.141.165-.264.227-.584.408-.832.486-.677,1.55-.553,2.237-1.033a5.239,5.239,0,0,0,.676-.63,3.891,3.891,0,0,1,1.958-.987,3.378,3.378,0,0,1,.682,0c-.046.031-.517.362-.816.6a8.473,8.473,0,0,0-.594,1.788,1.931,1.931,0,0,0-.093.516,3.1,3.1,0,0,0,.2.827c.233.826,0,1.72.191,2.582.057.3.166.589.248.884A1.4,1.4,0,0,1,171.426,180.914Z" fill="#f28f8f"/>
          </g>
        </g>
      </g>
    </g>
  </g>
</svg>
