<svg xmlns="http://www.w3.org/2000/svg" width="250" height="186.28" viewBox="0 0 250 186.28">
  <g id="Party" transform="translate(-125 -148.14)">
    <g id="freepik--background-complete--inject-104">
      <rect id="Rectangle_12" data-name="Rectangle 12" width="250" height="0.125" transform="translate(125 311.84)" fill="#ebebeb"/>
      <rect id="Rectangle_13" data-name="Rectangle 13" width="16.56" height="0.125" transform="translate(151.23 316.6)" fill="#ebebeb"/>
      <rect id="Rectangle_14" data-name="Rectangle 14" width="23.375" height="0.125" transform="translate(210.57 315.245)" fill="#ebebeb"/>
      <rect id="Rectangle_15" data-name="Rectangle 15" width="9.595" height="0.125" transform="translate(181.4 320.465)" fill="#ebebeb"/>
      <rect id="Rectangle_16" data-name="Rectangle 16" width="15.105" height="0.125" transform="translate(281.165 318.295)" fill="#ebebeb"/>
      <rect id="Rectangle_17" data-name="Rectangle 17" width="9.66" height="0.125" transform="translate(300.72 318.295)" fill="#ebebeb"/>
      <rect id="Rectangle_18" data-name="Rectangle 18" width="29.28" height="0.125" transform="translate(320.675 320.405)" fill="#ebebeb"/>
      <path id="Tracé_951" data-name="Tracé 951" d="M243.5,289.54H146.955a2.855,2.855,0,0,1-2.85-2.855V150.97a2.856,2.856,0,0,1,2.85-2.83H243.5a2.855,2.855,0,0,1,2.855,2.855h0v135.69A2.855,2.855,0,0,1,243.5,289.54Zm-96.545-141.3a2.73,2.73,0,0,0-2.725,2.73V286.685a2.73,2.73,0,0,0,2.725,2.73H243.5a2.735,2.735,0,0,0,2.73-2.73V150.97a2.735,2.735,0,0,0-2.73-2.73Z" fill="#ebebeb"/>
      <path id="Tracé_952" data-name="Tracé 952" d="M351.655,289.54H255.1a2.86,2.86,0,0,1-2.855-2.855V150.97a2.86,2.86,0,0,1,2.855-2.83h96.55a2.855,2.855,0,0,1,2.845,2.83V286.685A2.855,2.855,0,0,1,351.655,289.54ZM255.1,148.24a2.735,2.735,0,0,0-2.73,2.73V286.685a2.735,2.735,0,0,0,2.73,2.73h96.55a2.735,2.735,0,0,0,2.73-2.73V150.97a2.735,2.735,0,0,0-2.73-2.73Z" fill="#ebebeb"/>
      <rect id="Rectangle_19" data-name="Rectangle 19" width="118.965" height="74.445" transform="translate(169.755 168.805)" fill="#f0f0f0"/>
      <rect id="Rectangle_20" data-name="Rectangle 20" width="114.31" height="67.445" transform="translate(172.08 172.305)" fill="#fafafa"/>
      <path id="Tracé_953" data-name="Tracé 953" d="M271.345,239.75l-11.73-67.445H250.97L262.7,239.75Z" fill="#fff"/>
      <path id="Tracé_954" data-name="Tracé 954" d="M260.7,239.75l-11.725-67.445H245.11l11.725,67.445Z" fill="#fff"/>
      <path id="Tracé_955" data-name="Tracé 955" d="M241.78,239.75l-11.725-67.445H221.41l11.725,67.445Z" fill="#fff"/>
      <path id="Tracé_956" data-name="Tracé 956" d="M219.985,239.75l-11.73-67.445H204.39l11.725,67.445Z" fill="#fff"/>
      <rect id="Rectangle_21" data-name="Rectangle 21" width="0.59" height="67.445" transform="translate(255.765 172.305)" fill="#e0e0e0"/>
      <rect id="Rectangle_22" data-name="Rectangle 22" width="0.59" height="67.445" transform="translate(285.8 172.31)" fill="#e0e0e0"/>
      <rect id="Rectangle_23" data-name="Rectangle 23" width="2.33" height="67.445" transform="translate(256.355 172.305)" fill="#f0f0f0"/>
      <rect id="Rectangle_24" data-name="Rectangle 24" width="0.59" height="67.445" transform="translate(226.91 172.305)" fill="#e0e0e0"/>
      <rect id="Rectangle_25" data-name="Rectangle 25" width="2.33" height="67.445" transform="translate(227.495 172.305)" fill="#f0f0f0"/>
      <rect id="Rectangle_26" data-name="Rectangle 26" width="0.59" height="67.445" transform="translate(198.035 172.305)" fill="#e0e0e0"/>
      <rect id="Rectangle_27" data-name="Rectangle 27" width="2.33" height="67.445" transform="translate(198.625 172.31)" fill="#f0f0f0"/>
      <rect id="Rectangle_28" data-name="Rectangle 28" width="0.59" height="74.445" transform="translate(169.16 168.805)" fill="#e0e0e0"/>
      <path id="Tracé_957" data-name="Tracé 957" d="M157.665,163.7H294a.78.78,0,0,0,.78-.775h0a.78.78,0,0,0-.78-.78H157.665a.78.78,0,0,0-.775.78h0A.78.78,0,0,0,157.665,163.7Z" fill="#e0e0e0"/>
      <g id="Groupe_22" data-name="Groupe 22" opacity="0.6">
        <rect id="Rectangle_29" data-name="Rectangle 29" width="51.73" height="135.835" transform="translate(240.365 160.64)" fill="#f5f5f5"/>
        <path id="Tracé_958" data-name="Tracé 958" d="M271.82,297.585h4.335L274.94,161.75H273Z" fill="#e6e6e6"/>
        <path id="Tracé_959" data-name="Tracé 959" d="M281.385,297.585h2.095l-.59-135.835h-.935Z" fill="#e6e6e6"/>
        <path id="Tracé_960" data-name="Tracé 960" d="M259.25,297.585h2.09l-.585-135.835h-.935Z" fill="#e6e6e6"/>
        <path id="Tracé_961" data-name="Tracé 961" d="M248.6,297.585h2.09l-.585-135.835h-.935Z" fill="#e6e6e6"/>
      </g>
      <g id="Groupe_23" data-name="Groupe 23" opacity="0.6">
        <rect id="Rectangle_30" data-name="Rectangle 30" width="25.865" height="135.835" transform="translate(160.335 160.64)" fill="#f5f5f5"/>
        <path id="Tracé_962" data-name="Tracé 962" d="M176.065,297.585h2.165l-.6-135.835h-.97Z" fill="#e6e6e6"/>
        <path id="Tracé_963" data-name="Tracé 963" d="M180.845,297.585h1.045L181.6,161.75h-.47Z" fill="#e6e6e6"/>
        <path id="Tracé_964" data-name="Tracé 964" d="M169.78,297.585h1.045L170.53,161.75h-.465Z" fill="#e6e6e6"/>
        <path id="Tracé_965" data-name="Tracé 965" d="M164.455,297.585H165.5l-.295-135.835h-.47Z" fill="#e6e6e6"/>
      </g>
      <rect id="Rectangle_31" data-name="Rectangle 31" width="34.315" height="42.83" transform="translate(305.55 181.64)" fill="#e6e6e6"/>
      <rect id="Rectangle_32" data-name="Rectangle 32" width="35.31" height="42.83" transform="translate(306.065 181.64)" fill="#f5f5f5"/>
      <rect id="Rectangle_33" data-name="Rectangle 33" width="29.895" height="36.75" transform="translate(308.775 184.68)" fill="#fafafa"/>
      <rect id="Rectangle_34" data-name="Rectangle 34" width="0.28" height="36.75" transform="translate(338.39 184.68)" fill="#e6e6e6"/>
      <circle id="Ellipse_16" data-name="Ellipse 16" cx="4.32" cy="4.32" r="4.32" transform="translate(324.447 197.585) rotate(-45)" fill="#f0f0f0"/>
      <circle id="Ellipse_17" data-name="Ellipse 17" cx="8.78" cy="8.78" r="8.78" transform="translate(314.876 195.285)" fill="#fff"/>
      <circle id="Ellipse_18" data-name="Ellipse 18" cx="4.32" cy="4.32" r="4.32" transform="translate(312.847 193.259)" fill="#f0f0f0"/>
      <rect id="Rectangle_35" data-name="Rectangle 35" width="4.69" height="47.81" transform="translate(299.84 260.82)" fill="#f0f0f0"/>
      <rect id="Rectangle_36" data-name="Rectangle 36" width="49.91" height="2.86" transform="translate(298.7 257.96)" fill="#f0f0f0"/>
      <rect id="Rectangle_37" data-name="Rectangle 37" width="43.805" height="3.21" transform="translate(301.75 308.63)" fill="#f0f0f0"/>
      <rect id="Rectangle_38" data-name="Rectangle 38" width="42.94" height="47.81" transform="translate(304.53 260.82)" fill="#fafafa"/>
      <rect id="Rectangle_39" data-name="Rectangle 39" width="35.115" height="14.67" transform="translate(308.44 266.145)" fill="#f0f0f0"/>
      <rect id="Rectangle_40" data-name="Rectangle 40" width="35.115" height="14.67" transform="translate(308.44 287.72)" fill="#f0f0f0"/>
      <rect id="Rectangle_41" data-name="Rectangle 41" width="9.825" height="2.28" rx="0.91" transform="translate(321.085 265.28)" fill="#fafafa"/>
      <rect id="Rectangle_42" data-name="Rectangle 42" width="9.825" height="2.28" rx="0.91" transform="translate(321.085 286.86)" fill="#fafafa"/>
      <circle id="Ellipse_19" data-name="Ellipse 19" cx="10.78" cy="10.78" r="10.78" transform="translate(208.278 290.275)" fill="#ebebeb"/>
      <circle id="Ellipse_20" data-name="Ellipse 20" cx="13.455" cy="13.455" r="13.455" transform="translate(189.043 284.928)" fill="#f5f5f5"/>
    </g>
    <g id="freepik--Shadow--inject-104">
      <ellipse id="freepik--path--inject-104" cx="96.945" cy="5.66" rx="96.945" ry="5.66" transform="translate(153.055 323.1)" fill="#f5f5f5"/>
    </g>
    <g id="freepik--Confetti--inject-104">
      <path id="Tracé_966" data-name="Tracé 966" d="M188.3,219.41c-3.3,0-4.86-3.325-4.925-3.465a.66.66,0,0,1,1.195-.55c0,.045,1.315,2.77,3.83,2.7a.66.66,0,0,1,.035,1.315Z" fill="#14a08c"/>
      <path id="Tracé_967" data-name="Tracé 967" d="M231.5,173.235a6.336,6.336,0,0,1-.86-.055.657.657,0,0,1,.2-1.3h0c.03,0,3.04.425,4.36-1.72a.656.656,0,0,1,1.12.685h0A5.534,5.534,0,0,1,231.5,173.235Z" fill="#14a08c"/>
      <path id="Tracé_968" data-name="Tracé 968" d="M231.5,173.235a6.336,6.336,0,0,1-.86-.055.657.657,0,0,1,.2-1.3h0c.03,0,3.04.425,4.36-1.72a.656.656,0,0,1,1.12.685h0A5.534,5.534,0,0,1,231.5,173.235Z" fill="#fff" opacity="0.6" style="mix-blend-mode: normal;isolation: isolate"/>
      <path id="Tracé_969" data-name="Tracé 969" d="M157.3,198.275a6.886,6.886,0,0,1-3.56-1.135.655.655,0,1,1,.707-1.1.644.644,0,0,1,.053.038h0c.025,0,2.545,1.705,4.67.35a.66.66,0,1,1,.776,1.068.74.74,0,0,1-.066.042A4.723,4.723,0,0,1,157.3,198.275Z" fill="#14a08c"/>
      <path id="Tracé_970" data-name="Tracé 970" d="M157.3,198.275a6.886,6.886,0,0,1-3.56-1.135.655.655,0,1,1,.707-1.1.644.644,0,0,1,.053.038h0c.025,0,2.545,1.705,4.67.35a.66.66,0,1,1,.776,1.068.74.74,0,0,1-.066.042A4.723,4.723,0,0,1,157.3,198.275Z" fill="#fff" opacity="0.6" style="mix-blend-mode: normal;isolation: isolate"/>
      <path id="Tracé_971" data-name="Tracé 971" d="M328.815,180.74a6.938,6.938,0,0,1-3.565-1.1.656.656,0,0,1,.745-1.08h0c.025,0,2.55,1.7,4.675.35a.655.655,0,1,1,.7,1.1A4.665,4.665,0,0,1,328.815,180.74Z" fill="#14a08c"/>
      <path id="Tracé_972" data-name="Tracé 972" d="M328.815,180.74a6.938,6.938,0,0,1-3.565-1.1.656.656,0,0,1,.745-1.08h0c.025,0,2.55,1.7,4.675.35a.655.655,0,1,1,.7,1.1A4.665,4.665,0,0,1,328.815,180.74Z" fill="#fff" opacity="0.6" style="mix-blend-mode: normal;isolation: isolate"/>
      <path id="Tracé_973" data-name="Tracé 973" d="M248.4,232.385c-3.065,0-4.735-2.97-4.81-3.1a.657.657,0,0,1,1.15-.635c0,.04,1.5,2.66,4,2.4a.66.66,0,0,1,.135,1.31C248.73,232.375,248.565,232.385,248.4,232.385Z" fill="#14a08c"/>
      <path id="Tracé_974" data-name="Tracé 974" d="M248.4,232.385c-3.065,0-4.735-2.97-4.81-3.1a.657.657,0,0,1,1.15-.635c0,.04,1.5,2.66,4,2.4a.66.66,0,0,1,.135,1.31C248.73,232.375,248.565,232.385,248.4,232.385Z" fill="#fff" opacity="0.6" style="mix-blend-mode: normal;isolation: isolate"/>
      <path id="Tracé_975" data-name="Tracé 975" d="M164.5,245.74a.655.655,0,0,1-.155-1.29h0c.03,0,2.965-.775,3.365-3.265a.656.656,0,0,1,1.295.21c-.535,3.355-4.19,4.29-4.345,4.33A.859.859,0,0,1,164.5,245.74Z" fill="#14a08c"/>
      <path id="Tracé_976" data-name="Tracé 976" d="M164.5,245.74a.655.655,0,0,1-.155-1.29h0c.03,0,2.965-.775,3.365-3.265a.656.656,0,0,1,1.295.21c-.535,3.355-4.19,4.29-4.345,4.33A.859.859,0,0,1,164.5,245.74Z" opacity="0.6" style="mix-blend-mode: normal;isolation: isolate"/>
      <path id="Tracé_977" data-name="Tracé 977" d="M310.5,200.165a.655.655,0,0,1-.16-1.295h0c.03,0,2.965-.77,3.365-3.26a.66.66,0,0,1,1.315.12.7.7,0,0,1-.015.09c-.54,3.355-4.2,4.29-4.35,4.325A.541.541,0,0,1,310.5,200.165Z" fill="#14a08c"/>
      <path id="Tracé_978" data-name="Tracé 978" d="M310.5,200.165a.655.655,0,0,1-.16-1.295h0c.03,0,2.965-.77,3.365-3.26a.66.66,0,0,1,1.315.12.7.7,0,0,1-.015.09c-.54,3.355-4.2,4.29-4.35,4.325A.541.541,0,0,1,310.5,200.165Z" opacity="0.6" style="mix-blend-mode: normal;isolation: isolate"/>
      <path id="Tracé_979" data-name="Tracé 979" d="M337.365,225.1h-.11c-.16-.03-3.87-.71-4.635-4a.654.654,0,0,1,.488-.787l.012,0a.66.66,0,0,1,.79.5v0c.57,2.45,3.55,3,3.58,3a.66.66,0,0,1-.115,1.305Z" fill="#14a08c"/>
      <path id="Tracé_980" data-name="Tracé 980" d="M325.645,249.2a4.8,4.8,0,0,1-3.14-1.1.655.655,0,1,1,.762-1.066.7.7,0,0,1,.078.066c1.935,1.61,4.65.26,4.68.245a.657.657,0,1,1,.6,1.17h0A7.117,7.117,0,0,1,325.645,249.2Z" fill="#14a08c"/>
      <path id="Tracé_981" data-name="Tracé 981" d="M295,167.14a.639.639,0,0,1-.325-.085c-.135-.075-3.4-1.965-3-5.34a.657.657,0,0,1,1.305.15c-.285,2.5,2.335,4.035,2.36,4.05a.655.655,0,0,1-.34,1.225Z" fill="#14a08c"/>
      <path id="Tracé_982" data-name="Tracé 982" d="M164.4,169.8a.656.656,0,0,1-.055-1.31c2.5-.22,3.5-3.09,3.5-3.12a.655.655,0,0,1,1.245.4c-.045.155-1.245,3.73-4.63,4Z" fill="#14a08c"/>
    </g>
    <g id="freepik--character-1--inject-104">
      <path id="Tracé_983" data-name="Tracé 983" d="M213.18,189.59c-1.775.83-3.34,4.82-2.83,10.55s-11.36,1.71-12.975,8.13c-2.915,11.62,16.63,18.6,24.96,11.62,5.155-4.32,10-18.56,9.29-26.33C230.865,185.205,217.9,179.6,213.18,189.59Z" fill="#263238"/>
      <path id="Tracé_984" data-name="Tracé 984" d="M231.935,204.25c.22-.065.54-.16.815-.25l.86-.29c.575-.2,1.145-.42,1.71-.655a32.008,32.008,0,0,0,3.29-1.575,20.458,20.458,0,0,0,5.555-4.34,19.725,19.725,0,0,0,3.225-6.32c.4-1.18.745-2.4,1.035-3.63s.565-2.5.775-3.715l2.04.125a36.973,36.973,0,0,1-.875,8.04,26.559,26.559,0,0,1-1.205,3.97,16.49,16.49,0,0,1-2.085,3.825,22.052,22.052,0,0,1-6.43,5.575,31.54,31.54,0,0,1-3.72,1.88c-.64.27-1.285.5-1.945.745-.325.115-.655.225-1,.325s-.65.195-1.06.295Z" fill="#7f3e3b"/>
      <path id="Tracé_985" data-name="Tracé 985" d="M251.23,184.285l.85-3.055-3.375.26a4.383,4.383,0,0,0,.925,3.205Z" fill="#7f3e3b"/>
      <path id="Tracé_986" data-name="Tracé 986" d="M252.585,177.675l-3.08.8-.8,3.01,3.375-.26Z" fill="#7f3e3b"/>
      <path id="Tracé_987" data-name="Tracé 987" d="M228.115,205.03c1.555-1.415,5.5-2.5,5.5-2.5l4.325,6.5s-4.935,3.295-7.03,2.53C228.73,210.8,226.665,206.345,228.115,205.03Z" fill="#fe703a"/>
      <path id="Tracé_988" data-name="Tracé 988" d="M213.87,297.485l2.7,2.96,7.735-5.51-2.695-2.96Z" fill="#7f3e3b"/>
      <path id="Tracé_989" data-name="Tracé 989" d="M198.66,309.18l3.615,1.8,5.315-7.8-3.615-1.795Z" fill="#7f3e3b"/>
      <path id="Tracé_990" data-name="Tracé 990" d="M202.85,310.53l-2.79-3.575a.32.32,0,0,0-.415-.085l-3.145,1.8a.645.645,0,0,0-.214.887.545.545,0,0,0,.044.063c1,1.23,1.535,1.775,2.765,3.35.75.965,2.28,3.215,3.32,4.55s2.42.38,2.105-.27a11.709,11.709,0,0,1-1.45-6.035A1.046,1.046,0,0,0,202.85,310.53Z" fill="#263238"/>
      <path id="Tracé_991" data-name="Tracé 991" d="M217.37,300.5l-1.84-4.42a.385.385,0,0,0-.41-.235l-3.9.5a.59.59,0,0,0-.524.649.565.565,0,0,0,.049.181c.67,1.535,1.075,2.25,1.885,4.2.5,1.2,1.66,4.335,2.345,6s2.445,1.27,2.315.54c-.585-3.27-.385-5.38.1-6.665A.967.967,0,0,0,217.37,300.5Z" fill="#263238"/>
      <path id="Tracé_992" data-name="Tracé 992" d="M224.295,294.935l-3.985,2.84-3.015-2.73,4.305-3.07Z" opacity="0.2" style="mix-blend-mode: normal;isolation: isolate"/>
      <path id="Tracé_993" data-name="Tracé 993" d="M203.975,301.385l3.615,1.795-2.745,4.02-3.615-1.8Z" opacity="0.2" style="mix-blend-mode: normal;isolation: isolate"/>
      <path id="Tracé_994" data-name="Tracé 994" d="M233.56,205.535s.12-.18-2.07,23.71l-16.35,1.145c-.19-6.67.31-11.38-2.8-25.085a48,48,0,0,1,6.965-.88,51.75,51.75,0,0,1,7.44.04C229.935,204.77,233.56,205.535,233.56,205.535Z" fill="#fe703a"/>
      <path id="Tracé_995" data-name="Tracé 995" d="M213.565,209.265c-1.215-.56-2.28-1.16-3.385-1.795s-2.15-1.315-3.19-2.035a38.432,38.432,0,0,1-5.875-4.91l-.66-.715-.17-.18q-.146-.168-.275-.35a4.291,4.291,0,0,1-.4-.7,6.31,6.31,0,0,1-.5-2.47,16.077,16.077,0,0,1,.54-4,37.307,37.307,0,0,1,2.63-7.08l1.91.74c-.295,1.135-.575,2.315-.825,3.47s-.46,2.32-.6,3.46a14.761,14.761,0,0,0-.13,3.24,3,3,0,0,0,.28,1.08c0,.035.05.075.065.08h0l.155.145.615.585a42.983,42.983,0,0,0,5.5,4.225c.975.645,2,1.235,3,1.83s2.075,1.16,3.05,1.655Z" fill="#7f3e3b"/>
      <path id="Tracé_996" data-name="Tracé 996" d="M218.77,206.22c-1.855-2.585-5.5-2.545-5.5-2.545l-4.4,6.5s4.9,3.34,7,2.6C218.1,211.98,219.915,207.81,218.77,206.22Z" fill="#fe703a"/>
      <path id="Tracé_997" data-name="Tracé 997" d="M226.74,204.465l-7.44-.04c-1.14.46-1.8,3.425,5.75,5.935C230.285,207.385,227.5,204.74,226.74,204.465Z" fill="#fff"/>
      <path id="Tracé_998" data-name="Tracé 998" d="M220.08,196.05c.455,2.4.9,6.785-.78,8.375,0,0,.65,2.435,5.75,5.935,3.575-3.585,1.69-5.9,1.69-5.9-2.665-.655-2.585-2.635-2.11-4.5Z" fill="#7f3e3b"/>
      <path id="Tracé_999" data-name="Tracé 999" d="M235.5,219.83h-.08a1,1,0,0,1-.915-1.075c.18-2.23-1.5-3.915-3.43-5.87-2.215-2.235-4.73-4.77-4.83-8.715a1,1,0,0,1,2-.05c.08,3.15,2.2,5.29,4.25,7.36s4.255,4.29,4,7.435A1,1,0,0,1,235.5,219.83Z" fill="#263238"/>
      <path id="Tracé_1000" data-name="Tracé 1000" d="M220.885,224.89a.968.968,0,0,1-.24-.03,1,1,0,0,1-.73-1.21c.965-3.92-.3-7-1.64-10.24-1.2-2.91-2.44-5.92-1.84-9.44a1,1,0,0,1,1.97.34c-.5,2.95.575,5.57,1.715,8.34,1.34,3.245,2.855,6.925,1.735,11.5A1,1,0,0,1,220.885,224.89Z" fill="#263238"/>
      <path id="Tracé_1001" data-name="Tracé 1001" d="M223.69,199.14l-2,.235a4.562,4.562,0,0,0,.57,1.525,2.653,2.653,0,0,0,2.145.88,6.739,6.739,0,0,1,.25-1.83Z" opacity="0.2" style="mix-blend-mode: normal;isolation: isolate"/>
      <path id="Tracé_1002" data-name="Tracé 1002" d="M215.655,193.64c1.465,3.73,2,5.34,4.555,6.67,3.84,2,8.1-.6,7.78-4.695-.285-3.685-2.63-9.165-6.845-9.475a5.465,5.465,0,0,0-5.49,7.5Z" fill="#7f3e3b"/>
      <path id="Tracé_1003" data-name="Tracé 1003" d="M219.67,185.6c2.845,1.75.41,12.045-4.4,11.5S215.465,183.015,219.67,185.6Z" fill="#263238"/>
      <path id="Tracé_1004" data-name="Tracé 1004" d="M219.565,185.64c-2.145,1.425-.68,3.9,6.55,2.435C226.115,188.07,223.125,183.27,219.565,185.64Z" fill="#263238"/>
      <path id="Tracé_1005" data-name="Tracé 1005" d="M216.175,197.265a2.937,2.937,0,0,0,1.62,1.54c.965.36,1.53-.5,1.34-1.435-.175-.855-.885-2.08-1.885-2.03a1.314,1.314,0,0,0-1.075,1.925Z" fill="#7f3e3b"/>
      <path id="Tracé_1006" data-name="Tracé 1006" d="M231.5,229.245s8.75,28.565,9.455,40.855c.73,12.785-18.255,27.955-18.255,27.955l-4.725-5.185s15.425-13.1,13.31-22.59C228.36,257.2,219.5,230.085,219.5,230.085Z" fill="#263238"/>
      <path id="Tracé_1007" data-name="Tracé 1007" d="M226.045,238.6c-.8-2.5-2.58-.82-3.2,1.83,1.235,4,2.665,8.68,4.025,13.365C227.4,249.64,227.61,243.495,226.045,238.6Z" opacity="0.2" style="mix-blend-mode: normal;isolation: isolate"/>
      <path id="Tracé_1008" data-name="Tracé 1008" d="M216.7,292.62l5.995,6.185,2.56-1.415-6.335-6.9Z" fill="#fe703a"/>
      <path id="Tracé_1009" data-name="Tracé 1009" d="M227.175,229.55s-2.5,28-5,43.595c-2.025,12.6-15.78,33.18-15.78,33.18l-5.04-2.345s9.245-22.035,10.685-30.6c4.62-27.415-1.62-35.325,3.105-43Z" fill="#263238"/>
      <path id="Tracé_1010" data-name="Tracé 1010" d="M201,304.035l5.685,2.79,1.865-2.315-6.65-3.135Z" fill="#fe703a"/>
      <path id="Tracé_1011" data-name="Tracé 1011" d="M214.83,229.45l-.635,1.5c-.05.115.09.225.28.21l17.15-1.2c.145,0,.265-.09.265-.185l.045-1.5c0-.1-.13-.175-.29-.165l-16.56,1.16A.286.286,0,0,0,214.83,229.45Z" fill="#fff"/>
      <path id="Tracé_1012" data-name="Tracé 1012" d="M217.18,231.14l-.44.03c-.09,0-.16-.035-.16-.09l.075-1.915c0-.055.08-.11.165-.115l.445-.03c.09,0,.16.035.155.09l-.075,1.915C217.345,231.09,217.27,231.14,217.18,231.14Z" fill="#263238"/>
      <path id="Tracé_1013" data-name="Tracé 1013" d="M230.39,230.22l-.445.03c-.09,0-.16-.035-.155-.09l.075-1.915c0-.055.075-.1.165-.115l.44-.03c.09,0,.16.035.16.09l-.075,1.92C230.55,230.165,230.5,230.215,230.39,230.22Z" fill="#263238"/>
      <path id="Tracé_1014" data-name="Tracé 1014" d="M223.785,230.685l-.445.03c-.085,0-.155-.035-.155-.09l.075-1.92c0-.055.075-.1.165-.11l.445-.03c.085,0,.155.035.155.09l-.075,1.915C223.95,230.64,223.875,230.675,223.785,230.685Z" fill="#263238"/>
      <path id="Tracé_1015" data-name="Tracé 1015" d="M221.68,192.24c-.24.08-.34.44-.22.81l.875-.28C222.215,192.4,221.92,192.14,221.68,192.24Z" fill="#263238"/>
      <path id="Tracé_1016" data-name="Tracé 1016" d="M225.5,191.03c-.245.08-.345.445-.225.815l.88-.285C226,191.19,225.715,190.955,225.5,191.03Z" fill="#263238"/>
      <path id="Tracé_1017" data-name="Tracé 1017" d="M225.375,191.085l.8-.54S225.95,191.385,225.375,191.085Z" fill="#263238"/>
      <path id="Tracé_1018" data-name="Tracé 1018" d="M224.5,192.54a8.629,8.629,0,0,0,1.74,1.62,1.4,1.4,0,0,1-1.035.565Z" fill="#630f0f"/>
      <path id="Tracé_1019" data-name="Tracé 1019" d="M224.56,196.28a.1.1,0,0,0,.03-.1.1.1,0,0,0-.12-.06,2.587,2.587,0,0,1-2.31-.31.1.1,0,0,0-.134,0h0a.09.09,0,0,0-.008.127l.008.008a2.718,2.718,0,0,0,2.5.35Z" fill="#263238"/>
      <path id="Tracé_1020" data-name="Tracé 1020" d="M220.415,192.015a.186.186,0,0,0,.055-.08,1.5,1.5,0,0,1,.97-1,.19.19,0,0,0-.09-.37h0a1.906,1.906,0,0,0-1.24,1.23.19.19,0,0,0,.12.24A.179.179,0,0,0,220.415,192.015Z" fill="#263238"/>
      <path id="Tracé_1021" data-name="Tracé 1021" d="M226.4,189.545a.06.06,0,0,0,.025-.025.19.19,0,0,0-.027-.267l0,0a1.909,1.909,0,0,0-1.7-.375.19.19,0,0,0-.122.239l0,.006a.2.2,0,0,0,.24.12,1.5,1.5,0,0,1,1.345.31A.19.19,0,0,0,226.4,189.545Z" fill="#263238"/>
      <path id="Tracé_1022" data-name="Tracé 1022" d="M206.375,186.505a.676.676,0,0,1-.345-.1l-15.21-9.37a.66.66,0,0,1,.69-1.12l15.21,9.37a.655.655,0,0,1-.345,1.215Z" fill="#14a08c"/>
      <path id="Tracé_1023" data-name="Tracé 1023" d="M194.265,178.075c.855-.035,1.735-.075,1.85-.845s-.71-1.065-1.5-1.355l-.215-.08a.835.835,0,0,0-.055-.22l.175-.195c.56-.62,1.145-1.26.69-1.87s-1.235-.25-2,.105l-.235.11c-.065-.045-.13-.08-.2-.12s0-.16,0-.23c-.04-.85-.08-1.73-.845-1.845s-1.065.71-1.355,1.5c-.025.065-.05.14-.08.215l-.225.055-.19-.17c-.62-.565-1.26-1.145-1.87-.7s-.25,1.235.1,2l.11.235a1.964,1.964,0,0,0-.12.2h-.23c-.85.04-1.735.08-1.85.85s.715,1.065,1.5,1.355l.215.08a.836.836,0,0,0,.055.22c-.06.07-.12.14-.175.2-.56.62-1.14,1.255-.69,1.87s1.235.245,2-.1l.24-.11.2.12v.23c.04.85.08,1.73.845,1.845s1.07-.71,1.36-1.5a1.011,1.011,0,0,1,.075-.215,1.941,1.941,0,0,0,.225-.055l.195.175c.615.56,1.255,1.145,1.87.695s.245-1.235-.11-2c-.03-.065-.07-.15-.1-.235l.12-.195Z" fill="#14a08c"/>
      <path id="Tracé_1024" data-name="Tracé 1024" d="M194.265,178.075c.855-.035,1.735-.075,1.85-.845s-.71-1.065-1.5-1.355l-.215-.08a.835.835,0,0,0-.055-.22l.175-.195c.56-.62,1.145-1.26.69-1.87s-1.235-.25-2,.105l-.235.11c-.065-.045-.13-.08-.2-.12s0-.16,0-.23c-.04-.85-.08-1.73-.845-1.845s-1.065.71-1.355,1.5c-.025.065-.05.14-.08.215l-.225.055-.19-.17c-.62-.565-1.26-1.145-1.87-.7s-.25,1.235.1,2l.11.235a1.964,1.964,0,0,0-.12.2h-.23c-.85.04-1.735.08-1.85.85s.715,1.065,1.5,1.355l.215.08a.836.836,0,0,0,.055.22c-.06.07-.12.14-.175.2-.56.62-1.14,1.255-.69,1.87s1.235.245,2-.1l.24-.11.2.12v.23c.04.85.08,1.73.845,1.845s1.07-.71,1.36-1.5a1.011,1.011,0,0,1,.075-.215,1.941,1.941,0,0,0,.225-.055l.195.175c.615.56,1.255,1.145,1.87.695s.245-1.235-.11-2c-.03-.065-.07-.15-.1-.235l.12-.195Z" fill="#fff" opacity="0.7" style="mix-blend-mode: normal;isolation: isolate"/>
      <path id="Tracé_1025" data-name="Tracé 1025" d="M201.835,186.665l-.625-4,4.08,2a3.536,3.536,0,0,1-1,1.765,1.65,1.65,0,0,1-1.685.5Z" fill="#7f3e3b"/>
      <path id="Tracé_1026" data-name="Tracé 1026" d="M203.5,180.705l2.09,1.835-.3,2.1-4.08-1.98Z" fill="#7f3e3b"/>
      <path id="Tracé_1027" data-name="Tracé 1027" d="M204.16,312.445a1.042,1.042,0,0,0,.12-.1.32.32,0,0,0,.1-.315c-.12-.5-1.5-1-1.655-1.035a.085.085,0,0,0-.1.025.1.1,0,0,0,0,.105c.225.5.675,1.32,1.18,1.4A.5.5,0,0,0,204.16,312.445Zm-1.285-1.19c.545.2,1.25.555,1.315.82a.139.139,0,0,1-.05.135.358.358,0,0,1-.325.135c-.275-.05-.615-.45-.94-1.09Z" fill="#14a08c"/>
      <path id="Tracé_1028" data-name="Tracé 1028" d="M204.415,311.11a.321.321,0,0,0,.085-.075.329.329,0,0,0,0-.42.5.5,0,0,0-.35-.24c-.575-.105-1.5.605-1.535.635a.1.1,0,0,0-.035.09.106.106,0,0,0,.055.075A2.527,2.527,0,0,0,204.415,311.11Zm-1.5-.075a2.1,2.1,0,0,1,1.205-.47.289.289,0,0,1,.22.15c.065.105.035.16,0,.2a2.045,2.045,0,0,1-1.455.14Z" fill="#14a08c"/>
      <path id="Tracé_1029" data-name="Tracé 1029" d="M217.46,302.765a1.564,1.564,0,0,0,.565.78.586.586,0,0,0,.5.045.276.276,0,0,0,.2-.21c.1-.5-1.205-1.735-1.47-2a.1.1,0,0,0-.11,0,.09.09,0,0,0-.045.1A6.042,6.042,0,0,0,217.46,302.765Zm1.04.375a.357.357,0,0,1,.035.185c0,.025,0,.05-.07.07a.415.415,0,0,1-.36-.03,2.655,2.655,0,0,1-.765-1.63A6.074,6.074,0,0,1,218.5,303.14Z" fill="#14a08c"/>
      <path id="Tracé_1030" data-name="Tracé 1030" d="M217.115,301.515a.149.149,0,0,0,0,.03c.41.415,1.635,1.085,2.03.855.085-.05.175-.16.1-.4-.255-.92-2-.63-2.085-.615a.09.09,0,0,0-.075.065A.1.1,0,0,0,217.115,301.515Zm1.95.475.025.06v.185c-.23.13-1.155-.3-1.645-.69.41-.045,1.4-.085,1.62.445Z" fill="#14a08c"/>
      <path id="Tracé_1031" data-name="Tracé 1031" d="M221.58,192.295l.8-.545S222.155,192.6,221.58,192.295Z" fill="#263238"/>
    </g>
    <g id="freepik--character-2--inject-104">
      <path id="Tracé_1032" data-name="Tracé 1032" d="M286.945,323.275l-3.875.005-1.045-8.97,3.875-.005Z" fill="#7f3e3b"/>
      <path id="Tracé_1033" data-name="Tracé 1033" d="M320.3,306.625l-2.935,2.535-6.645-6.115,2.93-2.535Z" fill="#7f3e3b"/>
      <path id="Tracé_1034" data-name="Tracé 1034" d="M316.8,309.06l3.57-3.09a.325.325,0,0,1,.415,0l2.72,2.17a.6.6,0,0,1,.072.838.61.61,0,0,1-.072.072c-1.165.975-2.06,1.63-3.5,2.88-.89.77-3.5,3.19-4.73,4.255s-2.395-.06-2-.61c1.85-2.46,3-4.64,3.18-5.935A1,1,0,0,1,316.8,309.06Z" fill="#263238"/>
      <path id="Tracé_1035" data-name="Tracé 1035" d="M283.1,322.83h4.235a.341.341,0,0,1,.33.265l.77,3.445a.565.565,0,0,1-.555.69c-1.53-.025-3.735-.11-5.655-.11-2.24,0-3.555.06-6.185.065-1.59,0-2.035-1.605-1.37-1.75,3.03-.67,4.88-.675,7.5-2.295A1.79,1.79,0,0,1,283.1,322.83Z" fill="#263238"/>
      <path id="Tracé_1036" data-name="Tracé 1036" d="M270.5,211.9c-.78-.3-1.45-.575-2.15-.9s-1.375-.635-2.055-.97a44.689,44.689,0,0,1-4-2.23,37.653,37.653,0,0,1-3.8-2.66c-.3-.25-.615-.5-.915-.755l-.89-.815c-.3-.27-.575-.58-.86-.87-.145-.16-.27-.275-.435-.465s-.325-.375-.47-.565a12.2,12.2,0,0,1-1.385-2.33,18.229,18.229,0,0,1-.885-2.325,28.352,28.352,0,0,1-1-4.59,42.671,42.671,0,0,1-.225-9.03h2.91c.2,1.355.41,2.78.685,4.15s.565,2.74.92,4.06a29,29,0,0,0,1.27,3.785,10.862,10.862,0,0,0,1.765,3l.245.25c.075.08.225.2.335.3.24.205.46.42.715.615.5.4,1,.8,1.56,1.175,1.08.75,2.22,1.465,3.41,2.135s2.4,1.3,3.64,1.9c.62.3,1.245.6,1.87.885s1.28.575,1.84.815Z" fill="#7f3e3b"/>
      <path id="Tracé_1037" data-name="Tracé 1037" d="M271.12,215.2a45.281,45.281,0,0,1-6.23-4.66l1.545-7.9a72.152,72.152,0,0,0,8.745,1.91C280.055,205.18,274.6,217.265,271.12,215.2Z" fill="#263238"/>
      <path id="Tracé_1038" data-name="Tracé 1038" d="M254.445,184.075l.275-4.935-4.1,1.315s-.955,3.535,1.705,4.465Z" fill="#7f3e3b"/>
      <path id="Tracé_1039" data-name="Tracé 1039" d="M254.225,176.485l-3.385,1.41-.22,2.56,4.1-1.315Z" fill="#7f3e3b"/>
      <path id="Tracé_1040" data-name="Tracé 1040" d="M282.03,314.31l.535,4.625,3.875-.005L285.9,314.3Z" opacity="0.2" style="mix-blend-mode: normal;isolation: isolate"/>
      <path id="Tracé_1041" data-name="Tracé 1041" d="M313.655,300.51l-2.935,2.535,3.43,3.15,2.93-2.535Z" opacity="0.2" style="mix-blend-mode: normal;isolation: isolate"/>
      <path id="Tracé_1042" data-name="Tracé 1042" d="M290.08,204.39a2.081,2.081,0,0,0-2.013-2.145h-.017c-11.06-.205-18.255,2.9-18.75,3.1a1.169,1.169,0,0,0-.715.885c-.46,2.77-1.765,14.38,4.63,32.55l20.5-2.935C293.44,232.815,289.62,218.935,290.08,204.39Z" fill="#263238"/>
      <path id="Tracé_1043" data-name="Tracé 1043" d="M273.5,203.945c-1.215,1.625-1.765,5.37,2.26,8.11,4.95-3.695,7.5-7.67,8.255-9.74A51.366,51.366,0,0,0,273.5,203.945Z" fill="#fff"/>
      <path id="Tracé_1044" data-name="Tracé 1044" d="M272.58,205.465a1,1,0,0,1-1-1,2.854,2.854,0,0,1,1.32-2c2.03-1.5,6-2.645,11-1.2a1,1,0,0,1-.555,1.92c-5.8-1.675-9.375.705-9.76,1.39A1,1,0,0,1,272.58,205.465Z" fill="#14a08c"/>
      <path id="Tracé_1045" data-name="Tracé 1045" d="M280.89,192.81c-.15,2.885.035,8.1,2.265,9.7a9.889,9.889,0,0,1-6.37,4.365c-2,.355-2.685-.385-2.77-1.32a2.407,2.407,0,0,1,1.22-2.245c2.155-1.25,1.725-3.26.95-5.16Z" fill="#7f3e3b"/>
      <path id="Tracé_1046" data-name="Tracé 1046" d="M272.275,228.4a.954.954,0,0,1-.33-.06,1,1,0,0,1-.61-1.275,2.713,2.713,0,0,0-.08-2.185l-.105-.285a3.323,3.323,0,0,0-.67-.9,3.25,3.25,0,0,1-.855-4.025,2.688,2.688,0,0,0,.215-.9,3.328,3.328,0,0,0-.455-1,3.957,3.957,0,0,1-.705-2,3.9,3.9,0,0,1,.785-2.07,2.708,2.708,0,0,0,.4-.75,2,2,0,0,0-.16-.81,3,3,0,0,1-.17-1.8,3.288,3.288,0,0,1,1.19-1.7,1.884,1.884,0,0,0,.415-.435,1.312,1.312,0,0,0,0-.74,2.292,2.292,0,0,1,.225-1.715c.35-.55.315-.69.285-.805a1.7,1.7,0,0,1-.065-.54,1,1,0,1,1,2,0v.03a2.788,2.788,0,0,1-.5,2.345,2.963,2.963,0,0,0,.045.35,2.775,2.775,0,0,1-1.075,3c-.32.28-.5.45-.57.7a1.421,1.421,0,0,0,.135.67,3.687,3.687,0,0,1,.245,1.685,3.882,3.882,0,0,1-.7,1.585,2.407,2.407,0,0,0-.47,1,2.781,2.781,0,0,0,.435.975,4.653,4.653,0,0,1,.715,1.78,4.125,4.125,0,0,1-.3,1.76,2.494,2.494,0,0,0-.225,1.135,2.827,2.827,0,0,0,.665.915,4.828,4.828,0,0,1,1.08,1.59l.09.26a4.629,4.629,0,0,1,.085,3.525A1,1,0,0,1,272.275,228.4Z" fill="#14a08c"/>
      <path id="Tracé_1047" data-name="Tracé 1047" d="M289.895,204.225c.545.5,1,.92,1.46,1.4s.91.945,1.355,1.425c.89.96,1.73,1.97,2.54,3a32.492,32.492,0,0,1,4.2,6.96,20.88,20.88,0,0,1,.73,2.035c.105.35.2.715.28,1.085l.03.135.045.235a4.732,4.732,0,0,1,.06.5,4.915,4.915,0,0,1-.03,1,5,5,0,0,1-.535,1.71,6.621,6.621,0,0,1-.845,1.24,8.99,8.99,0,0,1-1.855,1.61,17.047,17.047,0,0,1-3.77,1.85c-.63.23-1.265.425-1.9.59s-1.26.32-1.955.435l-.9-2.765c.5-.28,1.035-.575,1.54-.875s1-.615,1.5-.93a18.451,18.451,0,0,0,2.615-2,5.368,5.368,0,0,0,.815-1c.175-.285.16-.475.11-.415a.106.106,0,0,0,0,.05h0l-.03-.09c-.075-.23-.145-.465-.245-.705a14.134,14.134,0,0,0-.635-1.43,23.362,23.362,0,0,0-1.71-2.845c-.635-.94-1.335-1.86-2.075-2.76s-1.5-1.785-2.3-2.66c-.4-.435-.8-.86-1.21-1.28s-.84-.86-1.2-1.21Z" fill="#7f3e3b"/>
      <path id="Tracé_1048" data-name="Tracé 1048" d="M288.605,202.33c2.26.335,5.8,6,5.8,6l-5.755,7.715s-3.07-2.925-3.965-5.5C283,205.6,284.165,201.68,288.605,202.33Z" fill="#263238"/>
      <path id="Tracé_1049" data-name="Tracé 1049" d="M285.59,221.75a1,1,0,0,1-.855-.5,4.044,4.044,0,0,1-.43-2.18,2.694,2.694,0,0,0-.08-.925,3.245,3.245,0,0,0-.745-.81,3.94,3.94,0,0,1-1.3-1.67,3.853,3.853,0,0,1,.1-2.21,2.79,2.79,0,0,0,.145-.84,3.264,3.264,0,0,0-.54-.945,3,3,0,0,1-.165-4,2.88,2.88,0,0,0,.325-.655,3.3,3.3,0,0,0-.27-1.1,3.2,3.2,0,0,1-.28-1.9,4.6,4.6,0,0,1,1.33-2.41l.065-.065a1,1,0,0,1,1.44,1.385l-.115.115a2.711,2.711,0,0,0-.785,1.465,4.489,4.489,0,0,0,.225.735,4.678,4.678,0,0,1,.385,1.92,3.569,3.569,0,0,1-.6,1.525,2.273,2.273,0,0,0-.415,1,2.96,2.96,0,0,0,.5.85,4.621,4.621,0,0,1,.865,1.705,3.866,3.866,0,0,1-.165,1.725,2.494,2.494,0,0,0-.135,1.1,2.861,2.861,0,0,0,.725.79,4.7,4.7,0,0,1,1.235,1.47,4.072,4.072,0,0,1,.26,1.765,2.647,2.647,0,0,0,.145,1.15,1,1,0,0,1-.87,1.51Z" fill="#14a08c"/>
      <path id="Tracé_1050" data-name="Tracé 1050" d="M278.97,194.985l-2.78,3.155a9.138,9.138,0,0,1,.5,1.5c1.17-.345,2.625-1.89,2.575-3.16A4.278,4.278,0,0,0,278.97,194.985Z" opacity="0.2" style="mix-blend-mode: normal;isolation: isolate"/>
      <path id="Tracé_1051" data-name="Tracé 1051" d="M272.593,188.438a11.249,11.249,0,0,0,.087,1.377,2.214,2.214,0,0,0,2.245.1l-.35-5.7h0C272.326,185.979,272.584,186.806,272.593,188.438Z" fill="#263238"/>
      <path id="Tracé_1052" data-name="Tracé 1052" d="M282.86,190.065c-.945,3.73-1.31,5.96-3.58,7.535-3.415,2.37-7.745-.24-7.93-4.175-.17-3.545,1.4-9.045,5.385-9.845a5.24,5.24,0,0,1,6.125,6.485Z" fill="#7f3e3b"/>
      <path id="Tracé_1053" data-name="Tracé 1053" d="M271.97,194.4h-.135l-8.475-1.795a1.776,1.776,0,0,1,.735-3.475.651.651,0,0,1,.5.771v0a.655.655,0,0,1-.775.5.434.434,0,0,0-.35.065.46.46,0,0,0-.2.29.464.464,0,0,0,.355.55l8.475,1.795a.655.655,0,0,1-.135,1.295Z" fill="#14a08c"/>
      <path id="Tracé_1054" data-name="Tracé 1054" d="M271.935,194.555l-1.025-.22.325-1.5,1,.215a.78.78,0,0,1,.6.925h0A.79.79,0,0,1,271.935,194.555Z" fill="#fff"/>
      <path id="Tracé_1055" data-name="Tracé 1055" d="M280.545,188.015c0-1.42-1.07-2.455-4.64-2.18-2.915.22-1.53-3.415,2.97-3.61s5.8,1.5,6.28,4.135c2.755,4.085-2,5.78-2,5.78l-1.86,1.625a2.21,2.21,0,0,1-2.14-.685S278.79,189.765,280.545,188.015Z" fill="#263238"/>
      <path id="Tracé_1056" data-name="Tracé 1056" d="M275.765,181.52l-.115.06a.69.69,0,0,0-.04,1.195l10.44,6.455A.69.69,0,0,0,287,189a.677.677,0,0,0,.1-.272h0a1.665,1.665,0,0,0-.77-1.665l-8.9-5.5A1.668,1.668,0,0,0,275.765,181.52Z" fill="#14a08c"/>
      <path id="Tracé_1057" data-name="Tracé 1057" d="M277.645,182.21l2.67-3.91a.531.531,0,0,1,.71-.155l7.37,4.415a.524.524,0,0,1,.188.718.439.439,0,0,1-.038.057l-3.2,4.22Z" fill="#14a08c"/>
      <path id="Tracé_1058" data-name="Tracé 1058" d="M277.645,182.21l1.065-1.9,8.23,5.44-1.59,1.81Z" fill="#14a08c"/>
      <path id="Tracé_1059" data-name="Tracé 1059" d="M277.645,182.21l1.065-1.9,8.23,5.44-1.59,1.81Z" fill="#fff" opacity="0.6" style="mix-blend-mode: normal;isolation: isolate"/>
      <path id="Tracé_1060" data-name="Tracé 1060" d="M283.335,194.64a3.394,3.394,0,0,1-2.5.54c-1.135-.22-1.135-1.37-.35-2.185.705-.735,2.15-1.5,3.06-.865A1.507,1.507,0,0,1,283.335,194.64Z" fill="#7f3e3b"/>
      <path id="Tracé_1061" data-name="Tracé 1061" d="M281.11,318.045h6.56s-1.03-23.33-2.445-35.32c-.43-3.65.035-8.65.08-14.235.06-7.035.385-14.7.705-20.715.34-6.335.625-10.9.625-10.9l-13.42,1.915s-1.33,33.215.755,44.855C276.14,295.735,281.11,318.045,281.11,318.045Z" fill="#14a08c"/>
      <path id="Tracé_1062" data-name="Tracé 1062" d="M285.3,268.475c.06-7.035.385-14.7.705-20.715l-2-2.675C281.54,249.71,283.255,262.025,285.3,268.475Z" opacity="0.2" style="mix-blend-mode: normal;isolation: isolate"/>
      <path id="Tracé_1063" data-name="Tracé 1063" d="M279.61,237.86s8.335,32.915,12.3,43.56c4.335,11.65,20.3,25.27,20.3,25.27l4.035-4.44s-8.445-13.165-14.67-25.83c-2.975-16.445-7.835-40.58-7.835-40.58Z" fill="#14a08c"/>
      <path id="Tracé_1064" data-name="Tracé 1064" d="M311.665,307.36l6.325-5.465-1.635-1.885-7.175,5.985Z" fill="#fe703a"/>
      <path id="Tracé_1065" data-name="Tracé 1065" d="M280.285,318.2l7.82-.01,0-2.525-8.735-.12Z" fill="#fe703a"/>
      <path id="Tracé_1066" data-name="Tracé 1066" d="M277.1,189.335c-.25-.075-.545.165-.665.54l.89.285C277.445,189.785,277.345,189.415,277.1,189.335Z" fill="#263238"/>
      <path id="Tracé_1067" data-name="Tracé 1067" d="M273.2,188.6c-.255,0-.5.29-.5.685l.93.06C273.645,188.95,273.46,188.64,273.2,188.6Z" fill="#263238"/>
      <path id="Tracé_1068" data-name="Tracé 1068" d="M274.545,189.74a11.265,11.265,0,0,1-1.965,2.35,1.812,1.812,0,0,0,1.42.55Z" opacity="0.2" style="mix-blend-mode: normal;isolation: isolate"/>
      <path id="Tracé_1069" data-name="Tracé 1069" d="M278.37,188.935a.217.217,0,0,0,.1,0,.185.185,0,0,0,.12-.23,1.813,1.813,0,0,0-1.14-1.225.175.175,0,0,0-.221.111l0,.014a.181.181,0,0,0,.121.224h0a1.459,1.459,0,0,1,.89,1A.193.193,0,0,0,278.37,188.935Z" fill="#263238"/>
      <path id="Tracé_1070" data-name="Tracé 1070" d="M272.045,188.075a.184.184,0,0,0,.165-.055,1.464,1.464,0,0,1,1.225-.5.184.184,0,0,0,.21-.155.18.18,0,0,0-.15-.205,1.821,1.821,0,0,0-1.555.62.18.18,0,0,0-.005.255l.005,0A.205.205,0,0,0,272.045,188.075Z" fill="#263238"/>
      <path id="Tracé_1071" data-name="Tracé 1071" d="M316.245,310.43a4.688,4.688,0,0,0,.68-.775.091.091,0,0,0,0-.1.081.081,0,0,0-.09-.045c-.16,0-1.585.235-1.77.69a.31.31,0,0,0,.04.3.534.534,0,0,0,.45.255A1.134,1.134,0,0,0,316.245,310.43Zm.4-.7c-.415.535-.815.845-1.085.845a.353.353,0,0,1-.3-.18.109.109,0,0,1,0-.12c.07-.235.815-.445,1.385-.545Z" fill="#14a08c"/>
      <path id="Tracé_1072" data-name="Tracé 1072" d="M316.91,309.675a.123.123,0,0,0,.03-.045.106.106,0,0,0,0-.1c-.035-.035-.8-.85-1.37-.845a.5.5,0,0,0-.37.165h0a.31.31,0,0,0-.07.38c.2.39,1.32.55,1.76.46Zm-1.57-.72a.31.31,0,0,1,.21-.075,2.177,2.177,0,0,1,1.105.65c-.5.025-1.265-.155-1.39-.385a.147.147,0,0,1,.045-.16h0Z" fill="#14a08c"/>
      <path id="Tracé_1073" data-name="Tracé 1073" d="M282.715,323.37a.09.09,0,0,0,.06-.075.085.085,0,0,0-.045-.1c-.18-.09-1.735-.88-2.205-.615a.289.289,0,0,0-.155.245h0a.5.5,0,0,0,.175.445c.425.375,1.535.22,2.16.1Zm-2.07-.64a3.937,3.937,0,0,1,1.755.5,2.454,2.454,0,0,1-1.735-.105.324.324,0,0,1-.11-.3.1.1,0,0,1,.06-.1Z" fill="#14a08c"/>
      <path id="Tracé_1074" data-name="Tracé 1074" d="M282.715,323.37h.025a.1.1,0,0,0,.04-.085,2.674,2.674,0,0,0-.605-1.5.663.663,0,0,0-.5-.155h0a.3.3,0,0,0-.34.255c-.07.44.855,1.275,1.325,1.5A.106.106,0,0,0,282.715,323.37Zm-1.125-1.545h.1a.469.469,0,0,1,.37.12,2.139,2.139,0,0,1,.5,1.19c-.475-.285-1.11-.94-1.065-1.205A.115.115,0,0,1,281.59,321.825Zm.085-.11" fill="#14a08c"/>
      <path id="Tracé_1075" data-name="Tracé 1075" d="M289.275,226.41l-3.73,1.18,2.895,2.88s3.38-1.465,2.32-2.955Z" fill="#7f3e3b"/>
      <path id="Tracé_1076" data-name="Tracé 1076" d="M284.01,230.88l2.655,1.61,1.775-2.02-2.9-2.88Z" fill="#7f3e3b"/>
    </g>
  </g>
</svg>
