<svg xmlns="http://www.w3.org/2000/svg" width="250" height="245.275" viewBox="0 0 250 245.275">
  <g id="Restau" transform="translate(-125.007 -145.068)">
    <g id="freepik--Floor--inject-156" opacity="0.1">
      <path id="Tracé_552" data-name="Tracé 552" d="M338.116,266.748c-48.995-28.263-128.128-28.263-176.787,0s-48.384,74.116.561,102.391,128.107,28.269,176.788,0S387.061,295.029,338.116,266.748Z" fill="#fe703a"/>
    </g>
    <g id="freepik--Shadows--inject-156">
      <path id="Tracé_553" data-name="Tracé 553" d="M242.258,309.525c9.491,5.478,24.824,5.478,34.235,0,4.715-2.744,7.061-6.33,7.038-9.922s-2.4-7.184-7.15-9.923c-9.49-5.477-24.823-5.477-34.235,0-4.714,2.739-7.06,6.331-7.038,9.923S237.51,306.781,242.258,309.525Z" fill="#e0e0e0"/>
      <path id="Tracé_554" data-name="Tracé 554" d="M351.227,305.367c-14.665-8.464-38.36-8.464-52.93,0-12.869,7.481-14.3,19.081-4.344,27.5-8.031-.494-16.354,1.033-22.488,4.6-10.765,6.258-10.709,16.4.123,22.657s28.348,6.258,39.112,0c8.565-4.978,10.271-12.414,5.158-18.4,12.347,1.785,25.929-.112,35.537-5.7C365.965,327.558,365.886,313.836,351.227,305.367Z" fill="#e0e0e0"/>
      <path id="Tracé_555" data-name="Tracé 555" d="M158.629,305.395c14.665-8.464,38.36-8.464,52.924,0,12.875,7.481,14.306,19.082,4.35,27.5,8.031-.5,16.354,1.033,22.488,4.6,10.765,6.258,10.709,16.4-.129,22.657s-28.342,6.252-39.112,0c-8.564-4.978-10.27-12.414-5.152-18.4-12.347,1.785-25.929-.112-35.543-5.7C143.891,327.586,143.964,313.892,158.629,305.395Z" fill="#e0e0e0"/>
      <path id="Tracé_556" data-name="Tracé 556" d="M233.447,266.052a16.5,16.5,0,0,0-14.957,0c-4.119,2.391-4.1,6.275.051,8.666a16.49,16.49,0,0,0,14.957,0C237.617,272.327,237.6,268.432,233.447,266.052Z" fill="#e0e0e0"/>
    </g>
    <g id="freepik--Plant--inject-156">
      <path id="Tracé_557" data-name="Tracé 557" d="M236.029,252.285l-10.035.292-10.035-.292c-.432,6.775.892,13.683,2.716,17.056h0a4.609,4.609,0,0,0,1.987,2.021,11.893,11.893,0,0,0,10.664,0,4.439,4.439,0,0,0,1.986-2.077C235.148,265.895,236.455,259.026,236.029,252.285Z" fill="#fff"/>
      <path id="Tracé_558" data-name="Tracé 558" d="M233.065,248.177c3.929,2.245,3.929,5.949.045,8.217s-10.259,2.245-14.188,0-3.928-5.949-.045-8.217A15.631,15.631,0,0,1,233.065,248.177Z" fill="#ebebeb"/>
      <path id="Tracé_559" data-name="Tracé 559" d="M231.511,249.081c3.064,1.768,3.081,4.641.033,6.409a12.19,12.19,0,0,1-11.067,0c-3.064-1.773-3.081-4.641-.034-6.409A12.193,12.193,0,0,1,231.511,249.081Z" fill="#e0e0e0"/>
      <g id="Groupe_11" data-name="Groupe 11" opacity="0.15">
        <path id="Tracé_560" data-name="Tracé 560" d="M231.511,249.081c3.064,1.768,3.081,4.641.033,6.409a12.19,12.19,0,0,1-11.067,0c-3.064-1.773-3.081-4.641-.034-6.409A12.193,12.193,0,0,1,231.511,249.081Z"/>
      </g>
      <path id="Tracé_561" data-name="Tracé 561" d="M242.488,209.469c-22.612,7.408-22.791,22.534-17.74,33.3,1.285,2.183,5.18,3.367,8.564-10.046l-5.938.763,6.92-3.508,1.8-5.376-5.769.432,7.335-3.081A108.9,108.9,0,0,1,242.488,209.469Z" fill="#fafafa"/>
      <path id="Tracé_562" data-name="Tracé 562" d="M242.488,209.469c-22.612,7.408-22.791,22.534-17.74,33.3,1.285,2.183,5.18,3.367,8.564-10.046l-5.938.763,6.92-3.508,1.8-5.376-5.769.432,7.335-3.081A108.9,108.9,0,0,1,242.488,209.469Z" opacity="0.2" style="mix-blend-mode: normal;isolation: isolate"/>
      <path id="Tracé_563" data-name="Tracé 563" d="M242.488,209.469c-22.612,7.408-22.791,22.534-17.74,33.3,1.285,2.183,5.18,3.367,8.564-10.046l-5.938.763,6.92-3.508,1.8-5.376-5.769.432,7.335-3.081A108.9,108.9,0,0,1,242.488,209.469Z" fill="#fff" opacity="0.2" style="mix-blend-mode: normal;isolation: isolate"/>
      <path id="Tracé_564" data-name="Tracé 564" d="M236.1,213.252c-11.909,9.053-13,19.43-9.631,30.261C225.27,233.973,223.985,224.331,236.1,213.252Z" fill="#fff"/>
      <path id="Tracé_565" data-name="Tracé 565" d="M204.2,224.836c22.286,3.137,24.991,17.19,22.034,28.061-.837,2.245-4.266,3.979-9.648-7.936l5.657-.275-7.032-2.1-2.565-4.709,5.444-.561-7.335-1.65A102.4,102.4,0,0,0,204.2,224.836Z" fill="#fafafa"/>
      <path id="Tracé_566" data-name="Tracé 566" d="M204.2,224.836c22.286,3.137,24.991,17.19,22.034,28.061-.837,2.245-4.266,3.979-9.648-7.936l5.657-.275-7.032-2.1-2.565-4.709,5.444-.561-7.335-1.65A102.4,102.4,0,0,0,204.2,224.836Z" fill="#fff" opacity="0.2" style="mix-blend-mode: normal;isolation: isolate"/>
      <path id="Tracé_567" data-name="Tracé 567" d="M204.2,224.836c22.286,3.137,24.991,17.19,22.034,28.061-.837,2.245-4.266,3.979-9.648-7.936l5.657-.275-7.032-2.1-2.565-4.709,5.444-.561-7.335-1.65A102.4,102.4,0,0,0,204.2,224.836Z" opacity="0.1" style="mix-blend-mode: normal;isolation: isolate"/>
      <path id="Tracé_568" data-name="Tracé 568" d="M210.779,227.3c12.6,6.442,15.333,15.927,14,26.574C224.3,244.793,223.9,235.6,210.779,227.3Z" fill="#fff"/>
      <path id="Tracé_569" data-name="Tracé 569" d="M249.016,230.106c-20.44.331-24.453,12.695-23.011,22.831.5,2.115,3.4,4.068,9.58-6.067l-5.051-.887,6.561-1.123,2.84-3.928-4.844-1.123,6.791-.668A92.825,92.825,0,0,1,249.016,230.106Z" fill="#fafafa"/>
      <path id="Tracé_570" data-name="Tracé 570" d="M242.8,231.582c-12.084,4.4-15.6,12.644-15.591,22.393C228.677,245.843,230.052,237.6,242.8,231.582Z" fill="#fff"/>
      <path id="Tracé_571" data-name="Tracé 571" d="M249.016,230.106c-20.44.331-24.453,12.695-23.011,22.831.5,2.115,3.4,4.068,9.58-6.067l-5.051-.887,6.561-1.123,2.84-3.928-4.844-1.123,6.791-.668A92.825,92.825,0,0,1,249.016,230.106Z" fill="#fff" opacity="0.2" style="mix-blend-mode: normal;isolation: isolate"/>
    </g>
    <g id="freepik--Window--inject-156">
      <path id="Tracé_572" data-name="Tracé 572" d="M316.217,174.353l-.163,57.324,3.193,1.841.163-57.324Z" fill="#e0e0e0"/>
      <path id="Tracé_573" data-name="Tracé 573" d="M319.411,176.194h0l-.163,57.324,2.772-1.611.152-54.119Z" fill="#f0f0f0"/>
      <rect id="Rectangle_10" data-name="Rectangle 10" height="3.682" transform="translate(317.819 173.431)" fill="#e0e0e0"/>
      <path id="Tracé_574" data-name="Tracé 574" d="M319.4,178.764l.011-2.57-3.193-1.841-.006,2.57,3.188,1.841Z" opacity="0.2" style="mix-blend-mode: normal;isolation: isolate"/>
      <path id="Tracé_575" data-name="Tracé 575" d="M319.4,178.764l2.239-1.285-2.228-1.285h0Z" opacity="0.2" style="mix-blend-mode: normal;isolation: isolate"/>
      <rect id="Rectangle_11" data-name="Rectangle 11" height="3.682" transform="translate(317.819 173.431)" fill="#e0e0e0"/>
      <path id="Tracé_576" data-name="Tracé 576" d="M277.829,152.184l2.772-1.611-.157,57.33-2.772,1.611Z" fill="#f0f0f0"/>
      <path id="Tracé_577" data-name="Tracé 577" d="M277.672,209.514l2.772-1.611,79.97,46.167-2.772,1.616Z" fill="#f5f5f5"/>
      <path id="Tracé_578" data-name="Tracé 578" d="M274.653,146.679,361,196.533l-.185,64.659-86.351-49.854Zm82.989,109.008.162-57.33-79.975-46.173-.163,57.319,79.976,46.172" fill="#e0e0e0"/>
      <path id="Tracé_579" data-name="Tracé 579" d="M274.653,146.679l2.772-1.611,86.351,49.854L361,196.533Z" fill="#f5f5f5"/>
      <path id="Tracé_580" data-name="Tracé 580" d="M361,196.533l2.772-1.611-.185,64.659-2.772,1.611Z" fill="#f0f0f0"/>
    </g>
    <g id="freepik--Pictures--inject-156">
      <path id="Tracé_581" data-name="Tracé 581" d="M158.82,199.85h0c.275-.129.561-.27.836-.41h0C159.381,199.58,159.084,199.715,158.82,199.85Z" fill="none"/>
      <path id="Tracé_582" data-name="Tracé 582" d="M158.523,200h0l.308-.152h0Z" fill="none"/>
      <path id="Tracé_583" data-name="Tracé 583" d="M168.327,165.143l-6.376,3.676-6.471,3.743,6.471-3.743Z" fill="none"/>
      <path id="Tracé_584" data-name="Tracé 584" d="M168.389,186.15l-.017-5.915-.017-5.4.017,5.4Z" fill="none"/>
      <path id="Tracé_585" data-name="Tracé 585" d="M159.645,199.434l.174-.084Z" fill="none"/>
      <path id="Tracé_586" data-name="Tracé 586" d="M168.462,212.068l-.017-4.944-.011-4.321.011,4.321Z" fill="none"/>
      <path id="Tracé_587" data-name="Tracé 587" d="M156.042,201.011c.82-.291,1.645-.634,2.475-1.015h0C157.687,200.377,156.839,200.72,156.042,201.011Z" fill="none"/>
      <path id="Tracé_588" data-name="Tracé 588" d="M149.4,183.389l.051,18.992.034,11.006-.034-11.006Z" fill="none"/>
      <path id="Tracé_589" data-name="Tracé 589" d="M168.445,207.123V202.8l-.2.112c-.124.067-.241.14-.359.213a45.1,45.1,0,0,0-9.39,8.239c-.494.561-.987,1.089-1.464,1.645-2.52,2.879-4.984,5.932-7.515,8.788v6.993l3.047-1.762A67.332,67.332,0,0,1,168.445,207.123Z" fill="#ebebeb"/>
      <path id="Tracé_590" data-name="Tracé 590" d="M168.479,217.848v-5.775A36.236,36.236,0,0,0,162,221.614Z" fill="#ebebeb"/>
      <path id="Tracé_591" data-name="Tracé 591" d="M161.98,221.6a36.236,36.236,0,0,1,6.482-9.541v-4.95A67.179,67.179,0,0,0,152.6,227.019l9.4-5.427Z" fill="#fafafa"/>
      <path id="Tracé_592" data-name="Tracé 592" d="M158.523,200h0" fill="none"/>
      <path id="Tracé_593" data-name="Tracé 593" d="M158.82,199.85h0" fill="none"/>
      <path id="Tracé_594" data-name="Tracé 594" d="M155.6,201.163c.151-.045.3-.1.443-.152.82-.291,1.645-.634,2.475-1.015l.3-.146c.281-.135.561-.27.842-.416.477-.247.96-.5,1.442-.774-.482.275-.965.527-1.442.774l.174-.084c.421-.219.848-.449,1.274-.69l.269-.157.225-.129a45.814,45.814,0,0,0,6.521-4.675c.1-.079.191-.157.281-.242v-7.3c-4.641,2.374-9.2,3.11-12.908,1.965a11.289,11.289,0,0,1-6.1-4.726l.051,18.992A22.365,22.365,0,0,0,155.6,201.163Z" fill="#fafafa"/>
      <path id="Tracé_595" data-name="Tracé 595" d="M158.489,211.366a44.7,44.7,0,0,1,9.389-8.239c.118-.073.236-.146.36-.213l.2-.112v-4.193a90.785,90.785,0,0,0-17.1,13.01c-.617.561-1.235,1.19-1.852,1.768V221.8c2.531-2.857,4.995-5.91,7.515-8.789Q157.751,212.174,158.489,211.366Z" fill="#fafafa"/>
      <path id="Tracé_596" data-name="Tracé 596" d="M168.423,198.609v-5.152c-.09.085-.185.163-.281.242a45.872,45.872,0,0,1-6.521,4.675l-.225.129-.269.157c-.427.241-.853.471-1.274.69l-.174.084-.118.062h0l.118-.062c-.281.141-.561.281-.836.41l-.309.152c-.831.381-1.656.724-2.475,1.015l.466-.174-.466.174c-.146.051-.292.107-.443.152a22.369,22.369,0,0,1-6.174,1.218l.034,11.006c.617-.562,1.234-1.179,1.852-1.768A90.753,90.753,0,0,1,168.423,198.609Z" fill="#ebebeb"/>
      <path id="Tracé_597" data-name="Tracé 597" d="M168.372,180.235v-5.4a9.076,9.076,0,0,1-6.4-6.017l-6.494,3.744A13.383,13.383,0,0,0,168.372,180.235Z" fill="#fafafa"/>
      <path id="Tracé_598" data-name="Tracé 598" d="M155.5,188.114c3.682,1.123,8.245.41,12.909-1.964v-5.915a13.409,13.409,0,0,1-12.909-7.672l-6.1,3.519v7.3A11.285,11.285,0,0,0,155.5,188.114Z" fill="#ebebeb"/>
      <path id="Tracé_599" data-name="Tracé 599" d="M169.394,163.3l-21.086,12.174.152,55.157,21.085-12.15Zm-19.851,65.49V213.381l-.034-11.006-.05-18.992v-7.3l6.1-3.519,6.476-3.743,6.3-3.659V217.86l-6.5,3.754h0l-9.4,5.427Z" fill="#fff"/>
      <path id="Tracé_600" data-name="Tracé 600" d="M159.527,199.507h0" fill="none"/>
      <path id="Tracé_601" data-name="Tracé 601" d="M159.544,199.5l.118-.062" fill="none"/>
      <path id="Tracé_602" data-name="Tracé 602" d="M161.1,198.66c-.482.275-.965.527-1.442.774" fill="none"/>
      <line id="Ligne_1" data-name="Ligne 1" transform="translate(159.662 199.434)" fill="none"/>
      <path id="Tracé_603" data-name="Tracé 603" d="M156.042,201.011l.466-.173" fill="none"/>
      <path id="Tracé_604" data-name="Tracé 604" d="M168.356,174.836v-9.693l-6.4,3.676A9.109,9.109,0,0,0,168.356,174.836Z" fill="#ebebeb"/>
      <path id="Tracé_605" data-name="Tracé 605" d="M169.545,218.46,148.46,230.633l.006,1.465,22.348-12.9Z" fill="#cacaca"/>
      <path id="Tracé_606" data-name="Tracé 606" d="M169.394,163.3l.152,55.158,1.268.735-.157-56.623Z" fill="#f0f0f0"/>
      <path id="Tracé_607" data-name="Tracé 607" d="M174.046,156.7,144.9,173.539l.157,64.43L174.2,221.132Zm-25.58,75.4v-1.465l-.152-55.157L169.4,163.3l1.263-.729.157,56.622Z" fill="#e0e0e0"/>
      <path id="Tracé_608" data-name="Tracé 608" d="M174.046,156.7l-2.408-1.291-29.15,16.831,2.408,1.291Z" fill="#f5f5f5"/>
      <path id="Tracé_609" data-name="Tracé 609" d="M142.488,172.243l.185,64.435,2.4,1.291-.18-64.435Z" fill="#f0f0f0"/>
    </g>
    <g id="freepik--Clock--inject-156">
      <path id="Tracé_610" data-name="Tracé 610" d="M203.258,158.145h0l.2-.157h0Z" fill="none"/>
      <path id="Tracé_611" data-name="Tracé 611" d="M202.13,159.082l.04-.034Z" fill="none"/>
      <path id="Tracé_612" data-name="Tracé 612" d="M210.1,154.676l.286-.056-.275.051Z" fill="none"/>
      <path id="Tracé_613" data-name="Tracé 613" d="M209.454,154.833l.253-.061-.247.061Z" fill="none"/>
      <path id="Tracé_614" data-name="Tracé 614" d="M206.727,155.9Z" fill="none"/>
      <path id="Tracé_615" data-name="Tracé 615" d="M197.876,189.461a5.522,5.522,0,0,1-.561-.19A5.522,5.522,0,0,0,197.876,189.461Z" fill="none"/>
      <path id="Tracé_616" data-name="Tracé 616" d="M195.794,166.939h0l.118-.2h0Z" fill="none"/>
      <path id="Tracé_617" data-name="Tracé 617" d="M196.49,165.794l.146-.224h0Z" fill="none"/>
      <path id="Tracé_618" data-name="Tracé 618" d="M201,160.148a1.252,1.252,0,0,1,.123-.118A1.252,1.252,0,0,0,201,160.148Z" fill="none"/>
      <path id="Tracé_619" data-name="Tracé 619" d="M200.233,160.928l.006-.006-.006.006Z" fill="none"/>
      <path id="Tracé_620" data-name="Tracé 620" d="M198.37,163.145v-.028h0Z" fill="none"/>
      <path id="Tracé_621" data-name="Tracé 621" d="M199.386,189.736a5.053,5.053,0,0,1-.589-.067A5.053,5.053,0,0,0,199.386,189.736Z" fill="none"/>
      <path id="Tracé_622" data-name="Tracé 622" d="M210.229,184.624c-.292.291-.6.561-.9.841C209.634,185.2,209.937,184.915,210.229,184.624Z" fill="none"/>
      <path id="Tracé_623" data-name="Tracé 623" d="M205.913,187.957c-.281.163-.561.309-.836.449C205.352,188.266,205.632,188.12,205.913,187.957Z" fill="none"/>
      <path id="Tracé_624" data-name="Tracé 624" d="M206.951,187.306c-.342.225-.69.449-1.038.651C206.261,187.755,206.609,187.531,206.951,187.306Z" fill="none"/>
      <path id="Tracé_625" data-name="Tracé 625" d="M201.665,189.6l-.3.056Z" fill="none"/>
      <path id="Tracé_626" data-name="Tracé 626" d="M194.593,169.207l.039-.085h0Z" fill="none"/>
      <path id="Tracé_627" data-name="Tracé 627" d="M213.523,154.542" fill="none"/>
      <path id="Tracé_628" data-name="Tracé 628" d="M211.514,154.469h0Z" fill="none"/>
      <path id="Tracé_629" data-name="Tracé 629" d="M212.726,154.452Z" fill="none"/>
      <path id="Tracé_630" data-name="Tracé 630" d="M210.762,154.553h0l.3-.039-.269.033Z" fill="none"/>
      <path id="Tracé_631" data-name="Tracé 631" d="M214.421,154.738h0l.107.034h-.056Z" fill="none"/>
      <path id="Tracé_632" data-name="Tracé 632" d="M215.084,154.968l.1.045-.085-.039Z" fill="none"/>
      <path id="Tracé_633" data-name="Tracé 633" d="M204.51,157.224h0Z" fill="none"/>
      <path id="Tracé_634" data-name="Tracé 634" d="M191.826,183.748a2.1,2.1,0,0,0,.073.41C191.871,184.023,191.849,183.883,191.826,183.748Z" fill="none"/>
      <path id="Tracé_635" data-name="Tracé 635" d="M192.146,185.162c.039.124.067.242.107.36C192.2,185.4,192.2,185.286,192.146,185.162Z" fill="none"/>
      <path id="Tracé_636" data-name="Tracé 636" d="M191.972,184.478c.028.129.056.252.09.376C192.028,184.73,192,184.607,191.972,184.478Z" fill="none"/>
      <path id="Tracé_637" data-name="Tracé 637" d="M192.6,186.431c.045.106.084.213.134.314C192.685,186.644,192.646,186.537,192.6,186.431Z" fill="none"/>
      <path id="Tracé_638" data-name="Tracé 638" d="M192.359,185.813c.04.113.073.23.118.337C192.432,186.043,192.4,185.931,192.359,185.813Z" fill="none"/>
      <path id="Tracé_639" data-name="Tracé 639" d="M192.87,187.014c.051.1.1.2.152.292C192.965,187.211,192.921,187.11,192.87,187.014Z" fill="none"/>
      <path id="Tracé_640" data-name="Tracé 640" d="M192.949,173.231v0Z" fill="none"/>
      <path id="Tracé_641" data-name="Tracé 641" d="M205.823,156.394c-.2.112-.4.235-.6.359C205.425,156.629,205.621,156.506,205.823,156.394Z" fill="none"/>
      <path id="Tracé_642" data-name="Tracé 642" d="M191.635,182.12a2.764,2.764,0,0,0,.04.562C191.663,182.48,191.635,182.3,191.635,182.12Z" fill="none"/>
      <path id="Tracé_643" data-name="Tracé 643" d="M191.714,182.951a3.36,3.36,0,0,0,.056.472C191.748,183.271,191.731,183.125,191.714,182.951Z" fill="none"/>
      <path id="Tracé_644" data-name="Tracé 644" d="M191.6,181.032v.825A6.883,6.883,0,0,0,191.6,181.032Z" fill="none"/>
      <path id="Tracé_645" data-name="Tracé 645" d="M191.635,179.791" fill="none"/>
      <path id="Tracé_646" data-name="Tracé 646" d="M191.776,178.3v0Z" fill="none"/>
      <path id="Tracé_647" data-name="Tracé 647" d="M194.442,189.186l-.208-.213Z" fill="none"/>
      <path id="Tracé_648" data-name="Tracé 648" d="M192.09,176.441v0Z" fill="none"/>
      <path id="Tracé_649" data-name="Tracé 649" d="M191.91,177.389h0l.068-.387h0Z" fill="none"/>
      <path id="Tracé_650" data-name="Tracé 650" d="M193.168,187.559l.168.275Z" fill="none"/>
      <path id="Tracé_651" data-name="Tracé 651" d="M195.081,189.72l.236.179Z" fill="none"/>
      <path id="Tracé_652" data-name="Tracé 652" d="M193.88,188.535c.062.079.124.163.191.236A.725.725,0,0,1,193.88,188.535Z" fill="none"/>
      <path id="Tracé_653" data-name="Tracé 653" d="M193.5,188.07l.179.252Z" fill="none"/>
      <path id="Tracé_654" data-name="Tracé 654" d="M194.649,189.366l.219.2Z" fill="none"/>
      <path id="Tracé_655" data-name="Tracé 655" d="M215.42,156.831l.214.135Z" fill="none"/>
      <path id="Tracé_656" data-name="Tracé 656" d="M217.4,173.584c.141-.365.275-.729.393-1.122C217.676,172.832,217.542,173.2,217.4,173.584Z" fill="none"/>
      <path id="Tracé_657" data-name="Tracé 657" d="M217.828,172.372h0c.129-.376.241-.758.348-1.123h0C218.064,171.614,217.951,172,217.828,172.372Z" fill="none"/>
      <path id="Tracé_658" data-name="Tracé 658" d="M195.3,187.615c.2.034.393.056.6.073h1.072a6.24,6.24,0,0,0,.881-.09,2.759,2.759,0,0,0,.595-.112l.191-.045a1.611,1.611,0,0,0,.415-.1l.713-.219.146-.056c.191-.067.387-.14.561-.219l.225-.095.628-.287.242-.117c.275-.141.561-.287.836-.449s.7-.427,1.038-.651l.174-.118c.331-.225.651-.461.971-.707l.185-.146c.326-.253.651-.517.965-.8l.085-.073c.3-.275.606-.562.9-.842l.146-.14q.342-.337.673-.691l.039-.039c.208-.225.416-.455.618-.685l.134-.157c.331-.382.651-.774.966-1.178l.1-.135c.252-.326.5-.657.735-.994l.107-.145c.224-.326.449-.663.667-1l.152-.242c.174-.275.348-.561.516-.842l.107-.179c.185-.32.37-.651.561-.982l.129-.242.4-.8.129-.263c.158-.332.315-.674.461-1.011l.061-.146c.129-.308.258-.611.376-.92.04-.09.073-.185.107-.275.14-.365.269-.735.393-1.122a.622.622,0,0,0,.028-.09c.129-.376.241-.758.348-1.123a1.058,1.058,0,0,1,.062-.219c.123-.443.23-.881.325-1.318a1.313,1.313,0,0,1,.062-.292l.084-.489a2.064,2.064,0,0,1,.062-.359c.022-.123.056-.353.078-.527s.034-.214.045-.32c.051-.376.084-.758.112-1.123v-.241q.034-.561.034-1.122a10.693,10.693,0,0,0-2.245-7.167c-2.132-.449-4.708.05-7.487,1.65-7.3,4.209-13.177,14.412-13.155,22.791a10.665,10.665,0,0,0,2.245,7.15l.2.045Z" fill="none"/>
      <path id="Tracé_659" data-name="Tracé 659" d="M214.567,179.2c.174-.275.348-.561.517-.841C214.915,178.641,214.747,178.916,214.567,179.2Z" fill="none"/>
      <path id="Tracé_660" data-name="Tracé 660" d="M211.84,182.912c.331-.382.651-.775.965-1.179C212.491,182.137,212.171,182.53,211.84,182.912Z" fill="none"/>
      <path id="Tracé_661" data-name="Tracé 661" d="M216.268,176.183c-.135.263-.264.527-.4.791C216,176.71,216.133,176.446,216.268,176.183Z" fill="none"/>
      <path id="Tracé_662" data-name="Tracé 662" d="M215.207,178.2h0c.185-.325.37-.656.561-.982h0C215.561,177.546,215.375,177.878,215.207,178.2Z" fill="none"/>
      <path id="Tracé_663" data-name="Tracé 663" d="M196.686,188.956h-.039a5.963,5.963,0,0,0,.561.264h0A4.908,4.908,0,0,1,196.686,188.956Z" fill="none"/>
      <path id="Tracé_664" data-name="Tracé 664" d="M213.748,180.459c.23-.325.449-.662.668-1C214.2,179.8,213.978,180.134,213.748,180.459Z" fill="none"/>
      <path id="Tracé_665" data-name="Tracé 665" d="M211.093,183.748c.208-.224.41-.449.612-.679h0C211.5,183.3,211.278,183.524,211.093,183.748Z" fill="none"/>
      <path id="Tracé_666" data-name="Tracé 666" d="M208.287,186.335q.516-.4,1.01-.842l-.05.045C208.932,185.819,208.607,186.083,208.287,186.335Z" fill="none"/>
      <path id="Tracé_667" data-name="Tracé 667" d="M207.125,187.188l-.129.085a15.1,15.1,0,0,0,1.224-.887.947.947,0,0,1-.124.1C207.776,186.728,207.456,186.964,207.125,187.188Z" fill="none"/>
      <path id="Tracé_668" data-name="Tracé 668" d="M196.569,188.906" fill="none"/>
      <path id="Tracé_669" data-name="Tracé 669" d="M210.375,184.483q.348-.336.673-.69Q210.718,184.147,210.375,184.483Z" fill="none"/>
      <path id="Tracé_670" data-name="Tracé 670" d="M204.207,188.81h0c.252-.106.511-.224.769-.353l-.141.067A6.134,6.134,0,0,1,204.207,188.81Z" fill="none"/>
      <path id="Tracé_671" data-name="Tracé 671" d="M203.421,189.125l-.146.056-.7.219a13.7,13.7,0,0,0,1.436-.5h0Z" fill="none"/>
      <path id="Tracé_672" data-name="Tracé 672" d="M200.464,189.748l.42-.034Z" fill="none"/>
      <path id="Tracé_673" data-name="Tracé 673" d="M199.537,189.753h.764C200.054,189.764,199.784,189.764,199.537,189.753Z" fill="none"/>
      <path id="Tracé_674" data-name="Tracé 674" d="M197.972,189.495c.213.056.432.107.656.146h0C198.4,189.6,198.179,189.551,197.972,189.495Z" fill="none"/>
      <path id="Tracé_675" data-name="Tracé 675" d="M201.956,189.546l.23-.057h-.056Z" fill="none"/>
      <path id="Tracé_676" data-name="Tracé 676" d="M212.912,181.6h0c.247-.326.493-.657.729-.994h0C213.4,180.942,213.159,181.273,212.912,181.6Z" fill="none"/>
      <path id="Tracé_677" data-name="Tracé 677" d="M217.317,158.661c.045.073.1.14.146.213C217.418,158.8,217.362,158.734,217.317,158.661Z" fill="none"/>
      <path id="Tracé_678" data-name="Tracé 678" d="M216.981,158.223c.056.068.112.129.168.2C217.093,158.352,217.037,158.291,216.981,158.223Z" fill="none"/>
      <path id="Tracé_679" data-name="Tracé 679" d="M217.62,159.132l.135.231Z" fill="none"/>
      <path id="Tracé_680" data-name="Tracé 680" d="M216.245,157.454l.191.169Z" fill="none"/>
      <path id="Tracé_681" data-name="Tracé 681" d="M215.841,157.123c.068.051.141.1.2.157C215.982,157.224,215.909,157.174,215.841,157.123Z" fill="none"/>
      <path id="Tracé_682" data-name="Tracé 682" d="M216.627,157.825l.18.179Z" fill="none"/>
      <path id="Tracé_683" data-name="Tracé 683" d="M217.295,173.837c-.118.308-.242.611-.376.92C217.053,174.448,217.177,174.145,217.295,173.837Z" fill="none"/>
      <path id="Tracé_684" data-name="Tracé 684" d="M216.857,174.9c-.146.342-.3.679-.46,1.01C216.554,175.582,216.711,175.268,216.857,174.9Z" fill="none"/>
      <path id="Tracé_685" data-name="Tracé 685" d="M211.093,183.748c.208-.224.41-.449.612-.679h0l.135-.157h0c.331-.382.651-.775.965-1.179l.107-.134h0c.247-.326.493-.657.729-.994h0l.107-.146h0c.23-.325.449-.662.668-1l.151-.241h0c.18-.275.348-.561.517-.842.033-.056.067-.118.106-.174h0c.185-.32.371-.651.561-.976h0l.13-.247c.14-.264.269-.528.4-.792.039-.09.084-.179.129-.269.157-.331.314-.668.46-1.01,0-.051.045-.1.062-.146.134-.309.258-.612.376-.921.039-.089.073-.185.106-.275h0c.141-.364.275-.729.393-1.122a.453.453,0,0,0,0-.09h0c.124-.376.236-.758.342-1.122h0a1.059,1.059,0,0,1,.062-.219c.124-.444.23-.881.326-1.319h0a1.368,1.368,0,0,1,.061-.292l.1-.511a2.248,2.248,0,0,1,.057-.331v-.028a4.35,4.35,0,0,1,.078-.527c.023-.174.034-.214.045-.32.051-.376.084-.758.112-1.123v-.241q.035-.561.034-1.123V164.15a2.36,2.36,0,0,0-.034-.46c-.033-.152,0-.186-.033-.281a3.752,3.752,0,0,1-.051-.426l-.05-.292a1.824,1.824,0,0,0-.068-.388l-.067-.291c-.028-.118-.051-.242-.079-.354l-.084-.286c-.033-.112-.062-.225-.1-.331l-.1-.275c-.034-.1-.068-.208-.107-.309s-.078-.174-.112-.258-.084-.2-.129-.292-.079-.163-.124-.247-.089-.185-.14-.269l-.135-.23c-.05-.085-.1-.174-.157-.259s-.1-.14-.146-.213l-.168-.236c-.056-.073-.112-.134-.168-.2l-.174-.219-.18-.179-.191-.2-.191-.169c-.067-.061-.129-.117-.2-.174s-.134-.106-.2-.157l-.207-.157-.214-.134a6.564,6.564,0,0,0-2.11-.859,10.6,10.6,0,0,1,2.245,7.167q0,.561-.034,1.122v.242c-.028.37-.061.752-.112,1.122a2.071,2.071,0,0,1-.045.32c-.017.107-.05.353-.078.527s-.045.242-.062.36l-.1.516a1.337,1.337,0,0,1-.062.292c-.1.438-.2.875-.325,1.319a.819.819,0,0,1-.062.219c-.107.376-.219.757-.348,1.122a.554.554,0,0,1-.028.09c-.124.365-.253.735-.393,1.122-.034.09-.067.185-.107.275-.117.309-.247.612-.376.921l-.061.146c-.146.336-.3.679-.461,1.01l-.129.264-.4.8-.129.241c-.174.331-.359.662-.561.982l-.107.18c-.168.286-.342.561-.516.841l-.152.242c-.218.337-.443.673-.667,1l-.107.146c-.236.336-.483.668-.735.993l-.1.135c-.315.4-.634.8-.966,1.178l-.134.158c-.2.23-.41.46-.618.684l-.039.04q-.332.353-.673.69l-.146.14c-.292.286-.6.561-.9.842l-.085.073a12.344,12.344,0,0,1-.965.8l-.185.146c-.32.247-.64.482-.971.707l-.174.118c-.342.224-.69.449-1.038.651s-.561.309-.836.449l-.242.118-.628.286-.225.1c-.191.079-.387.152-.561.219l-.146.056-.713.219c-.14.039-.275.073-.415.1l-.191.045c-.2.045-.4.084-.595.112a8.658,8.658,0,0,1-.881.09H195.9a3.493,3.493,0,0,1-.6-.073l-.179-.028-.2-.045a6.4,6.4,0,0,0,1.639,1.336h0l.067.034h.04a4.912,4.912,0,0,0,.488.241h0l.168.067a5.372,5.372,0,0,0,.561.191l.1.034c.208.056.426.106.645.146h.169a5.057,5.057,0,0,0,.589.067h1.066l.421-.034a3.456,3.456,0,0,0,.477-.056l.3-.056.292-.056.174-.045h.056l.371-.09.7-.219.146-.056.561-.219h0l.214-.089h0c.207-.09.421-.186.628-.287l.141-.067.1-.05c.275-.141.561-.287.836-.449s.7-.427,1.038-.651l.045-.034.129-.084c.331-.225.651-.461.971-.707a1.041,1.041,0,0,0,.123-.1l.068-.05c.32-.253.645-.517.96-.8l.05-.045h.034c.3-.27.606-.561.9-.842a1.931,1.931,0,0,0,.146-.14q.348-.337.673-.691Z" fill="#14a08c"/>
      <path id="Tracé_686" data-name="Tracé 686" d="M211.093,183.748c.208-.224.41-.449.612-.679h0l.135-.157h0c.331-.382.651-.775.965-1.179l.107-.134h0c.247-.326.493-.657.729-.994h0l.107-.146h0c.23-.325.449-.662.668-1l.151-.241h0c.18-.275.348-.561.517-.842.033-.056.067-.118.106-.174h0c.185-.32.371-.651.561-.976h0l.13-.247c.14-.264.269-.528.4-.792.039-.09.084-.179.129-.269.157-.331.314-.668.46-1.01,0-.051.045-.1.062-.146.134-.309.258-.612.376-.921.039-.089.073-.185.106-.275h0c.141-.364.275-.729.393-1.122a.453.453,0,0,0,0-.09h0c.124-.376.236-.758.342-1.122h0a1.059,1.059,0,0,1,.062-.219c.124-.444.23-.881.326-1.319h0a1.368,1.368,0,0,1,.061-.292l.1-.511a2.248,2.248,0,0,1,.057-.331v-.028a4.35,4.35,0,0,1,.078-.527c.023-.174.034-.214.045-.32.051-.376.084-.758.112-1.123v-.241q.035-.561.034-1.123V164.15a2.36,2.36,0,0,0-.034-.46c-.033-.152,0-.186-.033-.281a3.752,3.752,0,0,1-.051-.426l-.05-.292a1.824,1.824,0,0,0-.068-.388l-.067-.291c-.028-.118-.051-.242-.079-.354l-.084-.286c-.033-.112-.062-.225-.1-.331l-.1-.275c-.034-.1-.068-.208-.107-.309s-.078-.174-.112-.258-.084-.2-.129-.292-.079-.163-.124-.247-.089-.185-.14-.269l-.135-.23c-.05-.085-.1-.174-.157-.259s-.1-.14-.146-.213l-.168-.236c-.056-.073-.112-.134-.168-.2l-.174-.219-.18-.179-.191-.2-.191-.169c-.067-.061-.129-.117-.2-.174s-.134-.106-.2-.157l-.207-.157-.214-.134a6.564,6.564,0,0,0-2.11-.859,10.6,10.6,0,0,1,2.245,7.167q0,.561-.034,1.122v.242c-.028.37-.061.752-.112,1.122a2.071,2.071,0,0,1-.045.32c-.017.107-.05.353-.078.527s-.045.242-.062.36l-.1.516a1.337,1.337,0,0,1-.062.292c-.1.438-.2.875-.325,1.319a.819.819,0,0,1-.062.219c-.107.376-.219.757-.348,1.122a.554.554,0,0,1-.028.09c-.124.365-.253.735-.393,1.122-.034.09-.067.185-.107.275-.117.309-.247.612-.376.921l-.061.146c-.146.336-.3.679-.461,1.01l-.129.264-.4.8-.129.241c-.174.331-.359.662-.561.982l-.107.18c-.168.286-.342.561-.516.841l-.152.242c-.218.337-.443.673-.667,1l-.107.146c-.236.336-.483.668-.735.993l-.1.135c-.315.4-.634.8-.966,1.178l-.134.158c-.2.23-.41.46-.618.684l-.039.04q-.332.353-.673.69l-.146.14c-.292.286-.6.561-.9.842l-.085.073a12.344,12.344,0,0,1-.965.8l-.185.146c-.32.247-.64.482-.971.707l-.174.118c-.342.224-.69.449-1.038.651s-.561.309-.836.449l-.242.118-.628.286-.225.1c-.191.079-.387.152-.561.219l-.146.056-.713.219c-.14.039-.275.073-.415.1l-.191.045c-.2.045-.4.084-.595.112a8.658,8.658,0,0,1-.881.09H195.9a3.493,3.493,0,0,1-.6-.073l-.179-.028-.2-.045a6.4,6.4,0,0,0,1.639,1.336h0l.067.034h.04a4.912,4.912,0,0,0,.488.241h0l.168.067a5.372,5.372,0,0,0,.561.191l.1.034c.208.056.426.106.645.146h.169a5.057,5.057,0,0,0,.589.067h1.066l.421-.034a3.456,3.456,0,0,0,.477-.056l.3-.056.292-.056.174-.045h.056l.371-.09.7-.219.146-.056.561-.219h0l.214-.089h0c.207-.09.421-.186.628-.287l.141-.067.1-.05c.275-.141.561-.287.836-.449s.7-.427,1.038-.651l.045-.034.129-.084c.331-.225.651-.461.971-.707a1.041,1.041,0,0,0,.123-.1l.068-.05c.32-.253.645-.517.96-.8l.05-.045h.034c.3-.27.606-.561.9-.842a1.931,1.931,0,0,0,.146-.14q.348-.337.673-.691Z" opacity="0.3" style="mix-blend-mode: normal;isolation: isolate"/>
      <path id="Tracé_687" data-name="Tracé 687" d="M211.093,183.748c.208-.224.41-.449.612-.679h0l.135-.157h0c.331-.382.651-.775.965-1.179l.107-.134h0c.247-.326.493-.657.729-.994h0l.107-.146h0c.23-.325.449-.662.668-1l.151-.241h0c.18-.275.348-.561.517-.842.033-.056.067-.118.106-.174h0c.185-.32.371-.651.561-.976h0l.13-.247c.14-.264.269-.528.4-.792.039-.09.084-.179.129-.269.157-.331.314-.668.46-1.01,0-.051.045-.1.062-.146.134-.309.258-.612.376-.921.039-.089.073-.185.106-.275h0c.141-.364.275-.729.393-1.122a.453.453,0,0,0,0-.09h0c.124-.376.236-.758.342-1.122h0a1.059,1.059,0,0,1,.062-.219c.124-.444.23-.881.326-1.319h0a1.368,1.368,0,0,1,.061-.292l.1-.511a2.248,2.248,0,0,1,.057-.331v-.028a4.35,4.35,0,0,1,.078-.527c.023-.174.034-.214.045-.32.051-.376.084-.758.112-1.123v-.241q.035-.561.034-1.123V164.15a2.36,2.36,0,0,0-.034-.46c-.033-.152,0-.186-.033-.281a3.752,3.752,0,0,1-.051-.426l-.05-.292a1.824,1.824,0,0,0-.068-.388l-.067-.291c-.028-.118-.051-.242-.079-.354l-.084-.286c-.033-.112-.062-.225-.1-.331l-.1-.275c-.034-.1-.068-.208-.107-.309s-.078-.174-.112-.258-.084-.2-.129-.292-.079-.163-.124-.247-.089-.185-.14-.269l-.135-.23c-.05-.085-.1-.174-.157-.259s-.1-.14-.146-.213l-.168-.236c-.056-.073-.112-.134-.168-.2l-.174-.219-.18-.179-.191-.2-.191-.169c-.067-.061-.129-.117-.2-.174s-.134-.106-.2-.157l-.207-.157-.214-.134a6.564,6.564,0,0,0-2.11-.859,10.6,10.6,0,0,1,2.245,7.167q0,.561-.034,1.122v.242c-.028.37-.061.752-.112,1.122a2.071,2.071,0,0,1-.045.32c-.017.107-.05.353-.078.527s-.045.242-.062.36l-.1.516a1.337,1.337,0,0,1-.062.292c-.1.438-.2.875-.325,1.319a.819.819,0,0,1-.062.219c-.107.376-.219.757-.348,1.122a.554.554,0,0,1-.028.09c-.124.365-.253.735-.393,1.122-.034.09-.067.185-.107.275-.117.309-.247.612-.376.921l-.061.146c-.146.336-.3.679-.461,1.01l-.129.264-.4.8-.129.241c-.174.331-.359.662-.561.982l-.107.18c-.168.286-.342.561-.516.841l-.152.242c-.218.337-.443.673-.667,1l-.107.146c-.236.336-.483.668-.735.993l-.1.135c-.315.4-.634.8-.966,1.178l-.134.158c-.2.23-.41.46-.618.684l-.039.04q-.332.353-.673.69l-.146.14c-.292.286-.6.561-.9.842l-.085.073a12.344,12.344,0,0,1-.965.8l-.185.146c-.32.247-.64.482-.971.707l-.174.118c-.342.224-.69.449-1.038.651s-.561.309-.836.449l-.242.118-.628.286-.225.1c-.191.079-.387.152-.561.219l-.146.056-.713.219c-.14.039-.275.073-.415.1l-.191.045c-.2.045-.4.084-.595.112a8.658,8.658,0,0,1-.881.09H195.9a3.493,3.493,0,0,1-.6-.073l-.179-.028-.2-.045a6.4,6.4,0,0,0,1.639,1.336h0l.067.034h.04a4.912,4.912,0,0,0,.488.241h0l.168.067a5.372,5.372,0,0,0,.561.191l.1.034c.208.056.426.106.645.146h.169a5.057,5.057,0,0,0,.589.067h1.066l.421-.034a3.456,3.456,0,0,0,.477-.056l.3-.056.292-.056.174-.045h.056l.371-.09.7-.219.146-.056.561-.219h0l.214-.089h0c.207-.09.421-.186.628-.287l.141-.067.1-.05c.275-.141.561-.287.836-.449s.7-.427,1.038-.651l.045-.034.129-.084c.331-.225.651-.461.971-.707a1.041,1.041,0,0,0,.123-.1l.068-.05c.32-.253.645-.517.96-.8l.05-.045h.034c.3-.27.606-.561.9-.842a1.931,1.931,0,0,0,.146-.14q.348-.337.673-.691Z" fill="#fff" opacity="0.1" style="mix-blend-mode: normal;isolation: isolate"/>
      <path id="Tracé_688" data-name="Tracé 688" d="M204.078,156.607c-7.3,4.209-13.183,14.407-13.161,22.786s5.955,11.752,13.245,7.548,13.183-14.412,13.155-22.786S211.368,152.4,204.078,156.607Zm-.1,2.279-.258.145v2.638l.444-.258-.444.258v-2.638Zm-.179,13.25.033.034h0a.035.035,0,0,1-.033-.034l-3.671-6.213Zm0,12.779v-2.632l.258-.151-.258.151v2.632l.331-.185Zm.213-12.695h0l5.612-.437Zm5.466,7.886.607-.752h0Zm2.571-17.746,1.981-2.464h0Z" fill="#fe703a"/>
      <path id="Tracé_689" data-name="Tracé 689" d="M204.078,156.607c-7.3,4.209-13.183,14.407-13.161,22.786s5.955,11.752,13.245,7.548,13.183-14.412,13.155-22.786S211.368,152.4,204.078,156.607Zm-.1,2.279-.258.145v2.638l.444-.258-.444.258v-2.638Zm-.179,13.25.033.034h0a.035.035,0,0,1-.033-.034l-3.671-6.213Zm0,12.779v-2.632l.258-.151-.258.151v2.632l.331-.185Zm.213-12.695h0l5.612-.437Zm5.466,7.886.607-.752h0Zm2.571-17.746,1.981-2.464h0Z" opacity="0.2" style="mix-blend-mode: normal;isolation: isolate"/>
      <g id="Groupe_12" data-name="Groupe 12" opacity="0.4">
        <path id="Tracé_690" data-name="Tracé 690" d="M204.117,171.367a.5.5,0,0,1,.14-.045h.118l5.523-.432c.179,0,.264.174.185.427a.764.764,0,0,1-.32.426.394.394,0,0,1-.14.051l-5.613.438h-.028c-.179,0-.263-.174-.185-.421A.782.782,0,0,1,204.117,171.367Z" fill="#fff"/>
      </g>
      <g id="Groupe_13" data-name="Groupe 13" opacity="0.5">
        <path id="Tracé_691" data-name="Tracé 691" d="M200.452,165.166c.129-.079.253-.068.315.039l3.608,6.134h-.118a.467.467,0,0,0-.14.045.785.785,0,0,0-.32.432c-.078.247,0,.438.185.421h.034a.175.175,0,0,1-.208-.084l-3.67-6.213a.628.628,0,0,1,.157-.64A.56.56,0,0,1,200.452,165.166Z" fill="#fff"/>
      </g>
      <g id="Groupe_14" data-name="Groupe 14" opacity="0.3">
        <path id="Tracé_692" data-name="Tracé 692" d="M195.149,176.547v.808l-2.29,1.324v-.814Z" fill="#fff"/>
        <path id="Tracé_693" data-name="Tracé 693" d="M213.68,159.424l.354.494-1.981,2.464-.354-.5Z" fill="#fff"/>
        <path id="Tracé_694" data-name="Tracé 694" d="M204.437,158.627l.006,2.638-.7.4-.011-2.638Z" fill="#fff"/>
        <path id="Tracé_695" data-name="Tracé 695" d="M198.763,163.437l1.151,1.622-.606.758-1.156-1.622Z" fill="#fff"/>
        <path id="Tracé_696" data-name="Tracé 696" d="M194.52,170.486l1.992.163-.354.909-1.987-.174Z" fill="#fff"/>
        <path id="Tracé_697" data-name="Tracé 697" d="M196.187,181.161l.354.5-1.981,2.464-.354-.5Z" fill="#fff"/>
        <path id="Tracé_698" data-name="Tracé 698" d="M199.352,183.26l.617.051-1.145,2.946-.612-.051Z" fill="#fff"/>
        <path id="Tracé_699" data-name="Tracé 699" d="M204.5,181.879l.011,2.632-.707.4-.006-2.632Z" fill="#fff"/>
        <path id="Tracé_700" data-name="Tracé 700" d="M208.932,177.732l1.156,1.622-.606.752-1.156-1.622Z" fill="#fff"/>
        <path id="Tracé_701" data-name="Tracé 701" d="M212.081,171.99l1.987.168-.348.909-1.992-.174Z" fill="#fff"/>
        <path id="Tracé_702" data-name="Tracé 702" d="M215.381,164.863l.006.814-2.3,1.324v-.814Z" fill="#fff"/>
        <path id="Tracé_703" data-name="Tracé 703" d="M209.415,157.286l.612.056-1.139,2.941-.612-.051Z" fill="#fff"/>
      </g>
      <path id="Tracé_704" data-name="Tracé 704" d="M195.081,189.72l-.213-.158-.219-.2-.2-.18-.208-.213-.19-.2c-.068-.073-.129-.157-.191-.236s-.124-.14-.18-.213l-.179-.252-.163-.236-.168-.275c-.045-.084-.1-.163-.146-.253s-.1-.2-.152-.292-.1-.174-.135-.269-.089-.208-.134-.314-.085-.185-.124-.281-.078-.224-.118-.337-.073-.19-.106-.291-.068-.236-.107-.36a2.844,2.844,0,0,1-.084-.308c-.023-.107-.062-.247-.09-.376s-.05-.214-.073-.32-.05-.275-.073-.41-.039-.213-.056-.325-.039-.315-.056-.472l-.034-.292c0-.179-.028-.359-.039-.561v-1.089c0-.409,0-.825.039-1.24h0v-.084a12.094,12.094,0,0,1,.129-1.4h0v-.152c.034-.258.073-.511.113-.763h0l.067-.387h0c.039-.186.073-.376.112-.562h0v-.1a29.645,29.645,0,0,1,.842-3.115h0a32.848,32.848,0,0,1,1.644-4.018l.04-.084h0c.364-.741.752-1.471,1.161-2.184h0l.118-.2h0c.191-.314.382-.629.562-.943l.145-.219h0q.808-1.251,1.712-2.424v-.028h0c.6-.764,1.218-1.5,1.863-2.189h0c.253-.264.5-.522.758-.775h0a1.384,1.384,0,0,1,.124-.118c.331-.325.667-.645,1.01-.948h0l.039-.034c.354-.314.718-.617,1.089-.9h0l.2-.157h0c.342-.27.7-.522,1.049-.764h.04c.224-.151.454-.3.679-.443s.393-.247.6-.359c.3-.174.606-.337.9-.489h0a14.846,14.846,0,0,1,2.705-1.06h0l.247-.062.393-.1h0l.275-.051.359-.067h.034l.27-.034.465-.045h.18a9.153,9.153,0,0,1,1.021,0h.141a3.965,3.965,0,0,1,.634.079h0a7.2,7.2,0,0,1,.881.191h.09a5.271,5.271,0,0,1,.561.2h0l.084.039a6.469,6.469,0,0,1,.769.37h0l-3.306-2.02-.078-.056-.09-.045c-.174-.1-.348-.18-.527-.258l-.1-.051-.085-.028a6.282,6.282,0,0,0-.639-.224h-.029a7.22,7.22,0,0,0-.712-.169h-.2c-.213-.033-.426-.061-.645-.078h-.14a8.112,8.112,0,0,0-.825,0h-.539a3.489,3.489,0,0,0-.561.067h0c-.214.028-.427.073-.646.118l-.2.05-.41.1h-.039c-.252.067-.511.146-.769.236l-.157.056-.629.241-.084.034-.157.067c-.224.1-.449.2-.679.314l-.258.124c-.3.151-.6.314-.9.488s-.752.455-1.122.7l-.191.129c-.354.241-.707.494-1.049.763l-.2.157q-.528.409-1.044.859l-.085.078q-.5.444-.976.91l-.1.095-.056.062c-.247.241-.489.488-.73.746l-.034.039q-.342.36-.673.741a.392.392,0,0,0-.062.073l-.078.09c-.359.415-.713.842-1.05,1.28a.1.1,0,0,0-.028.039l-.078.1q-.4.528-.792,1.077l-.084.107-.034.056c-.247.354-.488.713-.718,1.072,0,.039-.051.073-.073.107l-.1.157c-.191.3-.376.6-.562.9l-.084.145-.033.057q-.3.522-.59,1.06a.675.675,0,0,0-.045.084c-.033.057-.061.118-.095.18-.146.281-.292.561-.432.853l-.09.18-.051.106c-.174.365-.342.73-.5,1.123v.033a.364.364,0,0,1-.045.113c-.146.331-.281.668-.415,1,0,.056-.045.107-.062.163l-.05.135c-.152.4-.292.791-.427,1.19h0a.372.372,0,0,0,0,.067c-.135.41-.258.819-.376,1.235l-.051.151v.084c-.129.477-.246.954-.353,1.426a1.135,1.135,0,0,1-.028.129l-.034.185c-.039.185-.078.371-.112.561l-.067.388c-.034.19-.062.378-.085.561a2.189,2.189,0,0,1-.045.275.251.251,0,0,1,0,.067q-.078.612-.117,1.229v.253c0,.421-.04.831-.04,1.24,0,4.49,1.6,7.667,4.159,9.154l3.5,2.032-.224-.141-.225-.14Z" fill="#fe703a"/>
      <path id="Tracé_705" data-name="Tracé 705" d="M195.081,189.72l-.213-.158-.219-.2-.2-.18-.208-.213-.19-.2c-.068-.073-.129-.157-.191-.236s-.124-.14-.18-.213l-.179-.252-.163-.236-.168-.275c-.045-.084-.1-.163-.146-.253s-.1-.2-.152-.292-.1-.174-.135-.269-.089-.208-.134-.314-.085-.185-.124-.281-.078-.224-.118-.337-.073-.19-.106-.291-.068-.236-.107-.36a2.844,2.844,0,0,1-.084-.308c-.023-.107-.062-.247-.09-.376s-.05-.214-.073-.32-.05-.275-.073-.41-.039-.213-.056-.325-.039-.315-.056-.472l-.034-.292c0-.179-.028-.359-.039-.561v-1.089c0-.409,0-.825.039-1.24h0v-.084a12.094,12.094,0,0,1,.129-1.4h0v-.152c.034-.258.073-.511.113-.763h0l.067-.387h0c.039-.186.073-.376.112-.562h0v-.1a29.645,29.645,0,0,1,.842-3.115h0a32.848,32.848,0,0,1,1.644-4.018l.04-.084h0c.364-.741.752-1.471,1.161-2.184h0l.118-.2h0c.191-.314.382-.629.562-.943l.145-.219h0q.808-1.251,1.712-2.424v-.028h0c.6-.764,1.218-1.5,1.863-2.189h0c.253-.264.5-.522.758-.775h0a1.384,1.384,0,0,1,.124-.118c.331-.325.667-.645,1.01-.948h0l.039-.034c.354-.314.718-.617,1.089-.9h0l.2-.157h0c.342-.27.7-.522,1.049-.764h.04c.224-.151.454-.3.679-.443s.393-.247.6-.359c.3-.174.606-.337.9-.489h0a14.846,14.846,0,0,1,2.705-1.06h0l.247-.062.393-.1h0l.275-.051.359-.067h.034l.27-.034.465-.045h.18a9.153,9.153,0,0,1,1.021,0h.141a3.965,3.965,0,0,1,.634.079h0a7.2,7.2,0,0,1,.881.191h.09a5.271,5.271,0,0,1,.561.2h0l.084.039a6.469,6.469,0,0,1,.769.37h0l-3.306-2.02-.078-.056-.09-.045c-.174-.1-.348-.18-.527-.258l-.1-.051-.085-.028a6.282,6.282,0,0,0-.639-.224h-.029a7.22,7.22,0,0,0-.712-.169h-.2c-.213-.033-.426-.061-.645-.078h-.14a8.112,8.112,0,0,0-.825,0h-.539a3.489,3.489,0,0,0-.561.067h0c-.214.028-.427.073-.646.118l-.2.05-.41.1h-.039c-.252.067-.511.146-.769.236l-.157.056-.629.241-.084.034-.157.067c-.224.1-.449.2-.679.314l-.258.124c-.3.151-.6.314-.9.488s-.752.455-1.122.7l-.191.129c-.354.241-.707.494-1.049.763l-.2.157q-.528.409-1.044.859l-.085.078q-.5.444-.976.91l-.1.095-.056.062c-.247.241-.489.488-.73.746l-.034.039q-.342.36-.673.741a.392.392,0,0,0-.062.073l-.078.09c-.359.415-.713.842-1.05,1.28a.1.1,0,0,0-.028.039l-.078.1q-.4.528-.792,1.077l-.084.107-.034.056c-.247.354-.488.713-.718,1.072,0,.039-.051.073-.073.107l-.1.157c-.191.3-.376.6-.562.9l-.084.145-.033.057q-.3.522-.59,1.06a.675.675,0,0,0-.045.084c-.033.057-.061.118-.095.18-.146.281-.292.561-.432.853l-.09.18-.051.106c-.174.365-.342.73-.5,1.123v.033a.364.364,0,0,1-.045.113c-.146.331-.281.668-.415,1,0,.056-.045.107-.062.163l-.05.135c-.152.4-.292.791-.427,1.19h0a.372.372,0,0,0,0,.067c-.135.41-.258.819-.376,1.235l-.051.151v.084c-.129.477-.246.954-.353,1.426a1.135,1.135,0,0,1-.028.129l-.034.185c-.039.185-.078.371-.112.561l-.067.388c-.034.19-.062.378-.085.561a2.189,2.189,0,0,1-.045.275.251.251,0,0,1,0,.067q-.078.612-.117,1.229v.253c0,.421-.04.831-.04,1.24,0,4.49,1.6,7.667,4.159,9.154l3.5,2.032-.224-.141-.225-.14Z" opacity="0.2" style="mix-blend-mode: normal;isolation: isolate"/>
      <path id="Tracé_706" data-name="Tracé 706" d="M215.953,155.383a6.381,6.381,0,0,0-.768-.37l-.1-.045q-.282-.106-.562-.2l-.106-.034a7.392,7.392,0,0,0-.881-.19h0c-.208-.034-.421-.062-.635-.079h-.162a8.71,8.71,0,0,0-1.022,0h-.179l-.466.045-.3.039-.359.068-.287.056-.393.1-.252.062a14.749,14.749,0,0,0-2.705,1.061h0c-.3.151-.6.314-.9.488-.2.112-.4.236-.6.359s-.454.292-.679.443h-.039c-.354.242-.707.494-1.05.764l-.2.157c-.37.286-.735.589-1.088.9l-.04.034c-.342.3-.679.623-1.01.949a1.136,1.136,0,0,0-.123.117c-.259.253-.506.511-.758.775h0c-.646.69-1.268,1.425-1.863,2.189v.028q-.9,1.173-1.712,2.424l-.146.225c-.2.314-.387.628-.561.943l-.118.2c-.41.712-.8,1.442-1.162,2.183l-.039.084a32.918,32.918,0,0,0-1.645,4.018h0a29.461,29.461,0,0,0-.841,3.115v.1c-.04.185-.073.376-.113.561l-.067.387c-.039.253-.079.505-.112.763v.152c-.056.471-.1.943-.129,1.4v.084c0,.416-.04.831-.04,1.241v1.088a2.764,2.764,0,0,0,.04.562l.033.291a3.343,3.343,0,0,0,.056.472c.023.151.04.219.057.325s.044.275.073.41.05.213.072.32.057.253.09.376.056.208.084.309.068.241.107.359.067.2.107.292.073.23.118.336.078.191.123.281.084.213.135.314l.134.27c.045.09.1.2.152.292s.1.168.146.252l.168.275.163.236.18.252c.056.073.118.141.179.214s.124.162.191.235l.191.2.208.214.2.179.218.2.214.157.235.179.225.141c2.61,1.683,6.291,1.5,10.371-.853,7.886-4.552,14.25-15.58,14.228-24.633C220.129,160.036,218.53,156.871,215.953,155.383Zm-5.578,29.1a1.764,1.764,0,0,1-.146.141c-.292.291-.6.561-.9.841H209.3q-.5.438-1.01.842l-.067.051c-.4.314-.808.612-1.224.887l-.045.033c-.342.225-.69.449-1.038.651s-.561.309-.836.449l-.1.051c-.258.129-.517.247-.769.353l-.213.09a13.8,13.8,0,0,1-1.437.5l-.371.089-.23.056-.291.057-.3.056c-.162,0-.319.045-.477.056l-.42.034h-1.078a5.055,5.055,0,0,1-.589-.068h-.169c-.224-.039-.443-.09-.656-.146l-.1-.033a5.528,5.528,0,0,1-.561-.191l-.168-.068a6.109,6.109,0,0,1-.562-.263l-.067-.034h0a6.4,6.4,0,0,1-1.639-1.336,10.607,10.607,0,0,1-2.245-7.15c0-8.379,5.871-18.582,13.156-22.791,2.778-1.6,5.354-2.1,7.486-1.65a6.6,6.6,0,0,1,2.111.858l.213.135.208.157c.067.051.14.1.2.157s.134.113.2.174l.19.169.191.2.18.179.174.219c.056.068.112.129.168.2l.169.236c.044.073.1.14.145.213l.158.258.134.23c.051.085.1.18.141.27s.084.163.123.247.084.191.129.292.073.168.112.258.073.207.107.308l.1.275c.034.107.062.219.1.332l.084.286c.028.112.05.236.078.353l.068.292c.028.124.044.258.067.387l.05.292a3.787,3.787,0,0,0,.051.427c.017.146.028.185.034.28a2.954,2.954,0,0,0,.033.461.758.758,0,0,1,0,.28v.769q0,.561-.033,1.123v.241a8.364,8.364,0,0,1-.113,1.122,2.054,2.054,0,0,1-.045.32c-.016.107-.05.371-.084.562s-.039.218-.056.331l-.1.51a1.313,1.313,0,0,1-.062.292c-.1.438-.2.876-.325,1.319a.784.784,0,0,1-.062.219c-.106.376-.219.758-.348,1.122a.452.452,0,0,1,0,.09c-.118.371-.252.735-.393,1.123-.033.09-.067.185-.106.275-.118.308-.242.611-.376.92,0,.051-.04.1-.062.146-.146.342-.3.679-.46,1.01-.045.09-.09.18-.129.27-.135.263-.264.527-.4.791l-.129.247c-.174.325-.36.657-.562.982-.039.056-.073.118-.106.174-.169.286-.343.561-.517.842l-.151.241c-.219.337-.438.674-.668,1l-.107.146c-.235.337-.482.668-.729.994l-.107.134c-.314.4-.634.8-.965,1.179l-.135.157c-.2.23-.4.455-.612.679l-.045.045A8.025,8.025,0,0,1,210.375,184.483Z" fill="#14a08c"/>
      <path id="Tracé_707" data-name="Tracé 707" d="M215.953,155.383a6.381,6.381,0,0,0-.768-.37l-.1-.045q-.282-.106-.562-.2l-.106-.034a7.392,7.392,0,0,0-.881-.19h0c-.208-.034-.421-.062-.635-.079h-.162a8.71,8.71,0,0,0-1.022,0h-.179l-.466.045-.3.039-.359.068-.287.056-.393.1-.252.062a14.749,14.749,0,0,0-2.705,1.061h0c-.3.151-.6.314-.9.488-.2.112-.4.236-.6.359s-.454.292-.679.443h-.039c-.354.242-.707.494-1.05.764l-.2.157c-.37.286-.735.589-1.088.9l-.04.034c-.342.3-.679.623-1.01.949a1.136,1.136,0,0,0-.123.117c-.259.253-.506.511-.758.775h0c-.646.69-1.268,1.425-1.863,2.189v.028q-.9,1.173-1.712,2.424l-.146.225c-.2.314-.387.628-.561.943l-.118.2c-.41.712-.8,1.442-1.162,2.183l-.039.084a32.918,32.918,0,0,0-1.645,4.018h0a29.461,29.461,0,0,0-.841,3.115v.1c-.04.185-.073.376-.113.561l-.067.387c-.039.253-.079.505-.112.763v.152c-.056.471-.1.943-.129,1.4v.084c0,.416-.04.831-.04,1.241v1.088a2.764,2.764,0,0,0,.04.562l.033.291a3.343,3.343,0,0,0,.056.472c.023.151.04.219.057.325s.044.275.073.41.05.213.072.32.057.253.09.376.056.208.084.309.068.241.107.359.067.2.107.292.073.23.118.336.078.191.123.281.084.213.135.314l.134.27c.045.09.1.2.152.292s.1.168.146.252l.168.275.163.236.18.252c.056.073.118.141.179.214s.124.162.191.235l.191.2.208.214.2.179.218.2.214.157.235.179.225.141c2.61,1.683,6.291,1.5,10.371-.853,7.886-4.552,14.25-15.58,14.228-24.633C220.129,160.036,218.53,156.871,215.953,155.383Zm-5.578,29.1a1.764,1.764,0,0,1-.146.141c-.292.291-.6.561-.9.841H209.3q-.5.438-1.01.842l-.067.051c-.4.314-.808.612-1.224.887l-.045.033c-.342.225-.69.449-1.038.651s-.561.309-.836.449l-.1.051c-.258.129-.517.247-.769.353l-.213.09a13.8,13.8,0,0,1-1.437.5l-.371.089-.23.056-.291.057-.3.056c-.162,0-.319.045-.477.056l-.42.034h-1.078a5.055,5.055,0,0,1-.589-.068h-.169c-.224-.039-.443-.09-.656-.146l-.1-.033a5.528,5.528,0,0,1-.561-.191l-.168-.068a6.109,6.109,0,0,1-.562-.263l-.067-.034h0a6.4,6.4,0,0,1-1.639-1.336,10.607,10.607,0,0,1-2.245-7.15c0-8.379,5.871-18.582,13.156-22.791,2.778-1.6,5.354-2.1,7.486-1.65a6.6,6.6,0,0,1,2.111.858l.213.135.208.157c.067.051.14.1.2.157s.134.113.2.174l.19.169.191.2.18.179.174.219c.056.068.112.129.168.2l.169.236c.044.073.1.14.145.213l.158.258.134.23c.051.085.1.18.141.27s.084.163.123.247.084.191.129.292.073.168.112.258.073.207.107.308l.1.275c.034.107.062.219.1.332l.084.286c.028.112.05.236.078.353l.068.292c.028.124.044.258.067.387l.05.292a3.787,3.787,0,0,0,.051.427c.017.146.028.185.034.28a2.954,2.954,0,0,0,.033.461.758.758,0,0,1,0,.28v.769q0,.561-.033,1.123v.241a8.364,8.364,0,0,1-.113,1.122,2.054,2.054,0,0,1-.045.32c-.016.107-.05.371-.084.562s-.039.218-.056.331l-.1.51a1.313,1.313,0,0,1-.062.292c-.1.438-.2.876-.325,1.319a.784.784,0,0,1-.062.219c-.106.376-.219.758-.348,1.122a.452.452,0,0,1,0,.09c-.118.371-.252.735-.393,1.123-.033.09-.067.185-.106.275-.118.308-.242.611-.376.92,0,.051-.04.1-.062.146-.146.342-.3.679-.46,1.01-.045.09-.09.18-.129.27-.135.263-.264.527-.4.791l-.129.247c-.174.325-.36.657-.562.982-.039.056-.073.118-.106.174-.169.286-.343.561-.517.842l-.151.241c-.219.337-.438.674-.668,1l-.107.146c-.235.337-.482.668-.729.994l-.107.134c-.314.4-.634.8-.965,1.179l-.135.157c-.2.23-.4.455-.612.679l-.045.045A8.025,8.025,0,0,1,210.375,184.483Z" opacity="0.1" style="mix-blend-mode: normal;isolation: isolate"/>
      <path id="Tracé_708" data-name="Tracé 708" d="M215.953,155.383a6.381,6.381,0,0,0-.768-.37l-.1-.045q-.282-.106-.562-.2l-.106-.034a7.392,7.392,0,0,0-.881-.19h0c-.208-.034-.421-.062-.635-.079h-.162a8.71,8.71,0,0,0-1.022,0h-.179l-.466.045-.3.039-.359.068-.287.056-.393.1-.252.062a14.749,14.749,0,0,0-2.705,1.061h0c-.3.151-.6.314-.9.488-.2.112-.4.236-.6.359s-.454.292-.679.443h-.039c-.354.242-.707.494-1.05.764l-.2.157c-.37.286-.735.589-1.088.9l-.04.034c-.342.3-.679.623-1.01.949a1.136,1.136,0,0,0-.123.117c-.259.253-.506.511-.758.775h0c-.646.69-1.268,1.425-1.863,2.189v.028q-.9,1.173-1.712,2.424l-.146.225c-.2.314-.387.628-.561.943l-.118.2c-.41.712-.8,1.442-1.162,2.183l-.039.084a32.918,32.918,0,0,0-1.645,4.018h0a29.461,29.461,0,0,0-.841,3.115v.1c-.04.185-.073.376-.113.561l-.067.387c-.039.253-.079.505-.112.763v.152c-.056.471-.1.943-.129,1.4v.084c0,.416-.04.831-.04,1.241v1.088a2.764,2.764,0,0,0,.04.562l.033.291a3.343,3.343,0,0,0,.056.472c.023.151.04.219.057.325s.044.275.073.41.05.213.072.32.057.253.09.376.056.208.084.309.068.241.107.359.067.2.107.292.073.23.118.336.078.191.123.281.084.213.135.314l.134.27c.045.09.1.2.152.292s.1.168.146.252l.168.275.163.236.18.252c.056.073.118.141.179.214s.124.162.191.235l.191.2.208.214.2.179.218.2.214.157.235.179.225.141c2.61,1.683,6.291,1.5,10.371-.853,7.886-4.552,14.25-15.58,14.228-24.633C220.129,160.036,218.53,156.871,215.953,155.383Zm-5.578,29.1a1.764,1.764,0,0,1-.146.141c-.292.291-.6.561-.9.841H209.3q-.5.438-1.01.842l-.067.051c-.4.314-.808.612-1.224.887l-.045.033c-.342.225-.69.449-1.038.651s-.561.309-.836.449l-.1.051c-.258.129-.517.247-.769.353l-.213.09a13.8,13.8,0,0,1-1.437.5l-.371.089-.23.056-.291.057-.3.056c-.162,0-.319.045-.477.056l-.42.034h-1.078a5.055,5.055,0,0,1-.589-.068h-.169c-.224-.039-.443-.09-.656-.146l-.1-.033a5.528,5.528,0,0,1-.561-.191l-.168-.068a6.109,6.109,0,0,1-.562-.263l-.067-.034h0a6.4,6.4,0,0,1-1.639-1.336,10.607,10.607,0,0,1-2.245-7.15c0-8.379,5.871-18.582,13.156-22.791,2.778-1.6,5.354-2.1,7.486-1.65a6.6,6.6,0,0,1,2.111.858l.213.135.208.157c.067.051.14.1.2.157s.134.113.2.174l.19.169.191.2.18.179.174.219c.056.068.112.129.168.2l.169.236c.044.073.1.14.145.213l.158.258.134.23c.051.085.1.18.141.27s.084.163.123.247.084.191.129.292.073.168.112.258.073.207.107.308l.1.275c.034.107.062.219.1.332l.084.286c.028.112.05.236.078.353l.068.292c.028.124.044.258.067.387l.05.292a3.787,3.787,0,0,0,.051.427c.017.146.028.185.034.28a2.954,2.954,0,0,0,.033.461.758.758,0,0,1,0,.28v.769q0,.561-.033,1.123v.241a8.364,8.364,0,0,1-.113,1.122,2.054,2.054,0,0,1-.045.32c-.016.107-.05.371-.084.562s-.039.218-.056.331l-.1.51a1.313,1.313,0,0,1-.062.292c-.1.438-.2.876-.325,1.319a.784.784,0,0,1-.062.219c-.106.376-.219.758-.348,1.122a.452.452,0,0,1,0,.09c-.118.371-.252.735-.393,1.123-.033.09-.067.185-.106.275-.118.308-.242.611-.376.92,0,.051-.04.1-.062.146-.146.342-.3.679-.46,1.01-.045.09-.09.18-.129.27-.135.263-.264.527-.4.791l-.129.247c-.174.325-.36.657-.562.982-.039.056-.073.118-.106.174-.169.286-.343.561-.517.842l-.151.241c-.219.337-.438.674-.668,1l-.107.146c-.235.337-.482.668-.729.994l-.107.134c-.314.4-.634.8-.965,1.179l-.135.157c-.2.23-.4.455-.612.679l-.045.045A8.025,8.025,0,0,1,210.375,184.483Z" fill="#fff" opacity="0.4" style="mix-blend-mode: normal;isolation: isolate"/>
    </g>
    <g id="freepik--Table--inject-156">
      <path id="Tracé_709" data-name="Tracé 709" d="M257.765,278.355c.157,16.87.337,33.112.337,33.112a.611.611,0,0,0,.359.5,1.932,1.932,0,0,0,1.74,0,.61.61,0,0,0,.353-.5s.18-16.236.337-33.112C259.847,278.4,258.8,278.4,257.765,278.355Z" fill="#14a08c"/>
      <path id="Tracé_710" data-name="Tracé 710" d="M237.269,299.3a.628.628,0,0,0,.365.505,1.925,1.925,0,0,0,1.734,0,.612.612,0,0,0,.359-.505s.78-11.6,1.9-25.39a19.027,19.027,0,0,1-2.941-2.245C237.785,286.425,237.269,299.3,237.269,299.3Z" fill="#14a08c"/>
      <path id="Tracé_711" data-name="Tracé 711" d="M278.929,299.3a.61.61,0,0,0,.354.505,1.938,1.938,0,0,0,1.74,0,.627.627,0,0,0,.364-.505s-.516-12.83-1.42-27.551a18.423,18.423,0,0,1-2.94,2.245C278.149,287.727,278.929,299.3,278.929,299.3Z" fill="#14a08c"/>
      <path id="Tracé_712" data-name="Tracé 712" d="M257.765,278.355c.157,16.87.337,33.112.337,33.112a.611.611,0,0,0,.359.5,1.932,1.932,0,0,0,1.74,0,.61.61,0,0,0,.353-.5s.18-16.236.337-33.112C259.847,278.4,258.8,278.4,257.765,278.355Z" opacity="0.3" style="mix-blend-mode: normal;isolation: isolate"/>
      <path id="Tracé_713" data-name="Tracé 713" d="M237.269,299.3a.628.628,0,0,0,.365.505,1.925,1.925,0,0,0,1.734,0,.612.612,0,0,0,.359-.505s.78-11.6,1.9-25.39a19.027,19.027,0,0,1-2.941-2.245C237.785,286.425,237.269,299.3,237.269,299.3Z" opacity="0.3" style="mix-blend-mode: normal;isolation: isolate"/>
      <path id="Tracé_714" data-name="Tracé 714" d="M278.929,299.3a.61.61,0,0,0,.354.505,1.938,1.938,0,0,0,1.74,0,.627.627,0,0,0,.364-.505s-.516-12.83-1.42-27.551a18.423,18.423,0,0,1-2.94,2.245C278.149,287.727,278.929,299.3,278.929,299.3Z" opacity="0.3" style="mix-blend-mode: normal;isolation: isolate"/>
      <path id="Tracé_715" data-name="Tracé 715" d="M283.548,261.636c0,3.591-2.323,7.178-7.038,9.917-9.428,5.483-24.761,5.483-34.235,0-4.748-2.745-7.133-6.331-7.15-9.923h0v2.728a10.141,10.141,0,0,0,3.581,7.3,18.864,18.864,0,0,0,2.941,2.244c.207.13.409.259.628.382a34.186,34.186,0,0,0,15.507,4.069c1.038.045,2.082.045,3.126,0a34.056,34.056,0,0,0,15.619-4.08l.516-.32a18.387,18.387,0,0,0,2.941-2.245,10.075,10.075,0,0,0,3.581-7.38h0V261.6Z" fill="#14a08c"/>
      <path id="Tracé_716" data-name="Tracé 716" d="M283.548,261.636c0,3.591-2.323,7.178-7.038,9.917-9.428,5.483-24.761,5.483-34.235,0-4.748-2.745-7.133-6.331-7.15-9.923h0v2.728a10.141,10.141,0,0,0,3.581,7.3,18.864,18.864,0,0,0,2.941,2.244c.207.13.409.259.628.382a34.186,34.186,0,0,0,15.507,4.069c1.038.045,2.082.045,3.126,0a34.056,34.056,0,0,0,15.619-4.08l.516-.32a18.387,18.387,0,0,0,2.941-2.245,10.075,10.075,0,0,0,3.581-7.38h0V261.6Z" opacity="0.4" style="mix-blend-mode: normal;isolation: isolate"/>
      <path id="Tracé_717" data-name="Tracé 717" d="M242.258,271.558c9.491,5.478,24.824,5.478,34.235,0,4.715-2.739,7.061-6.325,7.038-9.917s-2.4-7.184-7.15-9.922c-9.49-5.478-24.823-5.478-34.235,0-4.714,2.738-7.06,6.33-7.038,9.922S237.51,268.814,242.258,271.558Z" fill="#14a08c"/>
      <path id="Tracé_718" data-name="Tracé 718" d="M242.258,271.558c9.491,5.478,24.824,5.478,34.235,0,4.715-2.739,7.061-6.325,7.038-9.917s-2.4-7.184-7.15-9.922c-9.49-5.478-24.823-5.478-34.235,0-4.714,2.738-7.06,6.33-7.038,9.922S237.51,268.814,242.258,271.558Z" opacity="0.2" style="mix-blend-mode: normal;isolation: isolate"/>
      <g id="Groupe_15" data-name="Groupe 15" opacity="0.3">
        <path id="Tracé_719" data-name="Tracé 719" d="M257.765,278.355q0,1.683.034,3.367c1.016.039,2.043.045,3.058,0q0-1.683.034-3.367C259.847,278.4,258.8,278.4,257.765,278.355Z"/>
        <path id="Tracé_720" data-name="Tracé 720" d="M238.689,271.67c-.062,1.078-.129,2.139-.191,3.194a17.991,17.991,0,0,0,2.874,2.245c.084-1.05.174-2.122.258-3.211A18.861,18.861,0,0,1,238.689,271.67Z"/>
        <path id="Tracé_721" data-name="Tracé 721" d="M279.967,271.743a18.309,18.309,0,0,1-2.94,2.245q.133,1.633.263,3.216a17.887,17.887,0,0,0,2.868-2.245C280.1,273.882,280.035,272.815,279.967,271.743Z"/>
      </g>
      <path id="Tracé_722" data-name="Tracé 722" d="M266.964,242.834c-.371-.37-4.647,0-4.647,0s-4.277-.37-4.647,0c-1.577,1.572-4.8,8.582-4.8,13.29,0,1.4.937,2.806,2.806,3.867a14.712,14.712,0,0,0,13.358,0c1.835-1.066,2.75-2.469,2.744-3.867C271.762,251.416,268.524,244.406,266.964,242.834Z" fill="#e6e6e6"/>
      <path id="Tracé_723" data-name="Tracé 723" d="M269.467,250.8a2.289,2.289,0,0,1,.033.387,3.573,3.573,0,0,1-2.087,2.941,11.213,11.213,0,0,1-10.159,0,3.61,3.61,0,0,1-2.121-2.941,2.713,2.713,0,0,1,.028-.37,18.342,18.342,0,0,0-1,5.3c0,.965.786,1.97,2.144,2.755a12.29,12.29,0,0,0,6.044,1.431h0a12.177,12.177,0,0,0,6.017-1.414c1.341-.78,2.11-1.779,2.1-2.75A18.3,18.3,0,0,0,269.467,250.8Z" fill="#632828"/>
      <path id="Tracé_724" data-name="Tracé 724" d="M257.254,254.126a11.213,11.213,0,0,0,10.159,0,3.561,3.561,0,0,0,2.087-2.941,2.289,2.289,0,0,0-.033-.387,3.87,3.87,0,0,0-2.088-2.559,11.211,11.211,0,0,0-10.158,0,3.8,3.8,0,0,0-2.06,2.576,2.713,2.713,0,0,0-.028.37A3.61,3.61,0,0,0,257.254,254.126Z" fill="#804040"/>
      <path id="Tracé_725" data-name="Tracé 725" d="M266.964,242.834c-.371-.37-4.647,0-4.647,0s-4.277-.37-4.647,0c-1.577,1.572-4.8,8.582-4.8,13.29,0,1.4.937,2.806,2.806,3.867a14.712,14.712,0,0,0,13.358,0c1.835-1.066,2.75-2.469,2.744-3.867C271.762,251.416,268.524,244.406,266.964,242.834Z" fill="#fff" opacity="0.3" style="mix-blend-mode: normal;isolation: isolate"/>
      <path id="Tracé_726" data-name="Tracé 726" d="M258.22,244.642a9.073,9.073,0,0,0,8.222,0,2.521,2.521,0,0,0-.028-4.765,9.067,9.067,0,0,0-8.222,0,2.521,2.521,0,0,0,.028,4.765Z" fill="#263238"/>
      <path id="Tracé_727" data-name="Tracé 727" d="M267.609,242.806a2.451,2.451,0,0,0,.18-.263,11.721,11.721,0,0,0,2.3-6.382H251.434c0,1.4,4.2,6.017,6.275,7.3h0a4.872,4.872,0,0,0,.5.337,9.067,9.067,0,0,0,8.222,0,4.073,4.073,0,0,0,1.123-.926h0Z" fill="#e6e6e6"/>
      <path id="Tracé_728" data-name="Tracé 728" d="M268.142,233.479a3.359,3.359,0,0,1,1.948,2.682c0,2.2-3.244,3.9-7.038,3.839a20.762,20.762,0,0,1-10-2.559,13.937,13.937,0,0,1-1.4-.9.4.4,0,0,1,0-.712,20.019,20.019,0,0,1,11.82-3.463A9.53,9.53,0,0,1,268.142,233.479Z" fill="#f0f0f0"/>
      <path id="Tracé_729" data-name="Tracé 729" d="M267.34,234.045a2.876,2.876,0,0,1,1.683,2.285,2.614,2.614,0,0,1-1.6,2.245,8.741,8.741,0,0,1-4.26,1.015h-.185a19.069,19.069,0,0,1-9.328-2.385c-.46-.264-.909-.561-1.341-.864a18.72,18.72,0,0,1,11.051-3.266A8.054,8.054,0,0,1,267.34,234.045Z" fill="#e0e0e0"/>
      <path id="Tracé_730" data-name="Tracé 730" d="M253.214,259.716a13.3,13.3,0,0,0-12.067,0c-3.322,1.931-3.3,5.051.039,6.993a13.277,13.277,0,0,0,12.067,0C256.575,264.784,256.558,261.647,253.214,259.716Z" fill="#f0f0f0"/>
      <path id="Tracé_731" data-name="Tracé 731" d="M253.214,259.177a13.3,13.3,0,0,0-12.067,0c-3.322,1.931-3.3,5.051.039,6.988a13.28,13.28,0,0,0,12.067,0C256.575,264.234,256.558,261.136,253.214,259.177Z" fill="#fafafa"/>
      <path id="Tracé_732" data-name="Tracé 732" d="M250,261.6a6.173,6.173,0,0,0-5.578,0c-1.538.893-1.532,2.341,0,3.233a6.173,6.173,0,0,0,5.584,0C251.541,263.942,251.53,262.489,250,261.6Z" fill="#ebebeb"/>
      <path id="Tracé_733" data-name="Tracé 733" d="M270.662,264.722a13.3,13.3,0,0,0-12.066,0c-3.323,1.931-3.306,5.051.039,6.993a13.275,13.275,0,0,0,12.066,0C274.024,269.79,274,266.653,270.662,264.722Z" fill="#f0f0f0"/>
      <path id="Tracé_734" data-name="Tracé 734" d="M270.662,264.184a13.29,13.29,0,0,0-12.066,0c-3.323,1.93-3.306,5.051.039,6.987a13.275,13.275,0,0,0,12.066,0C274.024,269.24,274,266.114,270.662,264.184Z" fill="#fafafa"/>
      <path id="Tracé_735" data-name="Tracé 735" d="M267.429,266.6a6.173,6.173,0,0,0-5.584,0c-1.532.893-1.526,2.341,0,3.233a6.173,6.173,0,0,0,5.584,0C268.984,268.943,268.978,267.495,267.429,266.6Z" fill="#ebebeb"/>
    </g>
    <g id="freepik--character-2--inject-156">
      <path id="Tracé_736" data-name="Tracé 736" d="M305.386,276.2c-5,3.474-10.636,5.876-14.811,10.528-7.8,8.7-7.981,22.691-1.858,32.636s17.522,15.922,29.122,17.286a46.81,46.81,0,0,0,34.493-9.609A41.769,41.769,0,0,0,367.951,295.1c0-12.258-6.263-24.459-16.545-31.16-9.361-6.106-22.83-7.857-32.22-.858-4.753,3.535-7.919,8.749-12.656,12.29C306.126,275.661,305.767,275.93,305.386,276.2Z" fill="#14a08c"/>
      <path id="Tracé_737" data-name="Tracé 737" d="M305.386,276.2c-5,3.474-10.636,5.876-14.811,10.528-7.8,8.7-7.981,22.691-1.858,32.636s17.522,15.922,29.122,17.286a46.81,46.81,0,0,0,34.493-9.609A41.769,41.769,0,0,0,367.951,295.1c0-12.258-6.263-24.459-16.545-31.16-9.361-6.106-22.83-7.857-32.22-.858-4.753,3.535-7.919,8.749-12.656,12.29C306.126,275.661,305.767,275.93,305.386,276.2Z" fill="#fff" opacity="0.2" style="mix-blend-mode: normal;isolation: isolate"/>
      <path id="Tracé_738" data-name="Tracé 738" d="M361.419,293.418A35.769,35.769,0,0,0,330.9,258.689a26.666,26.666,0,0,0-3.452.561,34.887,34.887,0,0,1,33.023,34.168c.224,11.41-5.354,23.01-14.923,31.1-7.5,6.32-17.466,10.512-28.415,12.022.235.034.465.067.7.09.982.118,1.976.2,2.964.252a55.876,55.876,0,0,0,25.356-11.645C355.941,317.007,361.649,305.108,361.419,293.418Z" fill="#fff"/>
      <path id="Tracé_739" data-name="Tracé 739" d="M307.423,327.148l.033-.247a13.149,13.149,0,0,1,10.664-10.966,41.644,41.644,0,0,0,13.66-5.231c2.986-1.807,5.809-4.018,9.159-5a14.919,14.919,0,0,1,9.867.562,11.447,11.447,0,0,0-11.494-2.919c2.666-4.086,5.017-8.486,5.938-13.279s.263-10.051-2.627-13.985A14.075,14.075,0,0,0,320.9,274.92c-2.863,3.132-4.49,7.537-6.359,11.342-1.347,2.728-2.745,5.523-4.973,7.605-3.367,3.143-8.182,4.277-11.668,7.3-3.928,3.407-5.646,8.856-5.663,14.07a41.213,41.213,0,0,0,1.538,10.394,39.43,39.43,0,0,0,14.278,8.727A15.417,15.417,0,0,1,307.423,327.148Z" opacity="0.2" style="mix-blend-mode: normal;isolation: isolate"/>
      <path id="Tracé_740" data-name="Tracé 740" d="M294.672,323.337a34.848,34.848,0,0,1,.611,5.708l1.353-.511a3.487,3.487,0,0,1,3.749.859l.067.067a1.358,1.358,0,0,0,1.875.084h0a1.341,1.341,0,0,0,.466-.982l.179-5.747Z" fill="#955"/>
      <path id="Tracé_741" data-name="Tracé 741" d="M299.885,344.7c-2.806,3-7.958,5.612-11.707,3.058l.421.954c3.744,2.56,8.907-.061,11.707-3.058s.983-5.051,3.508-7.734a9.148,9.148,0,0,0,2.178-3.238c-.113-.287-.219-.663-.354-1.089a11.441,11.441,0,0,1-2.245,3.367C300.868,339.624,302.686,341.7,299.885,344.7Z" fill="#37474f"/>
      <path id="Tracé_742" data-name="Tracé 742" d="M304.257,330.459a5.556,5.556,0,0,1-.881-2.043,1.17,1.17,0,0,0-.561-.83l-.034.959a1.357,1.357,0,0,1-2.34.9l-.067-.067a3.488,3.488,0,0,0-3.749-.859l-1.375.522a1.057,1.057,0,0,0-.685,1.011,23.922,23.922,0,0,1-3.67,12.015c-1.982.82-3.688,3.519-2.807,5.495l.09.2c3.749,2.56,8.907-.061,11.707-3.058s.983-5.051,3.508-7.734a11.454,11.454,0,0,0,2.245-3.367A12.179,12.179,0,0,0,304.257,330.459Z" fill="#455a64"/>
      <path id="Tracé_743" data-name="Tracé 743" d="M298.78,336.133a.477.477,0,0,0,.634-.213.471.471,0,0,0-.2-.634,5.46,5.46,0,0,0-5.383,0c-.084.308-.174.617-.263.926A5.272,5.272,0,0,1,298.78,336.133Z" fill="#fff"/>
      <path id="Tracé_744" data-name="Tracé 744" d="M299.47,334.012a.479.479,0,1,0,.438-.853,5.755,5.755,0,0,0-5.612.045c-.057.32-.124.639-.191.965A5.364,5.364,0,0,1,299.47,334.012Z" fill="#fff"/>
      <path id="Tracé_745" data-name="Tracé 745" d="M298.022,338.249a.479.479,0,1,0,.438-.853,5.448,5.448,0,0,0-5.264-.05c-.124.331-.247.662-.376.982A5.275,5.275,0,0,1,298.022,338.249Z" fill="#fff"/>
      <path id="Tracé_746" data-name="Tracé 746" d="M290.906,342.066c-1.981.819-3.688,3.518-2.806,5.494l.089.2c3.693,2.52,8.75,0,11.579-2.929C297.394,340.2,292.466,341.358,290.906,342.066Z" fill="#fff"/>
      <path id="Tracé_747" data-name="Tracé 747" d="M297.192,340.314a.477.477,0,0,0,.634-.213.483.483,0,0,0-.191-.64,5.481,5.481,0,0,0-5.281-.045c-.169.365-.337.719-.517,1.056A5.316,5.316,0,0,1,297.192,340.314Z" fill="#fff"/>
      <path id="Tracé_748" data-name="Tracé 748" d="M288.784,334.764a34.887,34.887,0,0,1-1.739,5.455l1.442.079a3.5,3.5,0,0,1,3.087,2.295l.033.09a1.364,1.364,0,0,0,1.684.836h0a1.355,1.355,0,0,0,.819-.713l2.487-5.185Z" fill="#955"/>
      <path id="Tracé_749" data-name="Tracé 749" d="M284.934,356.411c-3.777,1.61-9.541,1.925-11.948-1.925v1.038c2.4,3.855,8.171,3.541,11.948,1.93s2.947-4.248,6.325-5.662a9.141,9.141,0,0,0,3.3-2.083c0-.308.068-.69.118-1.122a11.345,11.345,0,0,1-3.418,2.178C287.881,352.168,288.728,354.8,284.934,356.411Z" fill="#37474f"/>
      <path id="Tracé_750" data-name="Tracé 750" d="M294.677,345.152a5.443,5.443,0,0,1,0-2.245,1.207,1.207,0,0,0-.174-.987l-.415.869a1.358,1.358,0,0,1-2.5-.123l-.034-.09a3.5,3.5,0,0,0-3.087-2.295l-1.419-.068a1.056,1.056,0,0,0-1.033.651,23.932,23.932,0,0,1-8.211,9.513c-2.144-.05-4.793,1.729-4.793,3.89v.219c2.4,3.85,8.172,3.535,11.949,1.925s2.946-4.243,6.325-5.663a11.369,11.369,0,0,0,3.418-2.178A12.118,12.118,0,0,0,294.677,345.152Z" fill="#455a64"/>
      <path id="Tracé_751" data-name="Tracé 751" d="M287.376,348.127a.471.471,0,0,0,.663.065l0,0a.484.484,0,0,0,.079-.663,5.47,5.47,0,0,0-4.928-2.16c-.2.246-.409.493-.617.735A5.289,5.289,0,0,1,287.376,348.127Z" fill="#fff"/>
      <path id="Tracé_752" data-name="Tracé 752" d="M288.863,346.443a.478.478,0,0,0,.668.056.47.47,0,0,0,.078-.656,5.739,5.739,0,0,0-5.141-2.245c-.179.269-.37.561-.561.8A5.5,5.5,0,0,1,288.863,346.443Z" fill="#fff"/>
      <path id="Tracé_753" data-name="Tracé 753" d="M285.827,349.76a.476.476,0,0,0,.667.056.465.465,0,0,0,.081-.654l0,0a5.468,5.468,0,0,0-4.8-2.177c-.242.258-.489.505-.736.746A5.273,5.273,0,0,1,285.827,349.76Z" fill="#fff"/>
      <path id="Tracé_754" data-name="Tracé 754" d="M277.779,350.372c-2.144-.051-4.793,1.728-4.793,3.889v.219c2.357,3.794,8,3.541,11.786,1.992C284.468,351.292,279.49,350.372,277.779,350.372Z" fill="#fff"/>
      <path id="Tracé_755" data-name="Tracé 755" d="M284.238,351.315a.479.479,0,1,0,.747-.6,5.481,5.481,0,0,0-4.816-2.178c-.3.27-.6.522-.9.758A5.333,5.333,0,0,1,284.238,351.315Z" fill="#fff"/>
      <path id="Tracé_756" data-name="Tracé 756" d="M310.953,285.684l-18.891,10.523a9.368,9.368,0,0,0-4.647,9.884l3.67,19.738-3.008,9.541c2.593,3.48,8.548,3.659,8.548,3.659,3.322-6.662,5.758-9.5,7.644-15.074s3.143-9.435,3.143-9.435l15.686-4.288a18.587,18.587,0,0,0,13.593-15.815c.269-2.368.281-3.99.281-3.99Z" fill="#37474f"/>
      <path id="Tracé_757" data-name="Tracé 757" d="M311.093,290.988a8.916,8.916,0,0,0,2.116,5.758l-13.329,8.34a9.538,9.538,0,0,0-4.08,5.32l-4.715,15.423,4.254-17.179a7.754,7.754,0,0,1,3.491-4.748l12.308-7.61A6.3,6.3,0,0,1,311.093,290.988Z" opacity="0.2" style="mix-blend-mode: normal;isolation: isolate"/>
      <path id="Tracé_758" data-name="Tracé 758" d="M296.844,265.267l-2.644,2.565c-2.711-3.463-6.359-5.809-9.541-10.664-.915-1.162-.819-3.479-1.442-4.664-.488-.926-1.341-2.318-1.684-3.1a.517.517,0,0,0-.677-.273.559.559,0,0,0-.08.043c-.9.657-.427,2.245.05,3.884.561,1.942-2.368-.685-2.761-1.122-1.852-1.729-3.446-5.961-4.715-5.54s-.258,2.531-.258,2.531c-1.167.247-.724,2.1-.724,2.1-.69,1.212-.494,3.087.921,4.827a24.624,24.624,0,0,0,5.242,3.85,4.607,4.607,0,0,1,1.5,1.419l9.075,13.47a5.5,5.5,0,0,0,7.633,1.495c.076-.052.151-.1.224-.159l4.928-3.688Z" fill="#955"/>
      <path id="Tracé_759" data-name="Tracé 759" d="M312.2,253.369c-5.023-.225-11.842,7.93-15.687,11.785.3,4.7,5.355,7.785,5.355,7.785a109.489,109.489,0,0,0,10.332-8.082Z" fill="#e0e0e0"/>
      <path id="Tracé_760" data-name="Tracé 760" d="M312.2,253.369c-5.023-.225-11.842,7.93-15.687,11.785.3,4.7,5.355,7.785,5.355,7.785a109.489,109.489,0,0,0,10.332-8.082Z" opacity="0.1" style="mix-blend-mode: normal;isolation: isolate"/>
      <path id="Tracé_761" data-name="Tracé 761" d="M287.426,285.482a4.66,4.66,0,0,1-4.254,0,7.48,7.48,0,0,1-.864-.477,1.594,1.594,0,0,0,.864,1.123,4.7,4.7,0,0,0,4.254,0,1.539,1.539,0,0,0,.853-1.123,6.643,6.643,0,0,1-.814.46Z" fill="#263238"/>
      <path id="Tracé_762" data-name="Tracé 762" d="M292.1,278.141h0a3.371,3.371,0,0,1-1.97,2.778,10.565,10.565,0,0,1-9.586,0,3.408,3.408,0,0,1-2-2.778h0a8.581,8.581,0,0,0,3.788,6.864,7.568,7.568,0,0,0,.864.477,4.662,4.662,0,0,0,4.255,0h.039a6.8,6.8,0,0,0,.814-.46A8.579,8.579,0,0,0,292.1,278.141Z" fill="#455a64"/>
      <path id="Tracé_763" data-name="Tracé 763" d="M280.517,280.919a10.565,10.565,0,0,0,9.586,0,2.932,2.932,0,0,0-.033-5.55,10.561,10.561,0,0,0-9.581,0,3.348,3.348,0,0,0-1.97,2.772A3.4,3.4,0,0,0,280.517,280.919Zm.27-5.051a9.064,9.064,0,0,1,4.49-1.072,9.174,9.174,0,0,1,4.489,1.072,2.769,2.769,0,0,1,1.684,2.273,2.429,2.429,0,0,1-1.077,1.847,4.949,4.949,0,0,1-.595.41,9.966,9.966,0,0,1-8.98,0,5.7,5.7,0,0,1-.629-.427,2.454,2.454,0,0,1-1.077-1.846,2.879,2.879,0,0,1,1.695-2.245Z" fill="#455a64"/>
      <path id="Tracé_764" data-name="Tracé 764" d="M280.186,279.982a2.812,2.812,0,0,1,1.319-1.375,8.344,8.344,0,0,1,7.554,0A2.855,2.855,0,0,1,290.4,280a2.429,2.429,0,0,0,1.077-1.846,2.859,2.859,0,0,0-1.683-2.273,9.158,9.158,0,0,0-4.49-1.072,9.053,9.053,0,0,0-4.49,1.072,2.826,2.826,0,0,0-1.684,2.245A2.454,2.454,0,0,0,280.186,279.982Z" fill="#263238"/>
      <path id="Tracé_765" data-name="Tracé 765" d="M287.426,285.482a4.66,4.66,0,0,1-4.254,0,7.48,7.48,0,0,1-.864-.477,1.594,1.594,0,0,0,.864,1.123,4.7,4.7,0,0,0,4.254,0,1.539,1.539,0,0,0,.853-1.123,6.643,6.643,0,0,1-.814.46Z" fill="#fff" opacity="0.6" style="mix-blend-mode: normal;isolation: isolate"/>
      <path id="Tracé_766" data-name="Tracé 766" d="M292.1,278.141h0a3.371,3.371,0,0,1-1.97,2.778,10.565,10.565,0,0,1-9.586,0,3.408,3.408,0,0,1-2-2.778h0a8.581,8.581,0,0,0,3.788,6.864,7.568,7.568,0,0,0,.864.477,4.662,4.662,0,0,0,4.255,0h.039a6.8,6.8,0,0,0,.814-.46A8.579,8.579,0,0,0,292.1,278.141Z" fill="#fff" opacity="0.7" style="mix-blend-mode: normal;isolation: isolate"/>
      <path id="Tracé_767" data-name="Tracé 767" d="M280.517,280.919a10.565,10.565,0,0,0,9.586,0,2.932,2.932,0,0,0-.033-5.55,10.561,10.561,0,0,0-9.581,0,3.348,3.348,0,0,0-1.97,2.772A3.4,3.4,0,0,0,280.517,280.919Zm.27-5.051a9.064,9.064,0,0,1,4.49-1.072,9.174,9.174,0,0,1,4.489,1.072,2.769,2.769,0,0,1,1.684,2.273,2.429,2.429,0,0,1-1.077,1.847,4.949,4.949,0,0,1-.595.41,9.966,9.966,0,0,1-8.98,0,5.7,5.7,0,0,1-.629-.427,2.454,2.454,0,0,1-1.077-1.846,2.879,2.879,0,0,1,1.695-2.245Z" fill="#fff" opacity="0.8" style="mix-blend-mode: normal;isolation: isolate"/>
      <path id="Tracé_768" data-name="Tracé 768" d="M280.186,279.982a2.812,2.812,0,0,1,1.319-1.375,8.344,8.344,0,0,1,7.554,0A2.855,2.855,0,0,1,290.4,280a2.429,2.429,0,0,0,1.077-1.846,2.859,2.859,0,0,0-1.683-2.273,9.158,9.158,0,0,0-4.49-1.072,9.053,9.053,0,0,0-4.49,1.072,2.826,2.826,0,0,0-1.684,2.245A2.454,2.454,0,0,0,280.186,279.982Z" fill="#fff" opacity="0.6" style="mix-blend-mode: normal;isolation: isolate"/>
      <path id="Tracé_769" data-name="Tracé 769" d="M289.059,278.607a8.344,8.344,0,0,0-7.554,0,2.812,2.812,0,0,0-1.319,1.375,5.56,5.56,0,0,0,.629.427,9.966,9.966,0,0,0,8.98,0,4.861,4.861,0,0,0,.594-.41A2.848,2.848,0,0,0,289.059,278.607Z" fill="#632828"/>
      <path id="Tracé_770" data-name="Tracé 770" d="M337.275,291.914c-3.368,3.216-19.447,3.811-27.658-4.007a75.646,75.646,0,0,0,0-17.281c-.527-5.848-3.928-16.068,2.582-17.257,8.716-1.684,14.412-1.572,20.232,1.711C338.678,265.441,337.8,280.942,337.275,291.914Z" fill="#e0e0e0"/>
      <path id="Tracé_771" data-name="Tracé 771" d="M328.267,240.2a2.372,2.372,0,0,0-1.162-1.218,1.8,1.8,0,0,0-.348-.129,2.185,2.185,0,0,0-1.942.646,3.755,3.755,0,0,0-.943,1.88,14.166,14.166,0,0,0-.235,2.116,25.431,25.431,0,0,1-.562,3.732,4.751,4.751,0,0,1-2.418,3.154l-.079.045a14.652,14.652,0,0,1-5.612,1.5v2.139c-1.555,2.121-1.987,6.173,2.11,4.955s6.768-3.928,6.768-6.617c.028-1.122.057-2.581.085-3.883.039-1.751.073-3.216.073-3.216a2.306,2.306,0,0,0,1.5.786,2.042,2.042,0,0,0,.786-.045,2.957,2.957,0,0,0,1.751-1.493,5.5,5.5,0,0,0,.561-2.279A4.629,4.629,0,0,0,328.267,240.2Z" fill="#955"/>
      <path id="Tracé_772" data-name="Tracé 772" d="M326.937,232.8a5.05,5.05,0,0,0-3.222-1.684l-16.837,1.566c-1.936,4.114-.387,6.835-.387,6.835-.264,6.275-.483,10.265,2.279,11.584a12.976,12.976,0,0,0,6.173.853,14.661,14.661,0,0,0,5.613-1.5l.089-.051a4.754,4.754,0,0,0,2.414-3.165,26.025,26.025,0,0,0,.561-3.715,14.04,14.04,0,0,1,.236-2.116,3.746,3.746,0,0,1,.942-1.88,2.186,2.186,0,0,1,1.942-.646,1.774,1.774,0,0,1,.348.129C327.582,236.2,327.722,233.782,326.937,232.8Z" fill="#37474f"/>
      <path id="Tracé_773" data-name="Tracé 773" d="M320.769,233.282a5.853,5.853,0,0,0,.224,3.525,25.366,25.366,0,0,1,1.072,3.429,5.609,5.609,0,0,1-.466,3.457,4.057,4.057,0,0,1-2.682,2.138c-1.807.388-3.575-.668-5.394-1.021a7.546,7.546,0,0,0-5.051.9.881.881,0,0,1-1.324-.7,61.467,61.467,0,0,1,.325-11.931Z" fill="#955"/>
      <path id="Tracé_774" data-name="Tracé 774" d="M307.743,230.01s-2.163,4.609-.727,4.9a41.218,41.218,0,0,0,7.461.158,31.635,31.635,0,0,0,6.264-1.123,4.986,4.986,0,0,0,2.464-1.291,3.255,3.255,0,0,0,.129-3.833,4.871,4.871,0,0,0-3.463-2,13.228,13.228,0,0,0-4.164.326,29.03,29.03,0,0,0-4.693,1.053C309.494,229,307.743,230.01,307.743,230.01Z" fill="#37474f"/>
      <path id="Tracé_775" data-name="Tracé 775" d="M313.024,239.686l-3.07,3.715,2.817,1Z" opacity="0.2" style="mix-blend-mode: normal;isolation: isolate"/>
      <path id="Tracé_776" data-name="Tracé 776" d="M315.347,246.247l-2.368.729a1.458,1.458,0,0,0,1.594.735A1.312,1.312,0,0,0,315.347,246.247Z" fill="#f28f8f"/>
      <path id="Tracé_777" data-name="Tracé 777" d="M315.347,246.247l-2.368.729a1.458,1.458,0,0,0,1.594.735A1.312,1.312,0,0,0,315.347,246.247Z" opacity="0.3" style="mix-blend-mode: normal;isolation: isolate"/>
      <path id="Tracé_778" data-name="Tracé 778" d="M313.8,247.667a1.365,1.365,0,0,0,.775.044,1.2,1.2,0,0,0,.774-1.071,1.412,1.412,0,0,0-.92.168A1.4,1.4,0,0,0,313.8,247.667Z" fill="#f28f8f"/>
      <path id="Tracé_779" data-name="Tracé 779" d="M317.2,240.5a.821.821,0,1,1,0-.014Z" fill="#263238"/>
      <path id="Tracé_780" data-name="Tracé 780" d="M310.145,239.849a.842.842,0,1,1-.8-.887A.842.842,0,0,1,310.145,239.849Z" fill="#263238"/>
      <path id="Tracé_781" data-name="Tracé 781" d="M309.494,236.442l-1.937,1.19a1.191,1.191,0,0,1,.438-1.3A1.414,1.414,0,0,1,309.494,236.442Z" fill="#263238"/>
      <path id="Tracé_782" data-name="Tracé 782" d="M316.722,236.739l1.8,1.392a1.205,1.205,0,0,0-.292-1.341A1.42,1.42,0,0,0,316.722,236.739Z" fill="#263238"/>
      <path id="Tracé_783" data-name="Tracé 783" d="M321.689,250.316a5.371,5.371,0,0,0,.982-2.043,4.713,4.713,0,0,1-2.037,2.11l-.078.045a14.661,14.661,0,0,1-5.613,1.5v1.443a14.026,14.026,0,0,0,3.334-.7A7.517,7.517,0,0,0,321.689,250.316Z" opacity="0.2" style="mix-blend-mode: normal;isolation: isolate"/>
      <path id="Tracé_784" data-name="Tracé 784" d="M301.479,289.9c1.538,0,14.39-.286,20.294-.415a4.76,4.76,0,0,0,4.2-2.745l4.49-9.675-9.282-4.142-3.418,8.475c-5.383-.332-12.151,2.1-16.091,1.773-2.189-.14-1.891-2.11-4.3-2.7s-3.059.1-4.238-.2-1.369,1.594.848,2c-1.734.113-1.443-1.184-2.436-1.33a1.779,1.779,0,0,0-1.762.842,1.553,1.553,0,0,0,.4,1.779,1.684,1.684,0,0,0-.954,1.56,2.292,2.292,0,0,1,.69,3.014,1.529,1.529,0,0,0,1.258.921,1.991,1.991,0,0,0,1.358,1.644,5.381,5.381,0,0,0,2.16,0C296.9,290.449,299.268,290.174,301.479,289.9Z" fill="#955"/>
      <path id="Tracé_785" data-name="Tracé 785" d="M329.03,253.515c-3.973,4.04-8.772,20.2-8.772,20.2,2.694,4.4,10.316,4.529,10.316,4.529C338.453,259.4,337.8,255.389,329.03,253.515Z" fill="#e0e0e0"/>
      <path id="Tracé_786" data-name="Tracé 786" d="M329.03,253.515c-3.973,4.04-8.772,20.2-8.772,20.2,2.694,4.4,10.316,4.529,10.316,4.529C338.453,259.4,337.8,255.389,329.03,253.515Z" opacity="0.1" style="mix-blend-mode: normal;isolation: isolate"/>
      <path id="Tracé_787" data-name="Tracé 787" d="M291.663,281a1.128,1.128,0,0,0-.752,0,3.431,3.431,0,0,1,.792-.954,1.122,1.122,0,0,1,1.891.9,3.689,3.689,0,0,1-.269,1.319,1.017,1.017,0,0,1-.668-.359,3.225,3.225,0,0,0,.106-.73.888.888,0,0,0,0-.325.441.441,0,0,0-.179-.264.466.466,0,0,0-.5.045A1.505,1.505,0,0,0,291.663,281Z" fill="#263238"/>
      <path id="Tracé_788" data-name="Tracé 788" d="M291.663,281a1.128,1.128,0,0,0-.752,0,3.431,3.431,0,0,1,.792-.954,1.122,1.122,0,0,1,1.891.9,3.689,3.689,0,0,1-.269,1.319,1.017,1.017,0,0,1-.668-.359,3.225,3.225,0,0,0,.106-.73.888.888,0,0,0,0-.325.441.441,0,0,0-.179-.264.466.466,0,0,0-.5.045A1.505,1.505,0,0,0,291.663,281Z" fill="#fff" opacity="0.5" style="mix-blend-mode: normal;isolation: isolate"/>
    </g>
    <g id="freepik--character-1--inject-156">
      <path id="Tracé_789" data-name="Tracé 789" d="M202.237,276.228c5,3.474,10.63,5.876,14.811,10.528,7.795,8.7,7.981,22.691,1.852,32.636s-17.516,15.922-29.117,17.286a46.812,46.812,0,0,1-34.493-9.609,41.807,41.807,0,0,1-15.625-31.939c0-12.252,6.286-24.453,16.551-31.16,9.367-6.106,22.82-7.857,32.22-.858,4.748,3.535,7.919,8.749,12.656,12.291Q201.659,275.823,202.237,276.228Z" fill="#14a08c"/>
      <path id="Tracé_790" data-name="Tracé 790" d="M202.237,276.228c5,3.474,10.63,5.876,14.811,10.528,7.795,8.7,7.981,22.691,1.852,32.636s-17.516,15.922-29.117,17.286a46.812,46.812,0,0,1-34.493-9.609,41.807,41.807,0,0,1-15.625-31.939c0-12.252,6.286-24.453,16.551-31.16,9.367-6.106,22.82-7.857,32.22-.858,4.748,3.535,7.919,8.749,12.656,12.291Q201.659,275.823,202.237,276.228Z" fill="#fff" opacity="0.2" style="mix-blend-mode: normal;isolation: isolate"/>
      <path id="Tracé_791" data-name="Tracé 791" d="M146.2,293.446a35.755,35.755,0,0,1,30.514-34.729,25.586,25.586,0,0,1,3.446.561,34.875,34.875,0,0,0-33.017,34.185c-.225,11.41,5.354,23.01,14.923,31.1,7.5,6.32,17.46,10.512,28.409,12.022l-.7.09c-.987.118-1.975.2-2.963.252a55.841,55.841,0,0,1-25.356-11.645C151.676,317.035,145.974,305.131,146.2,293.446Z" fill="#fff"/>
      <path id="Tracé_792" data-name="Tracé 792" d="M200.2,327.176l-.034-.247A13.159,13.159,0,0,0,189.5,315.963a41.728,41.728,0,0,1-13.661-5.237c-2.985-1.8-5.8-4.018-9.153-5a14.926,14.926,0,0,0-9.867.562,11.449,11.449,0,0,1,11.494-2.919c-2.671-4.085-5.017-8.486-5.938-13.278s-.263-10.052,2.627-13.986a14.064,14.064,0,0,1,21.72-1.162c2.862,3.132,4.489,7.537,6.353,11.342,1.352,2.728,2.75,5.523,4.972,7.6,3.368,3.143,8.189,4.277,11.668,7.3,3.929,3.407,5.652,8.851,5.669,14.065a41.572,41.572,0,0,1-1.533,10.422,39.462,39.462,0,0,1-14.277,8.727A15.433,15.433,0,0,0,200.2,327.176Z" opacity="0.2" style="mix-blend-mode: normal;isolation: isolate"/>
      <path id="Tracé_793" data-name="Tracé 793" d="M218.838,334.792a34.894,34.894,0,0,0,1.74,5.449l-1.442.085a3.472,3.472,0,0,0-3.087,2.3l-.034.09a1.362,1.362,0,0,1-1.683.836h0a1.354,1.354,0,0,1-.82-.713l-2.486-5.185Z" fill="#955"/>
      <path id="Tracé_794" data-name="Tracé 794" d="M222.688,356.439c3.772,1.61,9.541,1.925,11.949-1.931v1.044c-2.4,3.855-8.177,3.541-11.949,1.925s-2.946-4.243-6.325-5.657a9.158,9.158,0,0,1-3.305-2.082,9.744,9.744,0,0,0-.118-1.123,11.516,11.516,0,0,0,3.423,2.178C219.742,352.19,218.917,354.822,222.688,356.439Z" fill="#37474f"/>
      <path id="Tracé_795" data-name="Tracé 795" d="M212.962,345.175a5.443,5.443,0,0,0,0-2.245,1.193,1.193,0,0,1,.168-.988l.421.87a1.358,1.358,0,0,0,2.5-.124l.034-.089a3.476,3.476,0,0,1,3.087-2.3l1.465-.084a1.056,1.056,0,0,1,1.032.651,23.945,23.945,0,0,0,8.211,9.513c2.138-.051,4.793,1.729,4.793,3.889v.214c-2.4,3.855-8.177,3.541-11.948,1.93s-2.947-4.248-6.326-5.663a11.493,11.493,0,0,1-3.423-2.177A12.576,12.576,0,0,1,212.962,345.175Z" fill="#455a64"/>
      <path id="Tracé_796" data-name="Tracé 796" d="M220.258,348.155a.478.478,0,0,1-.668.062.472.472,0,0,1-.079-.662h0a5.458,5.458,0,0,1,4.927-2.16c.2.247.41.493.618.735A5.282,5.282,0,0,0,220.258,348.155Z" fill="#fff"/>
      <path id="Tracé_797" data-name="Tracé 797" d="M218.76,346.488a.481.481,0,0,1-.747-.606h0a5.748,5.748,0,0,1,5.141-2.217c.18.269.37.561.561.8A5.347,5.347,0,0,0,218.76,346.488Z" fill="#fff"/>
      <path id="Tracé_798" data-name="Tracé 798" d="M221.79,349.81a.47.47,0,0,1-.663.066l-.005,0a.482.482,0,0,1-.078-.662A5.468,5.468,0,0,1,225.87,347c.247.258.494.505.741.747A5.278,5.278,0,0,0,221.79,349.81Z" fill="#fff"/>
      <path id="Tracé_799" data-name="Tracé 799" d="M229.844,350.4c2.138-.05,4.793,1.729,4.793,3.89v.213c-2.363,3.8-8,3.547-11.786,2C223.154,351.32,228.115,350.372,229.844,350.4Z" fill="#fff"/>
      <path id="Tracé_800" data-name="Tracé 800" d="M223.384,351.337a.47.47,0,0,1-.663.065l0,0a.479.479,0,0,1-.078-.663,5.463,5.463,0,0,1,4.809-2.171c.3.269.6.521.9.757A5.324,5.324,0,0,0,223.384,351.337Z" fill="#fff"/>
      <path id="Tracé_801" data-name="Tracé 801" d="M230.641,326.879a34.787,34.787,0,0,0,1.74,5.455l-1.46.078a3.481,3.481,0,0,0-3.092,2.3l-.028.09a1.365,1.365,0,0,1-1.684.836h0a1.357,1.357,0,0,1-.825-.713l-2.48-5.186Z" fill="#955"/>
      <path id="Tracé_802" data-name="Tracé 802" d="M234.5,348.525c3.771,1.611,9.54,1.925,11.948-1.925v1.039c-2.4,3.855-8.177,3.541-11.948,1.925s-2.953-4.243-6.331-5.658a9.138,9.138,0,0,1-3.3-2.082,11.279,11.279,0,0,0-.118-1.122,11.542,11.542,0,0,0,3.418,2.177C231.544,344.277,230.719,346.915,234.5,348.525Z" fill="#37474f"/>
      <path id="Tracé_803" data-name="Tracé 803" d="M224.748,337.261a5.31,5.31,0,0,0,0-2.245,1.211,1.211,0,0,1,.174-.987l.415.87a1.363,1.363,0,0,0,2.509-.124l.028-.09a3.482,3.482,0,0,1,3.047-2.273l1.46-.084a1.056,1.056,0,0,1,1.032.651,23.986,23.986,0,0,0,8.211,9.513c2.144-.05,4.8,1.729,4.8,3.889v.219c-2.4,3.85-8.177,3.536-11.949,1.925s-2.952-4.248-6.331-5.663a11.518,11.518,0,0,1-3.417-2.177A12.349,12.349,0,0,1,224.748,337.261Z" fill="#455a64"/>
      <path id="Tracé_804" data-name="Tracé 804" d="M232.044,340.27a.483.483,0,0,1-.674.061.477.477,0,0,1-.073-.662,5.462,5.462,0,0,1,4.928-2.161c.2.247.4.494.617.736A5.273,5.273,0,0,0,232.044,340.27Z" fill="#fff"/>
      <path id="Tracé_805" data-name="Tracé 805" d="M230.562,338.586a.477.477,0,1,1-.746-.6,5.75,5.75,0,0,1,5.146-2.245c.18.269.371.561.562.8A5.36,5.36,0,0,0,230.562,338.586Z" fill="#fff"/>
      <path id="Tracé_806" data-name="Tracé 806" d="M233.6,341.869a.478.478,0,1,1-.747-.6h0a5.466,5.466,0,0,1,4.8-2.177c.241.258.488.505.74.746A5.281,5.281,0,0,0,233.6,341.869Z" fill="#fff"/>
      <path id="Tracé_807" data-name="Tracé 807" d="M241.647,342.514c2.143-.05,4.8,1.729,4.8,3.89v.219c-2.363,3.794-8,3.541-11.786,1.992C234.957,343.407,239.935,342.47,241.647,342.514Z" fill="#fff"/>
      <path id="Tracé_808" data-name="Tracé 808" d="M235.192,343.424a.471.471,0,0,1-.663.065l0,0a.465.465,0,0,1-.081-.653l0,0a5.456,5.456,0,0,1,4.81-2.178c.3.27.6.522.9.758A5.327,5.327,0,0,0,235.192,343.424Z" fill="#fff"/>
      <path id="Tracé_809" data-name="Tracé 809" d="M231.006,327.861c-2.593,3.479-8.548,3.653-8.548,3.653-3.322-6.661-5.758-9.49-7.644-15.069s-3.143-9.434-3.143-9.434l-25.311-6.92c-4.17-6.679-2.958-11.96-2.958-11.96l14.592-.2,20.378,8a11.787,11.787,0,0,1,7.2,8.346Z" fill="#fe703a"/>
      <path id="Tracé_810" data-name="Tracé 810" d="M210.3,301.46l-11.729-7.3a6.563,6.563,0,0,1,1.33-2.912,6.957,6.957,0,0,0-3.413,3.249l-1.9,7.829L211.671,307s1.257,3.85,3.143,9.434a43.756,43.756,0,0,0,3.968,8.323c-.7-3.811-1.6-8.89-2.492-14.317A13.077,13.077,0,0,0,210.3,301.46Z" opacity="0.3" style="mix-blend-mode: normal;isolation: isolate"/>
      <path id="Tracé_811" data-name="Tracé 811" d="M219.545,335.409c-2.593,3.48-8.547,3.654-8.547,3.654-3.323-6.651-5.758-9.49-7.65-15.069s-3.143-9.434-3.143-9.434l-15.714-4.288a18.629,18.629,0,0,1-13.6-15.9c-.258-2.323-.269-3.928-.269-3.928l15.827-2.9,22.449,15.6a11.785,11.785,0,0,1,4.781,7.055Z" fill="#fe703a"/>
      <path id="Tracé_812" data-name="Tracé 812" d="M201.867,267.545l6.6,5.377,4.372-7.094-5.5-6.174C202.529,261.781,201.867,267.545,201.867,267.545Z" fill="#823c3c"/>
      <path id="Tracé_813" data-name="Tracé 813" d="M190.664,248.727c5.209-.561,7.167,1.067,10.546,4.254S208,259.755,208,259.755c-5.208,2.548-5.786,8.744-5.786,8.744-2.84-2.2-5.242-3.928-5.242-3.928Z" fill="#fe703a"/>
      <path id="Tracé_814" data-name="Tracé 814" d="M190.891,248.8c5.208-.561,7.167,1.066,10.546,4.254s6.791,6.774,6.791,6.774c-5.209,2.548-5.787,8.744-5.787,8.744-2.84-2.2-5.242-3.929-5.242-3.929Z" fill="#fff" opacity="0.5" style="mix-blend-mode: normal;isolation: isolate"/>
      <path id="Tracé_815" data-name="Tracé 815" d="M172.082,253.032c7.414-3.474,12.97-3.878,19.031-4.142,9.07,5.842,5.674,10.7,5.523,18.521s-1.858,12.5,3.547,20.614c-11.887,9.5-26.9,6.493-30.492,4.209C167.373,270.638,168.064,254.7,172.082,253.032Z" fill="#fe703a"/>
      <path id="Tracé_816" data-name="Tracé 816" d="M172.309,253.108c7.414-3.474,12.97-3.878,19.031-4.142,9.07,5.843,5.674,10.7,5.523,18.521s-1.858,12.5,3.547,20.614c-11.887,9.5-26.906,6.494-30.492,4.209C167.6,270.714,168.29,254.775,172.309,253.108Z" fill="#fff" opacity="0.7" style="mix-blend-mode: normal;isolation: isolate"/>
      <path id="Tracé_817" data-name="Tracé 817" d="M201.176,256.983l6.645,15.658a4.6,4.6,0,0,0,5.893,2.5h0a4.61,4.61,0,0,0,1.948-7.184l-11.169-13.947a5.059,5.059,0,0,0-1.2-1.088l-4.49-2.9a2.362,2.362,0,0,0-1.61-.359l-3.02.415-.146,8.3,1.92.241a3.139,3.139,0,0,0,1.526-.185Z" fill="#955"/>
      <path id="Tracé_818" data-name="Tracé 818" d="M178.974,272.361l1.684,9.238,12.145,3.086a3.589,3.589,0,0,0,2.57-.3,11.816,11.816,0,0,1,2.717-1.123c.752-.174,1.52-.269,2.272-.437a6.774,6.774,0,0,0,1.538-.522.656.656,0,0,1,.886.279.643.643,0,0,1,.074.282,1.383,1.383,0,0,1-.107.527,2.6,2.6,0,0,1-1.021,1.123,6.368,6.368,0,0,1-2.211.926,6.168,6.168,0,0,0,3.457.376c1.122-.146,2.245-.449,3.367-.561a2.075,2.075,0,0,1,1.241.146.82.82,0,0,1,.37,1.072c-.292.46-1.044.353-1.409.752a2.073,2.073,0,0,1,.371.8,1.256,1.256,0,0,1-.174.875.886.886,0,0,1-.775.4,3.162,3.162,0,0,1-1.235,2.122,6.278,6.278,0,0,1-2.244,1.055c-3.368.909-6.606-.836-9.985-1.684-.46-.112-11.275-.763-16.8-1.089a4.154,4.154,0,0,1-3.828-3.333l-2.418-12.162Z" fill="#955"/>
      <path id="Tracé_819" data-name="Tracé 819" d="M175.27,283.961c.729-.886,3.541-2.682,5.4-2.379l-.174-.949A5.45,5.45,0,0,0,175.27,283.961Z" fill="#823c3c"/>
      <path id="Tracé_820" data-name="Tracé 820" d="M172.082,253.032c-8.879,3.322-6.858,11.225-3.586,23.712,5.287,1.459,11.539-3.137,11.539-3.137C178.295,263.723,177.638,252.88,172.082,253.032Z" fill="#fe703a"/>
      <path id="Tracé_821" data-name="Tracé 821" d="M172.309,253.108c-8.879,3.323-6.858,11.225-3.586,23.712,5.286,1.46,11.538-3.137,11.538-3.137C178.522,263.8,177.865,252.957,172.309,253.108Z" fill="#fff" opacity="0.5" style="mix-blend-mode: normal;isolation: isolate"/>
      <path id="Tracé_822" data-name="Tracé 822" d="M174.378,238.732a10.543,10.543,0,0,1,1.088-8.98,9.821,9.821,0,0,1,4.754-3.508,15.064,15.064,0,0,1,5.91-.763,10.755,10.755,0,0,1,4.557,1.1,7.334,7.334,0,0,1,3.032,9.92l-.013.025a12.257,12.257,0,0,1-2.985,3.406,38.207,38.207,0,0,1-7.521,5.051c-.673.343-1.358.663-2.048.966-.472.2-1.364.78-1.892.679s-1.083-1.123-1.4-1.5c-.46-.561-.9-1.19-1.308-1.807A17.4,17.4,0,0,1,174.378,238.732Z" fill="#263238"/>
      <path id="Tracé_823" data-name="Tracé 823" d="M193.027,231.06a7.493,7.493,0,0,1-4.978,2.093,19.732,19.732,0,0,1-5.13-1.021,3.931,3.931,0,0,1-1.161,2.144,4.49,4.49,0,0,1-2.391,1.038,15.446,15.446,0,0,1,0,4.77.916.916,0,0,1-.64.736c-.561.162-.943-.421-1.223-.893a3.942,3.942,0,0,0-1.23-1.375,1.924,1.924,0,0,0-1.784-.179,1.842,1.842,0,0,0-.937,1.122,3.41,3.41,0,0,0-.073,1.51,4.518,4.518,0,0,0,.982,2.306,3.106,3.106,0,0,0,2.194,1.123,2.247,2.247,0,0,0,2.11-1.044l.04.157a5.26,5.26,0,0,0,.23.735,6.285,6.285,0,0,0,4.607,3.929c1.072.224,2.245.438,3.469.623.6.09,1.2.174,1.79.247a4.321,4.321,0,0,0,4.771-3.53C194.5,240.994,194.773,235.623,193.027,231.06Z" fill="#955"/>
      <path id="Tracé_824" data-name="Tracé 824" d="M179.053,244.3v8.031a8.848,8.848,0,0,0,6.459,3.581,3.15,3.15,0,0,0,2.324-.6,1.887,1.887,0,0,0-.236-2.98,1.026,1.026,0,0,1-.471-.859v-2.609c-1.213-.186-2.4-.4-3.469-.623A6.285,6.285,0,0,1,179.053,244.3Z" fill="#955"/>
      <path id="Tracé_825" data-name="Tracé 825" d="M184.418,250.029a16.96,16.96,0,0,0,2.711.483v-1.628c-1.213-.185-2.4-.4-3.469-.623a6.278,6.278,0,0,1-4.45-3.6,6.388,6.388,0,0,0,1.622,3.367A7.69,7.69,0,0,0,184.418,250.029Z" fill="#823c3c"/>
      <path id="Tracé_826" data-name="Tracé 826" d="M189.536,236.88H188.5a7.617,7.617,0,0,0-7.178-.73v1.123l.286.151a11.435,11.435,0,0,1,.27,2.15,2.852,2.852,0,0,0,.791,1.9,3.2,3.2,0,0,0,2.138.561,3.919,3.919,0,0,0,1.774-.252,2.843,2.843,0,0,0,1.358-1.628c.252-.684.213-1.077.561-1.9a.611.611,0,0,1,.561-.382.562.562,0,0,1,.528.382c.3.825.258,1.218.5,1.9a2.81,2.81,0,0,0,1.269,1.628,3.474,3.474,0,0,0,1.683.252,2.84,2.84,0,0,0,2-.561,2.949,2.949,0,0,0,.741-1.9,11.864,11.864,0,0,1,.253-2.15l.269-.151V236.15A6.733,6.733,0,0,0,189.536,236.88Zm-1.56.561-.045.393a9.254,9.254,0,0,1-.522,2.065,2.323,2.323,0,0,1-1.072,1.308,2.945,2.945,0,0,1-1.279.207h-.23a2.807,2.807,0,0,1-1.768-.426,2.243,2.243,0,0,1-.606-1.527c0-.179-.034-.37-.045-.561-.034-.522,0-1.684.039-2.5a6.7,6.7,0,0,1,1.824-.253,6.978,6.978,0,0,1,3.659,1.066C187.993,237.261,187.976,237.441,187.976,237.441Zm7.257,1.465a2.717,2.717,0,0,1-.039.561,2.343,2.343,0,0,1-.562,1.527,2.442,2.442,0,0,1-1.65.426h-.224a2.6,2.6,0,0,1-1.2-.208,2.28,2.28,0,0,1-1-1.307,9.716,9.716,0,0,1-.493-2.066l-.04-.392s0-.18.045-.219a6.214,6.214,0,0,1,3.424-1.067,5.856,5.856,0,0,1,1.683.253A24.5,24.5,0,0,1,195.233,238.906Z" fill="#455a64"/>
      <path id="Tracé_827" data-name="Tracé 827" d="M181.32,236.15l-5.842,2.1a2.535,2.535,0,0,1,1.122.561c.062.051,4.7-1.543,4.7-1.543Z" fill="#455a64"/>
      <path id="Tracé_828" data-name="Tracé 828" d="M189.009,237.924l2.946,3.569-2.705.96Z" fill="#955"/>
      <path id="Tracé_829" data-name="Tracé 829" d="M189.009,237.924l2.946,3.569-2.705.96Z" fill="#823c3c"/>
      <path id="Tracé_830" data-name="Tracé 830" d="M184.844,238.373a.814.814,0,1,0,.82-.809h-.006A.821.821,0,0,0,184.844,238.373Z" fill="#263238"/>
      <path id="Tracé_831" data-name="Tracé 831" d="M191.635,238.154a.805.805,0,1,0,0-.006Z" fill="#263238"/>
      <path id="Tracé_832" data-name="Tracé 832" d="M191.214,234.562l2.172.241a1.161,1.161,0,0,0-.909-.954A1.387,1.387,0,0,0,191.214,234.562Z" fill="#263238"/>
      <path id="Tracé_833" data-name="Tracé 833" d="M186.466,234.309l-2.1.562a1.122,1.122,0,0,1,.752-1.078A1.367,1.367,0,0,1,186.466,234.309Z" fill="#263238"/>
      <path id="Tracé_834" data-name="Tracé 834" d="M186.523,243.783l2.244.69a1.381,1.381,0,0,1-1.515.7A1.252,1.252,0,0,1,186.523,243.783Z" fill="#955"/>
      <path id="Tracé_835" data-name="Tracé 835" d="M186.523,243.783l2.244.69a1.381,1.381,0,0,1-1.515.7A1.252,1.252,0,0,1,186.523,243.783Z" fill="#632828"/>
      <path id="Tracé_836" data-name="Tracé 836" d="M187.993,245.13a1.28,1.28,0,0,1-.735.045,1.122,1.122,0,0,1-.735-1.022,1.362,1.362,0,0,1,.875.163A1.31,1.31,0,0,1,187.993,245.13Z" fill="#823c3c"/>
      <path id="Tracé_837" data-name="Tracé 837" d="M188.919,258.852a4.666,4.666,0,0,0,4.254,0,7.484,7.484,0,0,0,.864-.477,1.59,1.59,0,0,1-.864,1.122,4.7,4.7,0,0,1-4.254,0,1.538,1.538,0,0,1-.853-1.122,6.647,6.647,0,0,0,.814.46Z" fill="#263238"/>
      <path id="Tracé_838" data-name="Tracé 838" d="M184.278,251.511h0a3.431,3.431,0,0,0,1.964,2.806,10.571,10.571,0,0,0,9.586,0,3.4,3.4,0,0,0,2-2.806h0a8.581,8.581,0,0,1-3.789,6.864,7.484,7.484,0,0,1-.864.477,4.666,4.666,0,0,1-4.254,0h-.039a6.778,6.778,0,0,1-.814-.46A8.571,8.571,0,0,1,184.278,251.511Z" fill="#455a64"/>
      <path id="Tracé_839" data-name="Tracé 839" d="M197.809,251.511a3.365,3.365,0,0,0-1.964-2.772,10.565,10.565,0,0,0-9.586,0,3.4,3.4,0,0,0-2,2.772,3.432,3.432,0,0,0,1.964,2.806,10.571,10.571,0,0,0,9.586,0A3.42,3.42,0,0,0,197.809,251.511Zm-.589,0a2.443,2.443,0,0,1-1.078,1.846,5.561,5.561,0,0,1-.629.427,9.958,9.958,0,0,1-8.979,0,4.759,4.759,0,0,1-.6-.41,2.431,2.431,0,0,1-1.078-1.846,2.858,2.858,0,0,1,1.684-2.273,9.96,9.96,0,0,1,8.98,0,2.8,2.8,0,0,1,1.723,2.25Z" fill="#455a64"/>
      <path id="Tracé_840" data-name="Tracé 840" d="M196.159,253.352a2.8,2.8,0,0,0-1.319-1.375,7.581,7.581,0,0,0-3.771-.9,7.658,7.658,0,0,0-3.783.9,2.851,2.851,0,0,0-1.342,1.392,2.432,2.432,0,0,1-1.077-1.847,2.859,2.859,0,0,1,1.684-2.273,9.964,9.964,0,0,1,8.979,0,2.838,2.838,0,0,1,1.684,2.245A2.442,2.442,0,0,1,196.159,253.352Z" fill="#263238"/>
      <path id="Tracé_841" data-name="Tracé 841" d="M188.919,258.852a4.666,4.666,0,0,0,4.254,0,7.484,7.484,0,0,0,.864-.477,1.59,1.59,0,0,1-.864,1.122,4.7,4.7,0,0,1-4.254,0,1.538,1.538,0,0,1-.853-1.122,6.647,6.647,0,0,0,.814.46Z" fill="#fff" opacity="0.6" style="mix-blend-mode: normal;isolation: isolate"/>
      <path id="Tracé_842" data-name="Tracé 842" d="M184.278,251.511h0a3.431,3.431,0,0,0,1.964,2.806,10.571,10.571,0,0,0,9.586,0,3.4,3.4,0,0,0,2-2.806h0a8.581,8.581,0,0,1-3.789,6.864,7.484,7.484,0,0,1-.864.477,4.666,4.666,0,0,1-4.254,0h-.039a6.778,6.778,0,0,1-.814-.46A8.571,8.571,0,0,1,184.278,251.511Z" fill="#fff" opacity="0.7" style="mix-blend-mode: normal;isolation: isolate"/>
      <path id="Tracé_843" data-name="Tracé 843" d="M197.809,251.511a3.365,3.365,0,0,0-1.964-2.772,10.565,10.565,0,0,0-9.586,0,3.4,3.4,0,0,0-2,2.772,3.432,3.432,0,0,0,1.964,2.806,10.571,10.571,0,0,0,9.586,0A3.42,3.42,0,0,0,197.809,251.511Zm-.589,0a2.443,2.443,0,0,1-1.078,1.846,5.561,5.561,0,0,1-.629.427,9.958,9.958,0,0,1-8.979,0,4.759,4.759,0,0,1-.6-.41,2.431,2.431,0,0,1-1.078-1.846,2.858,2.858,0,0,1,1.684-2.273,9.96,9.96,0,0,1,8.98,0,2.8,2.8,0,0,1,1.723,2.25Z" fill="#fff" opacity="0.8" style="mix-blend-mode: normal;isolation: isolate"/>
      <path id="Tracé_844" data-name="Tracé 844" d="M196.159,253.352a2.8,2.8,0,0,0-1.319-1.375,7.581,7.581,0,0,0-3.771-.9,7.658,7.658,0,0,0-3.783.9,2.851,2.851,0,0,0-1.342,1.392,2.432,2.432,0,0,1-1.077-1.847,2.859,2.859,0,0,1,1.684-2.273,9.964,9.964,0,0,1,8.979,0,2.838,2.838,0,0,1,1.684,2.245A2.442,2.442,0,0,1,196.159,253.352Z" fill="#fff" opacity="0.6" style="mix-blend-mode: normal;isolation: isolate"/>
      <path id="Tracé_845" data-name="Tracé 845" d="M187.286,251.977a7.658,7.658,0,0,1,3.783-.9,7.579,7.579,0,0,1,3.771.9,2.8,2.8,0,0,1,1.319,1.375,5.557,5.557,0,0,1-.629.426,9.958,9.958,0,0,1-8.979,0,4.681,4.681,0,0,1-.6-.409A2.848,2.848,0,0,1,187.286,251.977Z" fill="#632828"/>
      <circle id="Ellipse_14" data-name="Ellipse 14" cx="5.393" cy="5.393" r="5.393" transform="translate(170.455 222.754)" fill="#263238"/>
    </g>
  </g>
</svg>
