<svg xmlns="http://www.w3.org/2000/svg" width="249.999" height="259.137" viewBox="0 0 249.999 259.137">
  <g id="ImgSlide" transform="translate(-383 -176)">
    <g id="Shopping" transform="translate(258.693 50.724)">
      <g id="freepik--Floor--inject-186">
        <path id="Tracé_221" data-name="Tracé 221" d="M337.413,260.8c-48.977-28.273-128.127-28.273-176.775,0s-48.423,74.13.566,102.4,128.127,28.279,176.775,0S386.39,289.082,337.413,260.8Z" fill="#f5f5f5"/>
      </g>
      <g id="freepik--Shadows--inject-186">
        <path id="Tracé_222" data-name="Tracé 222" d="M332.185,324.044c-10.589-6.112-27.73-6.112-38.232,0s-10.468,16.031.127,22.149,27.73,6.112,38.232,0S342.78,330.162,332.185,324.044Z" fill="#e6e6e6"/>
        <path id="Tracé_223" data-name="Tracé 223" d="M276.732,317.424c-10.589-6.112-27.73-6.112-38.232,0s-10.468,16.031.127,22.149,27.729,6.112,38.232,0S287.327,323.542,276.732,317.424Z" fill="#e6e6e6"/>
      </g>
      <g id="freepik--Clouds--inject-186">
        <path id="Tracé_224" data-name="Tracé 224" d="M333.641,152.3c-2.34-1.351-4.316-.687-4.945,1.41a6.988,6.988,0,0,0-2.531-2.813c-1.831-1.058-3.327-.208-3.333,1.9v.965l-2.461-1.421c-1.288-.74-2.311-.145-2.311,1.334a5.106,5.106,0,0,0,2.311,4.044l20.855,12.04c1.288.739,2.311.15,2.311-1.329a5.107,5.107,0,0,0-2.311-4.015l-2.461-1.421V161.18A11.29,11.29,0,0,0,333.641,152.3Z" fill="#e6e6e6"/>
        <path id="Tracé_225" data-name="Tracé 225" d="M313.2,160.192c-1.676-.971-3.1-.5-3.547,1.011a4.994,4.994,0,0,0-1.814-2.022c-1.317-.757-2.392-.15-2.392,1.363v.693l-1.762-1.016c-.924-.532-1.675-.1-1.675.953a3.642,3.642,0,0,0,1.664,2.888l14.968,8.666c.918.531,1.669.1,1.675-.953a3.689,3.689,0,0,0-1.664-2.889l-1.767-1.022v-1.317A8.09,8.09,0,0,0,313.2,160.192Z" fill="#e6e6e6"/>
      </g>
      <g id="freepik--Garland--inject-186">
        <path id="Tracé_226" data-name="Tracé 226" d="M363.993,218.412l.272,1.081a88.93,88.93,0,0,1-10.977-2.843l-.1-.988-.364-.156A90.279,90.279,0,0,0,363.993,218.412Z" fill="#14a08c"/>
        <path id="Tracé_227" data-name="Tracé 227" d="M334.218,208.216l.168.081.1,1.022-.225-.1Z" fill="#14a08c"/>
        <path id="Tracé_228" data-name="Tracé 228" d="M295.848,188.591l.058-.941.161.1v.97Z" fill="#14a08c"/>
        <path id="Tracé_229" data-name="Tracé 229" d="M246.934,151.746l.272-.763c3.339,3.247,7.082,6.592,11.161,9.989l-.37-.266-.1.872C253.89,158.239,250.215,154.941,246.934,151.746Z" fill="#14a08c"/>
        <path id="Tracé_230" data-name="Tracé 230" d="M258.373,160.972,276.859,174.4l-.075.63-.116.895-1.623,13.189-10.133-1.155-8.723-12.542,1.733-13.865.1-.872Zm14.344,24.743,1.288-10.439-13.83-10.041-1.288,10.433,6.418,9.2,7.429.85" fill="#14a08c"/>
        <path id="Tracé_231" data-name="Tracé 231" d="M276.657,175.928l.115-.895.168.115-.058.942C276.807,176.032,276.738,175.98,276.657,175.928Z" fill="#14a08c"/>
        <path id="Tracé_232" data-name="Tracé 232" d="M303.491,200.671l.526-1.08.514,1.687Z" fill="#fff"/>
        <path id="Tracé_233" data-name="Tracé 233" d="M301.024,197.165a3.007,3.007,0,0,1,.936.86.475.475,0,0,1,.115.3c0,.156-.109.213-.242.138a.446.446,0,0,1-.133-.144,2.308,2.308,0,0,0-.682-.653c-.3-.173-.479-.1-.479.127h0c0,.26.127.451.7.942a2.108,2.108,0,0,1,.942,1.542h0c0,.642-.433.763-1.057.4a3.535,3.535,0,0,1-1.115-1.069.578.578,0,0,1-.1-.289c0-.156.116-.214.248-.133a.463.463,0,0,1,.156.139,2.594,2.594,0,0,0,.826.832c.324.185.526.127.526-.127s-.115-.451-.67-.913c-.63-.578-.982-.965-.982-1.589S300.435,196.8,301.024,197.165Z" fill="#14a08c"/>
        <path id="Tracé_234" data-name="Tracé 234" d="M305.443,202.762a.5.5,0,0,1,0,.145c0,.162-.1.225-.242.144a.572.572,0,0,1-.254-.352l-.237-.78-1.445-.832-.248.514c-.046.1-.133.116-.243.052a.531.531,0,0,1-.242-.422.212.212,0,0,1,.034-.115l1.11-2.184c.057-.115.167-.15.312-.069h.028a.7.7,0,0,1,.307.422Zm-1.952-2.091,1.04.607-.52-1.687-.526,1.08" fill="#14a08c"/>
        <path id="Tracé_235" data-name="Tracé 235" d="M306.321,200.215a.577.577,0,0,1,.255.445v2.593l1.346.775a.51.51,0,0,1,.237.41c0,.144-.11.208-.243.133l-1.6-.925a.574.574,0,0,1-.26-.456v-2.831C306.038,200.192,306.154,200.128,306.321,200.215Z" fill="#14a08c"/>
        <path id="Tracé_236" data-name="Tracé 236" d="M310.648,202.751a.5.5,0,0,1,.231.4c0,.151-.1.208-.231.133l-1.438-.849v.89l1.282.739a.524.524,0,0,1,.231.4c0,.144-.109.2-.236.127l-1.277-.74v.919l1.485.861a.507.507,0,0,1,.236.4c0,.156-.109.208-.236.133l-1.733-1a.579.579,0,0,1-.266-.457v-2.8c0-.168.115-.237.26-.151Z" fill="#14a08c"/>
        <path id="Tracé_237" data-name="Tracé 237" d="M298.6,191.093l13.945,8.053-.034,11.259-6.985.474-6.961-8.515Zm6.626,11.958c.138.081.242,0,.242-.144a.441.441,0,0,0,0-.145l-1.1-3.466a.712.712,0,0,0-.306-.422h-.029c-.145-.08-.254-.046-.312.07l-1.109,2.184a.2.2,0,0,0-.035.115.529.529,0,0,0,.243.422c.109.063.2.046.242-.052l.249-.514,1.444.832.237.779a.578.578,0,0,0,.254.353m-3.045-2.75h0c0-.578-.317-1.005-.941-1.542s-.711-.682-.7-.942h0c0-.225.179-.3.48-.127a2.316,2.316,0,0,1,.664.618.457.457,0,0,0,.138.121.151.151,0,0,0,.243-.138.481.481,0,0,0-.115-.3,3.044,3.044,0,0,0-.936-.861c-.578-.34-1.011-.179-1.017.4a2.175,2.175,0,0,0,.982,1.6c.578.462.67.659.67.9s-.2.324-.526.139a2.585,2.585,0,0,1-.826-.832.473.473,0,0,0-.156-.139.152.152,0,0,0-.248.133.578.578,0,0,0,.1.289,3.535,3.535,0,0,0,1.115,1.069c.624.358,1.057.237,1.057-.4m8.481,5.864a.147.147,0,0,0,.237-.133.511.511,0,0,0-.237-.4l-1.485-.861v-.919l1.277.74a.147.147,0,0,0,.237-.127.529.529,0,0,0-.231-.4l-1.283-.739v-.89l1.467.849a.143.143,0,0,0,.231-.133.5.5,0,0,0-.231-.4l-1.733-1a.161.161,0,0,0-.26.151v2.8a.579.579,0,0,0,.266.457l1.733,1m-2.767-1.594a.15.15,0,0,0,.243-.133.51.51,0,0,0-.237-.41l-1.346-.775V200.66a.579.579,0,0,0-.254-.445.162.162,0,0,0-.266.144v2.831a.574.574,0,0,0,.26.456l1.6.925" fill="#fff"/>
        <path id="Tracé_238" data-name="Tracé 238" d="M289.378,190.14h0l1.733,1.115a.5.5,0,0,1,.219.416c0,.132-.11.179-.237.109h0l-1.461-.947-.052.849,1.276.832a.525.525,0,0,1,.214.41c0,.139-.11.185-.225.116h0l-1.271-.826-.052.884,1.479.964a.494.494,0,0,1,.219.41c0,.139-.109.185-.231.116h0l-1.733-1.155a.58.58,0,0,1-.248-.463l.167-2.709C289.123,190.111,289.239,190.059,289.378,190.14Z" fill="#14a08c"/>
        <path id="Tracé_239" data-name="Tracé 239" d="M279.349,178.915l13.911,9.047-.647,10.872-7.222-.167-6.695-8.874Zm6.424,12.039a.35.35,0,0,0,0-.144l-.936-3.437a.7.7,0,0,0-.3-.44h-.029a.2.2,0,0,0-.284.03l-.016.022L282.954,189a.234.234,0,0,0-.047.1.519.519,0,0,0,.231.427h0c.1.064.185.046.232-.04l.288-.474,1.439.936.2.774a.62.62,0,0,0,.243.37h0a.15.15,0,0,0,.242-.127m5.558.727a.5.5,0,0,0-.22-.415l-1.733-1.115h0c-.139-.081-.254-.029-.26.132l-.167,2.71a.576.576,0,0,0,.248.462l1.733,1.155h0a.143.143,0,0,0,.231-.115.5.5,0,0,0-.219-.41l-1.468-.982.052-.884,1.271.826h0a.14.14,0,0,0,.226-.116.525.525,0,0,0-.214-.41l-1.254-.849.052-.849,1.462.947h0a.147.147,0,0,0,.237-.11m-8.8-3.558c.029-.538-.271-1-.889-1.572s-.688-.722-.676-.976.179-.283.456-.121l.052.029a2.485,2.485,0,0,1,.664.7.615.615,0,0,0,.133.127h0c.133.075.243.029.249-.122a.493.493,0,0,0-.1-.3,3.31,3.31,0,0,0-.924-.918l-.081-.052c-.543-.312-.947-.185-.982.352h0c-.04.607.306,1.046.925,1.623s.652.705.641.936-.208.289-.5.121l-.012-.023a2.755,2.755,0,0,1-.8-.878.494.494,0,0,0-.156-.156h0c-.127-.075-.236-.029-.248.116a.544.544,0,0,0,.092.289,3.747,3.747,0,0,0,1.087,1.155l.115.069c.578.324.965.214,1-.364h0m5.846,4.518a.519.519,0,0,0-.22-.416l-1.34-.866.15-2.508a.575.575,0,0,0-.242-.456h0c-.139-.087-.255-.029-.26.127l-.168,2.738a.576.576,0,0,0,.248.462l1.6,1.04h0a.146.146,0,0,0,.237-.121" fill="#fff"/>
        <path id="Tracé_240" data-name="Tracé 240" d="M285.75,190.81a.349.349,0,0,1,0,.144c0,.15-.116.2-.243.127h0a.617.617,0,0,1-.243-.369l-.2-.774L283.624,189l-.289.473c-.046.087-.127.1-.231.041h0a.52.52,0,0,1-.231-.428.238.238,0,0,1,.046-.1l1.259-2.016a.2.2,0,0,1,.278-.068l.023.016h.029a.7.7,0,0,1,.294.439Zm-1.889-2.195,1.039.675-.444-1.669-.578.994" fill="#14a08c"/>
        <path id="Tracé_241" data-name="Tracé 241" d="M283.861,188.62l.6-1,.445,1.67Z" fill="#fff"/>
        <path id="Tracé_242" data-name="Tracé 242" d="M281.428,184.923l.081.052a3.33,3.33,0,0,1,.925.919.49.49,0,0,1,.1.3c0,.15-.116.2-.249.121h0a.589.589,0,0,1-.132-.127,2.516,2.516,0,0,0-.665-.7l-.052-.029c-.277-.161-.445-.092-.456.11s.115.462.676.988a2.168,2.168,0,0,1,.889,1.571h0c-.034.578-.439.688-1,.364l-.116-.069a3.755,3.755,0,0,1-1.086-1.155.535.535,0,0,1-.092-.289c0-.145.121-.191.248-.116h0a.494.494,0,0,1,.156.156,2.752,2.752,0,0,0,.826.9l.058.035c.289.168.48.116.5-.11s-.1-.45-.641-.947a2.169,2.169,0,0,1-.925-1.624h0C280.481,184.738,280.9,184.611,281.428,184.923Z" fill="#14a08c"/>
        <path id="Tracé_243" data-name="Tracé 243" d="M286.761,188.418h0a.578.578,0,0,1,.242.457l-.15,2.507,1.34.866a.521.521,0,0,1,.22.416c0,.145-.11.2-.237.122h0l-1.6-1.04a.58.58,0,0,1-.249-.462l.168-2.739C286.506,188.389,286.622,188.332,286.761,188.418Z" fill="#14a08c"/>
        <path id="Tracé_244" data-name="Tracé 244" d="M276.98,174.455l18.978,12.311-.052.866-.058.942-.8,13.536-9.821-.231-9.134-12.1.769-13.692.058-.942Zm15.633,24.379.647-10.872-13.911-9.047-.653,10.878,6.695,8.874,7.222.167" fill="#14a08c"/>
        <path id="Tracé_245" data-name="Tracé 245" d="M264.277,175.021l.676-.9.358,1.652Z" fill="#fff"/>
        <path id="Tracé_246" data-name="Tracé 246" d="M261.885,171.168a1.813,1.813,0,0,1,.179.121,3.376,3.376,0,0,1,.9.965.5.5,0,0,1,.087.306c0,.133-.121.174-.243.1h-.028a.585.585,0,0,1-.133-.139,2.634,2.634,0,0,0-.647-.728.551.551,0,0,0-.1-.069c-.243-.139-.4-.093-.416.092s.086.456.635,1.017a2.13,2.13,0,0,1,.826,1.606h0c-.063.52-.445.612-.959.318l-.208-.133a4.152,4.152,0,0,1-1.057-1.2.483.483,0,0,1-.075-.289c0-.133.121-.173.243-.1h.034a.523.523,0,0,1,.145.162,2.886,2.886,0,0,0,.785.924l.11.075c.26.145.433.11.457-.1s-.07-.439-.578-.97c-.607-.618-.936-1.075-.861-1.653S261.388,170.891,261.885,171.168Z" fill="#14a08c"/>
        <path id="Tracé_247" data-name="Tracé 247" d="M266.1,177.321a.435.435,0,0,1,0,.144c0,.133-.121.179-.243.11h-.028a.618.618,0,0,1-.231-.376l-.168-.768-1.427-1.034-.323.427c-.047.075-.133.081-.226,0h-.034a.529.529,0,0,1-.208-.433.176.176,0,0,1,.052-.1l1.415-1.825c.064-.087.162-.1.289,0l.046.034h0a.722.722,0,0,1,.283.451Zm-1.825-2.311,1.028.78-.358-1.658-.676.9" fill="#14a08c"/>
        <path id="Tracé_248" data-name="Tracé 248" d="M267.257,175.091h.041a.543.543,0,0,1,.219.468l-.294,2.4,1.329.971a.515.515,0,0,1,.208.421c0,.127-.122.168-.237.1h-.029l-1.6-1.155a.537.537,0,0,1-.219-.468l.323-2.623C267.038,175.062,267.13,175.016,267.257,175.091Z" fill="#14a08c"/>
        <path id="Tracé_249" data-name="Tracé 249" d="M269.857,177h.035l1.733,1.248a.473.473,0,0,1,.2.41c0,.127-.109.167-.225.1h-.035l-1.45-1.052-.1.821,1.265.918a.513.513,0,0,1,.2.422c0,.121-.116.156-.231.092h-.035l-1.283-.941-.109.849,1.479,1.075a.521.521,0,0,1,.2.415c0,.128-.122.168-.237.1h-.029L269.5,180.2a.577.577,0,0,1-.231-.468l.323-2.6C269.614,176.974,269.724,176.945,269.857,177Z" fill="#14a08c"/>
        <path id="Tracé_250" data-name="Tracé 250" d="M260.175,165.235,274,175.276l-1.288,10.439-7.406-.85-6.395-9.2Zm5.939,12.23a.435.435,0,0,0,0-.144l-.769-3.409a.713.713,0,0,0-.283-.45h0l-.046-.035a.23.23,0,0,0-.289,0l-1.415,1.825a.176.176,0,0,0-.052.1.529.529,0,0,0,.208.434h.034c.093.057.18.052.226,0l.323-.428,1.427,1.034.168.769a.621.621,0,0,0,.231.375h.029a.153.153,0,0,0,.242-.11m5.685,1.219a.471.471,0,0,0-.2-.41l-1.733-1.248h-.034a.163.163,0,0,0-.26.116l-.324,2.6a.577.577,0,0,0,.231.468l1.733,1.26h.029c.116.069.214.029.237-.1a.516.516,0,0,0-.2-.416l-1.479-1.075.11-.849,1.259.918h.035a.147.147,0,0,0,.231-.092.515.515,0,0,0-.2-.422L270,178.482l.1-.821,1.45,1.052h.034a.142.142,0,0,0,.226-.1m-8.753-6.118a.5.5,0,0,0-.086-.306,3.394,3.394,0,0,0-.9-.965,1.56,1.56,0,0,0-.179-.121c-.5-.283-.878-.179-.936.306-.075.578.255,1.046.861,1.664.532.531.63.739.607.964s-.2.249-.462.1l-.11-.075a2.889,2.889,0,0,1-.786-.924.519.519,0,0,0-.144-.162H260.9a.154.154,0,0,0-.243.1.484.484,0,0,0,.076.289,4.03,4.03,0,0,0,1.057,1.2l.208.133c.514.294.9.2.959-.318h0c.063-.52-.226-.994-.826-1.606s-.671-.763-.642-1.011.179-.237.422-.1a.551.551,0,0,1,.1.069,2.618,2.618,0,0,1,.647.728.628.628,0,0,0,.133.139h.029c.121.075.225.034.242-.1m5.708,6.863a.513.513,0,0,0-.208-.421l-1.329-.971.295-2.4a.543.543,0,0,0-.219-.468h-.041c-.127-.075-.237-.029-.254.115l-.324,2.623a.54.54,0,0,0,.22.468l1.594,1.155h.029a.151.151,0,0,0,.237-.1" fill="#fff"/>
        <path id="Tracé_251" data-name="Tracé 251" d="M320.983,208.453a2.963,2.963,0,0,1,.815.71.583.583,0,0,1,.127.3c0,.167-.092.237-.225.173h0a.478.478,0,0,1-.116-.1,2.387,2.387,0,0,0-.612-.578l-.087-.046c-.3-.144-.468-.052-.456.179s.162.468.739.913a2.063,2.063,0,0,1,1.011,1.5c.041.676-.37.849-.993.543l-.145-.075a3.545,3.545,0,0,1-.993-.913.527.527,0,0,1-.116-.288c0-.162.092-.232.225-.162h.035a.363.363,0,0,1,.121.11,2.484,2.484,0,0,0,.757.722l.1.052c.318.15.509.075.491-.191s-.138-.456-.693-.872c-.647-.5-1.011-.89-1.051-1.537s.364-.826.947-.543Z" fill="#14a08c"/>
        <path id="Tracé_252" data-name="Tracé 252" d="M326.125,211.029a.578.578,0,0,1,.26.428l.162,2.68,1.34.659h0a.578.578,0,0,1,.243.393c0,.156-.093.225-.226.161l-1.594-.779h0a.579.579,0,0,1-.266-.434l-.173-2.934c0-.168.092-.249.242-.18Z" fill="#14a08c"/>
        <path id="Tracé_253" data-name="Tracé 253" d="M330.463,213.167a.514.514,0,0,1,.232.375c0,.156-.093.226-.22.168l-1.456-.722.052.912,1.271.63h0a.506.506,0,0,1,.231.381c0,.156-.092.22-.214.162l-1.27-.624.052.942,1.484.734h0a.51.51,0,0,1,.231.375c0,.162-.086.225-.213.168l-1.734-.861h0a.581.581,0,0,1-.254-.428l-.173-2.888c0-.179.092-.26.243-.185l1.733.849Z" fill="#14a08c"/>
        <path id="Tracé_254" data-name="Tracé 254" d="M345.645,220.1a.578.578,0,0,1,.255.41l.248,2.721,1.334.578h.029a.51.51,0,0,1,.231.375c0,.156-.075.243-.208.185l-1.588-.71h-.035a.579.579,0,0,1-.254-.416l-.277-2.975c0-.174.086-.266.236-.2Z" fill="#14a08c"/>
        <path id="Tracé_255" data-name="Tracé 255" d="M349.961,222.046a.521.521,0,0,1,.231.375c0,.156-.081.232-.2.174l-1.462-.647.087.93,1.265.578h0a.536.536,0,0,1,.237.381c0,.156-.081.225-.208.173l-1.265-.578.086.959,1.479.665h.029a.579.579,0,0,1,.231.369c0,.162-.081.237-.208.18l-1.733-.775h-.035a.579.579,0,0,1-.26-.421l-.265-2.941c0-.185.086-.265.231-.208l1.733.769Z" fill="#14a08c"/>
        <path id="Tracé_256" data-name="Tracé 256" d="M353.283,216.65l1.623,15.754-8.764,2.444-10.1-10.526L334.49,209.3l-.1-1.023-.075-.722,18.486,7.932.364.156Zm-7.511,14.691,6.43-1.791-1.225-11.889-13.835-5.927,1.224,11.889,7.406,7.718" fill="#14a08c"/>
        <path id="Tracé_257" data-name="Tracé 257" d="M334.265,209.221l.739,14.6-9.174,1.525-9.821-11.109-.727-14.442-.052-1-.047-.924,18.983,9.584.041.74Zm-8.608,12.709,6.73-1.155-.578-11.589-13.934-7.013.578,11.589,7.192,8.151" fill="#14a08c"/>
        <path id="Tracé_258" data-name="Tracé 258" d="M364.265,219.493l-.272-1.081a89.54,89.54,0,0,1-11.178-2.888L334.328,207.6l.075.716-.167-.075-.041-.739-18.983-9.59.046.924-.156-.087v-1.028L296.09,186.743v1.034l-.161-.1.052-.867L277,174.478l-.04.694-.168-.116.075-.63-18.5-13.448c-4.079-3.4-7.823-6.748-11.162-9.995l-.271.769c3.281,3.194,6.932,6.487,10.976,9.821l-1.733,13.864,8.723,12.542,10.133,1.156,1.623-13.195.226.162-.815,13.708,9.134,12.1,9.82.231.8-13.535.22.133-.04,13.865L305.5,214.23l9.526-.653.035-13.865.214.116L316,214.27l9.821,11.109L335,223.854l-.739-14.6.225.1,1.554,15.02,10.1,10.532,8.77-2.5-1.623-15.777A88.827,88.827,0,0,0,364.265,219.493Z" fill="#fff" opacity="0.5" style="mix-blend-mode: normal;isolation: isolate"/>
        <path id="Tracé_259" data-name="Tracé 259" d="M315.085,198.73l.156.087.052,1-.214-.115Z" fill="#14a08c"/>
        <path id="Tracé_260" data-name="Tracé 260" d="M296.073,186.72,315.085,197.7v2l-.035,13.865-9.526.652-9.5-11.617.04-13.865v-2ZM312.509,210.4l.034-11.259L298.6,191.093l-.035,11.271,6.961,8.527,6.985-.474" fill="#14a08c"/>
        <path id="Tracé_261" data-name="Tracé 261" d="M331.8,209.2l.577,11.589-6.73,1.155-7.2-8.18-.578-11.589Zm-6.551,4.847c.144.069.236,0,.231-.173l-.041-.151-1.271-3.466a.7.7,0,0,0-.294-.387h-.029a.185.185,0,0,0-.26.029.2.2,0,0,0-.035.069l-.924,2.38a.209.209,0,0,0-.029.122.53.53,0,0,0,.237.393h0a.153.153,0,0,0,.225-.076l.214-.577,1.438.71.278.78a.616.616,0,0,0,.248.33h0m5.425,2.645c.127.058.225,0,.213-.167a.51.51,0,0,0-.231-.376h0l-1.484-.733-.052-.942,1.271.624c.121.058.225,0,.213-.162a.506.506,0,0,0-.231-.381h0l-1.271-.63-.052-.913,1.456.723c.127.057.225,0,.22-.168a.516.516,0,0,0-.231-.375h0l-1.734-.85c-.15-.075-.254,0-.242.185l.173,2.889a.578.578,0,0,0,.254.427h0l1.733.861m-9.514-4.622c.624.307,1.034.133.993-.531a2.057,2.057,0,0,0-1.011-1.508c-.577-.445-.722-.63-.739-.9s.156-.335.456-.191l.087.046a2.387,2.387,0,0,1,.612.578.479.479,0,0,0,.116.1h0c.133.064.237,0,.225-.173a.579.579,0,0,0-.127-.3,2.99,2.99,0,0,0-.814-.71l-.145-.081c-.578-.283-.982-.075-.947.531a2.14,2.14,0,0,0,1.051,1.549c.578.416.682.612.693.866s-.173.347-.491.2l-.1-.052a2.484,2.484,0,0,1-.757-.722.364.364,0,0,0-.121-.11h-.035c-.133-.07-.237,0-.225.162a.527.527,0,0,0,.116.288,3.545,3.545,0,0,0,.993.913l.145.075m6.753,3.276c.133.063.231,0,.225-.162a.579.579,0,0,0-.242-.393h0l-1.329-.705-.162-2.68a.578.578,0,0,0-.26-.428h0c-.15-.069-.254,0-.243.179l.174,2.935a.576.576,0,0,0,.266.433h0l1.594.78" fill="#fff"/>
        <path id="Tracé_262" data-name="Tracé 262" d="M323.439,211.763l.433-1.167.6,1.681Z" fill="#fff"/>
        <path id="Tracé_263" data-name="Tracé 263" d="M325.484,213.872c0,.161-.087.242-.231.173h0a.61.61,0,0,1-.249-.329l-.277-.78-1.439-.711-.213.578c-.035.1-.116.133-.226.075h0a.53.53,0,0,1-.236-.393.212.212,0,0,1,.028-.121l.925-2.38a.184.184,0,0,1,.225-.133.178.178,0,0,1,.069.034h.029a.708.708,0,0,1,.295.387l1.271,3.467Zm-2.051-2.109,1.04.514-.578-1.681-.439,1.155" fill="#14a08c"/>
        <path id="Tracé_264" data-name="Tracé 264" d="M340.585,217.829a2.852,2.852,0,0,1,.745.635.537.537,0,0,1,.133.3c0,.167-.081.248-.214.185h0a.572.572,0,0,1-.115-.093,2.323,2.323,0,0,0-.578-.514l-.121-.058c-.3-.139-.463,0-.44.208s.174.468.757.884a2.062,2.062,0,0,1,1.04,1.467h0c.058.676-.335.878-.959.578a2.092,2.092,0,0,1-.214-.115,3.361,3.361,0,0,1-.93-.832.584.584,0,0,1-.127-.283c0-.162.087-.243.22-.18h.034a.452.452,0,0,1,.122.1,2.3,2.3,0,0,0,.7.653l.151.081c.323.145.508.052.485-.219s-.156-.451-.716-.85a2.041,2.041,0,0,1-1.081-1.507c-.057-.624.324-.861.913-.578A1.483,1.483,0,0,1,340.585,217.829Z" fill="#14a08c"/>
        <path id="Tracé_265" data-name="Tracé 265" d="M343.023,221.023l.387-1.219.647,1.675Z" fill="#fff"/>
        <path id="Tracé_266" data-name="Tracé 266" d="M350.983,217.661l1.225,11.889-6.43,1.791-7.406-7.718-1.225-11.889Zm-6.1,5.581c.138.058.231,0,.214-.2l-.041-.144-1.363-3.466a.734.734,0,0,0-.283-.37h-.075a.185.185,0,0,0-.258.043.182.182,0,0,0-.031.073l-.821,2.478a.339.339,0,0,0,0,.127.579.579,0,0,0,.237.387h.029a.146.146,0,0,0,.22-.092l.185-.578,1.438.641.295.774a.635.635,0,0,0,.248.318h.029m5.4,2.38c.127.058.22,0,.208-.179a.574.574,0,0,0-.231-.37h-.029l-1.479-.664-.086-.959,1.265.578c.127.052.225,0,.208-.174a.54.54,0,0,0-.237-.381h0l-1.265-.578-.087-.93,1.462.647c.121.058.219,0,.2-.173a.52.52,0,0,0-.231-.376h0l-1.733-.768c-.145-.058-.249,0-.231.208l.266,2.941a.573.573,0,0,0,.26.421h.034l1.733.774m-9.532-4.205c.624.277,1.017.075.959-.578h0a2.062,2.062,0,0,0-1.04-1.467c-.577-.416-.733-.578-.756-.878s.138-.353.439-.214l.121.058a2.3,2.3,0,0,1,.578.514.568.568,0,0,0,.115.092h0c.133.064.231,0,.214-.185a.536.536,0,0,0-.133-.3,2.852,2.852,0,0,0-.745-.635,1.506,1.506,0,0,0-.22-.11c-.577-.266-.97-.029-.912.577a2.036,2.036,0,0,0,1.08,1.514c.578.4.693.578.716.843s-.162.37-.485.226l-.15-.081a2.314,2.314,0,0,1-.7-.653.446.446,0,0,0-.121-.1h-.035c-.133-.063-.231,0-.22.179a.584.584,0,0,0,.127.283,3.319,3.319,0,0,0,.931.832,1.905,1.905,0,0,0,.213.116m6.731,2.952c.132.058.225,0,.207-.185a.51.51,0,0,0-.231-.376h-.028l-1.335-.577-.248-2.721a.576.576,0,0,0-.255-.41h-.028c-.151-.07-.249,0-.237.2l.277,2.975a.577.577,0,0,0,.254.416h.035l1.589.711" fill="#fff"/>
        <path id="Tracé_267" data-name="Tracé 267" d="M345.1,223.045c0,.168-.076.255-.214.2h-.029a.643.643,0,0,1-.249-.318l-.294-.774-1.439-.641-.184.577c-.029.11-.11.145-.22.093h-.029a.579.579,0,0,1-.237-.387.339.339,0,0,1,0-.127l.821-2.479a.184.184,0,0,1,.216-.146.172.172,0,0,1,.072.031h.076a.734.734,0,0,1,.283.37l1.363,3.466Zm-2.074-2.022,1.039.463-.652-1.682-.387,1.219" fill="#14a08c"/>
      </g>
      <g id="freepik--window-shopping--inject-186">
        <path id="Tracé_268" data-name="Tracé 268" d="M140.684,186.281v134.8L246.3,260.1V125.3Z" fill="#455a64"/>
        <path id="Tracé_269" data-name="Tracé 269" d="M211.556,152.5l-64.7,37.354v87.556l64.7-37.371Z" fill="#fe703a"/>
        <path id="Tracé_270" data-name="Tracé 270" d="M211.556,240.035l-64.7,37.371v32.975l64.7-37.354,28.573-16.551Z" fill="#fe703a"/>
        <path id="Tracé_271" data-name="Tracé 271" d="M240.129,256.477h0V136L211.556,152.5v87.539Z" fill="#fe703a"/>
        <path id="Tracé_272" data-name="Tracé 272" d="M211.556,153.118l-64.7,37.354v87.556l64.7-37.371Z" fill="#fff" opacity="0.3" style="mix-blend-mode: normal;isolation: isolate"/>
        <path id="Tracé_273" data-name="Tracé 273" d="M211.556,240.656l-64.7,37.371V311l64.7-37.354L240.129,257.1Z" fill="#fff" opacity="0.2" style="mix-blend-mode: normal;isolation: isolate"/>
        <path id="Tracé_274" data-name="Tracé 274" d="M240.129,257.1h0V136.624l-28.573,16.493v87.539Z" fill="#fff" opacity="0.4" style="mix-blend-mode: normal;isolation: isolate"/>
        <path id="Tracé_275" data-name="Tracé 275" d="M189.99,157.806l12.958,13.738,7.042-4.067-12.958-13.738Z" fill="#fff"/>
        <path id="Tracé_276" data-name="Tracé 276" d="M204.075,149.678l12.958,13.732,7.048-4.067-12.964-13.732Z" fill="#fff"/>
        <path id="Tracé_277" data-name="Tracé 277" d="M197.033,153.739l12.958,13.738,7.042-4.067-12.958-13.732Z" fill="#fe703a"/>
        <path id="Tracé_278" data-name="Tracé 278" d="M211.117,145.611l12.964,13.732,7.042-4.067-12.958-13.732Z" fill="#fe703a"/>
        <path id="Tracé_279" data-name="Tracé 279" d="M218.165,141.544l12.958,13.732,7.042-4.067-12.958-13.732Z" fill="#fff"/>
        <path id="Tracé_280" data-name="Tracé 280" d="M175.906,165.94l12.958,13.738,7.042-4.067-12.958-13.738Z" fill="#fff"/>
        <path id="Tracé_281" data-name="Tracé 281" d="M182.948,161.873l12.958,13.738,7.042-4.067L189.99,157.806Z" fill="#fe703a"/>
        <g id="Groupe_9" data-name="Groupe 9" opacity="0.3">
          <path id="Tracé_282" data-name="Tracé 282" d="M189.99,157.806l12.958,13.738,7.042-4.067-12.958-13.738Z" fill="#fff"/>
          <path id="Tracé_283" data-name="Tracé 283" d="M204.075,149.678l12.958,13.732,7.048-4.067-12.964-13.732Z" fill="#fff"/>
          <path id="Tracé_284" data-name="Tracé 284" d="M197.03,153.743l12.958,13.738,7.042-4.067-12.958-13.732Z" fill="#fff"/>
          <path id="Tracé_285" data-name="Tracé 285" d="M211.114,145.615l12.964,13.732,7.042-4.067-12.958-13.732Z" fill="#fff"/>
          <path id="Tracé_286" data-name="Tracé 286" d="M218.165,141.544l12.958,13.732,7.042-4.067-12.958-13.732Z" fill="#fff"/>
          <g id="Groupe_7" data-name="Groupe 7">
            <path id="Tracé_287" data-name="Tracé 287" d="M239.291,129.343l12.958,13.738,7.042-4.067-12.958-13.738Z" fill="#fff"/>
            <path id="Tracé_288" data-name="Tracé 288" d="M232.249,133.41l12.958,13.738,7.042-4.067-12.958-13.738Z" fill="#fff"/>
            <path id="Tracé_289" data-name="Tracé 289" d="M225.207,137.477l12.958,13.732,7.042-4.061L232.249,133.41Z" fill="#fff"/>
          </g>
          <path id="Tracé_290" data-name="Tracé 290" d="M175.906,165.94l12.958,13.738,7.042-4.067-12.958-13.738Z" fill="#fff"/>
          <g id="Groupe_8" data-name="Groupe 8">
            <path id="Tracé_291" data-name="Tracé 291" d="M168.858,170.007l12.964,13.738,7.042-4.067L175.906,165.94Z" fill="#fff"/>
            <path id="Tracé_292" data-name="Tracé 292" d="M161.816,174.074l12.958,13.732,7.048-4.061-12.964-13.738Z" fill="#fff"/>
            <path id="Tracé_293" data-name="Tracé 293" d="M154.774,178.141l12.958,13.732,7.042-4.067-12.958-13.732Z" fill="#fff"/>
            <path id="Tracé_294" data-name="Tracé 294" d="M147.732,182.208,160.69,195.94l7.042-4.067-12.958-13.732Z" fill="#fff"/>
            <path id="Tracé_295" data-name="Tracé 295" d="M140.69,186.275l12.958,13.732,7.042-4.067-12.958-13.732Z" fill="#fff"/>
          </g>
          <path id="Tracé_296" data-name="Tracé 296" d="M182.945,161.877,195.9,175.615l7.042-4.067L189.988,157.81Z" fill="#fff"/>
        </g>
        <path id="Tracé_297" data-name="Tracé 297" d="M160.7,195.946a8.63,8.63,0,0,1-3.512,4.511c-1.537.89-2.889.653-3.53-.444Z" fill="#14a08c"/>
        <path id="Tracé_298" data-name="Tracé 298" d="M167.743,191.879a8.7,8.7,0,0,1-3.518,4.517c-1.537.884-2.888.647-3.53-.45Z" fill="#fff"/>
        <path id="Tracé_299" data-name="Tracé 299" d="M202.954,171.549a8.669,8.669,0,0,1-3.512,4.512c-1.543.89-2.889.653-3.53-.445Z" fill="#14a08c"/>
        <path id="Tracé_300" data-name="Tracé 300" d="M195.912,175.616a8.667,8.667,0,0,1-3.518,4.512c-1.537.89-2.889.647-3.524-.445Z" fill="#fff"/>
        <path id="Tracé_301" data-name="Tracé 301" d="M188.87,179.683a8.664,8.664,0,0,1-3.519,4.512c-1.536.89-2.888.647-3.523-.445Z" fill="#14a08c"/>
        <path id="Tracé_302" data-name="Tracé 302" d="M181.828,183.75a8.669,8.669,0,0,1-3.519,4.512c-1.536.89-2.888.647-3.524-.445Z" fill="#fff"/>
        <path id="Tracé_303" data-name="Tracé 303" d="M174.785,187.817a8.712,8.712,0,0,1-3.518,4.512c-1.536.89-2.888.647-3.524-.45Z" fill="#14a08c"/>
        <path id="Tracé_304" data-name="Tracé 304" d="M224.08,159.354a8.659,8.659,0,0,1-3.512,4.512c-1.543.89-2.889.647-3.53-.445Z" fill="#fff"/>
        <path id="Tracé_305" data-name="Tracé 305" d="M217.038,163.421a8.728,8.728,0,0,1-3.512,4.512c-1.543.89-2.889.647-3.53-.451Z" fill="#14a08c"/>
        <path id="Tracé_306" data-name="Tracé 306" d="M210,167.482A8.723,8.723,0,0,1,206.484,172c-1.543.884-2.889.647-3.53-.451Z" fill="#fff"/>
        <path id="Tracé_307" data-name="Tracé 307" d="M231.122,155.287a8.659,8.659,0,0,1-3.512,4.512c-1.542.89-2.888.647-3.53-.445Z" fill="#14a08c"/>
        <path id="Tracé_308" data-name="Tracé 308" d="M259.291,139.025a8.669,8.669,0,0,1-3.512,4.512c-1.537.889-2.889.647-3.53-.451Z" fill="#14a08c"/>
        <path id="Tracé_309" data-name="Tracé 309" d="M252.249,143.086a8.67,8.67,0,0,1-3.513,4.518c-1.536.884-2.888.647-3.529-.451Z" fill="#fff"/>
        <path id="Tracé_310" data-name="Tracé 310" d="M245.207,147.153a8.67,8.67,0,0,1-3.513,4.518c-1.536.884-2.888.647-3.529-.451Z" fill="#14a08c"/>
        <path id="Tracé_311" data-name="Tracé 311" d="M238.153,151.22a8.669,8.669,0,0,1-3.512,4.512c-1.537.89-2.889.647-3.53-.445Z" fill="#fff"/>
        <g id="Groupe_10" data-name="Groupe 10" opacity="0.1">
          <path id="Tracé_312" data-name="Tracé 312" d="M160.7,195.946a8.63,8.63,0,0,1-3.512,4.511c-1.537.89-2.889.653-3.53-.444Z"/>
          <path id="Tracé_313" data-name="Tracé 313" d="M167.743,191.879a8.7,8.7,0,0,1-3.518,4.517c-1.537.884-2.888.647-3.53-.45Z"/>
          <path id="Tracé_314" data-name="Tracé 314" d="M202.954,171.549a8.669,8.669,0,0,1-3.512,4.512c-1.543.89-2.889.653-3.53-.445Z"/>
          <path id="Tracé_315" data-name="Tracé 315" d="M195.912,175.616a8.667,8.667,0,0,1-3.518,4.512c-1.537.89-2.889.647-3.524-.445Z"/>
          <path id="Tracé_316" data-name="Tracé 316" d="M188.87,179.683a8.664,8.664,0,0,1-3.519,4.512c-1.536.89-2.888.647-3.523-.445Z"/>
          <path id="Tracé_317" data-name="Tracé 317" d="M181.828,183.75a8.669,8.669,0,0,1-3.519,4.512c-1.536.89-2.888.647-3.524-.445Z"/>
          <path id="Tracé_318" data-name="Tracé 318" d="M174.785,187.817a8.712,8.712,0,0,1-3.518,4.512c-1.536.89-2.888.647-3.524-.45Z"/>
          <path id="Tracé_319" data-name="Tracé 319" d="M224.08,159.354a8.659,8.659,0,0,1-3.512,4.512c-1.543.89-2.889.647-3.53-.445Z"/>
          <path id="Tracé_320" data-name="Tracé 320" d="M217.038,163.421a8.728,8.728,0,0,1-3.512,4.512c-1.543.89-2.889.647-3.53-.451Z"/>
          <path id="Tracé_321" data-name="Tracé 321" d="M210,167.482A8.723,8.723,0,0,1,206.484,172c-1.543.884-2.889.647-3.53-.451Z"/>
          <path id="Tracé_322" data-name="Tracé 322" d="M231.122,155.287a8.659,8.659,0,0,1-3.512,4.512c-1.542.89-2.888.647-3.53-.445Z"/>
          <path id="Tracé_323" data-name="Tracé 323" d="M259.291,139.025a8.669,8.669,0,0,1-3.512,4.512c-1.537.889-2.889.647-3.53-.451Z"/>
          <path id="Tracé_324" data-name="Tracé 324" d="M252.249,143.086a8.67,8.67,0,0,1-3.513,4.518c-1.536.884-2.888.647-3.529-.451Z"/>
          <path id="Tracé_325" data-name="Tracé 325" d="M245.207,147.153a8.67,8.67,0,0,1-3.513,4.518c-1.536.884-2.888.647-3.529-.451Z"/>
          <path id="Tracé_326" data-name="Tracé 326" d="M238.153,151.22a8.669,8.669,0,0,1-3.512,4.512c-1.537.89-2.889.647-3.53-.445Z"/>
        </g>
        <path id="Tracé_327" data-name="Tracé 327" d="M170.5,203.3c4.489-.964,7.319,2.687,7.371,6.413s0,15.794.884,22.79a3.678,3.678,0,0,1-4.148,1.629C175.068,215.94,170.5,203.3,170.5,203.3Z" fill="#14a08c"/>
        <path id="Tracé_328" data-name="Tracé 328" d="M170.5,203.3c4.489-.964,7.319,2.687,7.371,6.413s0,15.794.884,22.79a3.678,3.678,0,0,1-4.148,1.629C175.068,215.94,170.5,203.3,170.5,203.3Z" opacity="0.3" style="mix-blend-mode: normal;isolation: isolate"/>
        <path id="Tracé_329" data-name="Tracé 329" d="M179.182,276.136h-.4a6.751,6.751,0,0,0-2.825-2.808,17.027,17.027,0,0,0-15.453,0,6.618,6.618,0,0,0-2.8,2.831h-.37V277.8h0c0,1.623,1.08,3.24,3.224,4.477a17.027,17.027,0,0,0,15.453,0c2.126-1.237,3.183-2.854,3.172-4.477h0Z" fill="#14a08c"/>
        <path id="Tracé_330" data-name="Tracé 330" d="M179.182,276.136h-.4a6.751,6.751,0,0,0-2.825-2.808,17.027,17.027,0,0,0-15.453,0,6.618,6.618,0,0,0-2.8,2.831h-.37V277.8h0c0,1.623,1.08,3.24,3.224,4.477a17.027,17.027,0,0,0,15.453,0c2.126-1.237,3.183-2.854,3.172-4.477h0Z" opacity="0.2" style="mix-blend-mode: normal;isolation: isolate"/>
        <path id="Tracé_331" data-name="Tracé 331" d="M175.958,271.688a17.021,17.021,0,0,0-15.453,0c-4.258,2.472-4.229,6.481.052,8.948s11.2,2.473,15.453,0S180.239,274.154,175.958,271.688Z" fill="#14a08c"/>
        <path id="Tracé_332" data-name="Tracé 332" d="M175.958,271.688a17.021,17.021,0,0,0-15.453,0c-4.258,2.472-4.229,6.481.052,8.948s11.2,2.473,15.453,0S180.239,274.154,175.958,271.688Z" fill="#fff" opacity="0.3" style="mix-blend-mode: normal;isolation: isolate"/>
        <path id="Tracé_333" data-name="Tracé 333" d="M169.9,246.153h-3.143l-.167,30.006h0a.832.832,0,0,0,.491.682,2.586,2.586,0,0,0,2.363,0,.828.828,0,0,0,.485-.682Z" fill="#14a08c"/>
        <path id="Tracé_334" data-name="Tracé 334" d="M169.9,246.153h-3.143l-.167,30.006h0a.832.832,0,0,0,.491.682,2.586,2.586,0,0,0,2.363,0,.828.828,0,0,0,.485-.682Z" opacity="0.2" style="mix-blend-mode: normal;isolation: isolate"/>
        <path id="Tracé_335" data-name="Tracé 335" d="M169.9,254.992v-8.839h-3.143l-.058,10.3a6.876,6.876,0,0,0,1.733-.578A9.711,9.711,0,0,0,169.9,254.992Z" opacity="0.2" style="mix-blend-mode: normal;isolation: isolate"/>
        <path id="Tracé_336" data-name="Tracé 336" d="M161.845,207.286c-7.429,3.524-7.3,9.243-4.252,13.865s3.287,5.921,3.287,7.845-2.143,6.25-2.143,11.617v7.672c4.148,4.83,11.6,2.588,19.133-3.582,0-10.017-1.923-11.687-1.923-15.6,0-6.585,1.525-9.393,1.525-15.245s-3.594-11.456-7.811-10.214A32.648,32.648,0,0,0,161.845,207.286Z" fill="#455a64"/>
        <path id="Tracé_337" data-name="Tracé 337" d="M178.032,236.159c-.641-4.044-2.074-7.995-1.323-12.166,1.612-7.8.924-12.738.48-14.264s-2.311-7.175-6.69-6.424-11.554,5.153-12.761,6.858c0,0-2.629,3.252-2.71,6s2.525,5.505,3.091,8.752-.445,8.088.2,22.241c4.356,3.409,9.781,2.121,14.333-.4l.416-9.977,1.022,9.128a33.067,33.067,0,0,0,4.3-3.276A26.223,26.223,0,0,0,178.032,236.159Z" fill="#f0f0f0"/>
        <path id="Tracé_338" data-name="Tracé 338" d="M178.032,236.159c-.641-4.044-2.074-7.995-1.323-12.166,1.612-7.8.924-12.738.48-14.264s-2.311-7.175-6.69-6.424-11.554,5.153-12.761,6.858c0,0-2.629,3.252-2.71,6s2.525,5.505,3.091,8.752-.445,8.088.2,22.241c4.356,3.409,9.781,2.121,14.333-.4l.416-9.977,1.022,9.128a33.067,33.067,0,0,0,4.3-3.276A26.223,26.223,0,0,0,178.032,236.159Z" fill="#14a08c"/>
        <path id="Tracé_339" data-name="Tracé 339" d="M178.032,236.159c-.641-4.044-2.074-7.995-1.323-12.166,1.612-7.8.924-12.738.48-14.264s-2.311-7.175-6.69-6.424-11.554,5.153-12.761,6.858c0,0-2.629,3.252-2.71,6s2.525,5.505,3.091,8.752-.445,8.088.2,22.241c4.356,3.409,9.781,2.121,14.333-.4l.416-9.977,1.022,9.128a33.067,33.067,0,0,0,4.3-3.276A26.223,26.223,0,0,0,178.032,236.159Z" opacity="0.2" style="mix-blend-mode: normal;isolation: isolate"/>
        <path id="Tracé_340" data-name="Tracé 340" d="M171.868,223.635c.295-.168.531-.035.531.3a1.154,1.154,0,0,1-.525.913c-.295.167-.532.034-.532-.3A1.156,1.156,0,0,1,171.868,223.635Z" fill="#e0e0e0"/>
        <path id="Tracé_341" data-name="Tracé 341" d="M172.151,227.782c.289-.167.526-.028.526.307a1.153,1.153,0,0,1-.526.912.33.33,0,0,1-.531-.306A1.155,1.155,0,0,1,172.151,227.782Z" fill="#e0e0e0"/>
        <path id="Tracé_342" data-name="Tracé 342" d="M172.428,231.9c.3-.167.532-.034.532.3a1.155,1.155,0,0,1-.526.913c-.294.167-.531.034-.531-.3A1.158,1.158,0,0,1,172.428,231.9Z" fill="#e0e0e0"/>
        <path id="Tracé_343" data-name="Tracé 343" d="M161.8,208.562a2.61,2.61,0,0,1,0-.612,4.617,4.617,0,0,0-1.421,3.726,7.8,7.8,0,0,0,1.057,3.085c.612-.063,1.935-.323,2.547-.381-.34.468-1.4,1.155-1.733,1.612a14.25,14.25,0,0,0,8.851,5.638S162.134,212.843,161.8,208.562Z" fill="#14a08c"/>
        <path id="Tracé_344" data-name="Tracé 344" d="M172.4,213.571a15.3,15.3,0,0,0-.45-3.062,10.936,10.936,0,0,1-1.78.382l1.335-1.733c-.064-.162-.133-.318-.2-.474-.711-1.52-1.774-3.593-3.467-3.593a4.357,4.357,0,0,0-.121,1A2.255,2.255,0,0,0,168,207.28c2.236,3.322,3.131,11.976,3.085,14.338l.145-.236A20.123,20.123,0,0,0,172.4,213.571Z" fill="#14a08c"/>
        <path id="Tracé_345" data-name="Tracé 345" d="M161.8,208.562a2.61,2.61,0,0,1,0-.612,4.617,4.617,0,0,0-1.421,3.726,7.8,7.8,0,0,0,1.057,3.085c.612-.063,1.935-.323,2.547-.381-.34.468-1.4,1.155-1.733,1.612a14.25,14.25,0,0,0,8.851,5.638S162.134,212.843,161.8,208.562Z" opacity="0.4" style="mix-blend-mode: normal;isolation: isolate"/>
        <path id="Tracé_346" data-name="Tracé 346" d="M172.4,213.571a15.3,15.3,0,0,0-.45-3.062,10.936,10.936,0,0,1-1.78.382l1.335-1.733c-.064-.162-.133-.318-.2-.474-.711-1.52-1.774-3.593-3.467-3.593a4.357,4.357,0,0,0-.121,1A2.255,2.255,0,0,0,168,207.28c2.236,3.322,3.131,11.976,3.085,14.338l.145-.236A20.123,20.123,0,0,0,172.4,213.571Z" opacity="0.4" style="mix-blend-mode: normal;isolation: isolate"/>
        <path id="Tracé_347" data-name="Tracé 347" d="M168.021,207.292a2.272,2.272,0,0,1-.284-1.185l-2-.323-3.686,2.426a1.694,1.694,0,0,0-.248.352c.335,4.281,9.306,13.068,9.306,13.068C171.14,219.267,170.256,210.613,168.021,207.292Z" fill="#455a64"/>
        <path id="Tracé_348" data-name="Tracé 348" d="M168.159,207.95h0a20.806,20.806,0,0,1-.335-5.084h-5.673a32.2,32.2,0,0,1-.346,5.107h0c-.18.578.115,1.213.9,1.664a5.034,5.034,0,0,0,4.575,0C168.061,209.163,168.35,208.534,168.159,207.95Z" fill="#455a64"/>
        <path id="Tracé_349" data-name="Tracé 349" d="M166.986,201.682a4.429,4.429,0,0,0-4.043,0,1.221,1.221,0,0,0,0,2.311,4.419,4.419,0,0,0,4.009,0C168.1,203.363,168.1,202.323,166.986,201.682Z" fill="#455a64"/>
        <path id="Tracé_350" data-name="Tracé 350" d="M166.986,201.682a4.429,4.429,0,0,0-4.043,0,1.221,1.221,0,0,0,0,2.311,4.419,4.419,0,0,0,4.009,0C168.1,203.363,168.1,202.323,166.986,201.682Z" fill="#fff" opacity="0.3" style="mix-blend-mode: normal;isolation: isolate"/>
        <path id="Tracé_351" data-name="Tracé 351" d="M157.137,210.983c-4.391,3.3-6.159,6.233-5,34.512,1.8,1.669,5.777,0,5.777,0-.445-17.008,2.1-23.108.578-30.324C157.535,211.168,157.137,210.983,157.137,210.983Z" fill="#14a08c"/>
        <path id="Tracé_352" data-name="Tracé 352" d="M157.137,210.983c-4.391,3.3-6.159,6.233-5,34.512,1.8,1.669,5.777,0,5.777,0-.445-17.008,2.1-23.108.578-30.324C157.535,211.168,157.137,210.983,157.137,210.983Z" opacity="0.3" style="mix-blend-mode: normal;isolation: isolate"/>
        <path id="Tracé_353" data-name="Tracé 353" d="M212.157,258.36h-.4a6.678,6.678,0,0,0-2.825-2.808,17.014,17.014,0,0,0-15.447,0,6.526,6.526,0,0,0-2.8,2.831H190.3v1.641h0c0,1.623,1.086,3.241,3.224,4.477a17.021,17.021,0,0,0,15.453,0c2.126-1.236,3.183-2.854,3.178-4.477h0Z" fill="#14a08c"/>
        <path id="Tracé_354" data-name="Tracé 354" d="M212.157,258.36h-.4a6.678,6.678,0,0,0-2.825-2.808,17.014,17.014,0,0,0-15.447,0,6.526,6.526,0,0,0-2.8,2.831H190.3v1.641h0c0,1.623,1.086,3.241,3.224,4.477a17.021,17.021,0,0,0,15.453,0c2.126-1.236,3.183-2.854,3.178-4.477h0Z" opacity="0.2" style="mix-blend-mode: normal;isolation: isolate"/>
        <path id="Tracé_355" data-name="Tracé 355" d="M208.9,253.906a17.008,17.008,0,0,0-15.447,0c-4.252,2.473-4.235,6.482.046,8.949s11.2,2.472,15.453,0S213.185,256.379,208.9,253.906Z" fill="#14a08c"/>
        <path id="Tracé_356" data-name="Tracé 356" d="M208.9,253.906a17.008,17.008,0,0,0-15.447,0c-4.252,2.473-4.235,6.482.046,8.949s11.2,2.472,15.453,0S213.185,256.379,208.9,253.906Z" fill="#fff" opacity="0.3" style="mix-blend-mode: normal;isolation: isolate"/>
        <path id="Tracé_357" data-name="Tracé 357" d="M202.844,228.36H199.7l-.168,30.04h0a.839.839,0,0,0,.491.682,2.58,2.58,0,0,0,2.363,0,.807.807,0,0,0,.485-.682Z" fill="#14a08c"/>
        <path id="Tracé_358" data-name="Tracé 358" d="M202.844,228.36H199.7l-.168,30.04h0a.839.839,0,0,0,.491.682,2.58,2.58,0,0,0,2.363,0,.807.807,0,0,0,.485-.682Z" opacity="0.2" style="mix-blend-mode: normal;isolation: isolate"/>
        <path id="Tracé_359" data-name="Tracé 359" d="M202.856,237.216v-8.838h-3.143l-.058,10.294a6.546,6.546,0,0,0,1.733-.578A9.944,9.944,0,0,0,202.856,237.216Z" opacity="0.2" style="mix-blend-mode: normal;isolation: isolate"/>
        <path id="Tracé_360" data-name="Tracé 360" d="M196.426,230.047s-.82,2.981-3.131,3.2c.4-4.449-2.577-16.407.9-23.108a6.817,6.817,0,0,0-.1-6.413c-.491-.89-.994-1.554-1.352-1.629-2.755-.93-5.026-5.846-2.386-7.891,3.467-3.016,7.967-5.985,12.132-7.146,1.155-.226,3.871.814,3.611,4.621,4.431,5.592,3.235,8,1.525,9.642l-.179,3.212a6.921,6.921,0,0,0,.78,3.593c3.512,6.777,1.288,18.562,2.6,24.171C203.2,236.3,195.606,235.87,196.426,230.047Z" fill="#455a64"/>
        <path id="Tracé_361" data-name="Tracé 361" d="M208.194,208.141a7.257,7.257,0,0,1-.509-1.312,13.809,13.809,0,0,1-12.963,1.889,6.614,6.614,0,0,1-.526,1.4c-3.466,6.713-.5,18.671-.9,23.108,2.311-.219,3.131-3.2,3.131-3.2-.82,5.806,6.776,6.256,14.367,2.235C209.482,226.673,211.706,214.888,208.194,208.141Z" fill="#14a08c"/>
        <path id="Tracé_362" data-name="Tracé 362" d="M201.822,209.337a13.964,13.964,0,0,0,5.863-2.536,7.032,7.032,0,0,1-.271-2.2,13.788,13.788,0,0,1-12.49,2.057,6.764,6.764,0,0,1-.2,2.068A14.009,14.009,0,0,0,201.822,209.337Z" fill="#14a08c"/>
        <path id="Tracé_363" data-name="Tracé 363" d="M201.579,207.118a13.971,13.971,0,0,0,5.835-2.519.356.356,0,0,0,0-.08l.179-3.212c1.733-1.641,2.888-4.044-1.525-9.642a54.066,54.066,0,0,0-4.321-4.4c-.509.167-1.029.364-1.549.577a11.806,11.806,0,0,1,2.669,3.028,3.77,3.77,0,0,1,.618,1.594,2.967,2.967,0,0,1-.727,2.074,4.334,4.334,0,0,1-5.991.728c-1.288-.976-2.011-2.652-3.339-3.513-.4.295-.8.578-1.2.9a9.9,9.9,0,0,1,3.171,4.362,6.747,6.747,0,0,1-.577,5.834,3,3,0,0,1-.757.792l.046.081a6.74,6.74,0,0,1,.832,2.94A14.051,14.051,0,0,0,201.579,207.118Z" fill="#14a08c"/>
        <path id="Tracé_364" data-name="Tracé 364" d="M208.194,208.141a7.257,7.257,0,0,1-.509-1.312,13.809,13.809,0,0,1-12.963,1.889,6.614,6.614,0,0,1-.526,1.4c-3.466,6.713-.5,18.671-.9,23.108,2.311-.219,3.131-3.2,3.131-3.2-.82,5.806,6.776,6.256,14.367,2.235C209.482,226.673,211.706,214.888,208.194,208.141Z" opacity="0.3" style="mix-blend-mode: normal;isolation: isolate"/>
        <path id="Tracé_365" data-name="Tracé 365" d="M201.822,209.337a13.964,13.964,0,0,0,5.863-2.536,7.032,7.032,0,0,1-.271-2.2,13.788,13.788,0,0,1-12.49,2.057,6.764,6.764,0,0,1-.2,2.068A14.009,14.009,0,0,0,201.822,209.337Z" opacity="0.4" style="mix-blend-mode: normal;isolation: isolate"/>
        <path id="Tracé_366" data-name="Tracé 366" d="M201.579,207.118a13.971,13.971,0,0,0,5.835-2.519.356.356,0,0,0,0-.08l.179-3.212c1.733-1.641,2.888-4.044-1.525-9.642a54.066,54.066,0,0,0-4.321-4.4c-.509.167-1.029.364-1.549.577a11.806,11.806,0,0,1,2.669,3.028,3.77,3.77,0,0,1,.618,1.594,2.967,2.967,0,0,1-.727,2.074,4.334,4.334,0,0,1-5.991.728c-1.288-.976-2.011-2.652-3.339-3.513-.4.295-.8.578-1.2.9a9.9,9.9,0,0,1,3.171,4.362,6.747,6.747,0,0,1-.577,5.834,3,3,0,0,1-.757.792l.046.081a6.74,6.74,0,0,1,.832,2.94A14.051,14.051,0,0,0,201.579,207.118Z" opacity="0.3" style="mix-blend-mode: normal;isolation: isolate"/>
        <path id="Tracé_367" data-name="Tracé 367" d="M201.758,192.156h0a20.806,20.806,0,0,1-.335-5.084h-5.679a32.682,32.682,0,0,1-.341,5.107h0c-.184.578.116,1.213.9,1.664a5.034,5.034,0,0,0,4.575,0C201.677,193.369,201.972,192.739,201.758,192.156Z" fill="#455a64"/>
        <path id="Tracé_368" data-name="Tracé 368" d="M200.6,185.888a4.432,4.432,0,0,0-4.015,0,1.221,1.221,0,0,0,0,2.311,4.432,4.432,0,0,0,4.015,0C201.723,187.569,201.718,186.529,200.6,185.888Z" fill="#455a64"/>
        <path id="Tracé_369" data-name="Tracé 369" d="M200.6,185.888a4.432,4.432,0,0,0-4.015,0,1.221,1.221,0,0,0,0,2.311,4.432,4.432,0,0,0,4.015,0C201.723,187.569,201.718,186.529,200.6,185.888Z" fill="#fff" opacity="0.3" style="mix-blend-mode: normal;isolation: isolate"/>
        <path id="Tracé_370" data-name="Tracé 370" d="M239.291,129.343l12.958,13.738,7.042-4.067-12.958-13.738Z" fill="#fe703a"/>
        <path id="Tracé_371" data-name="Tracé 371" d="M232.249,133.41l12.958,13.738,7.042-4.067-12.958-13.738Z" fill="#fff"/>
        <path id="Tracé_372" data-name="Tracé 372" d="M225.207,137.477l12.958,13.732,7.042-4.061L232.249,133.41Z" fill="#fe703a"/>
        <path id="Tracé_373" data-name="Tracé 373" d="M168.858,170.007l12.964,13.738,7.042-4.067L175.906,165.94Z" fill="#fe703a"/>
        <path id="Tracé_374" data-name="Tracé 374" d="M161.816,174.074l12.958,13.732,7.048-4.061-12.964-13.738Z" fill="#fff"/>
        <path id="Tracé_375" data-name="Tracé 375" d="M154.774,178.141l12.958,13.732,7.042-4.067-12.958-13.732Z" fill="#fe703a"/>
        <path id="Tracé_376" data-name="Tracé 376" d="M147.732,182.208,160.69,195.94l7.042-4.067-12.958-13.732Z" fill="#fff"/>
        <path id="Tracé_377" data-name="Tracé 377" d="M140.69,186.275l12.958,13.732,7.042-4.067-12.958-13.732Z" fill="#fe703a"/>
      </g>
      <g id="freepik--character-2--inject-186">
        <path id="Tracé_378" data-name="Tracé 378" d="M294.5,287.9l-.052-.035a.207.207,0,0,1,0-.294h0l3.408-3.5c.93-.988,1.993-2.1,3.466-2.207a1.286,1.286,0,0,1,1.19.751.866.866,0,0,1-.086.993l-3.42,3.79a.2.2,0,0,1-.286.009l-.009-.009a.208.208,0,0,1,0-.289l3.42-3.795a.489.489,0,0,0,0-.537.888.888,0,0,0-.791-.52c-1.335.092-2.311,1.1-3.218,2.079l-.272.283-3.085,3.247A.2.2,0,0,1,294.5,287.9Z" fill="#455a64"/>
        <path id="Tracé_379" data-name="Tracé 379" d="M303.982,287.181l.468-1.716-14.165.843-11.82,15.453L282.6,307.4l15.76-1.005,6.667-18.694Z" fill="#455a64"/>
        <path id="Tracé_380" data-name="Tracé 380" d="M303.982,287.181l.468-1.716-14.165.843-11.82,15.453L282.6,307.4l15.76-1.005,6.667-18.694Z" fill="#fff" opacity="0.3" style="mix-blend-mode: normal;isolation: isolate"/>
        <path id="Tracé_381" data-name="Tracé 381" d="M292.63,287.285l-10.289,15.673.26,4.437Z" opacity="0.2" style="mix-blend-mode: normal;isolation: isolate"/>
        <path id="Tracé_382" data-name="Tracé 382" d="M278.465,301.762l3.876,1.2.26,4.437Z" opacity="0.1" style="mix-blend-mode: normal;isolation: isolate"/>
        <path id="Tracé_383" data-name="Tracé 383" d="M290.285,286.309l14.165-.843-1.265,1.317,1.843.913-13.085.965.687-1.375Z" opacity="0.3" style="mix-blend-mode: normal;isolation: isolate"/>
        <path id="Tracé_384" data-name="Tracé 384" d="M303.185,286.783l-.352,1.075,2.2-.162Z" opacity="0.2" style="mix-blend-mode: normal;isolation: isolate"/>
        <path id="Tracé_385" data-name="Tracé 385" d="M296.044,289.891a.2.2,0,0,1-.093-.271h0l2.391-4.823a4.582,4.582,0,0,1,3.79-2.537,1.156,1.156,0,0,1,1.156,1.693l-2.675,5.4a.208.208,0,0,1-.272.092.2.2,0,0,1-.1-.269l0-.008,2.669-5.4a.756.756,0,0,0-.332-1.017.746.746,0,0,0-.4-.08,4.186,4.186,0,0,0-3.466,2.31l-2.386,4.818a.2.2,0,0,1-.266.1Z" fill="#455a64"/>
        <path id="Tracé_386" data-name="Tracé 386" d="M307.673,245.524c-4.656,1.19-6.216,5.2-6.857,9.243a85.44,85.44,0,0,0-.82,8.509c-1.3,4.246-1.5,12.132-2.19,14.235s-1.675,4.044-.479,5.557a4.446,4.446,0,0,0,1.531,1.462,2.59,2.59,0,0,0,2.022-.046,3.42,3.42,0,0,0,1.761-2.652,10.042,10.042,0,0,0-.236-3.287,10.187,10.187,0,0,1-.255-3.287c.815-5.835,2.45-14.183,3.5-19.977Z" fill="#aa4b0b"/>
        <path id="Tracé_387" data-name="Tracé 387" d="M296.229,289.66h-.063a.2.2,0,0,1-.136-.252l0-.008,1.5-4.651c.4-1.3.855-2.767,2.143-3.524a1.289,1.289,0,0,1,1.4.145.871.871,0,0,1,.364.93l-1.381,4.916a.208.208,0,0,1-.41-.066.168.168,0,0,1,.012-.044l1.38-4.922a.478.478,0,0,0-.219-.491.863.863,0,0,0-.936-.11c-1.155.671-1.565,2-1.958,3.288l-.122.375-1.375,4.281A.207.207,0,0,1,296.229,289.66Z" fill="#455a64"/>
        <path id="Tracé_388" data-name="Tracé 388" d="M294.276,291.479l-.052,20.93,13.674-7.891-2.328-19.711Z" fill="#fe703a"/>
        <path id="Tracé_389" data-name="Tracé 389" d="M294.276,291.479v-1.542l-2.53.173L288.014,309.2l6.21,3.206Z" fill="#fe703a"/>
        <path id="Tracé_390" data-name="Tracé 390" d="M294.276,289.937l-2.259,18.613,2.207,3.859Z" fill="#fe703a"/>
        <path id="Tracé_391" data-name="Tracé 391" d="M294.276,289.827l-2.259,18.613,2.207,3.859Z" opacity="0.2" style="mix-blend-mode: normal;isolation: isolate"/>
        <path id="Tracé_392" data-name="Tracé 392" d="M288.014,309.2l4-.653,2.207,3.859Z" fill="#fe703a"/>
        <path id="Tracé_393" data-name="Tracé 393" d="M288.014,309.2l4-.653,2.207,3.859Z" opacity="0.1" style="mix-blend-mode: normal;isolation: isolate"/>
        <path id="Tracé_394" data-name="Tracé 394" d="M291.746,290.11l12.317-7.048-.549,1.745h2.057l-11.294,6.672v-1.542Z" fill="#fe703a"/>
        <path id="Tracé_395" data-name="Tracé 395" d="M291.746,290.11l12.317-7.048-.549,1.745h2.057l-11.294,6.672v-1.542Z" opacity="0.3" style="mix-blend-mode: normal;isolation: isolate"/>
        <path id="Tracé_396" data-name="Tracé 396" d="M303.514,284.807l.162,1.115,1.895-1.115Z" fill="#14a08c"/>
        <path id="Tracé_397" data-name="Tracé 397" d="M303.514,284.807l.162,1.115,1.895-1.115Z" opacity="0.2" style="mix-blend-mode: normal;isolation: isolate"/>
        <path id="Tracé_398" data-name="Tracé 398" d="M304.063,283.062l.341,1.745h-.89Z" fill="#14a08c"/>
        <path id="Tracé_399" data-name="Tracé 399" d="M298.5,290.752a.209.209,0,0,1-.208-.2v-5.384a4.623,4.623,0,0,1,2.271-3.957,1.156,1.156,0,0,1,1.768,1.017v6.019a.208.208,0,0,1-.411,0v-6.013a.755.755,0,0,0-.387-.665.739.739,0,0,0-.762,0,4.182,4.182,0,0,0-2.068,3.6v5.384A.2.2,0,0,1,298.5,290.752Z" fill="#455a64"/>
        <path id="Tracé_400" data-name="Tracé 400" d="M320.256,266.9c5.077,12.559.485,21.82-4.847,34.159,3.235,2.814,8.538,8.932,13.443,19.642,0,0,0,2.611-3.588,2.444-.635-.976-13.483-13.206-13.483-13.206L303.843,330.2s-1.987,1.277-4.437-1.537c0,0,4.044-23.685,5.546-29.416-2.311-5.633-5.563-15.448-.728-32.242Z" fill="#aa4b0b"/>
        <path id="Tracé_401" data-name="Tracé 401" d="M305.391,297.736c1.953-9.209,3.854-15.4,3.854-15.4-3.374-2.143-4.35-4.194-4.35-4.194a8.084,8.084,0,0,0,2.888,5.153C306.281,288.551,305.391,297.736,305.391,297.736Z" opacity="0.2" style="mix-blend-mode: normal;isolation: isolate"/>
        <path id="Tracé_402" data-name="Tracé 402" d="M311.781,309.96c.751-2.12,1.64-4,1.64-4l1.988-4.9s-2.207,8.753-2.664,9.821Z" opacity="0.2" style="mix-blend-mode: normal;isolation: isolate"/>
        <path id="Tracé_403" data-name="Tracé 403" d="M294.444,338.423c2.426.122,5.113-2.311,6.308-3.183s1.988-.814,2.56-3.507l.531-1.519-4.454-1.537-.514,2.617a2.494,2.494,0,0,1-.78,1.364l-3.7,3.3a10.092,10.092,0,0,1-1.855,1.352l-.121.064C292.393,337.851,292.8,338.348,294.444,338.423Z" fill="#aa4b0b"/>
        <path id="Tracé_404" data-name="Tracé 404" d="M303.312,331.733c-.578,2.693-1.358,2.664-2.56,3.507s-3.882,3.305-6.308,3.183c-1.641-.075-2.051-.577-2.005-1.051l-1.733.97a1.67,1.67,0,0,0-.369,2.658h0a3.724,3.724,0,0,0,2.218.837,7.009,7.009,0,0,0,4.39-1.1,20.553,20.553,0,0,1,3.022-2.114,17.76,17.76,0,0,1,1.906-.543,3.22,3.22,0,0,0,1.681-.988,3.262,3.262,0,0,0,.538-2.236A8.259,8.259,0,0,0,303.312,331.733Z" fill="#37474f"/>
        <path id="Tracé_405" data-name="Tracé 405" d="M326.385,332.045a1.484,1.484,0,0,0,1.288,0,3.335,3.335,0,0,0,1.733-1.941,11.126,11.126,0,0,0,.526-2.888c.063-.664.133-1.329.2-1.993a7.47,7.47,0,0,0,.052-1.907,2.012,2.012,0,0,0-.745-1.328l-1.1-2.415-3.646,2.952,1.063,1.109a2.17,2.17,0,0,1,.613,1.531l-.029,4.743a3.051,3.051,0,0,1-.387,1.479A.918.918,0,0,0,326.385,332.045Z" fill="#aa4b0b"/>
        <path id="Tracé_406" data-name="Tracé 406" d="M331.653,323.68A2.31,2.31,0,0,0,329.418,322a2.021,2.021,0,0,1,.745,1.329,6.033,6.033,0,0,1,0,1.577l-.26,2.611a9.9,9.9,0,0,1-.5,2.606,3.338,3.338,0,0,1-1.733,1.941,1.484,1.484,0,0,1-1.288,0,.921.921,0,0,1-.439-.67,3.3,3.3,0,0,1-.624.82,4.729,4.729,0,0,0-.422.439,1.378,1.378,0,0,0-.266,1.5,1.885,1.885,0,0,0,1.474.78,6.21,6.21,0,0,0,2.547-.052,3.25,3.25,0,0,0,2.022-1.462,5.23,5.23,0,0,0,.5-2.108l.462-5.078c.046-.52.087-1.04.1-1.566A3.774,3.774,0,0,0,331.653,323.68Z" fill="#37474f"/>
        <path id="Tracé_407" data-name="Tracé 407" d="M320.879,246.315c-2.31-.722-7.238-1.265-13.206-.791a8.044,8.044,0,0,1-2.646,3.859,40.237,40.237,0,0,0-3.246,2.946,5.2,5.2,0,0,0-1.462,3.986,3.679,3.679,0,0,0,.578,1.456,10.279,10.279,0,0,1,1.485,4c.433,2.577,1.074,5.09,1.074,5.09-2.513,7.9-3.7,23.05-3.7,23.05,6.707,6.158,16.175,5.1,19.711-.479,1.733,3.287,4.385,3.9,6.158,4.379.168-7.978-.578-16.869-2.952-23a30.55,30.55,0,0,1-1.947-13.721A70.128,70.128,0,0,0,320.879,246.315Z" fill="#455a64"/>
        <path id="Tracé_408" data-name="Tracé 408" d="M316,256.9a5.777,5.777,0,0,1-7.988,1.714l-.059-.038a4.68,4.68,0,0,0,4.586,2.12C314.317,260.394,315.565,258.655,316,256.9Z" opacity="0.2" style="mix-blend-mode: normal;isolation: isolate"/>
        <path id="Tracé_409" data-name="Tracé 409" d="M305,236.875a5.453,5.453,0,0,1-.658-6.857,1.893,1.893,0,0,1-1.155-1.9,1.866,1.866,0,0,1,1.5-1.63,5.239,5.239,0,0,1,1.987.278,9.727,9.727,0,0,0,3.42,0c1.155-.162,2.259-.41,3.4-.491a6.89,6.89,0,0,1,3.368.473,3.783,3.783,0,0,1,2.178,2.5,2.63,2.63,0,0,1,2.5,1.045,4.419,4.419,0,0,1,.821,2.56c.034.912-.093,1.819-.139,2.732a6.149,6.149,0,0,0,.347,2.692c.41.982,1.224,1.785,1.484,2.819a2.836,2.836,0,0,1-3.466,3.438,7.512,7.512,0,0,0,.26-2.213,2.861,2.861,0,0,1-2.033,2.12,7.971,7.971,0,0,1-2.987.266l-3.541-.144-4.125-.162a5.641,5.641,0,0,1-2.155-.37,3.687,3.687,0,0,1-1.924-3.171A9.6,9.6,0,0,1,305,236.875Z" fill="#263238"/>
        <path id="Tracé_410" data-name="Tracé 410" d="M310.267,243.074l.179,3.01a3.981,3.981,0,0,0-1.155,1.352,1.282,1.282,0,0,0,.318,1.571,1.7,1.7,0,0,0,1.068.191,8.09,8.09,0,0,0,5.142-2.363,1.675,1.675,0,0,0,.485-1.155l.11-5.627Z" fill="#aa4b0b"/>
        <path id="Tracé_411" data-name="Tracé 411" d="M316,240.267l-5.731,2.807.1,1.537A7.229,7.229,0,0,0,316,240.267Z" opacity="0.2" style="mix-blend-mode: normal;isolation: isolate"/>
        <path id="Tracé_412" data-name="Tracé 412" d="M315.247,235.818a5.592,5.592,0,0,0-.064,1.421,1.686,1.686,0,0,0,.468.948,1.058,1.058,0,0,0,.953.283,1.849,1.849,0,0,1,3.582-.867,2.347,2.347,0,0,1-.387,1.924,4.414,4.414,0,0,1-1.548,1.288,1.571,1.571,0,0,1-1.866-.733,9.646,9.646,0,0,1-7.874,3.743,4.186,4.186,0,0,1-2.236-.786c-1.109-.86-1.19-2.16-1.334-3.437a18.216,18.216,0,0,1,.04-4.887,9.61,9.61,0,0,1,3.074-5.9C309.089,233.675,313.543,235.46,315.247,235.818Z" fill="#aa4b0b"/>
        <path id="Tracé_413" data-name="Tracé 413" d="M309.129,235.269l-2.016,2.478,1.872.641Z" opacity="0.2" style="mix-blend-mode: normal;isolation: isolate"/>
        <path id="Tracé_414" data-name="Tracé 414" d="M310.706,239.6l-1.571.491a.971.971,0,0,0,1.063.48A.873.873,0,0,0,310.706,239.6Z" fill="#f28f8f"/>
        <path id="Tracé_415" data-name="Tracé 415" d="M310.706,239.6l-1.571.491a.971.971,0,0,0,1.063.48A.873.873,0,0,0,310.706,239.6Z" opacity="0.3" style="mix-blend-mode: normal;isolation: isolate"/>
        <path id="Tracé_416" data-name="Tracé 416" d="M309.684,240.55a.935.935,0,0,0,.514,0,.78.78,0,0,0,.508-.711.9.9,0,0,0-1.022.688Z" fill="#f28f8f"/>
        <path id="Tracé_417" data-name="Tracé 417" d="M311.9,235.784a.558.558,0,1,1-.537-.584A.576.576,0,0,1,311.9,235.784Z" fill="#263238"/>
        <path id="Tracé_418" data-name="Tracé 418" d="M307.223,235.391a.578.578,0,1,1-.4-.442A.578.578,0,0,1,307.223,235.391Z" fill="#263238"/>
        <path id="Tracé_419" data-name="Tracé 419" d="M306.778,233.144l-1.277.8a.8.8,0,0,1,.283-.867A.953.953,0,0,1,306.778,233.144Z" fill="#263238"/>
        <path id="Tracé_420" data-name="Tracé 420" d="M311.561,233.294l1.2.912a.8.8,0,0,0-.2-.889A.947.947,0,0,0,311.561,233.294Z" fill="#263238"/>
        <path id="Tracé_421" data-name="Tracé 421" d="M319.66,290.659a.112.112,0,0,1-.063,0,.2.2,0,0,1-.133-.253h0l1.5-4.656c.4-1.294.855-2.767,2.144-3.518a1.277,1.277,0,0,1,1.4.138.878.878,0,0,1,.364.93l-1.381,4.916a.2.2,0,1,1-.393-.109l1.375-4.917a.49.49,0,0,0-.237-.525.883.883,0,0,0-.936-.11c-1.155.676-1.56,2.005-1.958,3.287l-.116.376-1.38,4.286A.2.2,0,0,1,319.66,290.659Z" fill="#455a64"/>
        <path id="Tracé_422" data-name="Tracé 422" d="M317.708,292.479l-.052,20.936,13.674-7.9L329,285.806Z" fill="#14a08c"/>
        <path id="Tracé_423" data-name="Tracé 423" d="M317.708,292.479v-1.537l-2.53.168L311.446,310.2l6.21,3.212Z" fill="#14a08c"/>
        <path id="Tracé_424" data-name="Tracé 424" d="M317.708,290.942l-2.259,18.613,2.207,3.859Z" fill="#14a08c"/>
        <path id="Tracé_425" data-name="Tracé 425" d="M317.708,290.942l-2.259,18.613,2.207,3.859Z" opacity="0.2" style="mix-blend-mode: normal;isolation: isolate"/>
        <path id="Tracé_426" data-name="Tracé 426" d="M311.446,310.2l4-.647,2.207,3.859Z" fill="#14a08c"/>
        <path id="Tracé_427" data-name="Tracé 427" d="M311.446,310.2l4-.647,2.207,3.859Z" opacity="0.1" style="mix-blend-mode: normal;isolation: isolate"/>
        <path id="Tracé_428" data-name="Tracé 428" d="M315.178,291.11l12.317-7.048-.543,1.745H329l-11.294,6.672v-1.537Z" fill="#14a08c"/>
        <path id="Tracé_429" data-name="Tracé 429" d="M315.178,291.11l12.317-7.048-.543,1.745H329l-11.294,6.672v-1.537Z" opacity="0.3" style="mix-blend-mode: normal;isolation: isolate"/>
        <path id="Tracé_430" data-name="Tracé 430" d="M326.951,285.806l.156,1.121L329,285.806Z" fill="#14a08c"/>
        <path id="Tracé_431" data-name="Tracé 431" d="M326.951,285.806l.156,1.121L329,285.806Z" opacity="0.2" style="mix-blend-mode: normal;isolation: isolate"/>
        <path id="Tracé_432" data-name="Tracé 432" d="M327.494,284.062l.347,1.745h-.89Z" fill="#14a08c"/>
        <path id="Tracé_433" data-name="Tracé 433" d="M321.919,291.763a.208.208,0,0,1-.208-.208v-5.379a4.622,4.622,0,0,1,2.271-3.957,1.155,1.155,0,0,1,1.592.367,1.143,1.143,0,0,1,.175.644v6.02a.208.208,0,0,1-.41.069.2.2,0,0,1,0-.069v-6.009a.762.762,0,0,0-.381-.664.774.774,0,0,0-.768,0,4.191,4.191,0,0,0-2.069,3.605v5.378A.208.208,0,0,1,321.919,291.763Z" fill="#455a64"/>
        <path id="Tracé_434" data-name="Tracé 434" d="M322.046,292.646h-.063a.207.207,0,0,1-.214-.2l-.254-4.876c-.087-1.357-.179-2.888.757-4.044a1.284,1.284,0,0,1,1.357-.364.871.871,0,0,1,.67.74l.457,5.089a.209.209,0,0,1-.191.22.2.2,0,0,1-.218-.172v-.013l-.457-5.089c0-.243-.271-.347-.381-.382a.88.88,0,0,0-.919.231c-.837,1.04-.745,2.427-.664,3.767l.029.393.225,4.494A.2.2,0,0,1,322.046,292.646Z" fill="#455a64"/>
        <path id="Tracé_435" data-name="Tracé 435" d="M320.868,295.038l7.377,19.59,9.983-12.23-9.168-17.6Z" fill="#e0e0e0"/>
        <path id="Tracé_436" data-name="Tracé 436" d="M320.868,295.038l-.543-1.438-2.305,1.057,3.287,19.174,6.938.8Z" fill="#e0e0e0"/>
        <path id="Tracé_437" data-name="Tracé 437" d="M320.325,293.6l4.494,18.2,3.426,2.825Z" fill="#e0e0e0"/>
        <path id="Tracé_438" data-name="Tracé 438" d="M320.325,293.6l4.494,18.2,3.426,2.825Z" opacity="0.2" style="mix-blend-mode: normal;isolation: isolate"/>
        <path id="Tracé_439" data-name="Tracé 439" d="M321.307,313.831l3.512-2.028,3.426,2.825Z" fill="#e0e0e0"/>
        <path id="Tracé_440" data-name="Tracé 440" d="M321.307,313.831l3.512-2.028,3.426,2.825Z" opacity="0.1" style="mix-blend-mode: normal;isolation: isolate"/>
        <path id="Tracé_441" data-name="Tracé 441" d="M318.02,294.657l9.012-10.959.11,1.826,1.918-.728-8.192,10.243-.543-1.438Z" fill="#e0e0e0"/>
        <path id="Tracé_442" data-name="Tracé 442" d="M318.02,294.657l9.012-10.959.11,1.826,1.918-.728-8.192,10.243-.543-1.438Z" opacity="0.3" style="mix-blend-mode: normal;isolation: isolate"/>
        <path id="Tracé_443" data-name="Tracé 443" d="M327.142,285.523l.543.988,1.375-1.716Z" fill="#e0e0e0"/>
        <path id="Tracé_444" data-name="Tracé 444" d="M327.142,285.523l.543.988,1.375-1.716Z" opacity="0.2" style="mix-blend-mode: normal;isolation: isolate"/>
        <path id="Tracé_445" data-name="Tracé 445" d="M327.032,283.7l.942,1.508-.832.318Z" fill="#e0e0e0"/>
        <path id="Tracé_446" data-name="Tracé 446" d="M324.559,292.872a.207.207,0,0,1-.265-.122l-1.907-5.031a4.619,4.619,0,0,1,.717-4.506,1.155,1.155,0,0,1,2.01.323l2.137,5.627a.208.208,0,0,1-.115.266.2.2,0,0,1-.263-.113l0-.009-2.137-5.626a.761.761,0,0,0-.578-.486.78.78,0,0,0-.716.278,4.2,4.2,0,0,0-.653,4.1l1.912,5.032a.2.2,0,0,1-.12.26Z" fill="#455a64"/>
        <path id="Tracé_447" data-name="Tracé 447" d="M324.623,286.505A3.529,3.529,0,0,0,328,284.016a27.431,27.431,0,0,0,.983-5.437c.34-3.6.831-8.087,1.1-10.5a10.425,10.425,0,0,0-.191-3.415c-1.259-5.574-2.773-10.594-3.8-13.766a6.649,6.649,0,0,0-4.622-4.379l-1.005-.266a13.273,13.273,0,0,0-.843,6.187l4.564,14.044c-.122,3.686,1.086,10.457.421,12.207a3.7,3.7,0,0,1-.912,1.155,6.62,6.62,0,0,0-1.283,1.682,11.949,11.949,0,0,1-.97,1.525.617.617,0,0,0,.133.864l.028.02h0a.612.612,0,0,0,.67,0,5.035,5.035,0,0,0,1.306-1.277c-.237,1.438-1.092,1.733-1.623,1.733a.792.792,0,0,0-.659.422h0a1.154,1.154,0,0,0,.162,1.276h0a1.152,1.152,0,0,0,.866.393Z" fill="#aa4b0b"/>
        <path id="Tracé_448" data-name="Tracé 448" d="M322.329,283.912a3.791,3.791,0,0,0-.242.491,4.5,4.5,0,0,0-.364,1.773v.15a1.061,1.061,0,0,0,.41.156v-.306a4.136,4.136,0,0,1,.491-1.935,4.052,4.052,0,0,1,.855-1.121,3.029,3.029,0,0,0,.1-.45A5,5,0,0,1,322.329,283.912Z" fill="#455a64"/>
      </g>
      <g id="freepik--character-1--inject-186">
        <path id="Tracé_449" data-name="Tracé 449" d="M227.113,266.147a.109.109,0,0,1-.058-.028.2.2,0,0,1-.066-.279l0-.005,2.68-4.084c.728-1.155,1.554-2.444,3-2.831a1.283,1.283,0,0,1,1.311.509.876.876,0,0,1,.1.993l-2.634,4.374a.2.2,0,0,1-.277.073l-.006,0a.208.208,0,0,1-.07-.283l2.635-4.373a.5.5,0,0,0-.081-.538.874.874,0,0,0-.873-.352c-1.294.341-2.039,1.514-2.761,2.652l-.214.329-2.466,3.761A.207.207,0,0,1,227.113,266.147Z" fill="#455a64"/>
        <path id="Tracé_450" data-name="Tracé 450" d="M224.75,267.384l-5.609,20.167,15.28-3.98,2.987-19.624Z" fill="#14a08c"/>
        <path id="Tracé_451" data-name="Tracé 451" d="M224.75,267.384l.4-1.485-2.484-.508-8.665,17.423,5.136,4.737Z" fill="#14a08c"/>
        <path id="Tracé_452" data-name="Tracé 452" d="M225.155,265.9l-7.117,17.348,1.1,4.3Z" fill="#14a08c"/>
        <path id="Tracé_453" data-name="Tracé 453" d="M225.155,265.9l-7.117,17.348,1.1,4.3Z" opacity="0.2" style="mix-blend-mode: normal;isolation: isolate"/>
        <path id="Tracé_454" data-name="Tracé 454" d="M214.005,282.814l4.032.433,1.1,4.3Z" fill="#14a08c"/>
        <path id="Tracé_455" data-name="Tracé 455" d="M214.005,282.814l4.032.433,1.1,4.3Z" opacity="0.1" style="mix-blend-mode: normal;isolation: isolate"/>
        <path id="Tracé_456" data-name="Tracé 456" d="M222.671,265.391l13.749-3.524-.994,1.537,1.982.543-12.657,3.437.4-1.485Z" fill="#14a08c"/>
        <path id="Tracé_457" data-name="Tracé 457" d="M222.671,265.391l13.749-3.524-.994,1.537,1.982.543-12.657,3.437.4-1.485Z" opacity="0.3" style="mix-blend-mode: normal;isolation: isolate"/>
        <path id="Tracé_458" data-name="Tracé 458" d="M235.426,263.4l-.144,1.121,2.126-.578Z" fill="#14a08c"/>
        <path id="Tracé_459" data-name="Tracé 459" d="M235.426,263.4l-.144,1.121,2.126-.578Z" opacity="0.2" style="mix-blend-mode: normal;isolation: isolate"/>
        <path id="Tracé_460" data-name="Tracé 460" d="M236.42,261.867l-.139,1.774-.855-.237Z" fill="#14a08c"/>
        <path id="Tracé_461" data-name="Tracé 461" d="M229.008,267.811a.207.207,0,0,1-.144-.254l1.427-5.2a4.618,4.618,0,0,1,3.24-3.212,1.179,1.179,0,0,1,1.451,1.461l-1.6,5.806a.208.208,0,1,1-.411-.066.36.36,0,0,1,.012-.044l1.6-5.805a.763.763,0,0,0-.536-.936.754.754,0,0,0-.4,0,4.186,4.186,0,0,0-2.946,2.923l-1.427,5.2a.208.208,0,0,1-.264.13Z" fill="#455a64"/>
        <path id="Tracé_462" data-name="Tracé 462" d="M228.91,268.7h-.064a.2.2,0,0,1-.156-.239v0l1.052-4.771c.277-1.329.577-2.837,1.8-3.709a1.282,1.282,0,0,1,1.4,0,.868.868,0,0,1,.451.889l-.913,5.026a.2.2,0,0,1-.224.165l-.013,0a.2.2,0,0,1-.169-.231v-.006l.913-5.026a.48.48,0,0,0-.266-.468.867.867,0,0,0-.941,0c-1.086.78-1.369,2.138-1.641,3.467l-.086.387-.971,4.39A.2.2,0,0,1,228.91,268.7Z" fill="#455a64"/>
        <path id="Tracé_463" data-name="Tracé 463" d="M237.731,262.987l-2.045.191.884-.081-.5-1.71-11.6,8.18-1.918,19.359,6.482,2.611,12.871-9.145Z" fill="#455a64"/>
        <path id="Tracé_464" data-name="Tracé 464" d="M237.731,262.987l-2.045.191.884-.081-.5-1.71-11.6,8.18-1.918,19.359,6.482,2.611,12.871-9.145Z" fill="#fff" opacity="0.5" style="mix-blend-mode: normal;isolation: isolate"/>
        <path id="Tracé_465" data-name="Tracé 465" d="M226.969,269.157l-.5,18.746,2.559,3.634Z" opacity="0.2" style="mix-blend-mode: normal;isolation: isolate"/>
        <path id="Tracé_466" data-name="Tracé 466" d="M222.549,288.926l3.923-1.023,2.559,3.634Z" opacity="0.1" style="mix-blend-mode: normal;isolation: isolate"/>
        <path id="Tracé_467" data-name="Tracé 467" d="M224.467,269.567l11.6-8.18-.381,1.791,2.045-.191-10.612,7.7-.15-1.531Z" opacity="0.3" style="mix-blend-mode: normal;isolation: isolate"/>
        <path id="Tracé_468" data-name="Tracé 468" d="M235.686,263.178l.266,1.1,1.779-1.288Z" opacity="0.2" style="mix-blend-mode: normal;isolation: isolate"/>
        <path id="Tracé_469" data-name="Tracé 469" d="M231.25,269.579a.209.209,0,0,1-.226-.185l-.5-5.361a4.621,4.621,0,0,1,1.883-4.154,1.155,1.155,0,0,1,1.86.844l.578,6a.215.215,0,0,1-.185.226.208.208,0,0,1-.225-.185l-.578-6a.763.763,0,0,0-1.207-.549A4.187,4.187,0,0,0,230.915,264l.508,5.356A.2.2,0,0,1,231.25,269.579Z" fill="#455a64"/>
        <path id="Tracé_470" data-name="Tracé 470" d="M245.571,320.907a26.911,26.911,0,0,1-.722,4.229c1.063,3,4.587,1.439,4.587,1.439l.08-.468.064-.364c.191-1.069.9-3.235.9-3.235Z" fill="#f28f8f"/>
        <path id="Tracé_471" data-name="Tracé 471" d="M245.571,320.907a26.911,26.911,0,0,1-.722,4.229c1.063,3,4.587,1.439,4.587,1.439l.08-.468.064-.364c.191-1.069.9-3.235.9-3.235Z" opacity="0.3" style="mix-blend-mode: normal;isolation: isolate"/>
        <path id="Tracé_472" data-name="Tracé 472" d="M248.968,330.572c-.457.33-.954.578-1.416.925-1.259.907-2.085,2.074-3.345,2.981a6.352,6.352,0,0,1-4.338,1.155,7.936,7.936,0,0,1-4.194-1.8,8.231,8.231,0,0,0,.075.941,6.3,6.3,0,0,0,8.348.89c1.259-.907,2.085-2.08,3.344-2.981.457-.329.959-.578,1.416-.924a3.1,3.1,0,0,0,1.057-1.289s-.029-.341-.052-.872A3.152,3.152,0,0,1,248.968,330.572Z" fill="#f0f0f0"/>
        <path id="Tracé_473" data-name="Tracé 473" d="M249.9,326.2a.473.473,0,0,0-.318-.456l-.064.364a4.67,4.67,0,0,1-1.455,0,.976.976,0,0,0-.85.248l-.138.127c-.07.069-.174.145-.26.1a.167.167,0,0,1-.087-.156.613.613,0,0,1,.041-.179c.046-.121.086-.271.132-.422a.68.68,0,0,0-.2-.693,3.1,3.1,0,0,0-1.814-.768.421.421,0,0,0-.433.335c-.439,2.132-4.448,5.517-5.7,5.7l-.289.046c1.976.271,4.46,1.363,4.622,4.668a6.151,6.151,0,0,0,1.155-.642c1.259-.906,2.085-2.073,3.345-2.98.462-.33.959-.578,1.415-.925a3.164,3.164,0,0,0,.9-.982A28.632,28.632,0,0,1,249.9,326.2Z" fill="#37474f"/>
        <path id="Tracé_474" data-name="Tracé 474" d="M238.465,330.451c-1.7.312-2.842,1.121-2.79,3.374a7.936,7.936,0,0,0,4.194,1.8,6.354,6.354,0,0,0,3.2-.508C242.925,331.814,240.464,330.722,238.465,330.451Z" fill="#fff"/>
        <path id="Tracé_475" data-name="Tracé 475" d="M268.679,314.171a9.18,9.18,0,0,1,2.31,2.716c1.953,1.247,4.16-2.259,4.16-2.259l-.156-.335c-.578-.982-1.849-3.414-1.849-3.414Z" fill="#f28f8f"/>
        <path id="Tracé_476" data-name="Tracé 476" d="M268.679,314.171a9.18,9.18,0,0,1,2.31,2.716c1.953,1.247,4.16-2.259,4.16-2.259l-.156-.335c-.578-.982-1.849-3.414-1.849-3.414Z" opacity="0.3" style="mix-blend-mode: normal;isolation: isolate"/>
        <path id="Tracé_477" data-name="Tracé 477" d="M277.257,318.585c-.179.537-.433,1.04-.618,1.571-.5,1.468-.5,2.889-1.005,4.368a6.352,6.352,0,0,1-2.888,3.466,7.9,7.9,0,0,1-4.466.953,8.042,8.042,0,0,0,.612.728,6.291,6.291,0,0,0,7.32-4.1c.508-1.467.5-2.888,1.011-4.367.179-.531.433-1.04.618-1.571a3.13,3.13,0,0,0,.115-1.664s-.219-.26-.543-.682A3.168,3.168,0,0,1,277.257,318.585Z" fill="#f0f0f0"/>
        <path id="Tracé_478" data-name="Tracé 478" d="M275.49,314.483a.463.463,0,0,0-.52-.19l.156.335a4.62,4.62,0,0,1-1.19.837.994.994,0,0,0-.543.705l-.035.185a.232.232,0,0,1-.156.231.185.185,0,0,1-.162-.075.632.632,0,0,1-.069-.173,4.315,4.315,0,0,0-.139-.416.675.675,0,0,0-.577-.451,3.074,3.074,0,0,0-1.924.422.416.416,0,0,0-.162.526c.872,1.993-.439,7.071-1.352,7.937l-.208.208c1.768-.918,4.426-1.461,6.453,1.156a6.368,6.368,0,0,0,.578-1.185c.5-1.461.5-2.888,1-4.367.185-.532.439-1.034.618-1.571a3.191,3.191,0,0,0,.168-1.318A26.645,26.645,0,0,1,275.49,314.483Z" fill="#37474f"/>
        <path id="Tracé_479" data-name="Tracé 479" d="M268.621,324.558c-1.213,1.242-1.67,2.565-.329,4.368a7.9,7.9,0,0,0,4.465-.953,6.314,6.314,0,0,0,2.311-2.265C273.046,323.1,270.389,323.64,268.621,324.558Z" fill="#fff"/>
        <path id="Tracé_480" data-name="Tracé 480" d="M263.855,260.093c2.657,9.48.063,18.053-4.223,30.618,3.4,2.519,8.232,10.168,13.894,20.347,0,0-3.155,4.367-6.684,4.483-.7-.913-10.168-13.137-10.168-13.137l-5.736,20.8s-4.541.728-7.175-1.855c0,0,3.518-23.766,4.575-29.543-2.715-5.361-6.678-14.772-3.229-31.675Z" fill="#455a64"/>
        <path id="Tracé_481" data-name="Tracé 481" d="M248.644,290.249c1.213-9.209,2.6-15.442,2.6-15.442a12.147,12.147,0,0,1-4.622-3.8,7.991,7.991,0,0,0,3.264,4.847C248.806,281.144,248.644,290.249,248.644,290.249Z" opacity="0.2" style="mix-blend-mode: normal;isolation: isolate"/>
        <path id="Tracé_482" data-name="Tracé 482" d="M256.674,302.4a19.1,19.1,0,0,0,.514-4.674l2.444-7.019-1.8,7.094a21.687,21.687,0,0,1-.161,5.881Z" opacity="0.2" style="mix-blend-mode: normal;isolation: isolate"/>
        <path id="Tracé_483" data-name="Tracé 483" d="M251.319,235.408l-1.883.2a4.622,4.622,0,0,0-3.409,2.086c-1.935,2.986-2.836,7.556-2.311,12.5a157.174,157.174,0,0,1,.249,16.829c8.174,5.967,20.369.658,21.663-.636,0,0-2.206-12.415-1.866-13.2a27.949,27.949,0,0,0,2.311-8.053,14.3,14.3,0,0,0-1.49-7.037l-7.164-2.692Z" fill="#fe703a"/>
        <path id="Tracé_484" data-name="Tracé 484" d="M257.46,230.671v4.893a2.268,2.268,0,0,1-.745,1.733,6.52,6.52,0,0,1-4.709,1.618,1.624,1.624,0,0,1-.97-.295,1.291,1.291,0,0,1-.312-1.334,2.463,2.463,0,0,1,.312-.647,2.6,2.6,0,0,0,.427-1.393v-4.575Z" fill="#ffa8a7"/>
        <path id="Tracé_485" data-name="Tracé 485" d="M257.46,230.671v4.893a2.268,2.268,0,0,1-.745,1.733,6.52,6.52,0,0,1-4.709,1.618,1.624,1.624,0,0,1-.97-.295,1.291,1.291,0,0,1-.312-1.334,2.463,2.463,0,0,1,.312-.647,2.6,2.6,0,0,0,.427-1.393v-4.575Z" opacity="0.3" style="mix-blend-mode: normal;isolation: isolate"/>
        <path id="Tracé_486" data-name="Tracé 486" d="M257.1,230.671H251.44v4.159a9.2,9.2,0,0,0,3.57-1.305A5.484,5.484,0,0,0,257.1,230.671Z" opacity="0.2" style="mix-blend-mode: normal;isolation: isolate"/>
        <path id="Tracé_487" data-name="Tracé 487" d="M247.639,223.583c-.8.024-2.3-.4-2.733-3.623,1.246-2.911,4.844-3.654,5.437-3.905a12.612,12.612,0,0,1,3.188-.387,5.952,5.952,0,0,1,3.143.48c1,.46,3.6,3.52,3.923,4.165a4.2,4.2,0,0,1,.34,1.97,15.244,15.244,0,0,1-.121,2.675,5.143,5.143,0,0,1-1.011,2.449,3.929,3.929,0,0,1-1.843,1.248,5.04,5.04,0,0,1-2.992-.093,12.123,12.123,0,0,1-2.71-1.357A24.478,24.478,0,0,1,247.639,223.583Z" fill="#263238"/>
        <path id="Tracé_488" data-name="Tracé 488" d="M246.056,220.607a20.57,20.57,0,0,0,1.155,10.977,3.922,3.922,0,0,0,1.5,2.074,4.142,4.142,0,0,0,2.663.219,13.558,13.558,0,0,0,4.211-1.155,5.782,5.782,0,0,0,2.918-3.143,2.511,2.511,0,0,0,2.547-1,4.778,4.778,0,0,0,.832-2.791c0-.629-.121-1.374-.687-1.652a1.593,1.593,0,0,0-1.612.405A4.8,4.8,0,0,0,258,226.9c-.416-1.537-1.063-3.016-1.479-4.553a2.6,2.6,0,0,0-.9-1.6,2.892,2.892,0,0,0-2.229,0A14.649,14.649,0,0,1,246.056,220.607Z" fill="#ffa8a7"/>
        <path id="Tracé_489" data-name="Tracé 489" d="M246.056,220.607a20.57,20.57,0,0,0,1.155,10.977,3.922,3.922,0,0,0,1.5,2.074,4.142,4.142,0,0,0,2.663.219,13.558,13.558,0,0,0,4.211-1.155,5.782,5.782,0,0,0,2.918-3.143,2.511,2.511,0,0,0,2.547-1,4.778,4.778,0,0,0,.832-2.791c0-.629-.121-1.374-.687-1.652a1.593,1.593,0,0,0-1.612.405A4.8,4.8,0,0,0,258,226.9c-.416-1.537-1.063-3.016-1.479-4.553a2.6,2.6,0,0,0-.9-1.6,2.892,2.892,0,0,0-2.229,0A14.649,14.649,0,0,1,246.056,220.607Z" opacity="0.3" style="mix-blend-mode: normal;isolation: isolate"/>
        <path id="Tracé_490" data-name="Tracé 490" d="M250.533,225.27l-1.8,3.021,2.143.4Z" fill="#f28f8f"/>
        <path id="Tracé_491" data-name="Tracé 491" d="M250.533,225.27l-1.8,3.021,2.143.4Z" opacity="0.4" style="mix-blend-mode: normal;isolation: isolate"/>
        <path id="Tracé_492" data-name="Tracé 492" d="M252.942,229.741l-1.623.791a1.056,1.056,0,0,0,1.23.347A.948.948,0,0,0,252.942,229.741Z" fill="#f28f8f"/>
        <path id="Tracé_493" data-name="Tracé 493" d="M252.942,229.741l-1.623.791a1.056,1.056,0,0,0,1.23.347A.948.948,0,0,0,252.942,229.741Z" opacity="0.4" style="mix-blend-mode: normal;isolation: isolate"/>
        <path id="Tracé_494" data-name="Tracé 494" d="M251.983,230.937a.986.986,0,0,0,.578-.058.86.86,0,0,0,.439-.855,1.03,1.03,0,0,0-.641.219A1.054,1.054,0,0,0,251.983,230.937Z" fill="#f28f8f"/>
        <path id="Tracé_495" data-name="Tracé 495" d="M253.635,225.391a.615.615,0,1,1-.011-.117A.662.662,0,0,1,253.635,225.391Z" fill="#263238"/>
        <path id="Tracé_496" data-name="Tracé 496" d="M248.477,225.709a.619.619,0,1,1-.681-.549h0A.619.619,0,0,1,248.477,225.709Z" fill="#263238"/>
        <path id="Tracé_497" data-name="Tracé 497" d="M247.633,223.334l-1.259,1.075a.879.879,0,0,1,.167-.988A1.035,1.035,0,0,1,247.633,223.334Z" fill="#263238"/>
        <path id="Tracé_498" data-name="Tracé 498" d="M252.873,222.733l1.45.8a.872.872,0,0,0-.364-.93A1.028,1.028,0,0,0,252.873,222.733Z" fill="#263238"/>
        <path id="Tracé_499" data-name="Tracé 499" d="M249.424,267.049l-.012,7.77,13.691-7.955.006-7.77Z" fill="#14a08c"/>
        <path id="Tracé_500" data-name="Tracé 500" d="M228.448,254.94l-.006,7.764,20.97,12.114.012-7.77Z" fill="#14a08c"/>
        <path id="Tracé_501" data-name="Tracé 501" d="M228.448,254.94l-.006,7.764,20.97,12.114.012-7.77Z" opacity="0.2" style="mix-blend-mode: normal;isolation: isolate"/>
        <path id="Tracé_502" data-name="Tracé 502" d="M249.424,267.967l13.686-7.955v-.919l-13.686,7.955v.919Z" opacity="0.2" style="mix-blend-mode: normal;isolation: isolate"/>
        <path id="Tracé_503" data-name="Tracé 503" d="M249.424,267.049,228.448,254.94v.919l20.976,12.109Z" opacity="0.2" style="mix-blend-mode: normal;isolation: isolate"/>
        <path id="Tracé_504" data-name="Tracé 504" d="M263.606,256.176l-21.571-12.455-14.078,8.18,21.571,12.455Z" fill="#14a08c"/>
        <path id="Tracé_505" data-name="Tracé 505" d="M263.606,256.176l-21.571-12.455-14.078,8.18,21.571,12.455Z" fill="#fff" opacity="0.2" style="mix-blend-mode: normal;isolation: isolate"/>
        <path id="Tracé_506" data-name="Tracé 506" d="M249.528,264.357l-.012,2.975,14.079-8.18.012-2.975Z" fill="#14a08c"/>
        <path id="Tracé_507" data-name="Tracé 507" d="M227.957,251.9l-.012,2.981,21.571,12.449.012-2.975Z" fill="#14a08c"/>
        <path id="Tracé_508" data-name="Tracé 508" d="M227.957,251.9l-.012,2.981,21.571,12.449.012-2.975Z" opacity="0.2" style="mix-blend-mode: normal;isolation: isolate"/>
        <path id="Tracé_509" data-name="Tracé 509" d="M242.035,243.721l-14.078,8.18-.012,2.981.5.289v.687l-.006,6.846,20.97,12.114,13.691-7.955.006-7.429.485-.283.012-2.975Z" fill="#fff" opacity="0.2" style="mix-blend-mode: normal;isolation: isolate"/>
        <path id="Tracé_510" data-name="Tracé 510" d="M246.056,256.321l-.012,7.764,13.691-7.955.006-7.764Z" fill="#e0e0e0"/>
        <path id="Tracé_511" data-name="Tracé 511" d="M225.08,244.206l-.012,7.77,20.976,12.109.012-7.764Z" fill="#e0e0e0"/>
        <path id="Tracé_512" data-name="Tracé 512" d="M225.08,244.206l-.012,7.77,20.976,12.109.012-7.764Z" opacity="0.2" style="mix-blend-mode: normal;isolation: isolate"/>
        <path id="Tracé_513" data-name="Tracé 513" d="M246.056,257.239l13.686-7.955v-.919l-13.686,7.955v.919Z" opacity="0.2" style="mix-blend-mode: normal;isolation: isolate"/>
        <path id="Tracé_514" data-name="Tracé 514" d="M246.056,256.321,225.08,244.206v.919l20.976,12.114Z" opacity="0.2" style="mix-blend-mode: normal;isolation: isolate"/>
        <path id="Tracé_515" data-name="Tracé 515" d="M260.238,245.443l-21.577-12.455-14.073,8.18,21.571,12.455Z" fill="#e0e0e0"/>
        <path id="Tracé_516" data-name="Tracé 516" d="M260.238,245.443l-21.577-12.455-14.073,8.18,21.571,12.455Z" fill="#fff" opacity="0.2" style="mix-blend-mode: normal;isolation: isolate"/>
        <path id="Tracé_517" data-name="Tracé 517" d="M246.16,253.623l-.012,2.981,14.078-8.18.012-2.981Z" fill="#e0e0e0"/>
        <path id="Tracé_518" data-name="Tracé 518" d="M224.589,241.168l-.012,2.981L246.148,256.6l.012-2.981Z" fill="#e0e0e0"/>
        <path id="Tracé_519" data-name="Tracé 519" d="M224.589,241.168l-.012,2.981L246.148,256.6l.012-2.981Z" opacity="0.2" style="mix-blend-mode: normal;isolation: isolate"/>
        <path id="Tracé_520" data-name="Tracé 520" d="M238.661,232.988l-14.073,8.18-.012,2.981.5.289v.687l-.012,6.852,20.976,12.109,13.691-7.955.006-7.429.485-.277.012-2.981Z" fill="#fff" opacity="0.3" style="mix-blend-mode: normal;isolation: isolate"/>
        <path id="Tracé_521" data-name="Tracé 521" d="M250.389,278.412h-.064a.208.208,0,0,1-.133-.26l1.5-4.65c.4-1.3.855-2.768,2.143-3.524a1.3,1.3,0,0,1,1.4.144.873.873,0,0,1,.358.93l-1.381,4.916a.2.2,0,0,1-.245.147l-.009,0a.215.215,0,0,1-.139-.254l1.381-4.922a.492.492,0,0,0-.22-.492.873.873,0,0,0-.941-.109c-1.156.67-1.56,2-1.959,3.287l-.115.375-1.381,4.281A.208.208,0,0,1,250.389,278.412Z" fill="#455a64"/>
        <path id="Tracé_522" data-name="Tracé 522" d="M248.442,280.232l-.058,20.93,13.674-7.891-2.328-19.711Z" fill="#14a08c"/>
        <path id="Tracé_523" data-name="Tracé 523" d="M248.442,280.232v-1.542l-2.536.173-3.726,19.093,6.2,3.206Z" fill="#14a08c"/>
        <path id="Tracé_524" data-name="Tracé 524" d="M248.442,278.689,246.183,297.3l2.2,3.859Z" fill="#14a08c"/>
        <path id="Tracé_525" data-name="Tracé 525" d="M248.442,278.689,246.183,297.3l2.2,3.859Z" opacity="0.2" style="mix-blend-mode: normal;isolation: isolate"/>
        <path id="Tracé_526" data-name="Tracé 526" d="M242.18,297.955l4-.653,2.2,3.859Z" fill="#14a08c"/>
        <path id="Tracé_527" data-name="Tracé 527" d="M242.18,297.955l4-.653,2.2,3.859Z" opacity="0.1" style="mix-blend-mode: normal;isolation: isolate"/>
        <path id="Tracé_528" data-name="Tracé 528" d="M245.906,278.863l12.322-7.048-.549,1.745h2.051l-11.288,6.672v-1.542Z" fill="#14a08c"/>
        <path id="Tracé_529" data-name="Tracé 529" d="M245.906,278.863l12.322-7.048-.549,1.745h2.051l-11.288,6.672v-1.542Z" opacity="0.3" style="mix-blend-mode: normal;isolation: isolate"/>
        <path id="Tracé_530" data-name="Tracé 530" d="M257.679,273.559l.162,1.115,1.889-1.115Z" fill="#14a08c"/>
        <path id="Tracé_531" data-name="Tracé 531" d="M257.679,273.559l.162,1.115,1.889-1.115Z" opacity="0.2" style="mix-blend-mode: normal;isolation: isolate"/>
        <path id="Tracé_532" data-name="Tracé 532" d="M258.228,271.815l.341,1.745h-.89Z" fill="#14a08c"/>
        <path id="Tracé_533" data-name="Tracé 533" d="M252.659,279.51a.2.2,0,0,1-.2-.2h0v-5.384a4.621,4.621,0,0,1,2.264-3.957,1.155,1.155,0,0,1,1.768,1.017V277a.2.2,0,0,1-.2.208h-.006a.208.208,0,0,1-.208-.208v-6.019a.762.762,0,0,0-1.155-.659,4.19,4.19,0,0,0-2.063,3.6v5.384A.208.208,0,0,1,252.659,279.51Z" fill="#455a64"/>
        <path id="Tracé_534" data-name="Tracé 534" d="M252.775,280.4h-.058a.208.208,0,0,1-.22-.2h0l-.248-4.882c-.087-1.352-.185-2.888.751-4.044a1.284,1.284,0,0,1,1.357-.364.869.869,0,0,1,.671.74l.456,5.084a.208.208,0,0,1-.189.225h0a.208.208,0,0,1-.219-.185l-.457-5.089c0-.249-.271-.353-.381-.382a.873.873,0,0,0-.913.226c-.843,1.039-.751,2.426-.664,3.772v.393l.225,4.494A.2.2,0,0,1,252.775,280.4Z" fill="#455a64"/>
        <path id="Tracé_535" data-name="Tracé 535" d="M251.6,282.791l7.377,19.59,9.983-12.236-9.174-17.6Z" fill="#e0e0e0"/>
        <path id="Tracé_536" data-name="Tracé 536" d="M251.6,282.791l-.549-1.438-2.305,1.057,3.287,19.174,6.944.8Z" fill="#e0e0e0"/>
        <path id="Tracé_537" data-name="Tracé 537" d="M251.053,281.352l4.494,18.2,3.432,2.825Z" fill="#e0e0e0"/>
        <path id="Tracé_538" data-name="Tracé 538" d="M251.053,281.352l4.494,18.2,3.432,2.825Z" opacity="0.2" style="mix-blend-mode: normal;isolation: isolate"/>
        <path id="Tracé_539" data-name="Tracé 539" d="M252.035,301.583l3.512-2.028,3.432,2.825Z" fill="#e0e0e0"/>
        <path id="Tracé_540" data-name="Tracé 540" d="M252.035,301.583l3.512-2.028,3.432,2.825Z" opacity="0.1" style="mix-blend-mode: normal;isolation: isolate"/>
        <path id="Tracé_541" data-name="Tracé 541" d="M248.748,282.41l9.012-10.965.11,1.826,1.918-.728L251.6,282.791l-.549-1.438Z" fill="#e0e0e0"/>
        <path id="Tracé_542" data-name="Tracé 542" d="M248.748,282.41l9.012-10.965.11,1.826,1.918-.728L251.6,282.791l-.549-1.438Z" opacity="0.3" style="mix-blend-mode: normal;isolation: isolate"/>
        <path id="Tracé_543" data-name="Tracé 543" d="M257.87,273.27l.549.988,1.369-1.716Z" fill="#e0e0e0"/>
        <path id="Tracé_544" data-name="Tracé 544" d="M257.87,273.27l.549.988,1.369-1.716Z" opacity="0.2" style="mix-blend-mode: normal;isolation: isolate"/>
        <path id="Tracé_545" data-name="Tracé 545" d="M257.76,271.445l.942,1.514-.832.312Z" fill="#e0e0e0"/>
        <path id="Tracé_546" data-name="Tracé 546" d="M255.288,280.619a.2.2,0,0,1-.26-.116l-1.913-5.032a4.623,4.623,0,0,1,.717-4.506,1.156,1.156,0,0,1,2.016.318l2.137,5.633a.213.213,0,0,1-.121.265.209.209,0,0,1-.266-.121l-2.137-5.627a.744.744,0,0,0-1.288-.208,4.177,4.177,0,0,0-.653,4.1l1.906,5.026a.2.2,0,0,1-.119.26Z" fill="#455a64"/>
        <path id="Tracé_547" data-name="Tracé 547" d="M265.438,254.079l1.889,6.933-7.337,6.152a2.78,2.78,0,0,1-1.866.647,9.1,9.1,0,0,0-2.247.127c-.578.133-1.156.318-1.7.451a5.27,5.27,0,0,1-1.231.156.5.5,0,0,0-.52.473.5.5,0,0,0,.041.22,1.081,1.081,0,0,0,.248.329,1.969,1.969,0,0,0,1.069.422,4.766,4.766,0,0,0,1.831-.1,4.737,4.737,0,0,1-2.259,1.4c-.826.277-1.687.433-2.507.722a1.6,1.6,0,0,0-.809.514.618.618,0,0,0,.1.861c.353.219.832-.1,1.213.052a1.644,1.644,0,0,0,0,.67.98.98,0,0,0,.411.549.678.678,0,0,0,.67,0,2.394,2.394,0,0,0,1.548,1.051,4.706,4.706,0,0,0,1.906,0c2.617-.485,4.27-2.761,6.32-4.454.283-.231,7.51-4.263,11.208-6.32a3.173,3.173,0,0,0,1.531-3.559l-2.363-9.173Z" fill="#ffa8a7"/>
        <path id="Tracé_548" data-name="Tracé 548" d="M265.438,254.079l1.889,6.933-7.337,6.152a2.78,2.78,0,0,1-1.866.647,9.1,9.1,0,0,0-2.247.127c-.578.133-1.156.318-1.7.451a5.27,5.27,0,0,1-1.231.156.5.5,0,0,0-.52.473.5.5,0,0,0,.041.22,1.081,1.081,0,0,0,.248.329,1.969,1.969,0,0,0,1.069.422,4.766,4.766,0,0,0,1.831-.1,4.737,4.737,0,0,1-2.259,1.4c-.826.277-1.687.433-2.507.722a1.6,1.6,0,0,0-.809.514.618.618,0,0,0,.1.861c.353.219.832-.1,1.213.052a1.644,1.644,0,0,0,0,.67.98.98,0,0,0,.411.549.678.678,0,0,0,.67,0,2.394,2.394,0,0,0,1.548,1.051,4.706,4.706,0,0,0,1.906,0c2.617-.485,4.27-2.761,6.32-4.454.283-.231,7.51-4.263,11.208-6.32a3.173,3.173,0,0,0,1.531-3.559l-2.363-9.173Z" opacity="0.3" style="mix-blend-mode: normal;isolation: isolate"/>
        <path id="Tracé_549" data-name="Tracé 549" d="M271.833,260.85c-.792-.37-3.322-.676-4.506.15l-.2-.71A4.165,4.165,0,0,1,271.833,260.85Z" opacity="0.2" style="mix-blend-mode: normal;isolation: isolate"/>
        <path id="Tracé_550" data-name="Tracé 550" d="M264.525,238.071l1.04.295a6.781,6.781,0,0,1,4.558,4.338l3.316,9.758c-2.987,3.137-8.359,2.178-8.359,2.178l-1.063-4.969C260.267,243.138,263.716,239.14,264.525,238.071Z" fill="#fe703a"/>
        <path id="Tracé_551" data-name="Tracé 551" d="M264.525,238.071l1.04.295a6.781,6.781,0,0,1,4.558,4.338l3.316,9.758c-2.987,3.137-8.359,2.178-8.359,2.178l-1.063-4.969C260.267,243.138,263.716,239.14,264.525,238.071Z" opacity="0.3" style="mix-blend-mode: normal;isolation: isolate"/>
      </g>
    </g>
  </g>
</svg>
