<svg xmlns="http://www.w3.org/2000/svg" width="250" height="234.963" viewBox="0 0 250 234.963">
  <g id="Voyage" transform="translate(-45 -84.004)">
    <g id="freepik--Floor--inject-42">
      <ellipse id="freepik--floor--inject-42-2" cx="125" cy="70.95" rx="125" ry="70.95" transform="translate(45 177.067)" fill="#f5f5f5"/>
    </g>
    <g id="freepik--Shadows--inject-42">
      <ellipse id="freepik--Shadow--inject-42" cx="29.402" cy="16.978" rx="29.402" ry="16.978" transform="translate(139.89 250.332)" fill="#e0e0e0"/>
      <ellipse id="freepik--shadow--inject-42-2" cx="29.402" cy="16.978" rx="29.402" ry="16.978" transform="translate(214.963 250.332)" fill="#e0e0e0"/>
      <path id="Tracé_9" data-name="Tracé 9" d="M176.556,247.57l-46.38-26.783a4.073,4.073,0,0,0-3.681,0l-2.33,1.345-2.331-1.345a4.074,4.074,0,0,0-3.681,0L54.76,257.355a1.119,1.119,0,0,0,0,2.126l46.384,26.782a4.074,4.074,0,0,0,3.681,0l2.331-1.345,2.331,1.345a4.063,4.063,0,0,0,3.676,0L176.556,249.7a1.085,1.085,0,0,0,1.179-1.062A1.023,1.023,0,0,0,176.556,247.57Z" fill="#e0e0e0"/>
    </g>
    <g id="freepik--Clouds--inject-42">
      <g id="freepik--clouds--inject-42-2">
        <path id="Tracé_10" data-name="Tracé 10" d="M226.047,89.363l1.75.585V86.632c0-2.649,2.439-3.281,5.083-1.961h0c2.644,1.324,4.79,4.543,4.79,7.187v.514a2.884,2.884,0,0,1,2.223.3h0a6.483,6.483,0,0,1,3.45,5.17v.221l2.438,1.222a4.265,4.265,0,0,1,2.275,3.4c0,1.252-1.027,1.761-2.275,1.134l-19.734-9.913a4.274,4.274,0,0,1-2.259-3.409C223.788,89.241,224.815,88.733,226.047,89.363Z" fill="#ebebeb"/>
        <path id="Tracé_11" data-name="Tracé 11" d="M251.644,91.763l3.173,1.586a2.956,2.956,0,0,1-.026-.364v-.806c0-1.417,1.15-1.987,2.567-1.284a4.82,4.82,0,0,1,1.54,1.273c.237-1.776,1.849-2.443,3.8-1.463a7.224,7.224,0,0,1,3.84,5.755v1.191a2.759,2.759,0,0,1-.329,1.381l2.639,1.315a2.681,2.681,0,0,1,1.422,2.135c0,.786-.636,1.1-1.422.709L251.644,94.6a2.671,2.671,0,0,1-1.422-2.131C250.222,91.68,250.859,91.363,251.644,91.763Z" fill="#ebebeb"/>
      </g>
    </g>
    <g id="freepik--Plane--inject-42">
      <g id="freepik--plane--inject-42-2">
        <path id="Tracé_12" data-name="Tracé 12" d="M111.083,98.436l-15.822-7.5.7-.364,15.073,3,1.515-.785a1.093,1.093,0,0,1,1,.041c.272.169.267.431,0,.575l-.925.513,5.2,1.083Z" fill="#14a08c"/>
        <g id="Groupe_1" data-name="Groupe 1" opacity="0.1">
          <path id="Tracé_13" data-name="Tracé 13" d="M111.083,98.436l-15.822-7.5.7-.364,15.073,3,1.515-.785a1.093,1.093,0,0,1,1,.041c.272.169.267.431,0,.575l-.925.513,5.2,1.083Z"/>
        </g>
        <path id="Tracé_14" data-name="Tracé 14" d="M115.509,94.463c7.141-3.727,12.906-5.858,14.647-4.754s-2.439,4.225-9.534,7.989l-6.279,3.039c-6.289,2.834-12.742,5.247-12.742,5.247l.293,4.348-.627.334-2.823-3.137s-1.581.755-2.459.2.559-1.4.559-1.4l-5.175-1.9.627-.354,7.49.555s4.78-3.5,10.216-6.859Z" fill="#14a08c"/>
        <path id="Tracé_15" data-name="Tracé 15" d="M123.282,99.535l-1.515.8,3.851,8.923-.7.365-10.576-8.9,6.279-3.04.745,1.72.929-.513a1.1,1.1,0,0,1,1,.041C123.564,99.129,123.559,99.391,123.282,99.535Z" fill="#14a08c"/>
        <g id="Groupe_2" data-name="Groupe 2" opacity="0.1">
          <path id="Tracé_16" data-name="Tracé 16" d="M123.282,99.535l-1.515.8,3.851,8.923-.7.365L112.97,99.591l6.935-3.532,1.464,3.347.929-.513a1.1,1.1,0,0,1,1,.041C123.564,99.129,123.559,99.391,123.282,99.535Z"/>
        </g>
        <path id="Tracé_17" data-name="Tracé 17" d="M92.57,109.381l-.237-.457.688-.349.231.457Z" fill="#e0e0e0"/>
        <path id="Tracé_18" data-name="Tracé 18" d="M82.549,171.44c-.416-.3-.821-.6-1.216-.914l.318-.406c.39.308.79.611,1.2.9Zm-2.392-1.879c-.38-.329-.76-.673-1.13-1.027l.35-.37c.364.339.739.678,1.114,1Zm-2.213-2.09c-.349-.359-.7-.734-1.027-1.114l.385-.344c.334.375.673.745,1.027,1.1Zm-2.012-2.295c-.319-.4-.632-.806-.924-1.211l.415-.3c.288.4.6.8.909,1.191Zm-1.787-2.469c-.277-.421-.549-.857-.8-1.294l.442-.256c.251.426.513.857.785,1.273Zm-1.54-2.623c-.231-.447-.457-.9-.673-1.366l.468-.216q.315.678.662,1.345Zm-1.294-2.747c-.185-.467-.369-.95-.513-1.422l.482-.169c.165.467.344.939.514,1.4Zm-1.027-2.875c-.143-.488-.277-.981-.4-1.468l.513-.123c.124.482.252.965.4,1.447Zm-.729-2.952c-.1-.513-.184-1-.256-1.5l.513-.072c.072.513.159.986.257,1.473Zm-.446-3.014q-.078-.77-.123-1.54l.513-.025c.031.513.067,1,.118,1.494Zm-.175-3.039v-1.519h.514v1.478Zm.606-3-.513-.041c.036-.514.082-1.027.143-1.515l.514.057c-.021.5-.067,1-.1,1.5Zm.344-2.983-.513-.082c.082-.513.169-1.027.272-1.5l.513.1c-.067.493-.154,1.007-.231,1.484Zm.59-2.947-.513-.123c.118-.513.252-.981.39-1.473l.514.143c-.1.483-.231.965-.35,1.453Zm.827-2.89-.513-.164q.24-.714.513-1.433l.477.18c-.113.467-.277.945-.436,1.417Zm1.027-2.814-.473-.2c.195-.467.4-.929.611-1.391l.468.216c-.144.456-.344.913-.54,1.375Zm1.263-2.726-.457-.231c.226-.451.467-.9.713-1.34l.447.247c-.175.441-.416.883-.637,1.324Zm1.463-2.618-.442-.267c.262-.431.514-.862.811-1.283l.432.282c-.211.411-.478.842-.734,1.268Zm1.648-2.51-.416-.3c.293-.411.595-.816.9-1.222l.4.313c-.236.4-.534.806-.826,1.207Zm1.827-2.383-.4-.323c.324-.39.652-.775.991-1.155l.38.339c-.267.375-.591.76-.909,1.139Zm1.992-2.243-.369-.354c.344-.365.7-.729,1.068-1.084l.354.365c-.288.354-.642.708-.986,1.073Zm2.146-2.1-.349-.38c.37-.339.75-.672,1.14-1.027l.334.391a14.5,14.5,0,0,1-1.058,1.016Zm2.28-1.951-.318-.4c.4-.319.8-.627,1.2-.929l.308.41c-.339.3-.734.606-1.124.919Zm2.408-1.8-.293-.421q.627-.431,1.263-.847l.277.431c-.349.273-.77.555-1.181.837Zm2.52-1.632-.267-.442c.432-.262.873-.513,1.315-.765l.251.452c-.354.246-.806.5-1.232.755Z" fill="#e0e0e0"/>
        <path id="Tracé_19" data-name="Tracé 19" d="M84.459,172.723l-.652-.416.282-.431.642.411Z" fill="#e0e0e0"/>
        <path id="Tracé_20" data-name="Tracé 20" d="M79.248,128.151l-.457-.236c.118-.236.247-.468.37-.688l.447.256C79.484,127.7,79.37,127.92,79.248,128.151Z" fill="#e0e0e0"/>
        <path id="Tracé_21" data-name="Tracé 21" d="M92.16,165.058c-.452-.267-.893-.513-1.325-.806l.278-.436c.421.272.857.513,1.3.8ZM89.542,163.4c-.432-.3-.847-.6-1.253-.909l.308-.41c.4.3.811.6,1.237.9Zm-2.47-1.869c-.4-.333-.8-.672-1.175-1.027l.344-.379c.374.338.764.672,1.155,1.026Zm-2.3-2.084c-.364-.37-.724-.745-1.068-1.124l.38-.344c.339.369.693.744,1.053,1.1Zm-2.084-2.3c-.329-.406-.652-.821-.95-1.232l.411-.3c.3.4.611.811.939,1.206Zm-1.838-2.505c-.282-.437-.56-.883-.811-1.325l.441-.257c.252.432.514.873.8,1.3Zm-1.54-2.691c-.231-.462-.457-.934-.662-1.406l.472-.206c.2.462.421.924.647,1.381ZM78.062,149.1c-.179-.482-.349-.98-.513-1.473l.513-.154q.227.729.514,1.448Zm-.924-2.967q-.185-.771-.339-1.54l.514-.1c.092.514.2,1.027.328,1.489Zm-.606-3.034c-.066-.514-.123-1.027-.164-1.54l.513-.042c.042.514.1,1.027.165,1.541Zm-.251-3.081v-1.557h.513v1.525Zm.6-3.08-.513-.041c.046-.513.1-1.027.175-1.54l.513.072a12.96,12.96,0,0,0-.175,1.509Zm.421-3.019-.513-.1c.1-.514.221-1.027.349-1.515l.514.129c-.134.467-.247.97-.35,1.468Zm.781-2.947-.514-.164c.165-.513.35-.991.545-1.458l.472.195c-.164.437-.339.914-.5,1.407Z" fill="#e0e0e0"/>
        <path id="Tracé_22" data-name="Tracé 22" d="M94.219,166.2l-.688-.359.246-.452.678.354Z" fill="#e0e0e0"/>
      </g>
    </g>
    <g id="freepik--Plant--inject-42">
      <g id="freepik--Plants--inject-42">
        <path id="Tracé_23" data-name="Tracé 23" d="M277.961,225.628l-10.622,4.621,9.523-1.654a16.433,16.433,0,0,1-3.08,6.485s-6.413,1.719-10.176,4.107l8.281-.955a8.832,8.832,0,0,1-1.027,4.035c-.082.169-.174.344-.272.513-.652,1.171-1.694,3.42-3.234,6.028h0a41.153,41.153,0,0,1-4.549,6.437,28.532,28.532,0,0,1-2.757,2.763c-.056.056-.118.107-.179.159q-1.895-1.864-3.979-3.707a49.472,49.472,0,0,1,.318-12.835c2.66-17.522,18.128-23.847,29.351-24.36A30.73,30.73,0,0,0,277.961,225.628Z" fill="#14a08c"/>
        <path id="Tracé_24" data-name="Tracé 24" d="M277.961,225.628l-10.622,4.621,9.523-1.654a16.433,16.433,0,0,1-3.08,6.485s-6.413,1.719-10.176,4.107l8.281-.955a8.832,8.832,0,0,1-1.027,4.035c-.082.169-.174.344-.272.513-.652,1.171-1.694,3.42-3.234,6.028h0a41.153,41.153,0,0,1-4.549,6.437,28.532,28.532,0,0,1-2.757,2.763c-.056.056-.118.107-.179.159q-1.895-1.864-3.979-3.707a49.472,49.472,0,0,1,.318-12.835c2.66-17.522,18.128-23.847,29.351-24.36A30.73,30.73,0,0,0,277.961,225.628Z" opacity="0.25" style="mix-blend-mode: normal;isolation: isolate"/>
        <path id="Tracé_25" data-name="Tracé 25" d="M291.73,239.763h0c-.334.164-5.807,2.967-11.906,10.617l-9.054.753,6.469,2.346-4.585,5.062-9.241.288,6.762,2.351a21.091,21.091,0,0,1-8.862,6.11q-1.693-1.341-3.516-2.644c-.37-.262-.75-.514-1.135-.786v-.3h0A22.153,22.153,0,0,1,261,249.889a18.163,18.163,0,0,1,3.594-3.7C272.478,239.957,285.579,238.591,291.73,239.763Z" fill="#14a08c"/>
        <path id="Tracé_26" data-name="Tracé 26" d="M291.73,239.763h0A136.275,136.275,0,0,0,280.1,251.257l-9.326-.124,6.469,2.346-4.585,5.062-9.241.288,6.762,2.351a21.091,21.091,0,0,1-8.862,6.11q-1.693-1.341-3.516-2.644c-.37-.262-.75-.514-1.135-.786v-.3h0A22.153,22.153,0,0,1,261,249.889a18.163,18.163,0,0,1,3.594-3.7C272.478,239.957,285.579,238.591,291.73,239.763Z" fill="#14a08c"/>
        <path id="Tracé_27" data-name="Tracé 27" d="M291.73,239.763c-9.755-.108-21.049,4.415-27.338,10.868a19.113,19.113,0,0,0-2.105,2.567h0a27.66,27.66,0,0,0-3.394,7.136h0a38.629,38.629,0,0,0-1.083,4.277c-.37-.262-.749-.514-1.134-.786v-.3h0A22.148,22.148,0,0,1,261,249.89a18.164,18.164,0,0,1,3.594-3.7C272.478,239.957,285.579,238.591,291.73,239.763Z" opacity="0.1" style="mix-blend-mode: normal;isolation: isolate"/>
      </g>
    </g>
    <g id="freepik--Suitcases--inject-42">
      <g id="freepik--suitcases--inject-42-2">
        <g id="freepik--Suitcase--inject-42">
          <path id="Tracé_28" data-name="Tracé 28" d="M167.387,248.258,108.162,282.45a3.676,3.676,0,0,1-3.337,0L62.8,258.187a3.669,3.669,0,0,1-1.668-2.885v-22.05a3.668,3.668,0,0,1,1.668-2.875l59.225-34.2a3.676,3.676,0,0,1,3.337,0l42.021,24.263a3.676,3.676,0,0,1,1.668,2.885v22.04A3.7,3.7,0,0,1,167.387,248.258Z" fill="#14a08c"/>
          <path id="Tracé_29" data-name="Tracé 29" d="M106.494,256.95v25.895a3.335,3.335,0,0,1-1.669-.395L62.8,258.187a3.687,3.687,0,0,1-1.663-2.89V233.252a3.717,3.717,0,0,1,1.36-2.675c-.606.514-.513,1.248.3,1.715l42.024,24.271A3.43,3.43,0,0,0,106.494,256.95Z" opacity="0.4" style="mix-blend-mode: normal;isolation: isolate"/>
          <path id="Tracé_30" data-name="Tracé 30" d="M169.055,223.318v22.05a3.676,3.676,0,0,1-1.668,2.885l-59.23,34.2a3.379,3.379,0,0,1-1.663.395v-25.9a3.362,3.362,0,0,0,1.658-.4l59.23-34.191c.857-.514.914-1.279.174-1.818A3.712,3.712,0,0,1,169.055,223.318Z" opacity="0.2" style="mix-blend-mode: normal;isolation: isolate"/>
          <path id="Tracé_31" data-name="Tracé 31" d="M62.8,230.377l59.225-34.2a3.676,3.676,0,0,1,3.337,0l42.021,24.263a1.015,1.015,0,0,1,0,1.925l-59.225,34.2a3.707,3.707,0,0,1-3.337,0L62.8,232.295C61.87,231.758,61.87,230.89,62.8,230.377Z" fill="#14a08c"/>
          <path id="Tracé_32" data-name="Tracé 32" d="M62.8,230.377l59.225-34.2a3.676,3.676,0,0,1,3.337,0l42.021,24.263a1.015,1.015,0,0,1,0,1.925l-59.225,34.2a3.707,3.707,0,0,1-3.337,0L62.8,232.295C61.87,231.758,61.87,230.89,62.8,230.377Z" opacity="0.3" style="mix-blend-mode: normal;isolation: isolate"/>
          <path id="Tracé_33" data-name="Tracé 33" d="M61.136,242.77l44.475,25.67a1.788,1.788,0,0,0,1.771,0l61.678-35.6v2.408l-61.678,35.615a1.788,1.788,0,0,1-1.771,0l-44.475-25.67Z" opacity="0.1" style="mix-blend-mode: normal;isolation: isolate"/>
          <path id="Tracé_34" data-name="Tracé 34" d="M98.577,252.935v-.072a20.3,20.3,0,0,1,15.854,0v.072l-6.258,3.594a3.671,3.671,0,0,1-3.332,0L98.6,252.935" fill="#455a64"/>
          <path id="Tracé_35" data-name="Tracé 35" d="M167.382,220.443l-5.334-3.081c-3.8,2.229-3.794,5.812.041,8.03h.036l5.257-3.029a1.011,1.011,0,0,0,0-1.92Z" fill="#455a64"/>
          <path id="Tracé_36" data-name="Tracé 36" d="M62.815,230.377l5.334-3.08c3.809,2.228,3.794,5.811-.041,8.029H68.07L62.813,232.3C61.9,231.748,61.9,230.89,62.815,230.377Z" fill="#455a64"/>
          <path id="Tracé_37" data-name="Tracé 37" d="M131.17,199.527l-5.811-3.357a3.676,3.676,0,0,0-3.337,0l-5.73,3.306c.165.108.324.221.514.323a15.422,15.422,0,0,0,13.949,0C130.9,199.712,131.034,199.62,131.17,199.527Z" fill="#455a64"/>
          <path id="Tracé_38" data-name="Tracé 38" d="M114.436,252.935c-.58,4.826-3.789,9.082-7.917,11.967V256.95a3.368,3.368,0,0,0,1.659-.4Z" fill="#37474f"/>
          <path id="Tracé_39" data-name="Tracé 39" d="M167.382,222.363l-5.288,3.054c0,4.421,3.126,5.694,6.966,3.476v-5.58a3.677,3.677,0,0,0-1.668-2.886l-.375-.22h0l.375.215a1.026,1.026,0,0,1-.01,1.941Z" fill="#37474f"/>
          <path id="Tracé_40" data-name="Tracé 40" d="M169.055,245.368v-6.217a15.424,15.424,0,0,0-6.966,12.075v.082l5.488-3.188A3.721,3.721,0,0,0,169.055,245.368Z" fill="#37474f"/>
          <path id="Tracé_41" data-name="Tracé 41" d="M113.47,279.38c0-4.426-3.132-6.212-6.977-3.994h0v7.464a3.373,3.373,0,0,0,1.658-.4Z" fill="#37474f"/>
          <path id="Tracé_42" data-name="Tracé 42" d="M106.494,256.95V264.9c-4.138-2.9-7.337-7.151-7.917-11.967l6.259,3.594A3.381,3.381,0,0,0,106.494,256.95Z" fill="#263238"/>
          <path id="Tracé_43" data-name="Tracé 43" d="M99.548,279.38l5.313,3.08a3.372,3.372,0,0,0,1.658.4v-7.475C102.654,273.163,99.548,274.954,99.548,279.38Z" fill="#263238"/>
          <path id="Tracé_44" data-name="Tracé 44" d="M61.336,249.29c-.067-.041-.133-.067-.2-.1v6.125a3.71,3.71,0,0,0,1.448,2.752l5.7,3.311h0A15.343,15.343,0,0,0,61.336,249.29Z" fill="#263238"/>
          <path id="Tracé_45" data-name="Tracé 45" d="M62.815,232.271l5.293,3.055c0,4.42-3.132,6.212-6.972,4v-6.1a3.679,3.679,0,0,1,1.684-2.875h0C61.9,230.89,61.9,231.737,62.815,232.271Z" fill="#263238"/>
          <path id="Tracé_46" data-name="Tracé 46" d="M122.737,257.176l-3.285,1.894a.976.976,0,0,0-.442.77v6.2a1,1,0,0,0,.442.77l.3.169a.969.969,0,0,0,.889,0l3.28-1.894a.971.971,0,0,0,.447-.77V258.1a.994.994,0,0,0-.442-.77l-.3-.17A.975.975,0,0,0,122.737,257.176Z" fill="#14a08c"/>
          <path id="Tracé_47" data-name="Tracé 47" d="M122.737,257.176l-3.285,1.894a.976.976,0,0,0-.442.77v6.2a1,1,0,0,0,.442.77l.3.169a.969.969,0,0,0,.889,0l3.28-1.894a.971.971,0,0,0,.447-.77V258.1a.994.994,0,0,0-.442-.77l-.3-.17A.975.975,0,0,0,122.737,257.176Z" fill="#fff" opacity="0.5" style="mix-blend-mode: normal;isolation: isolate"/>
          <path id="Tracé_48" data-name="Tracé 48" d="M120.535,267.023a.971.971,0,0,1-.786-.047l-.3-.169a.986.986,0,0,1-.447-.77v-6.2a.936.936,0,0,1,.139-.451l1.18.693a.9.9,0,0,0-.133.441v6.2C120.191,266.963,120.335,267.084,120.535,267.023Z" opacity="0.1" style="mix-blend-mode: normal;isolation: isolate"/>
          <path id="Tracé_49" data-name="Tracé 49" d="M120.535,267.023a.971.971,0,0,1-.786-.047l-.3-.169a.986.986,0,0,1-.447-.77v-6.2a.936.936,0,0,1,.139-.451l1.18.693a.9.9,0,0,0-.133.441v6.2C120.191,266.963,120.335,267.084,120.535,267.023Z" fill="#14a08c" opacity="0.1" style="mix-blend-mode: normal;isolation: isolate"/>
          <path id="Tracé_50" data-name="Tracé 50" d="M120.2,260.523v6.2c0,.287.2.4.442.256l3.28-1.894a.971.971,0,0,0,.447-.77V258.1c0-.282-.2-.4-.442-.257l-3.285,1.9A.98.98,0,0,0,120.2,260.523Z" fill="#14a08c"/>
          <path id="Tracé_51" data-name="Tracé 51" d="M120.2,260.523v6.2c0,.287.2.4.442.256l3.28-1.894a.971.971,0,0,0,.447-.77V258.1c0-.282-.2-.4-.442-.257l-3.285,1.9A.98.98,0,0,0,120.2,260.523Z" fill="#fff" opacity="0.2" style="mix-blend-mode: normal;isolation: isolate"/>
          <path id="Tracé_52" data-name="Tracé 52" d="M156.1,237.908l-3.286,1.9a1,1,0,0,0-.442.77v6.2a.981.981,0,0,0,.447.771l.293.174a1.028,1.028,0,0,0,.893,0l3.28-1.894a1,1,0,0,0,.442-.77v-6.2a.978.978,0,0,0-.442-.77l-.3-.17A.976.976,0,0,0,156.1,237.908Z" fill="#14a08c"/>
          <path id="Tracé_53" data-name="Tracé 53" d="M156.1,237.908l-3.286,1.9a1,1,0,0,0-.442.77v6.2a.981.981,0,0,0,.447.771l.293.174a1.028,1.028,0,0,0,.893,0l3.28-1.894a1,1,0,0,0,.442-.77v-6.2a.978.978,0,0,0-.442-.77l-.3-.17A.976.976,0,0,0,156.1,237.908Z" fill="#fff" opacity="0.5" style="mix-blend-mode: normal;isolation: isolate"/>
          <path id="Tracé_54" data-name="Tracé 54" d="M153.9,247.755a.969.969,0,0,1-.785-.046l-.3-.169a.982.982,0,0,1-.442-.771v-6.2a.846.846,0,0,1,.129-.442l1.186.683h0a.872.872,0,0,0-.129.436v6.2C153.561,247.7,153.705,247.832,153.9,247.755Z" opacity="0.1" style="mix-blend-mode: normal;isolation: isolate"/>
          <path id="Tracé_55" data-name="Tracé 55" d="M153.9,247.755a.969.969,0,0,1-.785-.046l-.3-.169a.982.982,0,0,1-.442-.771v-6.2a.846.846,0,0,1,.129-.442l1.186.683h0a.872.872,0,0,0-.129.436v6.2C153.561,247.7,153.705,247.832,153.9,247.755Z" fill="#14a08c" opacity="0.1" style="mix-blend-mode: normal;isolation: isolate"/>
          <path id="Tracé_56" data-name="Tracé 56" d="M153.561,241.256v6.2c0,.283.2.4.447.257l3.28-1.894a.98.98,0,0,0,.442-.77v-6.2c0-.283-.2-.4-.442-.257l-3.285,1.9A1,1,0,0,0,153.561,241.256Z" fill="#14a08c"/>
          <path id="Tracé_57" data-name="Tracé 57" d="M153.561,241.256v6.2c0,.283.2.4.447.257l3.28-1.894a.98.98,0,0,0,.442-.77v-6.2c0-.283-.2-.4-.442-.257l-3.285,1.9A1,1,0,0,0,153.561,241.256Z" fill="#fff" opacity="0.2" style="mix-blend-mode: normal;isolation: isolate"/>
          <path id="Tracé_58" data-name="Tracé 58" d="M132.276,260.153v2.51a.657.657,0,0,1-.292.513l-3.553,2.054a.631.631,0,0,1-.591,0l-.2-.113a.64.64,0,0,1-.3-.513V262.1a.655.655,0,0,1,.3-.513l3.553-2.054a.654.654,0,0,1,.585,0l.2.113A.66.66,0,0,1,132.276,260.153Z" fill="#263238"/>
          <path id="Tracé_59" data-name="Tracé 59" d="M131.984,263.177l-3.553,2.054a.184.184,0,0,1-.259-.023.181.181,0,0,1-.041-.147v-2.505a.642.642,0,0,1,.3-.513l3.553-2.054a.182.182,0,0,1,.292.17v2.51A.655.655,0,0,1,131.984,263.177Z" fill="#37474f"/>
          <path id="Tracé_60" data-name="Tracé 60" d="M150.291,249.737v2.505a.643.643,0,0,1-.3.514l-3.552,2.053a.65.65,0,0,1-.586,0l-.2-.113a.658.658,0,0,1-.3-.513v-2.506a.642.642,0,0,1,.3-.513l3.548-2.054a.665.665,0,0,1,.59,0l.2.113A.661.661,0,0,1,150.291,249.737Z" fill="#263238"/>
          <path id="Tracé_61" data-name="Tracé 61" d="M149.993,252.781l-3.552,2.054a.183.183,0,0,1-.256-.03.18.18,0,0,1-.037-.14v-2.51a.657.657,0,0,1,.293-.514l3.552-2.053a.185.185,0,0,1,.3.169v2.511A.644.644,0,0,1,149.993,252.781Z" fill="#37474f"/>
          <path id="Tracé_62" data-name="Tracé 62" d="M149.249,251.5l-2.1,1.211h0v1.027l1.165.673V255.6a2.954,2.954,0,0,1-1.329,2.315l-13.348,7.7a1.423,1.423,0,0,1-.355.144,1.36,1.36,0,0,1-.051-.37V263.13l-.929-.539h0l-1.16-.667-2.09,1.2v1.027l1.171.672v2.054a1.348,1.348,0,0,0,.513,1.145c.185.133.893.513,1.027.616.775.462,2.192.251,3.825-.688l11.294-6.53c2.454-1.417,4.446-3.959,4.446-5.648v-3.08Z" fill="#263238"/>
          <path id="Tracé_63" data-name="Tracé 63" d="M131.136,267.48c0,1.709,1.987,1.945,4.446.513l11.295-6.53c2.454-1.417,4.446-3.959,4.446-5.648v-3.08l-2.053-1.212-2.1,1.212,2.1,1.212v2.243a2.944,2.944,0,0,1-1.329,2.31l-13.348,7.7c-.74.426-1.335.082-1.335-.77v-2.259l-2.1-1.206-2.089,1.2,2.1,1.212Z" fill="#37474f"/>
          <path id="Tracé_64" data-name="Tracé 64" d="M149.249,251.5l-2.095,1.217,2.1,1.206,2.069-1.212Z" fill="#455a64"/>
          <path id="Tracé_65" data-name="Tracé 65" d="M131.126,261.963l-2.089,1.2,2.1,1.212,2.084-1.206Z" fill="#455a64"/>
        </g>
        <path id="Tracé_66" data-name="Tracé 66" d="M103.9,256.01,61.136,231.263V255.3a3.717,3.717,0,0,0,1.448,2.726l33.627,19.293Z" opacity="0.15" style="mix-blend-mode: normal;isolation: isolate"/>
        <path id="Tracé_67" data-name="Tracé 67" d="M163.09,219.914l-41.1-23.724L62.8,230.377a1.015,1.015,0,0,0,0,1.925l41.1,23.724,59.194-34.177a1.024,1.024,0,0,0,0-1.935Z" opacity="0.15" style="mix-blend-mode: normal;isolation: isolate"/>
        <g id="freepik--suitcase--inject-42-2">
          <path id="Tracé_68" data-name="Tracé 68" d="M158.177,222,98.952,256.2a3.707,3.707,0,0,1-3.337,0L53.594,231.921a3.7,3.7,0,0,1-1.668-2.89V207a3.69,3.69,0,0,1,1.668-2.89l59.225-34.2a3.707,3.707,0,0,1,3.337,0l42.021,24.263a3.686,3.686,0,0,1,1.668,2.89v22.05A3.669,3.669,0,0,1,158.177,222Z" fill="#14a08c"/>
          <path id="Tracé_69" data-name="Tracé 69" d="M97.289,230.7v25.9a3.347,3.347,0,0,1-1.669-.4L53.594,231.917a3.687,3.687,0,0,1-1.663-2.89V207a3.709,3.709,0,0,1,1.36-2.674c-.606.513-.513,1.247.3,1.714L95.617,230.3A3.417,3.417,0,0,0,97.289,230.7Z" fill="#fff" opacity="0.45" style="mix-blend-mode: normal;isolation: isolate"/>
          <path id="Tracé_70" data-name="Tracé 70" d="M97.289,230.7v25.9a3.347,3.347,0,0,1-1.669-.4L53.594,231.917a3.687,3.687,0,0,1-1.663-2.89V207a3.709,3.709,0,0,1,1.36-2.674c-.606.513-.513,1.247.3,1.714L95.617,230.3A3.417,3.417,0,0,0,97.289,230.7Z" opacity="0.1" style="mix-blend-mode: normal;isolation: isolate"/>
          <path id="Tracé_71" data-name="Tracé 71" d="M159.85,197.063v22.05A3.684,3.684,0,0,1,158.182,222l-59.23,34.2a3.37,3.37,0,0,1-1.663.4V230.7a3.372,3.372,0,0,0,1.658-.4l59.23-34.192c.857-.513.913-1.278.174-1.817A3.708,3.708,0,0,1,159.85,197.063Z" fill="#fff" opacity="0.55" style="mix-blend-mode: normal;isolation: isolate"/>
          <path id="Tracé_72" data-name="Tracé 72" d="M53.589,204.112l59.23-34.2a3.7,3.7,0,0,1,3.332,0l42.026,24.263a1.017,1.017,0,0,1,0,1.925l-59.23,34.2a3.665,3.665,0,0,1-3.332,0L53.589,206.037a1.017,1.017,0,0,1,0-1.925Z" fill="#14a08c"/>
          <path id="Tracé_73" data-name="Tracé 73" d="M53.589,204.112l59.23-34.2a3.7,3.7,0,0,1,3.332,0l42.026,24.263a1.017,1.017,0,0,1,0,1.925l-59.23,34.2a3.665,3.665,0,0,1-3.332,0L53.589,206.037a1.017,1.017,0,0,1,0-1.925Z" fill="#fff" opacity="0.65" style="mix-blend-mode: normal;isolation: isolate"/>
          <path id="Tracé_74" data-name="Tracé 74" d="M57.722,205.734a.294.294,0,0,1-.129-.036l-1.052-.606,1.052-.61a.257.257,0,0,1,.257.446l-.282.164.282.16a.262.262,0,0,1,.093.354A.256.256,0,0,1,57.722,205.734Z" fill="#fff"/>
          <path id="Tracé_75" data-name="Tracé 75" d="M59.041,204.194a.256.256,0,0,1-.128-.477l1.319-.76a.257.257,0,0,1,.336.389.235.235,0,0,1-.036.026.25.25,0,0,1-.045.026l-1.319.765A.28.28,0,0,1,59.041,204.194Zm2.634-1.54a.257.257,0,0,1-.128-.478l1.319-.765a.258.258,0,1,1,.274.437l-.017.01-1.32.8a.216.216,0,0,1-.133,0Zm2.639-1.54a.257.257,0,0,1-.129-.478l1.32-.76a.257.257,0,0,1,.306.413.25.25,0,0,1-.05.029l-1.319.8a.282.282,0,0,1-.128.025Zm2.633-1.54a.257.257,0,0,1-.128-.478l1.319-.765a.258.258,0,0,1,.257.447l-1.319.8a.23.23,0,0,1-.129.046Zm2.639-1.541a.256.256,0,0,1-.128-.477l1.34-.7a.257.257,0,0,1,.312.408.212.212,0,0,1-.056.033l-1.319.765a.294.294,0,0,1-.149.031Zm2.634-1.54a.256.256,0,0,1-.128-.477l1.319-.765a.257.257,0,1,1,.257.446h0l-1.33.842a.216.216,0,0,1-.118.036Zm2.639-1.54a.258.258,0,0,1-.221-.128.262.262,0,0,1,.092-.355l1.32-.759a.251.251,0,0,1,.345.085h0v.007a.262.262,0,0,1-.093.354l-1.319.76a.308.308,0,0,1-.128.139Zm77.865-.806a.272.272,0,0,1-.128-.031l-1.319-.765a.257.257,0,1,1,.2-.473.239.239,0,0,1,.056.032l1.32.76a.256.256,0,0,1,.09.351h0A.259.259,0,0,1,152.724,194.147Zm-75.252-.616a.256.256,0,0,1-.128-.477l1.319-.76a.257.257,0,0,1,.257.441l-1.32.76a.223.223,0,0,1-.13.036Zm72.593-.8a.241.241,0,0,1-.128-.036l-1.32-.76a.251.251,0,0,1-.1-.34v-.009a.261.261,0,0,1,.349-.1l1.319.765a.256.256,0,0,1-.128.477Zm-69.954-.719a.256.256,0,0,1-.221-.128.261.261,0,0,1,.092-.354l1.32-.76a.252.252,0,0,1,.345.085h0v.006a.263.263,0,0,1-.093.355l-1.319.759a.293.293,0,0,1-.108.036Zm67.32-.806a.258.258,0,0,1-.128-.031l-1.319-.759a.263.263,0,0,1-.093-.355.253.253,0,0,1,.342-.1h.007l1.32.76a.257.257,0,0,1,.092.349.245.245,0,0,1-.2.128Zm-64.687-.718a.257.257,0,0,1-.128-.478l1.314-.76a.257.257,0,0,1,.336.389.236.236,0,0,1-.036.026.207.207,0,0,1-.045.027l-1.314.76a.251.251,0,0,1-.1.036Zm62.043-.8a.243.243,0,0,1-.128-.036l-1.319-.76a.253.253,0,0,1-.1-.342h0v-.006a.262.262,0,0,1,.349-.1l1.32.765a.257.257,0,0,1-.129.478Zm-59.409-.719a.258.258,0,0,1-.221-.128.263.263,0,0,1,.093-.355l1.319-.759a.251.251,0,0,1,.345.085h0v.007a.261.261,0,0,1-.092.354l-1.32.76a.262.262,0,0,1-.1.036Zm56.781-.8a.286.286,0,0,1-.128-.036l-1.32-.76a.261.261,0,0,1-.092-.354.251.251,0,0,1,.34-.1h.009l1.319.759a.263.263,0,0,1,.093.355.258.258,0,0,1-.221.13Zm-54.122-.724a.253.253,0,0,1-.22-.128.257.257,0,0,1,.092-.349l1.319-.74a.257.257,0,1,1,.327.4.189.189,0,0,1-.027.02.251.251,0,0,1-.045.026l-1.319.76a.22.22,0,0,1-.127.012Zm51.5-.8a.235.235,0,0,1-.129-.036l-1.319-.759a.257.257,0,0,1,.211-.468.3.3,0,0,1,.046.026l1.319.76a.256.256,0,0,1-.128.477Zm-48.865-.718a.259.259,0,0,1-.221-.129.262.262,0,0,1,.093-.354l1.3-.755a.252.252,0,0,1,.345.086v.007a.262.262,0,0,1-.093.354l-1.283.755a.244.244,0,0,1-.137.032Zm46.231-.8a.274.274,0,0,1-.128-.036l-1.294-.76a.262.262,0,0,1-.093-.354.253.253,0,0,1,.342-.1h.008l1.319.76a.261.261,0,0,1,.092.354.256.256,0,0,1-.246.129ZM93.311,184.4a.257.257,0,0,1-.128-.478l1.314-.76a.257.257,0,0,1,.3.416.25.25,0,0,1-.045.026l-1.315.76a.24.24,0,0,1-.128.036Zm40.953-.8a.24.24,0,0,1-.128-.036l-1.32-.76a.257.257,0,0,1,.257-.441l1.319.759a.257.257,0,0,1-.128.478Zm-38.314-.719a.256.256,0,0,1-.221-.128.262.262,0,0,1,.093-.354l1.319-.76a.25.25,0,0,1,.344.084v.008a.261.261,0,0,1-.092.354l-1.32.76a.228.228,0,0,1-.12.03Zm35.686-.8a.225.225,0,0,1-.129-.036l-1.319-.76a.257.257,0,0,1,.256-.446l1.32.76a.261.261,0,0,1,.092.354.254.254,0,0,1-.226.128Zm-33.052-.724a.256.256,0,0,1-.129-.477l1.32-.76a.257.257,0,0,1,.256.442l-1.319.765a.269.269,0,0,1-.134.03Zm30.408-.775a.244.244,0,0,1-.129-.036l-1.319-.76a.256.256,0,1,1,.211-.467.3.3,0,0,1,.046.026l1.319.76a.256.256,0,0,1-.128.477Zm-27.775-.719a.256.256,0,0,1-.128-.477l1.319-.765a.258.258,0,1,1,.274.437l-.017.01-1.319.759a.246.246,0,0,1-.129.011Zm25.156-.8a.232.232,0,0,1-.128-.036l-1.319-.76a.263.263,0,0,1-.093-.354.256.256,0,0,1,.349-.093l1.32.76a.261.261,0,0,1,.092.354.258.258,0,0,1-.236.108Zm-22.5-.724a.257.257,0,0,1-.128-.478l1.314-.76a.257.257,0,0,1,.3.416.251.251,0,0,1-.045.026l-1.314.765a.3.3,0,0,1-.144,0Zm19.848-.837a.24.24,0,0,1-.128-.036l-1.32-.76a.257.257,0,0,1,.2-.474l.014.006a.207.207,0,0,1,.045.027l1.319.759a.257.257,0,0,1-.128.478Zm-17.229-.719a.257.257,0,0,1-.129-.477l1.32-.765a.261.261,0,0,1,.349.1.252.252,0,0,1-.085.345h-.007l-1.32.76a.229.229,0,0,1-.128.046Zm14.616-.791a.231.231,0,0,1-.128-.035l-1.32-.76a.258.258,0,0,1,.24-.457l.017.01,1.319.76a.262.262,0,0,1,.093.354.254.254,0,0,1-.219.121Zm-11.962-.723a.259.259,0,0,1-.221-.129.256.256,0,0,1,.093-.349l1.319-.76a.257.257,0,0,1,.257.442l-1.32.765a.258.258,0,0,1-.149.031Zm9.323-.8a.3.3,0,0,1-.128-.031l-1.34-.765a.257.257,0,0,1,.257-.442l1.319.76a.257.257,0,0,1-.128.478Zm-6.674-.719a.257.257,0,0,1-.128-.478l1.319-.764a.257.257,0,1,1,.257.446h0l-1.32.76a.229.229,0,0,1-.159.036Zm4.051-.8a.218.218,0,0,1-.129-.036l-.97-.544h-.267a.272.272,0,0,1-.272-.252.242.242,0,0,1,.219-.261h.053a1.357,1.357,0,0,1,.513.082l.955.554a.257.257,0,0,1-.128.478Z" fill="#fff"/>
          <path id="Tracé_76" data-name="Tracé 76" d="M154.044,195.785a.257.257,0,0,1-.226-.129.25.25,0,0,1,.087-.343h.011l.277-.164-.277-.164a.256.256,0,0,1-.1-.348h0a.262.262,0,0,1,.354-.093l1.027.606-1.027.606A.241.241,0,0,1,154.044,195.785Z" fill="#fff"/>
          <path id="Tracé_77" data-name="Tracé 77" d="M97.278,228.39a1.323,1.323,0,0,1-.513-.087l-.955-.55a.257.257,0,1,1,.257-.446l.939.544a1.212,1.212,0,0,0,.262.026.267.267,0,0,1,.277.251.241.241,0,0,1-.218.262h-.049Zm1.4-.642a.256.256,0,0,1-.221-.128.262.262,0,0,1,.093-.354l1.319-.76a.258.258,0,1,1,.274.437l-.017.01-1.32.759a.234.234,0,0,1-.126.036Zm-4.051-.724a.286.286,0,0,1-.128-.03l-1.314-.765a.257.257,0,1,1,.188-.479l.023.011a.251.251,0,0,1,.045.026l1.315.76a.256.256,0,0,1,.09.351h0A.253.253,0,0,1,94.627,227.024Zm6.674-.8a.257.257,0,0,1-.128-.478l1.319-.76a.257.257,0,0,1,.336.389.236.236,0,0,1-.036.026.206.206,0,0,1-.045.027l-1.319.76a.224.224,0,0,1-.118.036Zm-9.318-.719a.232.232,0,0,1-.128-.036l-1.309-.739a.253.253,0,0,1-.1-.342h0v-.006a.262.262,0,0,1,.35-.1l1.319.765a.256.256,0,0,1-.128.477Zm11.967-.775a.257.257,0,0,1-.128-.478l1.32-.765a.258.258,0,0,1,.256.447l-1.319.76a.256.256,0,0,1-.127.036Zm-14.59-.724a.258.258,0,0,1-.128-.031l-1.32-.786a.256.256,0,1,1,.212-.467.251.251,0,0,1,.045.026l1.319.76a.252.252,0,0,1-.128.472Zm17.224-.817a.256.256,0,0,1-.128-.477l1.319-.76a.257.257,0,0,1,.3.415.241.241,0,0,1-.046.027l-1.3.754a.251.251,0,0,1-.146.041Zm-19.873-.729a.224.224,0,0,1-.128-.036l-1.31-.775a.251.251,0,0,1-.1-.34V221.3a.261.261,0,0,1,.349-.1l1.319.765a.256.256,0,0,1-.128.477Zm22.512-.811a.256.256,0,0,1-.128-.477l1.319-.765a.258.258,0,1,1,.274.437l-.017.01-1.32.795a.225.225,0,0,1-.126,0Zm-25.156-.724a.287.287,0,0,1-.128-.03l-1.315-.765a.257.257,0,0,1,.212-.468.251.251,0,0,1,.045.026l1.314.76a.256.256,0,0,1-.128.477Zm27.8-.79a.257.257,0,0,1-.128-.478l1.314-.759a.257.257,0,0,1,.3.415.251.251,0,0,1-.045.026l-1.32.77a.282.282,0,0,1-.118.026Zm-30.413-.719a.235.235,0,0,1-.129-.036l-1.319-.76a.251.251,0,0,1-.1-.34v-.009a.261.261,0,0,1,.349-.1l1.314.765a.256.256,0,0,1-.128.477Zm33.047-.8a.254.254,0,0,1-.254-.256v0a.253.253,0,0,1,.125-.218l1.32-.765a.257.257,0,0,1,.256.446l-1.324.75a.252.252,0,0,1-.129.046Zm-35.686-.724a.284.284,0,0,1-.128-.031l-1.315-.764a.257.257,0,0,1,.212-.468.251.251,0,0,1,.045.026l1.314.76a.257.257,0,0,1,.1.349.263.263,0,0,1-.231.128Zm38.319-.8a.256.256,0,0,1-.128-.477l1.319-.76a.257.257,0,0,1,.257.442l-1.319.765a.272.272,0,0,1-.134.03Zm-40.953-.718a.232.232,0,0,1-.128-.036l-1.319-.76a.252.252,0,0,1-.1-.34l0,0v-.006a.262.262,0,0,1,.349-.1l1.32.765a.257.257,0,0,1-.129.478Zm43.592-.8a.257.257,0,0,1-.128-.478l1.319-.765a.258.258,0,1,1,.274.437l-.017.01-1.32.76a.24.24,0,0,1-.133.036Zm-46.205-.724a.284.284,0,0,1-.128-.031l-1.315-.76a.267.267,0,0,1-.1-.354.261.261,0,0,1,.354-.092l1.314.759a.257.257,0,0,1-.128.478Zm48.87-.8a.256.256,0,0,1-.254-.258h0a.253.253,0,0,1,.125-.218l1.315-.76a.261.261,0,0,1,.354.092.265.265,0,0,1-.1.354l-1.314.76a.292.292,0,0,1-.159.031Zm-51.5-.719a.224.224,0,0,1-.128-.036l-1.319-.76a.256.256,0,0,1,.256-.441l1.32.76a.256.256,0,0,1-.129.477Zm54.137-.8a.256.256,0,0,1-.128-.477l1.319-.76a.257.257,0,0,1,.257.442l-1.319.759a.234.234,0,0,1-.159.036ZM68.3,211.813a.323.323,0,0,1-.129-.036l-1.314-.76a.258.258,0,1,1,.24-.457l.017.01,1.314.76a.257.257,0,0,1-.128.483Zm59.409-.8a.259.259,0,0,1-.221-.129.262.262,0,0,1,.093-.354l1.319-.76a.252.252,0,0,1,.345.086v.007a.261.261,0,0,1-.092.354l-1.371.76a.261.261,0,0,1-.108.036Zm-62.074-.724a.232.232,0,0,1-.128-.036l-1.32-.76a.257.257,0,0,1,.257-.441l1.319.759a.257.257,0,0,1-.128.478Zm64.687-.8a.257.257,0,0,1-.128-.478l1.319-.759a.257.257,0,0,1,.257.441l-1.32.76a.232.232,0,0,1-.133.036Zm-67.328-.726a.286.286,0,0,1-.128-.036l-1.309-.76a.265.265,0,0,1-.1-.354.261.261,0,0,1,.354-.092l1.31.78a.262.262,0,0,1,.1.354A.257.257,0,0,1,62.994,208.763Zm69.96-.8a.254.254,0,0,1-.226-.128.262.262,0,0,1,.1-.354l1.315-.76a.261.261,0,0,1,.354.092.267.267,0,0,1-.1.355l-1.314.759a.294.294,0,0,1-.129.036Zm-72.593-.724a.225.225,0,0,1-.129-.036l-1.319-.759A.257.257,0,0,1,59.17,206l1.319.76a.256.256,0,0,1-.128.477Zm75.227-.8a.257.257,0,0,1-.129-.478l1.32-.76a.257.257,0,0,1,.3.415.213.213,0,0,1-.046.027l-1.319.76a.24.24,0,0,1-.128.036Zm2.633-1.541a.256.256,0,0,1-.221-.128.262.262,0,0,1,.093-.354l1.319-.76a.262.262,0,0,1,.355.092.269.269,0,0,1-.1.355l-1.319.759a.269.269,0,0,1-.129.057Zm2.639-1.54a.256.256,0,0,1-.128-.477l1.319-.76a.257.257,0,0,1,.257.441l-1.32.76a.22.22,0,0,1-.128.072Zm2.639-1.54a.259.259,0,0,1-.226-.128.262.262,0,0,1,.1-.355l1.314-.759a.257.257,0,1,1,.256.446l-1.314.76a.245.245,0,0,1-.128.093Zm2.634-1.54A.257.257,0,0,1,146,199.8l1.32-.759a.257.257,0,0,1,.3.415.3.3,0,0,1-.046.026l-1.314.837a.28.28,0,0,1-.133.031Zm2.638-1.54a.262.262,0,0,1-.226-.129.251.251,0,0,1,.09-.344l.008-.005,1.314-.765a.258.258,0,1,1,.274.437l-.017.01-1.314.76a.241.241,0,0,1-.129.128Zm2.634-1.54a.257.257,0,0,1-.128-.478l1.319-.76a.257.257,0,0,1,.257.442l-1.32.765a.267.267,0,0,1-.133.138Z" fill="#fff"/>
          <path id="Tracé_78" data-name="Tracé 78" d="M51.926,216.515,96.4,242.185a1.763,1.763,0,0,0,1.771,0l61.683-35.6v2.408L98.17,244.6a1.763,1.763,0,0,1-1.771,0l-44.475-25.67Z" opacity="0.1" style="mix-blend-mode: normal;isolation: isolate"/>
          <path id="Tracé_79" data-name="Tracé 79" d="M89.37,226.686v-.072a20.291,20.291,0,0,1,15.854,0v.072l-6.259,3.593a3.362,3.362,0,0,1-1.658.4,3.419,3.419,0,0,1-1.673-.4l-6.243-3.593" fill="#14a08c"/>
          <path id="Tracé_80" data-name="Tracé 80" d="M158.177,194.188l-5.334-3.08c-3.81,2.223-3.8,5.811.041,8.024h.03l5.263-3.034C159.1,195.585,159.1,194.722,158.177,194.188Z" fill="#14a08c"/>
          <path id="Tracé_81" data-name="Tracé 81" d="M53.6,204.1l5.335-3.081c3.809,2.223,3.8,5.812-.042,8.025h-.03L53.6,206.011C52.685,205.5,52.685,204.636,53.6,204.1Z" fill="#14a08c"/>
          <path id="Tracé_82" data-name="Tracé 82" d="M121.962,173.273l-5.811-3.358a3.7,3.7,0,0,0-3.332,0l-5.73,3.311a6.027,6.027,0,0,0,.514.319,15.432,15.432,0,0,0,13.954,0A3.534,3.534,0,0,0,121.962,173.273Z" fill="#14a08c"/>
          <path id="Tracé_83" data-name="Tracé 83" d="M105.195,226.686c-.58,4.825-3.789,9.076-7.917,11.962V230.7a3.379,3.379,0,0,0,1.659-.4Z" fill="#14a08c"/>
          <path id="Tracé_84" data-name="Tracé 84" d="M158.177,196.108l-5.293,3.05c0,4.425,3.126,5.693,6.971,3.48v-5.575a3.676,3.676,0,0,0-1.668-2.885l-.375-.221h0l.375.216a1.024,1.024,0,0,1-.01,1.935Z" fill="#14a08c"/>
          <path id="Tracé_85" data-name="Tracé 85" d="M159.845,219.118v-6.2a15.419,15.419,0,0,0-6.961,12.075.421.421,0,0,0,0,.087l5.488-3.188A3.712,3.712,0,0,0,159.845,219.118Z" fill="#14a08c"/>
          <path id="Tracé_86" data-name="Tracé 86" d="M104.261,253.13c0-4.425-3.132-6.217-6.972-4h0V256.6a3.373,3.373,0,0,0,1.658-.4Z" fill="#14a08c"/>
          <g id="Groupe_3" data-name="Groupe 3" opacity="0.15">
            <path id="Tracé_87" data-name="Tracé 87" d="M105.195,226.686c-.58,4.825-3.789,9.076-7.917,11.962V230.7a3.379,3.379,0,0,0,1.659-.4Z"/>
            <path id="Tracé_88" data-name="Tracé 88" d="M158.177,196.108l-5.293,3.05c0,4.425,3.126,5.693,6.971,3.48v-5.575a3.676,3.676,0,0,0-1.668-2.885l-.375-.221h0l.375.216a1.024,1.024,0,0,1-.01,1.935Z"/>
            <path id="Tracé_89" data-name="Tracé 89" d="M159.845,219.118v-6.2a15.419,15.419,0,0,0-6.961,12.075.421.421,0,0,0,0,.087l5.488-3.188A3.712,3.712,0,0,0,159.845,219.118Z"/>
            <path id="Tracé_90" data-name="Tracé 90" d="M104.261,253.13c0-4.425-3.132-6.217-6.972-4h0V256.6a3.373,3.373,0,0,0,1.658-.4Z"/>
          </g>
          <path id="Tracé_91" data-name="Tracé 91" d="M97.289,230.7v7.948c-4.138-2.906-7.337-7.147-7.917-11.962l6.258,3.593A3.364,3.364,0,0,0,97.289,230.7Z" fill="#14a08c"/>
          <path id="Tracé_92" data-name="Tracé 92" d="M90.307,253.13l5.318,3.081a3.379,3.379,0,0,0,1.659.4v-7.48C93.443,246.913,90.307,248.705,90.307,253.13Z" fill="#14a08c"/>
          <path id="Tracé_93" data-name="Tracé 93" d="M52.126,223.035l-.2-.1v6.124a3.72,3.72,0,0,0,1.473,2.752l5.7,3.317h0A15.406,15.406,0,0,0,52.126,223.035Z" fill="#14a08c"/>
          <path id="Tracé_94" data-name="Tracé 94" d="M53.6,206.022l5.293,3.049c0,4.426-3.126,6.217-6.971,4v-6.094a3.692,3.692,0,0,1,1.689-2.88h0a1.017,1.017,0,0,0-.011,1.925Z" fill="#14a08c"/>
          <g id="Groupe_4" data-name="Groupe 4" opacity="0.3">
            <path id="Tracé_95" data-name="Tracé 95" d="M97.289,230.7v7.948c-4.138-2.906-7.337-7.147-7.917-11.962l6.258,3.593A3.364,3.364,0,0,0,97.289,230.7Z"/>
            <path id="Tracé_96" data-name="Tracé 96" d="M90.307,253.13l5.318,3.081a3.379,3.379,0,0,0,1.659.4v-7.48C93.443,246.913,90.307,248.705,90.307,253.13Z"/>
            <path id="Tracé_97" data-name="Tracé 97" d="M52.126,223.035l-.2-.1v6.124a3.72,3.72,0,0,0,1.473,2.752l5.7,3.317h0A15.406,15.406,0,0,0,52.126,223.035Z"/>
            <path id="Tracé_98" data-name="Tracé 98" d="M53.6,206.022l5.293,3.049c0,4.426-3.126,6.217-6.971,4v-6.094a3.692,3.692,0,0,1,1.689-2.88h0a1.017,1.017,0,0,0-.011,1.925Z"/>
          </g>
          <path id="Tracé_99" data-name="Tracé 99" d="M113.527,230.921l-3.28,1.894a.988.988,0,0,0-.447.771v6.2a.968.968,0,0,0,.447.77l.292.175a1.03,1.03,0,0,0,.894,0l3.28-1.9a.978.978,0,0,0,.442-.77v-6.2a.964.964,0,0,0-.442-.77l-.3-.175A1.027,1.027,0,0,0,113.527,230.921Z" fill="#14a08c"/>
          <path id="Tracé_100" data-name="Tracé 100" d="M113.527,230.921l-3.28,1.894a.988.988,0,0,0-.447.771v6.2a.968.968,0,0,0,.447.77l.292.175a1.03,1.03,0,0,0,.894,0l3.28-1.9a.978.978,0,0,0,.442-.77v-6.2a.964.964,0,0,0-.442-.77l-.3-.175A1.027,1.027,0,0,0,113.527,230.921Z" opacity="0.3" style="mix-blend-mode: normal;isolation: isolate"/>
          <path id="Tracé_101" data-name="Tracé 101" d="M111.356,240.773a.975.975,0,0,1-.786-.046l-.3-.17a.985.985,0,0,1-.446-.77v-6.2a.953.953,0,0,1,.138-.452l1.181.693a.9.9,0,0,0-.133.442v6.2C110.986,240.717,111.13,240.835,111.356,240.773Z" opacity="0.1" style="mix-blend-mode: normal;isolation: isolate"/>
          <path id="Tracé_102" data-name="Tracé 102" d="M110.986,234.274v6.2c0,.282.2.4.447.257l3.28-1.9a.978.978,0,0,0,.442-.77v-6.2c0-.288-.195-.4-.442-.257l-3.28,1.894A.972.972,0,0,0,110.986,234.274Z" fill="#14a08c"/>
          <path id="Tracé_103" data-name="Tracé 103" d="M110.986,234.274v6.2c0,.282.2.4.447.257l3.28-1.9a.978.978,0,0,0,.442-.77v-6.2c0-.288-.195-.4-.442-.257l-3.28,1.894A.972.972,0,0,0,110.986,234.274Z" opacity="0.2" style="mix-blend-mode: normal;isolation: isolate"/>
          <path id="Tracé_104" data-name="Tracé 104" d="M146.892,211.654l-3.28,1.894a.986.986,0,0,0-.447.77v6.2a.986.986,0,0,0,.447.77l.3.169a.967.967,0,0,0,.888,0l3.28-1.894a.986.986,0,0,0,.447-.77v-6.2a.979.979,0,0,0-.447-.77l-.3-.174A1.028,1.028,0,0,0,146.892,211.654Z" fill="#14a08c"/>
          <path id="Tracé_105" data-name="Tracé 105" d="M146.892,211.654l-3.28,1.894a.986.986,0,0,0-.447.77v6.2a.986.986,0,0,0,.447.77l.3.169a.967.967,0,0,0,.888,0l3.28-1.894a.986.986,0,0,0,.447-.77v-6.2a.979.979,0,0,0-.447-.77l-.3-.174A1.028,1.028,0,0,0,146.892,211.654Z" opacity="0.3" style="mix-blend-mode: normal;isolation: isolate"/>
          <path id="Tracé_106" data-name="Tracé 106" d="M144.7,221.506a.968.968,0,0,1-.785-.047l-.3-.169a.98.98,0,0,1-.442-.77v-6.2a.84.84,0,0,1,.129-.441l1.186.683h0a.872.872,0,0,0-.129.436v6.2C144.356,221.449,144.5,221.563,144.7,221.506Z" opacity="0.1" style="mix-blend-mode: normal;isolation: isolate"/>
          <path id="Tracé_107" data-name="Tracé 107" d="M144.351,215.006v6.2c0,.282.2.4.447.256l3.28-1.894a.986.986,0,0,0,.447-.77v-6.2c0-.282-.2-.4-.447-.256l-3.28,1.894A.979.979,0,0,0,144.351,215.006Z" fill="#14a08c"/>
          <path id="Tracé_108" data-name="Tracé 108" d="M144.351,215.006v6.2c0,.282.2.4.447.256l3.28-1.894a.986.986,0,0,0,.447-.77v-6.2c0-.282-.2-.4-.447-.256l-3.28,1.894A.979.979,0,0,0,144.351,215.006Z" opacity="0.2" style="mix-blend-mode: normal;isolation: isolate"/>
          <path id="Tracé_109" data-name="Tracé 109" d="M123.07,233.878v2.506a.638.638,0,0,1-.293.513l-3.552,2.053a.661.661,0,0,1-.591,0l-.2-.112a.642.642,0,0,1-.292-.514v-2.51a.656.656,0,0,1,.292-.514l3.553-2.053a.659.659,0,0,1,.59,0l.2.113A.648.648,0,0,1,123.07,233.878Z" fill="#263238"/>
          <path id="Tracé_110" data-name="Tracé 110" d="M122.77,236.923l-3.552,2.053a.181.181,0,0,1-.293-.169V236.3a.638.638,0,0,1,.293-.513l3.552-2.054c.165-.092.293,0,.293.175v2.5A.637.637,0,0,1,122.77,236.923Z" fill="#37474f"/>
          <path id="Tracé_111" data-name="Tracé 111" d="M141.081,223.482v2.505a.671.671,0,0,1-.293.514l-3.553,2.053a.659.659,0,0,1-.59,0l-.2-.113a.644.644,0,0,1-.293-.513v-2.51a.646.646,0,0,1,.293-.514L140,222.851a.619.619,0,0,1,.585,0l.2.113A.647.647,0,0,1,141.081,223.482Z" fill="#263238"/>
          <path id="Tracé_112" data-name="Tracé 112" d="M140.788,226.532l-3.552,2.053a.184.184,0,0,1-.3-.169V225.91a.651.651,0,0,1,.292-.513l3.553-2.054a.181.181,0,0,1,.255.026.178.178,0,0,1,.038.144v2.505A.669.669,0,0,1,140.788,226.532Z" fill="#37474f"/>
          <path id="Tracé_113" data-name="Tracé 113" d="M140.044,225.243l-2.1,1.212,1.171.677h0l-1.166-.672v1.027l1.166.672v1.191a2.958,2.958,0,0,1-1.335,2.31l-13.348,7.7a1.423,1.423,0,0,1-.355.144,1.359,1.359,0,0,1-.051-.37v-2.259l-.929-.539h0l-1.155-.667-2.09,1.2V237.9l1.166.673v2.053a1.332,1.332,0,0,0,.513,1.145c.18.139.888.513,1.027.616.775.467,2.2.257,3.824-.688l11.295-6.53c2.459-1.417,4.446-3.953,4.446-5.647v-3.081Z" fill="#14a08c"/>
          <path id="Tracé_114" data-name="Tracé 114" d="M140.044,225.243l-2.1,1.212,1.171.677h0l-1.166-.672v1.027l1.166.672v1.191a2.958,2.958,0,0,1-1.335,2.31l-13.348,7.7a1.423,1.423,0,0,1-.355.144,1.359,1.359,0,0,1-.051-.37v-2.259l-.929-.539h0l-1.155-.667-2.09,1.2V237.9l1.166.673v2.053a1.332,1.332,0,0,0,.513,1.145c.18.139.888.513,1.027.616.775.467,2.2.257,3.824-.688l11.295-6.53c2.459-1.417,4.446-3.953,4.446-5.647v-3.081Z" opacity="0.4" style="mix-blend-mode: normal;isolation: isolate"/>
          <path id="Tracé_115" data-name="Tracé 115" d="M121.926,241.225c0,1.709,1.992,1.951,4.446.513l11.3-6.53c2.454-1.417,4.446-3.953,4.446-5.647V226.48l-2.054-1.211-2.1,1.211,2.1,1.217v2.244a2.947,2.947,0,0,1-1.335,2.31l-13.348,7.7c-.734.426-1.335.082-1.335-.765v-2.259l-2.089-1.212-2.09,1.2,2.1,1.212Z" fill="#14a08c"/>
          <path id="Tracé_116" data-name="Tracé 116" d="M121.926,241.225c0,1.709,1.992,1.951,4.446.513l11.3-6.53c2.454-1.417,4.446-3.953,4.446-5.647V226.48l-2.054-1.211-2.1,1.211,2.1,1.217v2.244a2.947,2.947,0,0,1-1.335,2.31l-13.348,7.7c-.734.426-1.335.082-1.335-.765v-2.259l-2.089-1.212-2.09,1.2,2.1,1.212Z" opacity="0.2" style="mix-blend-mode: normal;isolation: isolate"/>
          <path id="Tracé_117" data-name="Tracé 117" d="M140.044,225.243l-2.1,1.217,2.1,1.212,2.069-1.217Z" fill="#14a08c"/>
          <path id="Tracé_118" data-name="Tracé 118" d="M140.044,225.243l-2.1,1.217,2.1,1.212,2.069-1.217Z" opacity="0.3" style="mix-blend-mode: normal;isolation: isolate"/>
          <path id="Tracé_119" data-name="Tracé 119" d="M121.921,235.711l-2.09,1.2,2.1,1.212,2.084-1.2Z" fill="#14a08c"/>
          <path id="Tracé_120" data-name="Tracé 120" d="M121.921,235.711l-2.09,1.2,2.1,1.212,2.084-1.2Z" opacity="0.3" style="mix-blend-mode: normal;isolation: isolate"/>
        </g>
      </g>
    </g>
    <g id="freepik--character-2--inject-42">
      <g id="freepik--Character--inject-42">
        <path id="Tracé_121" data-name="Tracé 121" d="M241.587,144.189c-2.608-.272-6.2.036-8.307,3.625-.682,1.165-4.2,8.666-6.8,15.114-2.6-5.324-4.78-9.842-5.077-10.674-.791-2.223-.652-3.655-1.458-5.95a18.214,18.214,0,0,1-.981-3.9c-.154-.9-.991-.334-1.3,0a4.1,4.1,0,0,0-.97,2.176c-.088.714-.072,1.6-.7,1.936a1.725,1.725,0,0,1-1.668-.329,33.648,33.648,0,0,1-5.345-4.02,3.367,3.367,0,0,0-.9-.662.934.934,0,0,0-1.371,1.078,2.97,2.97,0,0,0,.442,1.027,1.94,1.94,0,0,0-1.027,1.54c-.062.457.031.894-.041,1.34a3.876,3.876,0,0,0,0,1.54,4.073,4.073,0,0,0,1.15,1.751,20.2,20.2,0,0,0,3.419,2.829q1.227.8,2.423,1.638a8.41,8.41,0,0,1,2.115,1.7,19.933,19.933,0,0,1,2.131,4.451c.955,2.341,2.351,8.836,5.319,13.667,1.7,2.782,4.327,3.937,6.674.985a32.813,32.813,0,0,0,3.429-5.385c3.373-6.751,5.735-12.419,5.735-12.419S242.886,150.288,241.587,144.189Z" fill="#aa4b0b"/>
        <path id="Tracé_122" data-name="Tracé 122" d="M226.478,162.928a11.144,11.144,0,0,1,1.412,6.042,8.019,8.019,0,0,0-1.027-7Z" fill="#263238" opacity="0.2" style="mix-blend-mode: normal;isolation: isolate"/>
        <path id="Tracé_123" data-name="Tracé 123" d="M242.141,144.163c-2.756-.272-6-.908-8.861,3.2s-6.073,12.9-6.073,12.9,2.254,7.075,9.724,7.521Z" fill="#ebebeb"/>
        <g id="freepik--Backpack--inject-42">
          <path id="Tracé_124" data-name="Tracé 124" d="M279.619,165.633c-.688.96-2.29-.19-5.134-1.54s-.678-14.375-.678-14.375,4.693.385,5.2,4.826S279.619,165.633,279.619,165.633Z" fill="#14a08c"/>
          <path id="Tracé_125" data-name="Tracé 125" d="M279.619,165.633c-.688.96-2.29-.19-5.134-1.54s-.678-14.375-.678-14.375,4.693.385,5.2,4.826S279.619,165.633,279.619,165.633Z" opacity="0.25" style="mix-blend-mode: normal;isolation: isolate"/>
          <path id="Tracé_126" data-name="Tracé 126" d="M256.978,140.832c-2.762-.257-9.123,2.464-10.267,4.543-1.191,2.182-7.188,32.492-5.068,35.537,2.685,3.814,16.706,11.962,23.1,12.254,5.272.237,10.653-4.209,11.561-5.554,1.494-2.208,2.265-33.817.8-36.6C274.731,146.51,260.5,141.163,256.978,140.832Z" fill="#fe703a"/>
          <path id="Tracé_127" data-name="Tracé 127" d="M256.978,140.832c-2.762-.257-9.123,2.464-10.267,4.543-1.191,2.182-7.188,32.492-5.068,35.537,2.685,3.814,16.706,11.962,23.1,12.254,5.272.237,10.653-4.209,11.561-5.554,1.494-2.208,2.265-33.817.8-36.6C274.731,146.51,260.5,141.163,256.978,140.832Z" fill="#fff" opacity="0.1" style="mix-blend-mode: normal;isolation: isolate"/>
          <path id="Tracé_128" data-name="Tracé 128" d="M256.978,140.832c-2.762-.257-9.123,2.464-10.267,4.543-1.191,2.182-7.188,32.492-5.068,35.537,2.685,3.814,16.706,11.962,23.1,12.254,5.272.237,10.653-4.209,11.561-5.554,1.494-2.208,2.265-33.817.8-36.6C274.731,146.51,260.5,141.163,256.978,140.832Z" opacity="0.2" style="mix-blend-mode: normal;isolation: isolate"/>
          <path id="Tracé_129" data-name="Tracé 129" d="M277.87,167.132c0-1.324.026-2.633.026-3.9v-1.5c0-.986,0-1.931-.041-2.829,0-.452,0-.888-.036-1.314,0-.637-.041-1.238-.072-1.807s-.062-1.094-.1-1.582c0-.159-.025-.318-.036-.472a9.424,9.424,0,0,0-.513-2.721c-.067-.123-.144-.257-.231-.385l-.087-.128-.2-.267-.124-.154-.215-.252-.139-.154c-.113-.123-.231-.241-.354-.364l-.247-.237-.169-.154-.287-.256-.149-.123-.334-.283c-2.567.842-4.99,1.648-5.062,1.689a6,6,0,0,0-2.978,5.283l-1.15,15.643-.118,1.489c-.123,2.053-3.378,21.049,2.567,20.422h.236a18.079,18.079,0,0,0,8.276-5.133,3.328,3.328,0,0,0,.339-1.027q.062-.3.123-.678c.021-.123.041-.252.062-.385.061-.406.118-.862.174-1.36a4.435,4.435,0,0,1,.057-.514c.272-2.623.513-6.258.636-10.16.026-.78.052-1.571.077-2.367,0-.513.026-1.067.041-1.6v-.789Z" fill="#fe703a"/>
          <path id="Tracé_130" data-name="Tracé 130" d="M277.5,152.794a6.122,6.122,0,0,0-.391-1.782c-2.377-4.5-16.608-9.847-20.13-10.18-2.762-.257-9.123,2.464-10.267,4.543a17.03,17.03,0,0,0-.837,2.767c5.3,3.358,19.088,10.971,20.6,10.55,1.853-.513,10.848-5.647,11.022-5.893Z" opacity="0.4" style="mix-blend-mode: normal;isolation: isolate"/>
          <path id="Tracé_131" data-name="Tracé 131" d="M278.546,173.432c-.159-.1-2.454-2.09-2.726-2.254-.478-.288-8.019,4.061-8.728,4.836-.513.544-.421,9.482-.185,10.134.088.237,2.639,2.018,2.721,2.254.242.652,8.189-3.748,8.728-4.908S279.234,173.853,278.546,173.432Z" fill="#fe703a"/>
          <path id="Tracé_132" data-name="Tracé 132" d="M278.535,173.432c-.159-.1-2.454-2.09-2.726-2.254-.477-.288-8.019,4.061-8.727,4.836-.514.544-.421,9.482-.185,10.134.087.237,2.639,2.018,2.721,2.254.241.652,8.188-3.748,8.727-4.908S279.223,173.853,278.535,173.432Z" opacity="0.18" style="mix-blend-mode: normal;isolation: isolate"/>
          <path id="Tracé_133" data-name="Tracé 133" d="M269.8,178.268c-.514.539-.426,9.477-.19,10.134s8.188-3.748,8.728-4.908.888-9.641.184-10.062C278.07,173.144,270.506,177.5,269.8,178.268Z" fill="#fe703a"/>
          <path id="Tracé_134" data-name="Tracé 134" d="M275.825,171.178c.267.159,2.567,2.156,2.716,2.249-.473-.283-8.014,4.066-8.728,4.841l-2.726-2.254C267.8,175.234,275.342,170.89,275.825,171.178Z" opacity="0.4" style="mix-blend-mode: normal;isolation: isolate"/>
          <path id="Tracé_135" data-name="Tracé 135" d="M269.8,178.268c-.514.539-.426,9.477-.19,10.134s8.188-3.748,8.728-4.908.888-9.641.184-10.062C278.07,173.144,270.506,177.5,269.8,178.268Z" opacity="0.3" style="mix-blend-mode: normal;isolation: isolate"/>
          <path id="Tracé_136" data-name="Tracé 136" d="M267.077,176.014c.559-.308,2.1.657,2.752,1.3s1.2,3.486,2.952,4.051,4.44-1.612,5.077-3.081,1.484-4.62.7-5.8a2.948,2.948,0,0,0-3.563-1.325C273.684,171.753,267.328,174.638,267.077,176.014Z" fill="#fe703a"/>
          <path id="Tracé_137" data-name="Tracé 137" d="M267.119,176.014c.559-.308,2.1.657,2.752,1.3s1.2,3.486,2.952,4.051,4.44-1.612,5.077-3.081,1.484-4.62.7-5.8a2.948,2.948,0,0,0-3.563-1.325C273.726,171.753,267.37,174.638,267.119,176.014Z" opacity="0.1" style="mix-blend-mode: normal;isolation: isolate"/>
          <path id="Tracé_138" data-name="Tracé 138" d="M275.024,177.816a1.333,1.333,0,0,0-.7,1.186.513.513,0,0,0,.78.513,1.307,1.307,0,0,0,.709-1.186.528.528,0,0,0-.789-.513Z" fill="#37474f"/>
          <path id="Tracé_139" data-name="Tracé 139" d="M266.276,158.708a11.572,11.572,0,0,1,5.878-5.868c4.636-2.275,4.708-1.443,5.956,1.145,1.124,2.33,1.026,10.719,1.052,11.52s.97.724,1.181-4.4-.159-10.057-4.713-13.42c-6.13-4.533-15.874-7.89-20.623-7.187s-9.118,2.741-9.128,7.649C245.864,148.142,251.377,156.675,266.276,158.708Z" fill="#fe703a"/>
          <path id="Tracé_140" data-name="Tracé 140" d="M266.276,158.708a11.572,11.572,0,0,1,5.878-5.868c4.636-2.275,4.708-1.443,5.956,1.145,1.124,2.33,1.026,10.719,1.052,11.52s.97.724,1.181-4.4-.159-10.057-4.713-13.42c-6.13-4.533-15.874-7.89-20.623-7.187s-9.118,2.741-9.128,7.649C245.864,148.142,251.377,156.675,266.276,158.708Z" opacity="0.1" style="mix-blend-mode: normal;isolation: isolate"/>
          <path id="Tracé_141" data-name="Tracé 141" d="M253.754,146.694s-1.807.914-1.971,2.023-.888,3.758-.478,4.518,1.813.945,2.028.442.606-3.7.96-4.508a6.245,6.245,0,0,1,1.756-1.781Z" fill="#14a08c"/>
          <path id="Tracé_142" data-name="Tracé 142" d="M264.27,149.863s-1.787.786-1.951,1.894-.9,3.646-.514,4.41,1.813.945,2.028.442.606-3.7.96-4.508a4.839,4.839,0,0,1,1.772-1.581Z" fill="#14a08c"/>
          <g id="Groupe_5" data-name="Groupe 5" opacity="0.3">
            <path id="Tracé_143" data-name="Tracé 143" d="M253.754,146.694s-1.807.914-1.971,2.023-.888,3.758-.478,4.518,1.813.945,2.028.442.606-3.7.96-4.508a6.245,6.245,0,0,1,1.756-1.781Z" fill="#fff"/>
            <path id="Tracé_144" data-name="Tracé 144" d="M264.27,149.863s-1.787.786-1.951,1.894-.9,3.646-.514,4.41,1.813.945,2.028.442.606-3.7.96-4.508a4.839,4.839,0,0,1,1.772-1.581Z" fill="#fff"/>
          </g>
          <path id="Tracé_145" data-name="Tracé 145" d="M252.127,131.206h0a3.587,3.587,0,0,0-3.45,1.057,11.216,11.216,0,0,0-3.234,9.616c.333,1.663,1.18,2.68,2.258,2.962h0l27.831,8.409,4.621-13.563-7.809-1.207-2.875-.944-9.672-3.081-1.33-.482Z" fill="#455a64"/>
          <ellipse id="Ellipse_5" data-name="Ellipse 5" cx="7.174" cy="4.144" rx="7.174" ry="4.144" transform="translate(271.574 151.919) rotate(-71.402)" fill="#37474f"/>
          <path id="Tracé_146" data-name="Tracé 146" d="M259,134.193s-5.853,3.414-5.242,12.481l2.3.693s-.678-8.728,5.745-12.249Z" fill="#fe703a"/>
          <path id="Tracé_147" data-name="Tracé 147" d="M269.479,137.546s-5.862,3.224-5.252,12.285l2.3.7s-.6-8.522,5.827-12.039Z" fill="#fe703a"/>
          <g id="Groupe_6" data-name="Groupe 6" opacity="0.15">
            <path id="Tracé_148" data-name="Tracé 148" d="M254.442,140.5a16.406,16.406,0,0,0-.688,6.161l2.3.693a17.251,17.251,0,0,1,.806-6.007Z"/>
            <path id="Tracé_149" data-name="Tracé 149" d="M264.751,144.189a16.493,16.493,0,0,0-.513,5.647l2.3.7a16.655,16.655,0,0,1,.718-5.447Z"/>
          </g>
          <path id="Tracé_150" data-name="Tracé 150" d="M280.3,143.819c-.935-.6-1.926.211-2.388,1.027a4.4,4.4,0,0,0-.457,2.233,1.7,1.7,0,0,0,.19.94c.165.241.452.359.663.108.087-.1,0-.4-.154-.365s-.1.077-.139.026a.742.742,0,0,1-.026-.3,4.427,4.427,0,0,1,.108-.888,3.935,3.935,0,0,1,.406-1.309,2.56,2.56,0,0,1,.826-.919c.3-.18.75-.252.858.164a4.406,4.406,0,0,1-.426,2.182,7.76,7.76,0,0,1-1.315,2.567c-.338.411-1.288,1.309-1.894.95s-.544-1.5-.549-2.054a7.592,7.592,0,0,1,.457-2.567,7.937,7.937,0,0,1,1.381-2.644,2.214,2.214,0,0,1,.96-.641c.3-.1.99-.324,1.109.1.03.1.236.3.333.154.344-.513-.169-.975-.683-1.1a2.723,2.723,0,0,0-2.31.564,7.128,7.128,0,0,0-1.858,3.137,8.272,8.272,0,0,0-.514,3.63c.082.96.4,2.171,1.479,2.413a3.245,3.245,0,0,0,3.039-1.494,8.877,8.877,0,0,0,1.372-3.552C280.943,145.426,281.07,144.307,280.3,143.819Z" fill="#263238"/>
        </g>
        <g id="freepik--Botom--inject-42">
          <path id="Tracé_151" data-name="Tracé 151" d="M260.546,264.23a6.469,6.469,0,0,1-5.76,0L253.729,252.9l7.244-.78Z" fill="#aa4b0b"/>
          <path id="Tracé_152" data-name="Tracé 152" d="M239.641,257.463c-1.473,3.193-4.138,2.31-7.141.267l.513-11.387h7.239Z" fill="#aa4b0b"/>
          <path id="Tracé_153" data-name="Tracé 153" d="M247.789,274.949a2.633,2.633,0,0,0,.077,1.751,5.586,5.586,0,0,0,3.9,1.643,9.51,9.51,0,0,0,5.6-.986,3.9,3.9,0,0,0,2.09-3.055c.123-1.283,0-2.525.6-3.516.565-.914,1.463-1.941,1.664-2.439a4.949,4.949,0,0,0,0-2.618Z" fill="#263238"/>
          <path id="Tracé_154" data-name="Tracé 154" d="M253.98,263.747a6.088,6.088,0,0,1-.277,1.427A13.121,13.121,0,0,1,252.322,268a12.462,12.462,0,0,1-.94,1.33c-.682.811-1.54,1.478-2.253,2.254a4.613,4.613,0,0,0-1.4,2.772c-.092,1.771,1.828,2.372,3.306,2.634a10.857,10.857,0,0,0,4.806-.242,4.423,4.423,0,0,0,3.239-3.527c.077-.513.052-.99.108-1.488a6.937,6.937,0,0,1,1.376-3.081,9.254,9.254,0,0,0,1.058-1.684,5.326,5.326,0,0,0-.206-3.419c-.257-.945-.452-2-.78-1.915v.57c-.113.2-.344.308-.411.549a4.2,4.2,0,0,1-.272.729,1.909,1.909,0,0,1-.785.863c0-.668-.042-1.335-.067-2a.936.936,0,0,0-.154-.591.915.915,0,0,0-.565-.241,12.393,12.393,0,0,0-3.794-.334.667.667,0,0,0-.513.221.72.72,0,0,0-.088.452A17.558,17.558,0,0,1,253.98,263.747Z" fill="#455a64"/>
          <path id="Tracé_155" data-name="Tracé 155" d="M252.081,268.368a4.8,4.8,0,0,1,2.947-.411,4.881,4.881,0,0,1,2.294.806.514.514,0,0,0,.673-.056h0a.514.514,0,0,0-.019-.726l-.027-.024a5,5,0,0,0-2.567-.96,5.169,5.169,0,0,0-2.567.2S251.886,267.772,252.081,268.368Z" fill="#f5f5f5"/>
          <path id="Tracé_156" data-name="Tracé 156" d="M250.57,270.17a6.386,6.386,0,0,1,3.26-.329,4.622,4.622,0,0,1,2.233.847.515.515,0,0,0,.678-.051h0a.512.512,0,0,0-.017-.725h0l-.033-.029a5.143,5.143,0,0,0-2.639-1.027c-1.987-.138-2.5.267-2.5.267A1.645,1.645,0,0,0,250.57,270.17Z" fill="#f5f5f5"/>
          <path id="Tracé_157" data-name="Tracé 157" d="M256.157,265.087a4.878,4.878,0,0,0-2.5.211c-.349.2-.58.749-.354.888a4.531,4.531,0,0,1,2.212-.3,6.466,6.466,0,0,1,2.151.59,5.938,5.938,0,0,1,.545.278.472.472,0,0,0,.643-.18h0l.014-.026h0a.438.438,0,0,0-.175-.565A6.3,6.3,0,0,0,256.157,265.087Z" fill="#f5f5f5"/>
          <path id="Tracé_158" data-name="Tracé 158" d="M220.641,264.743a2.143,2.143,0,0,0,.092,1.576c.216.457,2.624,1.818,5.873,1.6a13.526,13.526,0,0,0,6.715-2.346,7.746,7.746,0,0,1,4.133-1.068c1.607-.093,3.722-.893,4.076-1.643a3.558,3.558,0,0,0-.056-2.054Z" fill="#263238"/>
          <path id="Tracé_159" data-name="Tracé 159" d="M233.691,254.758l-.842-.313a.679.679,0,0,0-.477-.052c-.211.077-.293.324-.344.514a7.88,7.88,0,0,1-.355,1.411,3.581,3.581,0,0,1-.913.96,15.179,15.179,0,0,1-2.6,1.674c-1.063.57-2.1,1.027-3.193,1.5a25,25,0,0,0-3.476,1.4,2.346,2.346,0,0,0,0,3.866,11.426,11.426,0,0,0,8,.554c1.884-.513,3.973-2.567,6.448-2.741,1.571-.124,4.543-.565,5.555-1.756.369-.513-.129-2.208-.514-3.655-.446-1.582-.616-4.056-1.139-3.918-.036.514-.514.832-.77,1.274a9.168,9.168,0,0,0-.56,1.257,2.3,2.3,0,0,1-.822,1.079,1.028,1.028,0,0,1-1.273-.072c-.462-.478-.19-1.315-.513-1.89a1.965,1.965,0,0,0-1.1-.723Z" fill="#455a64"/>
          <path id="Tracé_160" data-name="Tracé 160" d="M229.63,258.1a1.456,1.456,0,0,1,1.16-.775,4.278,4.278,0,0,1,2.762,1.026.586.586,0,0,1,.094.823.612.612,0,0,1-.176.148h0a.591.591,0,0,1-.672-.077A4.485,4.485,0,0,0,229.63,258.1Z" fill="#f5f5f5"/>
          <path id="Tracé_161" data-name="Tracé 161" d="M227.412,259.363a1.672,1.672,0,0,1,1.376-.709,5.259,5.259,0,0,1,3.024,1.13.58.58,0,0,1,.067.817.543.543,0,0,1-.144.122h0a.57.57,0,0,1-.647-.077A4.508,4.508,0,0,0,227.412,259.363Z" fill="#f5f5f5"/>
          <path id="Tracé_162" data-name="Tracé 162" d="M224.97,260.477a1.892,1.892,0,0,1,1.427-.642,5.032,5.032,0,0,1,2.9,1.145.567.567,0,0,1-.082.932h0a.55.55,0,0,1-.642-.071A4.277,4.277,0,0,0,224.97,260.477Z" fill="#f5f5f5"/>
          <path id="Tracé_163" data-name="Tracé 163" d="M260.341,181.574c.411,12.393.852,39.726.852,39.726.134,1.54.591,5.252.7,10.807.169,8.055-1,25.793-1,25.793a8.692,8.692,0,0,1-6.88.339s-3.824-25.454-5.051-33.371c-1.079-6.982-3.2-20.125-3.2-20.125l-1.674,16.875a55.382,55.382,0,0,1-.58,10.212c-.564,3.65-3.249,19.509-3.249,19.509a14.593,14.593,0,0,1-7.768-.175s.067-26.008,0-29.392c-.072-3.86.3-43.484.3-43.484Z" fill="#37474f"/>
          <path id="Tracé_164" data-name="Tracé 164" d="M245.77,204.707l-1.833-10.154s-5.082-.447-7.89-3.281c0,0,.513,2.777,6.889,4.446l1.834,10.268-.072,9.5Z" fill="#263238"/>
        </g>
        <path id="Tracé_165" data-name="Tracé 165" d="M232.8,153.04c.559-4.046,3.08-8.635,9.338-8.882l8.1.385c1.992.514,7.418,1.843,9.5,2.567l.39,16.429s.514,12.66.339,19.437c-5.8,3.67-19.919,4.4-27.841-1.607C232.387,175.778,232.248,157.05,232.8,153.04Z" fill="#fe703a"/>
        <path id="Tracé_166" data-name="Tracé 166" d="M232.959,153.04c.559-4.046,3.08-8.635,9.338-8.882l8.1.385c1.992.514,7.418,1.843,9.5,2.567l.39,16.429s.514,12.66.339,19.437c-5.8,3.67-19.919,4.4-27.841-1.607C232.543,175.778,232.4,157.05,232.959,153.04Z" fill="#fff" opacity="0.4" style="mix-blend-mode: normal;isolation: isolate"/>
        <path id="Tracé_167" data-name="Tracé 167" d="M233.285,126.708a8.148,8.148,0,0,1,8.41-7.878A22.147,22.147,0,0,1,253,122c3,3,2.982,7.09,1.6,10.268a66.159,66.159,0,0,1-1.976,6.777,2.651,2.651,0,0,1-1.576,1.191l.19-3.558-14.781-1.324,1.484-1.027A8.152,8.152,0,0,1,233.285,126.708Z" fill="#263238"/>
        <path id="Tracé_168" data-name="Tracé 168" d="M251.511,132.443c.462.3,1.165-.585,1.766-1.176a2.051,2.051,0,0,1,3.414.668c.883,2.027-.991,4.692-2.505,5.133-2.6.729-2.937-.939-2.937-.939l-.513,9.292c-2.3,2.408-9.878,1.571-8.374-.513l.1-2.829a16.4,16.4,0,0,1-3.481.067c-1.884-.354-3.029-1.889-3.537-3.964-.817-3.321-1.084-6-.088-12.449,1.089-7.075,9.354-6.885,13.723-3.928S251.511,132.443,251.511,132.443Z" fill="#aa4b0b"/>
        <path id="Tracé_169" data-name="Tracé 169" d="M250,121a9.475,9.475,0,0,1,3.332,3.294c.057.565.118,1.13.165,1.7a14.731,14.731,0,0,1,0,4.723,1.094,1.094,0,0,1-.19.513,2.416,2.416,0,0,0-.391.514c-.169.3-.338.6-.513.908-.226.406-.585.873-1.109.811-.292-.036-.441-.446-.513-.682-.709-2.644-.683-5.458-1.571-8.045a.432.432,0,0,0-.113-.206.462.462,0,0,0-.36-.041c-1.35.211-2.7.432-4.055.6-3.081.364-6.382.385-9.062-1.165-1.026-.606-.458.385-.62-.924-.032-.5,2.845-4.242,8-4C245.429,119.114,249,120,250,121Z" fill="#263238"/>
        <path id="Tracé_170" data-name="Tracé 170" d="M242.5,142.074a32.38,32.38,0,0,0,5.76-1.453,4.9,4.9,0,0,0,2.114-1.958,6.679,6.679,0,0,1-1.242,2.346c-1.125,1.35-6.674,2.187-6.674,2.187Z" fill="#263238" opacity="0.2" style="mix-blend-mode: normal;isolation: isolate"/>
        <path id="Tracé_171" data-name="Tracé 171" d="M242.86,131.642a.837.837,0,0,0,1.665.172.813.813,0,0,0,0-.121.837.837,0,0,0-1.665-.172A.813.813,0,0,0,242.86,131.642Z" fill="#263238"/>
        <path id="Tracé_172" data-name="Tracé 172" d="M243.733,128.428l1.848.94a1.089,1.089,0,0,0-.472-1.433,1.027,1.027,0,0,0-1.37.481Z" fill="#263238"/>
        <path id="Tracé_173" data-name="Tracé 173" d="M243.47,136.488l-2.983,1.027a1.541,1.541,0,0,0,1.912,1.044l.055-.017A1.653,1.653,0,0,0,243.47,136.488Z" fill="#b16668"/>
        <path id="Tracé_174" data-name="Tracé 174" d="M243.492,137.4a1.237,1.237,0,0,0-1.874,1.068.713.713,0,0,0,0,.113,1.546,1.546,0,0,0,.826-.036A1.63,1.63,0,0,0,243.492,137.4Z" fill="#f28f8f"/>
        <path id="Tracé_175" data-name="Tracé 175" d="M235.745,128.952l1.658-1.171a.982.982,0,0,0-1.363-.258l-.023.017A1.027,1.027,0,0,0,235.745,128.952Z" fill="#263238"/>
        <path id="Tracé_176" data-name="Tracé 176" d="M236.109,131.385a.832.832,0,1,0,.857-.837.843.843,0,0,0-.857.827Z" fill="#263238"/>
        <path id="Tracé_177" data-name="Tracé 177" d="M240.216,130.785l-.252,5.139-2.1-.524a.634.634,0,0,1-.355-.994Z" fill="#263238" opacity="0.2" style="mix-blend-mode: normal;isolation: isolate"/>
        <path id="Tracé_178" data-name="Tracé 178" d="M253.67,145.38a20.138,20.138,0,0,0-4.785,12.712c-.826,20.735,12.378,25.864,12.378,25.864a65.274,65.274,0,0,0-.395-6.833s-7.5-6.813-7.1-17.424c.282-7.552,3.7-12.168,5.585-12.758A13.118,13.118,0,0,0,253.67,145.38Z" fill="#fe703a"/>
        <path id="Tracé_179" data-name="Tracé 179" d="M253.67,145.38a20.138,20.138,0,0,0-4.785,12.712c-.826,20.735,12.378,25.864,12.378,25.864a65.274,65.274,0,0,0-.395-6.833s-7.5-6.813-7.1-17.424c.282-7.552,3.7-12.168,5.585-12.758A13.118,13.118,0,0,0,253.67,145.38Z" opacity="0.4" style="mix-blend-mode: normal;isolation: isolate"/>
        <path id="Tracé_180" data-name="Tracé 180" d="M266.04,183.777c-1.8-.4-3.815-1.761-6.31-4.082a73.225,73.225,0,0,1-7.269-7.613c-.4-.468-1.618-1.792-2.054-2.213a17.116,17.116,0,0,1-2.182-2.644,7.689,7.689,0,0,1-1.54-5.93c.3-3.08.441-5.211,1.407-6.54a1.691,1.691,0,0,1,1.288-.452c-.149.554-.19,1.16-.292,1.709a4.1,4.1,0,0,0,1.257,2.716c1.268,1.463,2.2,2.321,2.347,2.008s-.308-1.279-.17-2.85.56-2.14,1.027-2.264c.76-.2.76.627,1.093,1.874.4,1.494,1.027,2.3,1.145,4.513.088,1.93,0,2.711.9,3.814a33.2,33.2,0,0,0,3.157,2.526s-1.155-3.552-2.3-7.1c-2.238-6.946-1.36-13.158,1.381-14.221,3.918.175,6.325,1.741,8.122,7.4,1.915,6.028,2.567,8.584,4.138,20.4C272.344,183.6,269.038,184.444,266.04,183.777Z" fill="#aa4b0b"/>
        <path id="Tracé_181" data-name="Tracé 181" d="M259.838,168.349c2.485,1.812,7.911,4.41,8.635,7.331,0,0-.118-2.325-3.4-5.082a41.072,41.072,0,0,0-5.863-4.179Z" fill="#263238" opacity="0.2" style="mix-blend-mode: normal;isolation: isolate"/>
        <path id="Tracé_182" data-name="Tracé 182" d="M258.924,147.033a6.816,6.816,0,0,1,5.6,1.91c1.977,1.756,2.983,5.221,3.948,8.322S271,168.56,271,168.56a28.866,28.866,0,0,1-8.3,1.622s-2.213-1.4-3.3-2.172c0,0-2.234-7.141-2.875-8.958S255.007,148.353,258.924,147.033Z" fill="#ebebeb"/>
      </g>
    </g>
    <g id="freepik--character-1--inject-42">
      <g id="freepik--character--inject-42-2">
        <path id="Tracé_183" data-name="Tracé 183" d="M176.27,226.27l-5.709,21.778s-2.357,1.386-4.39,0a2.87,2.87,0,0,1-1.514-2.367l.1-1.176,1.674-19Z" fill="#b16668"/>
        <path id="Tracé_184" data-name="Tracé 184" d="M170.981,184.063c3.337,11.628,8.989,31.4,7.392,37.554-1.2,4.621-4.24,13.523-4.24,13.523-2.018.282-7.639,1.227-9.241-2.3-.406-5.724-2.454-37.144-2.454-37.144Z" fill="#37474f"/>
        <path id="Tracé_185" data-name="Tracé 185" d="M162.433,195.692a60.269,60.269,0,0,0,5.909-6.443s-.426,2.752-4.225,6.551c0,0,6.366,24.525,6.33,28.437s-2.677,25.31-2.677,25.31Z" opacity="0.25" style="mix-blend-mode: normal;isolation: isolate"/>
        <path id="Tracé_186" data-name="Tracé 186" d="M164.348,256.6l4.287-1.206,1.941-2.475-5.437,1.612Z"/>
        <path id="Tracé_187" data-name="Tracé 187" d="M178.37,262.854l-5.986-4.179-4.733-4.718-2.213-.216.467-1.242-3.135-2.567a15.565,15.565,0,0,0-.626,4.174,4.824,4.824,0,0,0,2.2,2.52l.359-.919c.133,1.258-.046,4.108,1.2,6.1,1.35,2.181,3.892,2.726,5.94,3.152a11.822,11.822,0,0,0,5.771-.324A1.814,1.814,0,0,0,178.37,262.854Z" fill="#263238"/>
        <path id="Tracé_188" data-name="Tracé 188" d="M170.909,246.692l.246-.949c.714.041.652,1.453.7,1.863.16,1.171.278,2.346.457,3.517a21.954,21.954,0,0,0,.9,3.82,11.27,11.27,0,0,0,1.627,2.952,7.017,7.017,0,0,0,2.567,2.187,1.846,1.846,0,0,1,.986,1.175,2.565,2.565,0,0,1-.385,2.192,4.288,4.288,0,0,1-2.675.919,13.344,13.344,0,0,1-3.08-.133,10.434,10.434,0,0,1-4.8-1.776c-1.376-.981-1.679-2.927-1.9-4.5a15.185,15.185,0,0,0-.6-3.973c-.529-1.2-2.054-2.778-2.193-4.077a6.161,6.161,0,0,1,.683-3.178c.544-1.057.945-2.4,1.3-2.212l-.061.77a3.313,3.313,0,0,0,2.567,2.028C168.3,247.575,170.257,247.563,170.909,246.692Z" fill="#37474f"/>
        <path id="Tracé_189" data-name="Tracé 189" d="M177.388,259.856a11.421,11.421,0,0,1-2.531-1.961,7.735,7.735,0,0,0-4.22.652c-3,1.432-3.83,3.444-3.178,3.912a10.441,10.441,0,0,0,4.805,1.776,13.343,13.343,0,0,0,3.08.133,4.288,4.288,0,0,0,2.675-.919,2.565,2.565,0,0,0,.385-2.192A2.36,2.36,0,0,0,177.388,259.856Z" fill="#455a64"/>
        <path id="Tracé_190" data-name="Tracé 190" d="M168.07,233.663c.056,1.437-.514,23.472-.488,24.129a16.638,16.638,0,0,0,.642,3.162,8.108,8.108,0,0,0,.513,1.382c.216.513.637,1.2.39,1.7a1.947,1.947,0,0,1-.482.6,4.557,4.557,0,0,1-3.209,1.089,3.358,3.358,0,0,1-1.745-.514c-1.027-.672-1.433-1.9-1.987-2.941-.6-1.125-.252-1.72-.349-2.947-.108-1.371-3.255-22.03-3.548-23.375C160,233.426,165.287,232.944,168.07,233.663Z" fill="#b16668"/>
        <path id="Tracé_191" data-name="Tracé 191" d="M170.981,184.063c-2.721,5.647-3.794,7.9-8.548,11.633,0,0,5.816,24.171,6.073,28.858a135.261,135.261,0,0,1-.606,18.816c-.9,1.175-6.617,1.838-8.907.1-.565-2.829-1.325-7.233-1.705-10.2a24.96,24.96,0,0,1,.175-8.943c-3.08-7.86-10-19.334-12.532-27.549a21.1,21.1,0,0,1-.78-4.338c-.565-5.211,1.566-9.2,2.818-11.977l24.012,3.594" fill="#37474f"/>
        <path id="Tracé_192" data-name="Tracé 192" d="M162.52,269.663l1.828-.791-1.828-.1Z"/>
        <path id="Tracé_193" data-name="Tracé 193" d="M160.009,264.61a10.781,10.781,0,0,0,.134,2.864,7.252,7.252,0,0,0,2.377,2.193v-.889s.611,1.191,1.227,2.352a7.108,7.108,0,0,0,4.343,4.312,10.605,10.605,0,0,0,7.357.729,4.564,4.564,0,0,0,2.449-1.417s.477-1.673-.57-2.2S160.009,264.61,160.009,264.61Z" fill="#263238"/>
        <path id="Tracé_194" data-name="Tracé 194" d="M168.342,258.68a3.953,3.953,0,0,0,.221,1.16c.215.56.467,1.119.708,1.674a18.2,18.2,0,0,0,2.151,3.773c3.424,4.493,7,4.688,6.6,8.3-.159,1.027-2.177,2.372-6.6,2.13-2.259-.123-5.544-1.935-6.438-3.434s-1.222-2.773-1.951-3.876-2.649-2.531-3.013-3.784a7.814,7.814,0,0,1,.123-3.08,15.638,15.638,0,0,0,.062-2.331,11.275,11.275,0,0,1-.129-2.156.932.932,0,0,1,.9-.462l.1.729c.441.667,1.432.554,1.673.9.308.436.144,1.165.6,1.437.513-.287.313-1.227.821-1.54a1.4,1.4,0,0,1,.873-.072,3.08,3.08,0,0,0,2.259-.765c.2-.179.447-.4.683-.287s.246.339.267.554A8.9,8.9,0,0,1,168.342,258.68Z" fill="#37474f"/>
        <path id="Tracé_195" data-name="Tracé 195" d="M178.009,273.573c.246-2.253-1.053-3.172-2.9-4.62-5.216-.426-6.884,1.745-8.625,4.826a10.515,10.515,0,0,0,4.924,1.946C175.832,275.945,177.85,274.585,178.009,273.573Z" fill="#455a64"/>
        <path id="Tracé_196" data-name="Tracé 196" d="M163.721,148.774c3.332-.39,4.9,1.026,8.3,5.488s10.355,12.752,10.355,12.752l-6.233,5.678L163.28,158.831Z" fill="#fe703a"/>
        <path id="Tracé_197" data-name="Tracé 197" d="M163.688,148.707c3.332-.39,4.9,1.027,8.3,5.488s10.355,12.753,10.355,12.753l-6.232,5.678-12.865-13.863Z" opacity="0.15" style="mix-blend-mode: normal;isolation: isolate"/>
        <path id="Tracé_198" data-name="Tracé 198" d="M159.681,137.963l-2.244,7.583c-6.237,0-10.093-6.074-10.093-12.322h0c0-6.268,3.989-11.5,10.268-11.5h2.058c6.264,0,11.346,4.164,11.346,10.427h0C170.981,136.263,165.924,137.963,159.681,137.963Z" fill="#263238"/>
        <path id="Tracé_199" data-name="Tracé 199" d="M140.952,149.056h2.018A5.03,5.03,0,0,0,148,144.025h0l.293-15.351h-2.3a5.037,5.037,0,0,0-5.037,5.032Z" fill="#263238"/>
        <path id="Tracé_200" data-name="Tracé 200" d="M172.151,126.38a4.542,4.542,0,0,0,.662-2.608,3.02,3.02,0,0,0-1.3-2.3,3.446,3.446,0,0,0-3.865.467,3.153,3.153,0,0,0-3.379-2.813,6.983,6.983,0,0,0-2.859,1.175,14.909,14.909,0,0,1-4.857,1.5l1.9.755a3.08,3.08,0,0,0-.329,2.726,2.616,2.616,0,0,0,.3.514,12.811,12.811,0,0,0,11.68,5.647,3.674,3.674,0,0,0,1.812-.514,2.817,2.817,0,0,0,.8-.852,3.232,3.232,0,0,0,.559-2.023A2.076,2.076,0,0,0,172.151,126.38Z" fill="#263238"/>
        <path id="Tracé_201" data-name="Tracé 201" d="M154.809,148.6l-5.36.514c-2.711.667-2.67,1.791-2.947,4.2-.128,1.119-1.335,4.764-.385,8.5.863,3.388,3.681,11.017,3.681,11.017s-2.967,7.454-4.374,11.243c9.647,6.294,21.562,3.81,25.557,0-.339-3.594-1.612-6.951-1.9-10.165,0,0,.211-5.016.606-7.187,3.054-3.327,2.664-6.515,1.294-9.087-2.531-4.744-6.346-8.913-7.578-8.908Z" fill="#f0f0f0"/>
        <path id="Tracé_202" data-name="Tracé 202" d="M160.564,187.827a20.442,20.442,0,0,1-5.216-1.437,8.209,8.209,0,0,1-3.563-5.134c-.621-2.079.878-4.266,1.1-6.4.179-1.725-.55-3.08-1.027-4.677s-.95-3.342-1.361-5.031a28.606,28.606,0,0,1-.734-3.286,8.256,8.256,0,0,1-.061-1.633c.025-.359.349-1.057.287-1.375l-1.1-5.648-2.567.976a16.41,16.41,0,0,0-.225,7.644c.862,3.388,3.681,11.017,3.681,11.017s-2.968,7.455-4.374,11.244A24.331,24.331,0,0,0,160.564,187.827Z" fill="#e0e0e0"/>
        <path id="Tracé_203" data-name="Tracé 203" d="M143.216,177.677c1.484-5.472,5.062-14.734,5.062-14.734a23.369,23.369,0,0,0,1.171-13.861c-4.62.267-6.422,1.026-8.728,7.187-1.745,4.687-5.067,15.884-6.545,20.926a3.8,3.8,0,0,0,1.437,4.163" fill="#b16668"/>
        <path id="Tracé_204" data-name="Tracé 204" d="M160.22,186.225a.511.511,0,0,1,.144-.3c.708-.832,3.28-1.32,3.439-1.746s-1-1.314-3.162-.975-2.567,1.026-5.334.872c-1.792-.113-9.072-4.415-11.726-7.228l-7.952,4.548a119.906,119.906,0,0,0,13.887,8.025,29.74,29.74,0,0,0,8.815,3.3" fill="#b16668"/>
        <path id="Tracé_205" data-name="Tracé 205" d="M150.481,149.056c-3.4-.046-5.488.036-7.424,2.136s-2.336,3.835-4.035,8.727-3.594,13.128-3.594,13.128,2.413,2.936,8.507,2.2l5.791-15.206A27.779,27.779,0,0,0,150.481,149.056Z" fill="#fe703a"/>
        <path id="Tracé_206" data-name="Tracé 206" d="M150.448,148.989c-3.4-.046-5.489.036-7.424,2.136s-2.336,3.835-4.035,8.728S135.4,172.98,135.4,172.98s2.413,2.937,8.507,2.2l5.791-15.207A27.772,27.772,0,0,0,150.448,148.989Z" opacity="0.15" style="mix-blend-mode: normal;isolation: isolate"/>
        <path id="Tracé_207" data-name="Tracé 207" d="M164.6,127.483c2.855.293,5.242,3.327,5.083,10.212-.139,5.837-2.054,7.28-2.978,7.7a9.227,9.227,0,0,1-4.564.179v3.173s2.054,4.518,1.181,6.13a25.429,25.429,0,0,1-8.512-6.289V141.4a2.306,2.306,0,0,1-3.168.118c-1.966-1.3-2.053-4.538-.9-5.7s3.593-.791,4.066.811c0,0,1.715-.046,4.862-2.285A12.418,12.418,0,0,0,164.6,127.483Z" fill="#b16668"/>
        <path id="Tracé_208" data-name="Tracé 208" d="M161.755,135.456a.775.775,0,1,1-.816-.77.793.793,0,0,1,.816.765Z" fill="#263238"/>
        <path id="Tracé_209" data-name="Tracé 209" d="M162.576,140.924l2.316.739a1.2,1.2,0,0,1-1.47.838l-.04-.011A1.264,1.264,0,0,1,162.576,140.924Z" fill="#9a4a4d"/>
        <path id="Tracé_210" data-name="Tracé 210" d="M168.64,133.663l-1.571-1.094a.919.919,0,0,1,1.266-.292l.038.025A1.029,1.029,0,0,1,168.64,133.663Z" fill="#263238"/>
        <path id="Tracé_211" data-name="Tracé 211" d="M168.059,135.307a.785.785,0,0,1-.724.842h-.01a.806.806,0,1,1,.732-.874h0Z" fill="#263238"/>
        <path id="Tracé_212" data-name="Tracé 212" d="M164.137,134.863l.123,4.677,2.464-.76Z" fill="#9a4a4d"/>
        <path id="Tracé_213" data-name="Tracé 213" d="M162.14,145.57c-1.874-.246-5.735-1.674-6.34-3.2a3.952,3.952,0,0,0,1.355,1.951c1.155.985,4.985,2.1,4.985,2.1Z" fill="#9a4a4d"/>
        <path id="Tracé_214" data-name="Tracé 214" d="M163.249,162.794l12.08,2.819,7.757-6.777,9.985,2.5,7.439-7.075-13.076,33.252-4.348,3.784-7.942-.344-7.511,6.114-8.533-1.884Z" fill="#14a08c"/>
        <path id="Tracé_215" data-name="Tracé 215" d="M163.249,162.794l12.08,2.819,7.757-6.777,9.985,2.5,7.439-7.075-13.076,33.252-4.348,3.784-7.942-.344-7.511,6.114-8.533-1.884Z" fill="#fff" opacity="0.6" style="mix-blend-mode: normal;isolation: isolate"/>
        <path id="Tracé_216" data-name="Tracé 216" d="M183.086,158.836l-7.942,32.118-7.511,6.114,7.7-31.455Z" opacity="0.1" style="mix-blend-mode: normal;isolation: isolate"/>
        <path id="Tracé_217" data-name="Tracé 217" d="M193.07,161.336l7.439-7.075-13.076,33.252-4.348,3.784Z" opacity="0.1" style="mix-blend-mode: normal;isolation: isolate"/>
        <path id="Tracé_218" data-name="Tracé 218" d="M168.065,195.549h-.057l-7.131-1.489a.261.261,0,0,1-.205-.288l3.912-28.78a.249.249,0,0,1,.113-.175.241.241,0,0,1,.2-.036l9.908,2.408,7.558-6.315a.244.244,0,0,1,.22-.051l9.785,2.12,5.35-4.477a.262.262,0,0,1,.313,0,.258.258,0,0,1,.087.3l-11.089,28.422a.257.257,0,0,1-.066.1l-3.25,2.824a.247.247,0,0,1-.185.061l-7.932-.462-7.377,5.8A.269.269,0,0,1,168.065,195.549Zm-6.849-1.951L168,195.015l7.362-5.781a.311.311,0,0,1,.174-.057l7.927.462,3.121-2.71,10.7-27.431-4.671,3.918a.252.252,0,0,1-.221.051l-9.79-2.12-7.583,6.314a.268.268,0,0,1-.221.057l-9.754-2.377Z" fill="#fafafa"/>
        <path id="Tracé_219" data-name="Tracé 219" d="M169.261,188.3c-.339-1.145-1.961-.026-4.795-.421-2.48-.339-4.308-.966-4.246-1.674l-1.889,6.494a15.133,15.133,0,0,0,2.567.231C165.831,192.971,169.6,189.455,169.261,188.3Z" fill="#b16668"/>
        <path id="Tracé_220" data-name="Tracé 220" d="M192.148,175.526c-1.243.991-2.516.514-3.158,2.09s-.467,4,.858,3.763a3.581,3.581,0,0,0,2.859-1.894,5.318,5.318,0,0,0,.1-5.648Z" fill="#b16668"/>
      </g>
    </g>
  </g>
</svg>
